<svg id="Layer_1" data-name="Layer 1" xmlns="http://www.w3.org/2000/svg" width="190" height="112" viewBox="0 0 190 112">
  <defs>
    <linearGradient id="linear-gradient" x1="95.21" y1="107.52" x2="95.21" y2="4.48" gradientTransform="matrix(1, 0, 0, 1, 0, 0)" gradientUnits="userSpaceOnUse">
      <stop offset="0" stop-color="#30c8c9"/>
      <stop offset="1" stop-color="#9ef9e0"/>
    </linearGradient>
    <style>
      .cls-1{fill:none;stroke-linecap:round;stroke:#0f6a80;stroke-linejoin:round;stroke-width:2px}
    </style>
  </defs>
  <path d="M173.56 67.08c-.74 0-1.46.08-2.16.19-.02-5.43-3.92-9.93-9.08-10.9.63-2.07.98-4.26.98-6.54 0-12.31-9.98-22.28-22.28-22.28-.99 0-1.97.07-2.93.2-5.45-13.64-18.77-23.27-34.35-23.27-13.36 0-25.07 7.09-31.57 17.71-2.76-.8-5.67-1.24-8.68-1.24-13.82 0-25.52 9.03-29.55 21.51-5.27 0-9.55 4.27-9.55 9.55 0 .93.14 1.83.39 2.68-11.79 1.51-20.9 11.58-20.9 23.78 0 13.24 10.74 23.98 23.98 23.98 5.12 0 9.87-1.61 13.76-4.35 1.88 1.8 4.43 2.91 7.23 2.91 2.97 0 5.65-1.24 7.55-3.23 5.39 5.98 13.19 9.75 21.87 9.75 8.06 0 15.37-3.25 20.68-8.5 2.71 2.85 6.52 4.64 10.76 4.64 5.62 0 10.5-3.12 13.02-7.72 3.04 1.38 6.41 2.15 9.96 2.15 6.43 0 12.26-2.52 16.59-6.61 2 2.99 5.4 4.96 9.27 4.96s7.13-1.9 9.14-4.79c1.76.89 3.74 1.4 5.85 1.4 7.18 0 12.99-5.82 12.99-12.99s-5.82-12.99-12.99-12.99Z" style="fill:url(#linear-gradient);stroke:#0f6a80;stroke-linejoin:round;stroke-width:2px"/>
  <path class="cls-1" d="M103.76 92.81c-5.09 8.79-14.6 14.71-25.49 14.71-12.81 0-23.71-8.19-27.75-19.61M68.12 31.46c4.36-15.57 18.66-26.98 35.62-26.98 20.43 0 36.99 16.56 36.99 36.99M156.3 78.81c-2.25 11-11.98 19.27-23.64 19.27"/>
</svg>
