<svg id="Layer_1" data-name="Layer 1" xmlns="http://www.w3.org/2000/svg" width="890" height="97" viewBox="0 0 890 97">
  <defs>
    <style>
      .cls-1,.cls-2{opacity:.1}.cls-1,.cls-3{fill:#fff}
    </style>
  </defs>
  <path class="cls-1" d="M10.91 50.39a9.343 9.343 0 0 0 13.2 0l13.36-13.36v45.25c0 5.15 4.18 9.33 9.33 9.33s9.33-4.18 9.33-9.33V37.03l13.36 13.36c3.65 3.64 9.55 3.65 13.2 0s3.64-9.55 0-13.2L53.63 8.12a9.305 9.305 0 0 0-6.6-2.73c-.07 0-.15 0-.22.01-.07 0-.15-.01-.22-.01-2.39 0-4.78.91-6.6 2.73L10.91 37.19c-3.64 3.64-3.64 9.55 0 13.2ZM98.99 50.39a9.343 9.343 0 0 0 13.2 0l13.36-13.36v45.25c0 5.15 4.18 9.33 9.33 9.33s9.33-4.18 9.33-9.33V37.03l13.36 13.36c3.65 3.64 9.55 3.65 13.2 0 3.64-3.64 3.64-9.55 0-13.2L141.7 8.11a9.305 9.305 0 0 0-6.6-2.73c-.07 0-.15 0-.22.01-.07 0-.15-.01-.22-.01-2.39 0-4.78.91-6.6 2.73L98.99 37.19c-3.64 3.64-3.64 9.55 0 13.2ZM346.94 46.61a9.343 9.343 0 0 0-13.2 0l-13.36 13.36V14.72c0-5.15-4.18-9.33-9.33-9.33s-9.33 4.18-9.33 9.33v45.25l-13.36-13.36c-3.65-3.64-9.55-3.65-13.2 0s-3.64 9.55 0 13.2l29.07 29.08a9.305 9.305 0 0 0 6.6 2.73c.07 0 .15 0 .22-.01.07 0 .15.01.22.01 2.39 0 4.78-.91 6.6-2.73l29.07-29.08c3.64-3.64 3.64-9.55 0-13.2ZM258.86 46.61a9.343 9.343 0 0 0-13.2 0L232.3 59.97V14.72c0-5.15-4.18-9.33-9.33-9.33s-9.33 4.18-9.33 9.33v45.25l-13.36-13.36c-3.65-3.64-9.55-3.65-13.2 0-3.64 3.64-3.64 9.55 0 13.2l29.07 29.08a9.305 9.305 0 0 0 6.6 2.73c.07 0 .15 0 .22-.01.07 0 .15.01.22.01 2.39 0 4.78-.91 6.6-2.73l29.07-29.08c3.64-3.64 3.64-9.55 0-13.2ZM485.32 12.6a9.343 9.343 0 0 0 0 13.2l13.36 13.36h-43.29c-5.15 0-9.33 4.18-9.33 9.33s4.18 9.33 9.33 9.33h43.29l-13.36 13.36c-3.64 3.65-3.65 9.55 0 13.2s9.55 3.64 13.2 0l29.08-29.07a9.305 9.305 0 0 0 2.73-6.6c0-.07 0-.15-.01-.22 0-.07.01-.15.01-.22 0-2.39-.91-4.78-2.73-6.6L498.52 12.6c-3.64-3.64-9.55-3.64-13.2 0ZM401.02 84.4a9.343 9.343 0 0 0 0-13.2l-13.36-13.36h43.29c5.15 0 9.33-4.18 9.33-9.33s-4.18-9.33-9.33-9.33h-43.29l13.36-13.36c3.64-3.65 3.65-9.55 0-13.2-3.64-3.64-9.55-3.64-13.2 0l-29.08 29.07a9.305 9.305 0 0 0-2.73 6.6c0 .07 0 .15.01.22 0 .07-.01.15-.01.22 0 2.39.91 4.78 2.73 6.6l29.08 29.07c3.64 3.64 9.55 3.64 13.2 0ZM665.41 12.6a9.343 9.343 0 0 0 0 13.2l13.36 13.36h-43.29c-5.15 0-9.33 4.18-9.33 9.33s4.18 9.33 9.33 9.33h43.29l-13.36 13.36c-3.64 3.65-3.65 9.55 0 13.2 3.64 3.64 9.55 3.64 13.2 0l29.08-29.07a9.305 9.305 0 0 0 2.73-6.6c0-.07 0-.15-.01-.22 0-.07.01-.15.01-.22 0-2.39-.91-4.78-2.73-6.6L678.61 12.6c-3.64-3.64-9.55-3.64-13.2 0ZM581.11 84.4a9.343 9.343 0 0 0 0-13.2l-13.36-13.36h43.29c5.15 0 9.33-4.18 9.33-9.33s-4.18-9.33-9.33-9.33h-43.29l13.36-13.36c3.64-3.65 3.65-9.55 0-13.2-3.64-3.64-9.55-3.64-13.2 0l-29.08 29.07a9.305 9.305 0 0 0-2.73 6.6c0 .07 0 .15.01.22 0 .07-.01.15-.01.22 0 2.39.91 4.78 2.73 6.6l29.08 29.07c3.64 3.64 9.55 3.64 13.2 0Z"/>
  <g class="cls-2">
    <path class="cls-3" d="M764.87 52.06c-1.47-.94-3.67-1.42-6.6-1.42h-8.76v12.13h9.04c5.69 0 8.53-2.05 8.53-6.15 0-2.1-.74-3.62-2.21-4.56Z"/>
    <path class="cls-3" d="M757.49 9.87c-21.33 0-38.63 17.29-38.63 38.63s17.3 38.63 38.63 38.63 38.63-17.29 38.63-38.63-17.3-38.63-38.63-38.63Zm16.34 53.65c-1.19 1.86-2.8 3.23-4.82 4.12-1.27.53-2.72.9-4.36 1.12-1.64.22-3.56.33-5.75.33h-12.69c-1.83 0-3.14-.41-3.92-1.23-.78-.82-1.18-2.13-1.18-3.92V32.72c0-1.83.4-3.15 1.2-3.95.8-.8 2.1-1.2 3.9-1.2h13.46c1.98 0 3.7.12 5.16.37s2.76.72 3.91 1.42c.98.59 1.85 1.33 2.61 2.22.76.9 1.33 1.89 1.73 2.97.4 1.09.59 2.23.59 3.44 0 4.16-2.08 7.2-6.23 9.12 5.46 1.74 8.19 5.12 8.19 10.14 0 2.32-.6 4.41-1.79 6.28Z"/>
    <path class="cls-3" d="M762.08 44.01c1.14-.4 2.02-1.15 2.62-2.27.47-.79.71-1.68.71-2.66 0-2.1-.75-3.49-2.24-4.18-1.49-.69-3.77-1.03-6.83-1.03h-6.83v10.74h7.71c2.1 0 3.72-.2 4.86-.59Z"/>
  </g>
  <g class="cls-2">
    <path class="cls-3" d="M836.78 52.85h12.41l-6.27-17.14-6.14 17.14z"/>
    <path class="cls-3" d="M843.19 9.87c-21.33 0-38.63 17.29-38.63 38.63s17.3 38.63 38.63 38.63 38.63-17.29 38.63-38.63-17.3-38.63-38.63-38.63Zm18.02 58.72c-.8.8-1.77 1.2-2.9 1.2-.66 0-1.23-.12-1.7-.35s-.87-.56-1.19-.96c-.32-.41-.67-1.03-1.03-1.87-.37-.84-.68-1.58-.95-2.22l-1.98-5.21h-16.89l-1.98 5.33c-.78 2.08-1.44 3.48-1.98 4.21-.55.73-1.44 1.09-2.69 1.09-1.06 0-1.99-.39-2.81-1.16-.81-.77-1.22-1.65-1.22-2.63 0-.57.09-1.15.28-1.76.19-.6.5-1.45.93-2.52l10.63-26.97c.3-.77.67-1.7 1.09-2.79s.88-1.99 1.36-2.71c.48-.72 1.11-1.3 1.9-1.74.78-.44 1.75-.67 2.9-.67s2.15.22 2.93.67c.78.44 1.42 1.02 1.9 1.71.48.7.89 1.45 1.22 2.25.33.8.75 1.87 1.26 3.22l10.85 26.8c.85 2.04 1.28 3.52 1.28 4.45s-.4 1.85-1.2 2.65Z"/>
  </g>
</svg>
