<svg id="Layer_1" data-name="Layer 1" xmlns="http://www.w3.org/2000/svg" width="70" height="122" viewBox="0 0 70 122">
  <defs>
    <linearGradient id="linear-gradient" x1="35" y1="1.67" x2="35" y2="107.57" gradientTransform="matrix(1, 0, 0, 1, 0, 0)" gradientUnits="userSpaceOnUse">
      <stop offset="0" stop-color="#183dd1"/>
      <stop offset="1" stop-color="#587ef8"/>
    </linearGradient>
    <style>
      .cls-1,.cls-3{stroke:#193dd1;stroke-miterlimit:10}.cls-1{fill:#183dd1;opacity:.5}.cls-3{fill:#587ef8}
    </style>
  </defs>
  <path style="fill:#193dd1;stroke-linejoin:round;stroke-width:3px;stroke:#193dd1" d="M1.82 14.43h66.37v105.9H1.82z"/>
  <path style="stroke-linejoin:round;stroke-width:3px;fill:url(#linear-gradient);stroke:#183dd1" d="M1.82 1.67h66.37v105.9H1.82z"/>
  <path class="cls-3" d="M22.19 18.4c4.61 0 9.59 5.62 9.59 5.62v3.97c0 5.3-4.29 9.59-9.59 9.59s-9.59-4.29-9.59-9.59v-3.97s5.21-5.62 9.59-5.62Z"/>
  <path class="cls-1" d="M22.19 18.4c4.61 0 9.59 5.62 9.59 5.62v3.97c0 5.3-4.29 9.59-9.59 9.59s-9.59-4.29-9.59-9.59v-3.97s5.21-5.62 9.59-5.62Z"/>
  <path class="cls-3" d="M22.19 14.43c5.3 0 9.59 4.29 9.59 9.59s-4.29 9.59-9.59 9.59-9.59-4.29-9.59-9.59 4.29-9.59 9.59-9.59ZM47.81 18.4c4.61 0 9.59 5.62 9.59 5.62v3.97c0 5.3-4.29 9.59-9.59 9.59s-9.59-4.29-9.59-9.59v-3.97s5.21-5.62 9.59-5.62Z"/>
  <path class="cls-1" d="M47.81 18.4c4.61 0 9.59 5.62 9.59 5.62v3.97c0 5.3-4.29 9.59-9.59 9.59s-9.59-4.29-9.59-9.59v-3.97s5.21-5.62 9.59-5.62Z"/>
  <path class="cls-3" d="M47.81 14.43c5.3 0 9.59 4.29 9.59 9.59s-4.29 9.59-9.59 9.59-9.59-4.29-9.59-9.59 4.29-9.59 9.59-9.59ZM22.19 49.01c4.61 0 9.59 5.62 9.59 5.62v3.97c0 5.3-4.29 9.59-9.59 9.59S12.6 63.9 12.6 58.6v-3.97s5.21-5.62 9.59-5.62Z"/>
  <path class="cls-1" d="M22.19 49.01c4.61 0 9.59 5.62 9.59 5.62v3.97c0 5.3-4.29 9.59-9.59 9.59S12.6 63.9 12.6 58.6v-3.97s5.21-5.62 9.59-5.62Z"/>
  <path class="cls-3" d="M22.19 45.04c5.3 0 9.59 4.29 9.59 9.59s-4.29 9.59-9.59 9.59-9.59-4.29-9.59-9.59 4.29-9.59 9.59-9.59Z"/>
  <g>
    <path class="cls-3" d="M47.81 49.01c4.61 0 9.59 5.62 9.59 5.62v3.97c0 5.3-4.29 9.59-9.59 9.59s-9.59-4.29-9.59-9.59v-3.97s5.21-5.62 9.59-5.62Z"/>
    <path class="cls-1" d="M47.81 49.01c4.61 0 9.59 5.62 9.59 5.62v3.97c0 5.3-4.29 9.59-9.59 9.59s-9.59-4.29-9.59-9.59v-3.97s5.21-5.62 9.59-5.62Z"/>
    <path class="cls-3" d="M47.81 45.04c5.3 0 9.59 4.29 9.59 9.59s-4.29 9.59-9.59 9.59-9.59-4.29-9.59-9.59 4.29-9.59 9.59-9.59Z"/>
  </g>
  <g>
    <path class="cls-3" d="M22.19 79.08c4.61 0 9.59 5.62 9.59 5.62v3.97c0 5.3-4.29 9.59-9.59 9.59s-9.59-4.29-9.59-9.59V84.7s5.21-5.62 9.59-5.62Z"/>
    <path class="cls-1" d="M22.19 79.08c4.61 0 9.59 5.62 9.59 5.62v3.97c0 5.3-4.29 9.59-9.59 9.59s-9.59-4.29-9.59-9.59V84.7s5.21-5.62 9.59-5.62Z"/>
    <path class="cls-3" d="M22.19 75.11c5.3 0 9.59 4.29 9.59 9.59s-4.29 9.59-9.59 9.59S12.6 90 12.6 84.7s4.29-9.59 9.59-9.59Z"/>
  </g>
  <path class="cls-3" d="M47.81 79.08c4.61 0 9.59 5.62 9.59 5.62v3.97c0 5.3-4.29 9.59-9.59 9.59s-9.59-4.29-9.59-9.59V84.7s5.21-5.62 9.59-5.62Z"/>
  <path class="cls-1" d="M47.81 79.08c4.61 0 9.59 5.62 9.59 5.62v3.97c0 5.3-4.29 9.59-9.59 9.59s-9.59-4.29-9.59-9.59V84.7s5.21-5.62 9.59-5.62Z"/>
  <path class="cls-3" d="M47.81 75.11c5.3 0 9.59 4.29 9.59 9.59s-4.29 9.59-9.59 9.59-9.59-4.29-9.59-9.59 4.29-9.59 9.59-9.59Z"/>
</svg>
