<svg id="Layer_1" data-name="Layer 1" xmlns="http://www.w3.org/2000/svg" width="341" height="400" xmlns:xlink="http://www.w3.org/1999/xlink" viewBox="0 0 341 400">
  <defs>
    <linearGradient id="linear-gradient" x1="65.11" y1="310.19" x2="65.11" y2="340.15" gradientTransform="translate(143.54 22.63) rotate(29.56)" gradientUnits="userSpaceOnUse">
      <stop offset="0" stop-color="#183dd1"/>
      <stop offset="1" stop-color="#587ef8"/>
    </linearGradient>
    <linearGradient id="linear-gradient-2" x1="64.57" y1="275.5" x2="64.57" y2="323.35" gradientTransform="translate(143.54 22.63) rotate(29.56)" gradientUnits="userSpaceOnUse">
      <stop offset="0" stop-color="#30c8c9"/>
      <stop offset="1" stop-color="#9ef9e0"/>
    </linearGradient>
    <linearGradient id="linear-gradient-3" x1="64.62" y1="240.12" x2="64.62" y2="288.93" gradientTransform="translate(143.54 22.63) rotate(29.56)" gradientUnits="userSpaceOnUse">
      <stop offset="0" stop-color="#6e2ff4"/>
      <stop offset="1" stop-color="#9973fd"/>
    </linearGradient>
    <linearGradient id="linear-gradient-4" x1="87.23" y1="312.9" x2="87.23" y2="342.86" gradientTransform="translate(68.43 25.7) rotate(15.08)" xlink:href="#linear-gradient"/>
    <linearGradient id="linear-gradient-5" x1="86.69" y1="278.21" x2="86.69" y2="326.06" gradientTransform="translate(68.43 25.7) rotate(15.08)" xlink:href="#linear-gradient-2"/>
    <linearGradient id="linear-gradient-6" x1="86.74" y1="242.82" x2="86.74" y2="291.64" gradientTransform="translate(68.43 25.7) rotate(15.08)" xlink:href="#linear-gradient-3"/>
    <linearGradient id="linear-gradient-7" x1="224.05" y1="314.19" x2="224.05" y2="344.14" gradientTransform="translate(-88.59 108.56) rotate(-18.37)" xlink:href="#linear-gradient"/>
    <linearGradient id="linear-gradient-8" x1="223.52" y1="279.5" x2="223.52" y2="327.35" gradientTransform="translate(-88.59 108.56) rotate(-18.37)" xlink:href="#linear-gradient-2"/>
    <linearGradient id="linear-gradient-9" x1="223.57" y1="244.11" x2="223.57" y2="292.93" gradientTransform="translate(-88.59 108.56) rotate(-18.37)" xlink:href="#linear-gradient-3"/>
    <linearGradient id="linear-gradient-10" x1="294.32" y1="263.58" x2="331.51" y2="261.7" gradientTransform="translate(-22.28 32.83) rotate(-5.31)" xlink:href="#linear-gradient-3"/>
    <linearGradient id="linear-gradient-11" x1="289.27" y1="262.87" x2="322.06" y2="259.73" gradientTransform="translate(-10.83 16.49) rotate(-2.73)" xlink:href="#linear-gradient"/>
    <linearGradient id="linear-gradient-12" x1="302.41" y1="228.92" x2="302.41" y2="334.18" gradientTransform="translate(33.28 -33.35) rotate(6.17)" xlink:href="#linear-gradient"/>
    <linearGradient id="linear-gradient-13" x1="292.17" y1="249.67" x2="334.26" y2="249.67" gradientTransform="translate(-33.79 50.99) rotate(-8.21)" xlink:href="#linear-gradient-2"/>
    <linearGradient id="linear-gradient-14" x1="289.26" y1="270.77" x2="315.82" y2="266.49" gradientTransform="translate(4.91 -4.69) rotate(.95)" gradientUnits="userSpaceOnUse">
      <stop offset="0" stop-color="#30c8c9"/>
      <stop offset="1" stop-color="#9ef9e0"/>
    </linearGradient>
    <linearGradient id="linear-gradient-15" x1="261.75" y1="344.07" x2="261.75" y2="374.02" gradientTransform="translate(-88.59 108.56) rotate(-18.37)" xlink:href="#linear-gradient"/>
    <linearGradient id="linear-gradient-16" x1="261.21" y1="309.38" x2="261.21" y2="357.23" gradientTransform="translate(-88.59 108.56) rotate(-18.37)" xlink:href="#linear-gradient-2"/>
    <linearGradient id="linear-gradient-17" x1="261.26" y1="273.99" x2="261.26" y2="322.81" gradientTransform="translate(-88.59 108.56) rotate(-18.37)" xlink:href="#linear-gradient-3"/>
    <linearGradient id="linear-gradient-18" x1="165.75" y1="257.5" x2="165.75" y2="304.51" gradientTransform="matrix(1, 0, 0, 1, 0, 0)" xlink:href="#linear-gradient"/>
    <linearGradient id="linear-gradient-19" x1="166" y1="219.61" x2="166" y2="269.06" gradientTransform="matrix(1, 0, 0, 1, 0, 0)" xlink:href="#linear-gradient-2"/>
    <linearGradient id="linear-gradient-20" x1="165.44" y1="187.33" x2="165.44" y2="232.97" gradientTransform="matrix(1, 0, 0, 1, 0, 0)" xlink:href="#linear-gradient-3"/>
    <linearGradient id="linear-gradient-21" x1="164.4" y1="149.13" x2="164.4" y2="198.32" gradientTransform="matrix(1, 0, 0, 1, 0, 0)" xlink:href="#linear-gradient"/>
    <linearGradient id="linear-gradient-22" x1="283.51" y1="198.6" x2="283.51" y2="198.65" gradientTransform="matrix(1, 0, 0, 1, 0, 0)" xlink:href="#linear-gradient-3"/>
    <linearGradient id="linear-gradient-23" x1="283.33" y1="198.79" x2="283.33" y2="198.82" gradientTransform="matrix(1, 0, 0, 1, 0, 0)" xlink:href="#linear-gradient-3"/>
    <linearGradient id="linear-gradient-24" x1="283.59" y1="198.35" x2="283.59" y2="198.35" gradientTransform="matrix(1, 0, 0, 1, 0, 0)" xlink:href="#linear-gradient-3"/>
    <linearGradient id="linear-gradient-25" x1="45.29" y1="198.44" x2="45.29" y2="198.53" gradientTransform="matrix(1, 0, 0, 1, 0, 0)" xlink:href="#linear-gradient-3"/>
    <linearGradient id="linear-gradient-26" x1="45.38" y1="198.65" x2="45.38" y2="198.72" gradientTransform="matrix(1, 0, 0, 1, 0, 0)" xlink:href="#linear-gradient-3"/>
    <linearGradient id="linear-gradient-27" x1="45.56" y1="198.81" x2="45.56" y2="198.84" gradientTransform="matrix(1, 0, 0, 1, 0, 0)" xlink:href="#linear-gradient-3"/>
    <linearGradient id="linear-gradient-28" x1="85.58" y1="116.57" x2="85.58" y2="162.66" gradientTransform="matrix(1, 0, 0, 1, 0, 0)" gradientUnits="userSpaceOnUse">
      <stop offset="0" stop-color="#30c8c9"/>
      <stop offset="1" stop-color="#9ef9e0"/>
    </linearGradient>
    <linearGradient id="linear-gradient-29" x1="83.72" y1="79.39" x2="83.72" y2="128.13" gradientTransform="matrix(1, 0, 0, 1, 0, 0)" xlink:href="#linear-gradient-3"/>
    <linearGradient id="linear-gradient-30" x1="140.5" y1="57.22" x2="140.5" y2="57.15" xlink:href="#linear-gradient-28"/>
    <linearGradient id="linear-gradient-31" x1="140.59" y1="57.03" x2="140.59" y2="56.94" xlink:href="#linear-gradient-28"/>
    <linearGradient id="linear-gradient-32" x1="140.32" y1="57.36" x2="140.32" y2="57.32" xlink:href="#linear-gradient-28"/>
    <linearGradient id="linear-gradient-33" x1="117.5" y1="4.93" x2="117.5" y2="56.8" xlink:href="#linear-gradient-28"/>
    <linearGradient id="linear-gradient-34" x1="94.43" y1="57.18" x2="94.43" y2="57.12" xlink:href="#linear-gradient-28"/>
    <linearGradient id="linear-gradient-35" x1="112.65" y1="45.85" x2="112.65" y2="93" gradientTransform="matrix(1, 0, 0, 1, 0, 0)" xlink:href="#linear-gradient"/>
    <linearGradient id="linear-gradient-36" x1="94.35" y1="56.91" x2="94.35" y2="56.88" xlink:href="#linear-gradient-28"/>
    <linearGradient id="linear-gradient-37" x1="94.61" y1="57.35" x2="94.61" y2="57.31" xlink:href="#linear-gradient-28"/>
    <style>
      .cls-1,.cls-14,.cls-4,.cls-6{stroke-linejoin:round}.cls-1{stroke:#0f6a80}.cls-1,.cls-14{stroke-linecap:round}.cls-1,.cls-14,.cls-4,.cls-6{fill:none}.cls-4{stroke:#6e2ff4}.cls-14,.cls-6{stroke:#183dd1}.cls-23{stroke-miterlimit:10;fill:#22262a;stroke:#22262a}.cls-14{stroke-width:3px}
    </style>
  </defs>
  <path class="cls-23" d="M16.12 325.49S3.4 338.57 2.81 341.37c-.59 2.8-4.27 5.99 22.53 21.2s27.44 9.52 28.84 7.75c1.4-1.78 6.81-18.42 6.81-18.42l-44.87-26.41Z"/>
  <path style="fill:url(#linear-gradient);stroke:#183dd1;stroke-linejoin:round" d="m71.11 338.17-48.49-27.51-16.51 25.07 4.89 2.78 6.93-9.36 1.98 1.12-5.14 10.38 7.94 4.5 6.93-9.36 1.98 1.13-5.13 10.37 9.56 5.42 6.92-9.35 1.99 1.12-5.14 10.38 7.94 4.5 6.93-9.36 1.98 1.12-5.14 10.38 7.09 4.02 12.49-27.35z"/>
  <path d="M74.03 335.43h.02c.14-.04.25-.13.32-.26l14.51-26.21c.14-.26.05-.58-.2-.72l-49.76-28.22a.529.529 0 0 0-.71.18l-16.16 25.27c-.08.12-.1.27-.07.42.04.14.13.26.26.34l.48.27-8.96 13.6c-.08.12-.11.27-.07.42.04.14.13.27.26.34l4.89 2.77c.24.13.53.07.69-.15l6.65-8.98 1.13.64-4.91 9.92c-.13.25-.03.56.22.7l7.94 4.5c.24.13.53.07.69-.15l6.65-8.98 1.13.64-4.91 9.92c-.13.25-.03.56.22.7l9.56 5.42c.24.13.53.07.69-.15l6.65-8.98 1.13.64-4.91 9.92c-.13.25-.03.56.22.7l7.94 4.5c.24.13.53.07.69-.15l6.65-8.98 1.13.64-4.91 9.92c-.13.25-.03.56.22.7l7.09 4.02a.539.539 0 0 0 .75-.25l6.84-14.97Z" style="fill:url(#linear-gradient-2)"/>
  <path class="cls-1" d="m73.9 334.92-7.19 15.26-7.09-4.02 5.13-10.37-1.98-1.13-6.93 9.36-7.93-4.5 5.13-10.38-1.98-1.12-6.93 9.36-9.56-5.43 5.14-10.37-1.99-1.13-6.93 9.36-7.93-4.5 5.13-10.37-1.98-1.13-6.93 9.36-4.89-2.78 9.17-14.14"/>
  <path class="cls-1" d="m82.56 319.6-8.66 15.32-3.59-2.04 5.13-10.38-1.98-1.12-6.93 9.36-7.94-4.5 5.14-10.38-1.98-1.12-6.93 9.35-9.56-5.42 5.13-10.37-1.98-1.13-6.93 9.36-7.93-4.5 5.13-10.38-1.98-1.12-6.93 9.36-7.28-4.13 9.4-14.9"/>
  <path d="M106.42 278.67a.53.53 0 0 0-.22-.68L55.23 248.6a.529.529 0 0 0-.71.18l-16.16 25.27c-.08.12-.1.27-.07.42.04.14.13.26.26.34l.96.54-9.3 14.53c-.08.12-.1.27-.07.42.04.14.13.26.26.34l7.28 4.13c.24.13.53.07.69-.15l6.65-8.98 1.13.64-4.91 9.92c-.13.25-.03.56.22.7l7.94 4.5c.24.13.53.07.69-.15l6.65-8.98 1.13.64-4.91 9.92c-.13.25-.03.56.22.7l9.56 5.42c.24.13.53.07.69-.15l6.65-8.98 1.13.64-4.91 9.92c-.13.25-.03.56.22.7l7.94 4.5c.24.13.53.07.69-.15l6.65-8.98 1.13.64-4.91 9.92c-.13.25-.03.56.22.7l5.23 2.96c.26.15.58.06.73-.2l8.51-15.01.77.44a.539.539 0 0 0 .75-.25l12.23-27.02Z" style="fill:url(#linear-gradient-3)"/>
  <path class="cls-4" d="m92.65 304.87-8.96 15.37-5.23-2.96 5.13-10.38-1.98-1.12-6.93 9.35-7.93-4.5 5.13-10.37-1.98-1.13-6.93 9.36-9.56-5.42 5.14-10.38-1.99-1.12-6.93 9.36-7.93-4.5 5.13-10.38-1.98-1.12-6.93 9.35-7.28-4.12 9.47-15.09"/>
  <path class="cls-4" d="m94.16 304.04-.46 1.43-7.09-4.02 5.14-10.38-1.98-1.12-6.93 9.35-7.94-4.5 5.14-10.37-1.99-1.13-6.93 9.36-9.55-5.42 5.13-10.38-1.98-1.12-6.93 9.36-7.94-4.5 5.14-10.38-1.98-1.12-6.93 9.36-7.28-4.13 11.58-18.52"/>
  <path class="cls-23" d="M41.42 359.16s-9.05 15.85-8.92 18.71c.13 2.86-2.64 6.87 27.12 14.89s28.95 2.36 29.86.29c.91-2.07 1.99-19.53 1.99-19.53l-50.05-14.36Z"/>
  <path style="fill:url(#linear-gradient-4);stroke:#183dd1;stroke-linejoin:round" d="m97.83 357.69-53.82-14.51-9.73 28.41 5.43 1.46 4.37-10.79 2.2.59-2.38 11.33 8.81 2.38 4.37-10.8 2.2.6-2.37 11.33 10.61 2.85 4.37-10.79 2.2.59-2.38 11.33 8.81 2.38 4.37-10.79 2.2.59-2.38 11.33 7.87 2.12 5.25-29.61z"/>
  <path d="M99.97 354.32h.02c.12-.08.21-.2.25-.33l7.5-29c.07-.28-.1-.57-.38-.65l-55.23-14.89a.544.544 0 0 0-.65.35l-9.33 28.51a.537.537 0 0 0 .37.68l.53.14-5.28 15.41c-.05.14-.04.29.03.42s.19.23.33.26l5.43 1.46c.26.07.53-.06.63-.32l4.19-10.35 1.26.34-2.28 10.84c-.06.28.11.55.38.63l8.81 2.37c.26.07.53-.06.63-.32l4.19-10.35 1.26.34-2.28 10.84c-.06.28.11.55.38.63l10.61 2.86c.26.07.53-.06.63-.32l4.19-10.35 1.26.34-2.28 10.84c-.06.28.11.55.38.63l8.81 2.37c.26.07.53-.06.63-.32l4.19-10.35 1.26.34-2.28 10.84c-.06.28.11.55.38.63l7.87 2.12c.15.04.3.02.43-.06s.21-.21.24-.36l2.88-16.2Z" style="fill:url(#linear-gradient-5)"/>
  <path class="cls-1" d="m99.72 353.85-3.15 16.58-7.87-2.12 2.38-11.33-2.2-.6-4.37 10.8-8.81-2.38 2.38-11.33-2.2-.59-4.37 10.79-10.61-2.86 2.38-11.33-2.2-.59-4.37 10.79-8.81-2.37 2.38-11.33-2.2-.59-4.37 10.79-5.43-1.46 5.34-15.99"/>
  <path class="cls-1" d="m104.28 336.86-4.56 16.99-3.99-1.08 2.38-11.33-2.2-.59-4.37 10.79-8.81-2.37 2.38-11.33-2.2-.59-4.37 10.79-10.61-2.86 2.38-11.33-2.21-.59-4.37 10.79-8.81-2.37 2.38-11.33-2.2-.6-4.37 10.8-8.08-2.18 5.38-16.77"/>
  <path d="M117.14 291.26a.542.542 0 0 0-.38-.61l-56.7-15.71a.544.544 0 0 0-.65.35l-9.33 28.51a.537.537 0 0 0 .37.68l1.06.29-5.37 16.4a.537.537 0 0 0 .37.68l8.08 2.18c.26.07.53-.06.63-.32l4.19-10.36 1.26.34-2.27 10.84c-.06.28.11.55.38.63l8.81 2.37c.26.07.53-.06.63-.32l4.19-10.36 1.26.34-2.27 10.84c-.06.28.11.55.38.63l10.61 2.86c.26.07.53-.06.63-.32l4.19-10.36 1.26.34-2.27 10.84c-.06.28.11.55.38.63l8.81 2.37c.26.07.53-.06.63-.32l4.19-10.36 1.26.34-2.27 10.84c-.06.28.11.55.38.63l5.8 1.56c.29.08.58-.09.65-.38l4.49-16.66.86.23a.543.543 0 0 0 .67-.43l5.09-29.22Z" style="fill:url(#linear-gradient-6)"/>
  <path class="cls-4" d="m110.36 320.07-4.83 17.12-5.81-1.56 2.38-11.33-2.2-.59-4.37 10.79-8.81-2.38 2.38-11.33-2.2-.59-4.37 10.79-10.61-2.86 2.38-11.32-2.2-.6-4.37 10.8-8.81-2.38 2.38-11.33-2.2-.59-4.37 10.79-8.08-2.18 5.39-16.97"/>
  <path class="cls-4" d="m111.62 318.89-.09 1.49-7.87-2.12 2.38-11.33-2.2-.59-4.37 10.79-8.81-2.37 2.38-11.33-2.2-.59-4.37 10.79-10.61-2.86 2.38-11.33-2.2-.59-4.37 10.79-8.81-2.37 2.38-11.33-2.21-.6-4.37 10.8-8.07-2.18 6.58-20.82"/>
  <path class="cls-23" d="M202.94 359.78s1.19 18.21 2.87 20.53c1.68 2.31 1.59 7.19 30.83-2.52s25.46-13.99 25.08-16.22-9.11-17.4-9.11-17.4l-49.67 15.61Z"/>
  <path style="fill:url(#linear-gradient-7);stroke:#183dd1;stroke-linejoin:round" d="m249.2 327.46-52.9 17.56 7.54 29.06 5.34-1.77-2.31-11.41 2.16-.72 4.27 10.76 8.66-2.87-2.31-11.42 2.16-.72 4.27 10.77 10.42-3.46-2.3-11.42 2.16-.72 4.26 10.77 8.66-2.88-2.3-11.41 2.16-.72 4.26 10.76 7.74-2.56-11.94-27.6z"/>
  <path d="M249.13 323.46h.01c.06-.14.07-.29.03-.42l-9.73-28.33c-.1-.28-.4-.43-.67-.33l-54.29 18.03a.54.54 0 0 0-.35.65l7.93 28.93c.04.14.13.26.26.33s.28.08.42.04l.52-.17 4.09 15.77c.04.14.13.26.26.34.13.07.28.08.42.04l5.34-1.77a.54.54 0 0 0 .36-.61l-2.21-10.95 1.23-.41 4.07 10.3c.1.26.4.4.66.31l8.66-2.88a.54.54 0 0 0 .36-.61l-2.21-10.95 1.23-.41 4.07 10.3c.1.26.4.4.66.31l10.43-3.46a.54.54 0 0 0 .36-.61l-2.21-10.95 1.23-.41 4.07 10.3c.1.26.4.4.66.31l8.66-2.88a.54.54 0 0 0 .36-.61l-2.21-10.95 1.23-.41 4.07 10.3c.1.26.4.4.66.31l7.73-2.57c.14-.05.26-.15.32-.29s.06-.29 0-.43l-6.53-15.11Z" style="fill:url(#linear-gradient-8)"/>
  <path class="cls-1" d="m248.66 323.21 6.51 15.57-7.73 2.57-4.26-10.77-2.17.72 2.31 11.41-8.66 2.88-4.26-10.76-2.17.71 2.31 11.42-10.43 3.46-4.26-10.76-2.17.71 2.31 11.42-8.66 2.87-4.26-10.76-2.17.72 2.31 11.41-5.34 1.77-4.35-16.28"/>
  <path class="cls-1" d="m243.09 306.52 5.57 16.69-3.92 1.3-4.26-10.76-2.17.72 2.31 11.41-8.66 2.88-4.26-10.77-2.17.72 2.31 11.41-10.43 3.47-4.26-10.77-2.16.72 2.3 11.42-8.66 2.87-4.26-10.76-2.16.71 2.3 11.42-7.94 2.64-4.76-16.96"/>
  <path d="M228.69 261.38a.54.54 0 0 0-.65-.3l-55.97 18.14c-.27.09-.42.38-.35.65l7.93 28.93c.04.14.13.26.26.33s.28.08.42.04l1.04-.35 4.56 16.64c.04.14.13.26.26.33s.28.08.42.04l7.94-2.64a.54.54 0 0 0 .36-.61l-2.21-10.95 1.23-.41 4.08 10.3c.1.26.4.4.66.31l8.66-2.88a.54.54 0 0 0 .36-.61l-2.21-10.95 1.23-.41 4.08 10.3c.1.26.4.4.66.31l10.43-3.46a.54.54 0 0 0 .36-.61l-2.21-10.95 1.23-.41 4.08 10.3c.1.26.4.4.66.31l8.66-2.88a.54.54 0 0 0 .36-.61l-2.21-10.95 1.23-.41 4.08 10.3c.1.26.4.4.66.31l5.7-1.89c.28-.09.43-.4.34-.68l-5.44-16.38.84-.28c.14-.05.26-.15.32-.29s.06-.29 0-.43l-11.86-27.18Z" style="fill:url(#linear-gradient-9)"/>
  <path class="cls-4" d="m238.92 289.16 5.4 16.95-5.7 1.9-4.26-10.77-2.16.72 2.3 11.41-8.66 2.88-4.26-10.76-2.16.71 2.3 11.42-10.43 3.46-4.26-10.76-2.16.71 2.3 11.42-8.66 2.87-4.26-10.76-2.16.72 2.3 11.41-7.94 2.64-4.85-17.14"/>
  <path class="cls-4" d="m239.31 287.48.76 1.3-7.74 2.57-4.26-10.77-2.16.72 2.3 11.41-8.66 2.88-4.26-10.76-2.16.71 2.3 11.42-10.43 3.46-4.26-10.76-2.16.71 2.3 11.42-8.66 2.87-4.26-10.76-2.16.72 2.3 11.41-7.94 2.64-5.98-21"/>
  <path d="M288.85 215.23s45.13 94.01 49.85 93.76l-6.87 7.74s-40.13-80.74-42.71-92.26c-2.58-11.52-.27-9.24-.27-9.24Z" style="fill:url(#linear-gradient-10);stroke:#6e2ff4;stroke-linejoin:round"/>
  <path d="M284.49 211.85s40.86 95.95 45.58 95.91l-7.21 7.42s-36.46-82.46-38.53-94.09c-2.06-11.62.15-9.24.15-9.24Z" style="fill:url(#linear-gradient-11);stroke:#183dd1;stroke-linejoin:round"/>
  <path d="M289.51 224.83s25.51 101.11 30.19 101.81l-8.27 6.21s-23.26-87.11-23.49-98.92c-.24-11.8 1.58-9.11 1.58-9.11Z" style="fill:url(#linear-gradient-12);stroke:#183dd1;stroke-linejoin:round"/>
  <path d="M284.67 204.36s49.82 91.61 54.52 91.12l-6.47 8.07s-44.16-78.61-47.32-89.98-.73-9.22-.73-9.22Z" style="fill:url(#linear-gradient-13);stroke-linecap:round;stroke:#0f6a80;stroke-linejoin:round"/>
  <path d="M283.91 216.75s36.22 88.63 39.32 98.64l-7.67 6.94c1.16-13.66-31.08-84.64-32.4-96.37-1.31-11.73.74-9.21.74-9.21Z" style="fill:url(#linear-gradient-14);stroke-linecap:round;stroke:#0f6a80;stroke-linejoin:round"/>
  <path class="cls-23" d="M248.13 376.27s1.19 18.21 2.87 20.53c1.68 2.31 1.59 7.19 30.83-2.52 29.25-9.71 25.46-13.99 25.08-16.22s-9.11-17.4-9.11-17.4l-49.67 15.61Z"/>
  <path style="fill:url(#linear-gradient-15);stroke:#183dd1;stroke-linejoin:round" d="m294.39 343.94-52.9 17.57 7.54 29.06 5.34-1.78-2.31-11.41 2.16-.72 4.27 10.77 8.66-2.88-2.31-11.41 2.16-.72 4.27 10.76 10.42-3.46-2.3-11.42 2.16-.71 4.26 10.76 8.66-2.87-2.3-11.42 2.16-.72 4.26 10.77 7.74-2.57-11.94-27.6z"/>
  <path d="M294.32 339.94h.01c.06-.14.07-.29.03-.42l-9.73-28.33c-.1-.28-.4-.43-.67-.33l-54.29 18.03a.54.54 0 0 0-.35.65l7.93 28.93c.04.14.13.26.26.33s.28.08.42.04l.52-.17 4.09 15.77c.04.14.13.26.26.34.13.07.28.08.42.04l5.34-1.77a.54.54 0 0 0 .36-.61l-2.21-10.95 1.23-.41 4.07 10.3c.1.26.4.4.66.31l8.66-2.88a.54.54 0 0 0 .36-.61l-2.21-10.95 1.23-.41 4.07 10.3c.1.26.4.4.66.31l10.43-3.46a.54.54 0 0 0 .36-.61l-2.21-10.95 1.23-.41 4.07 10.3c.1.26.4.4.66.31l8.66-2.88a.54.54 0 0 0 .36-.61l-2.21-10.95 1.23-.41 4.07 10.3c.1.26.4.4.66.31l7.73-2.57c.14-.05.26-.15.32-.29s.06-.29 0-.43l-6.53-15.11Z" style="fill:url(#linear-gradient-16)"/>
  <path class="cls-1" d="m293.85 339.69 6.51 15.57-7.73 2.57-4.26-10.77-2.17.72 2.31 11.42-8.66 2.87-4.26-10.76-2.17.72 2.31 11.41-10.43 3.46-4.26-10.76-2.17.72 2.31 11.41-8.66 2.88-4.26-10.77-2.17.72 2.31 11.41-5.34 1.78-4.35-16.29"/>
  <path class="cls-1" d="m288.28 323 5.57 16.69-3.92 1.31-4.26-10.77-2.17.72 2.31 11.41-8.66 2.88-4.26-10.76-2.17.71 2.31 11.42-10.43 3.46-4.26-10.76-2.16.71 2.3 11.42-8.66 2.87-4.26-10.76-2.16.72 2.3 11.41-7.94 2.64-4.76-16.96"/>
  <path d="M273.88 277.87a.54.54 0 0 0-.65-.3l-55.97 18.14c-.27.09-.42.38-.35.65l7.93 28.93c.04.14.13.26.26.33s.28.08.42.04l1.04-.35 4.56 16.64c.04.14.13.26.26.33s.28.08.42.04l7.94-2.64a.54.54 0 0 0 .36-.61l-2.21-10.95 1.23-.41 4.08 10.3c.1.26.4.4.66.31l8.66-2.88a.54.54 0 0 0 .36-.61l-2.21-10.95 1.23-.41 4.08 10.3c.1.26.4.4.66.31l10.43-3.46a.54.54 0 0 0 .36-.61l-2.21-10.95 1.23-.41 4.08 10.3c.1.26.4.4.66.31l8.66-2.88a.54.54 0 0 0 .36-.61L278 314.82l1.23-.41 4.08 10.3c.1.26.4.4.66.31l5.7-1.89c.28-.09.43-.4.34-.68l-5.44-16.38.84-.28c.14-.05.26-.15.32-.29s.06-.29 0-.43l-11.86-27.18Z" style="fill:url(#linear-gradient-17)"/>
  <path class="cls-4" d="m284.11 305.64 5.4 16.96-5.7 1.89-4.26-10.77-2.16.72 2.3 11.42-8.66 2.87-4.26-10.76-2.16.72 2.3 11.41-10.43 3.46-4.26-10.76-2.16.72 2.3 11.41-8.66 2.88-4.26-10.77-2.16.72 2.3 11.41-7.94 2.64-4.85-17.13"/>
  <path class="cls-4" d="m284.5 303.97.76 1.29-7.74 2.57-4.26-10.77-2.16.72 2.3 11.42-8.66 2.87-4.26-10.76-2.16.72 2.3 11.41-10.43 3.46-4.26-10.76-2.16.72 2.3 11.41-8.66 2.88-4.26-10.77-2.16.72 2.3 11.41-7.94 2.64-5.98-21"/>
  <path d="M281.69 269.06c-.27 0-.5-.2-.53-.47l-1.43-11.09h-.27l-1.35 11.09a.53.53 0 0 1-.53.47h-8.23c-.28 0-.52-.22-.53-.5l-.62-11.05h-1.3l-1.35 11.09a.53.53 0 0 1-.53.47h-9.12c-.28 0-.52-.22-.53-.5l-.62-11.05h-1.3l-1.35 11.09a.53.53 0 0 1-.53.47h-10.99c-.28 0-.52-.22-.53-.5l-.62-11.05h-1.3l-1.35 11.09a.53.53 0 0 1-.53.47h-9.12c-.28 0-.52-.22-.53-.5l-.62-11.05h-1.3l-1.35 11.09a.53.53 0 0 1-.53.47h-10.68c-.28 0-.52-.22-.53-.5l-.62-11.05h-1.3l-1.35 11.09a.53.53 0 0 1-.53.47h-9.13c-.28 0-.52-.22-.53-.5l-.62-11.05h-1.3l-1.35 11.09a.53.53 0 0 1-.53.47h-10.99c-.28 0-.52-.22-.53-.5l-.62-11.05h-1.3l-1.35 11.09a.53.53 0 0 1-.53.47h-9.13c-.28 0-.52-.22-.53-.5l-.62-11.05h-1.3l-1.35 11.09a.53.53 0 0 1-.53.47h-10.33c-.28 0-.52-.22-.53-.5l-.62-11.05h-1.3l-1.35 11.09a.53.53 0 0 1-.53.47h-9.12c-.28 0-.52-.22-.53-.5l-.62-11.05h-1.3l-1.35 11.09a.53.53 0 0 1-.53.47h-10.99c-.28 0-.52-.22-.53-.5l-.62-11.05H124l-1.35 11.09a.53.53 0 0 1-.53.47H113c-.28 0-.52-.22-.53-.5l-.62-11.05h-1.3l-1.35 11.09a.53.53 0 0 1-.53.47H97.64c-.28 0-.52-.22-.53-.5l-.62-11.05h-1.3l-1.35 11.09a.53.53 0 0 1-.53.47h-9.12c-.28 0-.52-.22-.53-.5l-.62-11.05h-1.3l-1.35 11.09a.53.53 0 0 1-.53.47H68.87c-.28 0-.52-.22-.53-.5l-.62-11.05h-1.3l-1.35 11.09a.53.53 0 0 1-.53.47h-9.12c-.28 0-.52-.22-.53-.5l-.62-11.05h-1.3l-1.35 11.09a.53.53 0 0 1-.53.47h-8.84l1.17 17.29c.02.28.25.5.53.5h.58L42.38 304c-.02.15.03.3.13.42.1.11.25.18.4.18h11.63c.27 0 .5-.2.53-.47l1.35-11.09h1.3l.62 11.05c.02.28.25.5.53.5h9.12c.27 0 .5-.2.53-.47l1.35-11.09h1.3l.62 11.05c.02.28.25.5.53.5h10.99c.27 0 .5-.2.53-.47l1.35-11.09h1.3l.62 11.05c.02.28.25.5.53.5h9.12c.27 0 .5-.2.53-.47l1.35-11.09h1.3l.62 11.05c.02.28.25.5.53.5h11.03c.27 0 .5-.2.53-.47L114 293h1.3l.62 11.05c.02.28.25.5.53.5h9.12c.27 0 .5-.2.53-.47l1.35-11.09h1.3l.62 11.05c.02.28.25.5.53.5h10.99c.27 0 .5-.2.53-.47l1.35-11.09h1.3l.62 11.05c.02.28.25.5.53.5h9.12c.27 0 .5-.2.53-.47l1.35-11.09h1.3l.62 11.05c.02.28.25.5.53.5H169c.27 0 .5-.2.53-.47l1.35-11.09h1.3l.62 11.05c.02.28.25.5.53.5h9.12c.27 0 .5-.2.53-.47l1.35-11.09h1.3l.62 11.05c.02.28.25.5.53.5h10.99c.27 0 .5-.2.53-.47l1.35-11.09h1.3l.62 11.05c.02.28.25.5.53.5h9.12c.27 0 .5-.2.53-.47l1.35-11.09h1.3l.62 11.05c.02.28.25.5.53.5h10.68c.27 0 .5-.2.53-.47l1.35-11.09h1.3l.62 11.05c.02.28.25.5.53.5h9.12c.27 0 .5-.2.53-.47l1.35-11.09h1.3l.62 11.05c.02.28.25.5.53.5H255c.27 0 .5-.2.53-.47l1.35-11.09h2.26l.62 11.05c.02.28.25.5.53.5h9.92c.27 0 .5-.2.53-.47l1.35-11.09h1.3l.62 11.05c.02.28.25.5.53.5l12.07.07c.29 0 .52-.23.53-.52l.52-17.15h1.23c.14 0 .28-.06.38-.16.1-.1.15-.24.15-.39l-.52-17.24h-7.24Z" style="fill:url(#linear-gradient-18)"/>
  <path class="cls-6" d="m287.28 286.32-.64 17.66-12.08-.07-.65-11.56h-2.28l-1.41 11.56h-9.92l-.65-11.56h-3.24L255 303.91h-10.99l-.65-11.56h-2.28l-1.41 11.56h-9.13l-.65-11.56h-2.28l-1.41 11.56h-10.68l-.65-11.56h-2.28l-1.41 11.56h-9.12l-.65-11.56h-2.28l-1.41 11.56h-10.99l-.66-11.56h-2.27l-1.41 11.56h-9.13l-.65-11.56h-2.28l-1.41 11.56h-10.33l-.65-11.56h-2.28l-1.41 11.56h-9.13l-.65-11.56h-2.28l-1.41 11.56h-10.99l-.65-11.56h-2.28l-1.41 11.56h-9.12l-.65-11.56h-2.28l-1.41 11.56h-11.04l-.65-11.56h-2.28l-1.41 11.56h-9.12l-.65-11.56h-2.28l-1.41 11.56H72.16l-.65-11.56h-2.28l-1.41 11.56h-9.13l-.65-11.56h-2.28l-1.41 11.56H42.72l2.21-17.59M288.59 268.89l.33 17.43h-8.55l-1.49-11.56h-1.21l-1.41 11.56h-8.23l-.65-11.56h-2.28l-1.41 11.56h-9.13l-.65-11.56h-2.28l-1.41 11.56h-10.99l-.65-11.56h-2.28l-1.41 11.56h-9.12l-.65-11.56h-2.28l-1.41 11.56h-10.68l-.66-11.56h-2.27l-1.41 11.56h-9.13l-.65-11.56h-2.28l-1.41 11.56h-10.99l-.65-11.56h-2.28l-1.41 11.56h-9.13l-.65-11.56h-2.28l-1.41 11.56h-10.33l-.65-11.56h-2.28l-1.41 11.56h-9.12l-.65-11.56h-2.28l-1.41 11.56h-10.99l-.66-11.56h-2.27l-1.42 11.56h-9.12l-.65-11.56h-2.28l-1.41 11.56H96.18l-.65-11.56h-2.28l-1.41 11.56h-9.13l-.65-11.56h-2.28l-1.41 11.56H67.38l-.65-11.56h-2.28l-1.41 11.56h-9.13l-.65-11.56h-2.28l-1.41 11.56h-5.81l-1.7-17.26"/>
  <path d="M289.45 220.1a.533.533 0 0 0-.53-.49H44.37c-.27 0-.5.2-.53.47l-3.73 29.96c-.02.15.03.3.13.42s.25.18.4.18h.8l-1.54 17.35h10.52l1.35-11.09a.53.53 0 0 1 .53-.47h2.28c.28 0 .52.22.53.5l.62 11.05h8.15l1.35-11.09a.53.53 0 0 1 .53-.47h2.28c.28 0 .52.22.53.5l.62 11.05H79.2l1.35-11.09a.53.53 0 0 1 .53-.47h2.28c.28 0 .52.22.53.5l.62 11.05h8.15l1.35-11.09a.53.53 0 0 1 .53-.47h2.28c.28 0 .52.22.53.5l.62 11.05h10.05l1.35-11.09a.53.53 0 0 1 .53-.47h2.28c.28 0 .52.22.53.5l.62 11.05h8.15l1.35-11.09a.53.53 0 0 1 .53-.47h2.28c.28 0 .52.22.53.5l.62 11.05h10.01l1.35-11.09a.53.53 0 0 1 .53-.47h2.28c.28 0 .52.22.53.5l.62 11.05h8.15l1.35-11.09a.53.53 0 0 1 .53-.47h2.28c.28 0 .52.22.53.5l.62 11.05h9.35l1.35-11.09a.53.53 0 0 1 .53-.47h2.28c.28 0 .52.22.53.5l.62 11.05h8.15l1.35-11.09a.53.53 0 0 1 .53-.47h2.28c.28 0 .52.22.53.5l.62 11.05h10.01l1.35-11.09a.53.53 0 0 1 .53-.47h2.28c.28 0 .52.22.53.5l.62 11.05h8.15l1.35-11.09a.53.53 0 0 1 .53-.47h2.28c.28 0 .52.22.53.5l.62 11.05h9.7l1.35-11.09a.53.53 0 0 1 .53-.47h2.28c.28 0 .52.22.53.5l.62 11.05h8.15l1.35-11.09a.53.53 0 0 1 .53-.47h2.28c.28 0 .52.22.53.5l.62 11.05h10.01l1.35-11.09a.53.53 0 0 1 .53-.47h2.28c.28 0 .52.22.53.5l.62 11.05h8.15l1.35-11.09a.53.53 0 0 1 .53-.47h2.28c.28 0 .52.22.53.5l.62 11.05h7.25l1.35-11.09a.53.53 0 0 1 .53-.47h1.21c.27 0 .5.2.53.47l1.43 11.09h8.08v1.07c.15 0 .28-.06.38-.16.1-.1.16-.24.15-.39l-.54-17.87h1.33c.15 0 .29-.06.39-.17s.15-.26.14-.41l-2.64-29.96Z" style="fill:url(#linear-gradient-19)"/>
  <path style="fill:none;stroke:#0f6a80;stroke-linejoin:round" d="m289.9 250.1.34 18.42h-8.55l-1.49-11.55h-1.21l-1.41 11.55h-8.23l-.65-11.55h-2.28l-1.41 11.55h-9.13l-.65-11.55h-2.28l-1.41 11.55h-10.99l-.65-11.55h-2.28l-1.41 11.55h-9.12l-.66-11.55h-2.27l-1.42 11.55h-10.68l-.65-11.55h-2.28l-1.41 11.55h-9.12l-.65-11.55h-2.28l-1.41 11.55h-10.99l-.65-11.55h-2.28l-1.41 11.55h-9.13l-.65-11.55h-2.28l-1.41 11.55h-10.33l-.65-11.55h-2.28l-1.41 11.55h-9.13l-.65-11.55h-2.28l-1.41 11.55h-10.99l-.65-11.55h-2.28l-1.41 11.55h-9.12l-.65-11.55h-2.28l-1.41 11.55H97.5l-.66-11.55h-2.27l-1.42 11.55h-9.12l-.65-11.55H81.1l-1.41 11.55H68.7l-.65-11.55h-2.28l-1.41 11.55h-9.13l-.65-11.55H52.3l-1.41 11.55H39.58l1.86-17.88"/>
  <path d="M288.83 215.98c0-.07-.03-.13-.06-.19l-.17-.31h.32a.534.534 0 0 0 .5-.72s-4.38-8.98-6.99-15.87h-6.61c-.28 0-.52-.22-.53-.5l-.33-5.93-2.2-.12-.75 6.08a.53.53 0 0 1-.53.47h-9.12c-.28 0-.52-.22-.53-.5l-.62-11.05h-1.3l-1.35 11.09a.53.53 0 0 1-.53.47h-10.99c-.28 0-.52-.22-.53-.5l-.62-11.05h-1.3l-1.35 11.09a.53.53 0 0 1-.53.47h-9.12c-.28 0-.52-.22-.53-.5l-.62-11.05h-1.3l-1.35 11.09a.53.53 0 0 1-.53.47h-10.68c-.28 0-.52-.22-.53-.5l-.62-11.05h-1.3l-1.35 11.09a.53.53 0 0 1-.53.47h-9.13c-.28 0-.52-.22-.53-.5l-.62-11.05h-1.3l-1.35 11.09a.53.53 0 0 1-.53.47H189.8c-.28 0-.52-.22-.53-.5l-.62-11.05h-1.3L186 198.48a.53.53 0 0 1-.53.47h-9.13c-.28 0-.52-.22-.53-.5l-.62-11.05h-1.3l-1.35 11.09a.53.53 0 0 1-.53.47h-10.33c-.28 0-.52-.22-.53-.5l-.62-11.05h-1.3l-1.35 11.09a.53.53 0 0 1-.53.47h-9.12c-.28 0-.52-.22-.53-.5l-.62-11.05h-1.3l-1.35 11.09a.53.53 0 0 1-.53.47h-10.99c-.28 0-.52-.22-.53-.5l-.62-11.05h-1.3l-1.35 11.09a.53.53 0 0 1-.53.47h-9.12c-.28 0-.52-.22-.53-.5l-.62-11.05h-1.3l-1.35 11.09a.53.53 0 0 1-.53.47H104.1c-.28 0-.52-.22-.53-.5l-.62-11.05h-1.3l-1.35 11.09a.53.53 0 0 1-.53.47h-9.12c-.28 0-.52-.22-.53-.5l-.62-11.05h-1.3l-1.35 11.09a.53.53 0 0 1-.53.47H75.33c-.28 0-.52-.22-.53-.5l-.62-11.05h-1.3l-1.35 11.09a.53.53 0 0 1-.53.47h-9.12c-.28 0-.52-.22-.53-.5l-.62-11.05h-1.3l-1.35 11.09a.53.53 0 0 1-.53.47H47l-4.03 15.42c-.04.16 0 .32.09.45s.24.21.4.22l1.13.06-4.28 16.64c-.04.15 0 .32.09.45s.24.21.4.22l10.25.64h.03c.27 0 .5-.2.53-.47l1.35-11.09h1.3l.62 11.05c.02.28.25.5.53.5h9.12c.27 0 .5-.2.53-.47l1.35-11.09h1.3l.62 11.05c.02.28.25.5.53.5h10.99c.27 0 .5-.2.53-.47l1.35-11.09h1.3l.62 11.05c.02.28.25.5.53.5h9.12c.27 0 .5-.2.53-.47l1.35-11.09h1.3l.62 11.05c.02.28.25.5.53.5h11.03c.27 0 .5-.2.53-.47l1.35-11.09h1.3l.62 11.05c.02.28.25.5.53.5h9.12c.27 0 .5-.2.53-.47l1.35-11.09h1.3l.62 11.05c.02.28.25.5.53.5h10.99c.27 0 .5-.2.53-.47l1.35-11.09h1.3l.62 11.05c.02.28.25.5.53.5h9.12c.27 0 .5-.2.53-.47l1.35-11.09h1.3l.62 11.05c.02.28.25.5.53.5h10.33c.27 0 .5-.2.53-.47l1.35-11.09h1.3l.62 11.05c.02.28.25.5.53.5H179c.27 0 .5-.2.53-.47l1.35-11.09h1.3l.62 11.05c.02.28.25.5.53.5h10.99c.27 0 .5-.2.53-.47l1.35-11.09h1.3l.62 11.05c.02.28.25.5.53.5h9.13c.27 0 .5-.2.53-.47l1.35-11.09h1.3l.62 11.05c.02.28.25.5.53.5h10.68c.27 0 .5-.2.53-.47l1.35-11.09h1.3l.62 11.05c.02.28.25.5.53.5h9.12c.27 0 .5-.2.53-.47l1.35-11.09h1.3l.62 11.05c.02.28.25.5.53.5h10.99c.27 0 .5-.2.53-.47l1.35-11.09h1.3l.62 11.05c.02.28.25.5.53.5h9.12c.27 0 .5-.2.53-.47l1.35-11.09h1.3l.62 11.05c.02.28.25.5.53.5h8.23c.27 0 .5-.2.53-.47l1.35-11.09h.27l1.43 11.09c.03.27.26.47.53.47h8.55a.533.533 0 0 0 .53-.6l-1.94-16.4Z" style="fill:url(#linear-gradient-20)"/>
  <path class="cls-1" d="m290.24 232.44 1.32 17.66h-8.55l-1.49-11.56h-1.21l-1.41 11.56h-8.23l-.65-11.56h-2.28l-1.41 11.56h-9.13l-.65-11.56h-2.28l-1.41 11.56h-10.99l-.65-11.56h-2.28l-1.41 11.56h-9.12l-.65-11.56h-2.28l-1.41 11.56h-10.68l-.66-11.56h-2.27l-1.42 11.56h-9.12l-.65-11.56h-2.28l-1.41 11.56h-10.99l-.65-11.56h-2.28l-1.41 11.56h-9.13l-.65-11.56h-2.28l-1.41 11.56h-10.33l-.65-11.56h-2.28l-1.41 11.56h-9.12l-.65-11.56h-2.28l-1.41 11.56h-10.99l-.66-11.56h-2.27l-1.42 11.56h-9.12l-.65-11.56h-2.28l-1.41 11.56H98.82l-.65-11.56h-2.28l-1.41 11.56h-9.13l-.65-11.56h-2.28l-1.41 11.56H70.02l-.65-11.56h-2.28l-1.41 11.56h-9.13l-.65-11.56h-2.28l-1.41 11.56H40.64l2.21-18.16"/>
  <path class="cls-4" d="m288.6 215.47 1.64 16.97h-8.55l-1.49-11.56h-1.21l-1.41 11.56h-8.23l-.65-11.56h-2.28l-1.41 11.56h-9.13l-.65-11.56h-2.28l-1.41 11.56h-10.99l-.65-11.56h-2.28l-1.41 11.56h-9.12l-.66-11.56h-2.27l-1.42 11.56h-10.68l-.65-11.56h-2.28l-1.41 11.56h-9.12l-.65-11.56h-2.28l-1.41 11.56h-10.99l-.65-11.56h-2.28l-1.41 11.56h-9.13l-.65-11.56h-2.28l-1.41 11.56h-10.33l-.65-11.56h-2.28l-1.41 11.56h-9.13l-.65-11.56h-2.28l-1.41 11.56h-10.99l-.65-11.56h-2.28l-1.41 11.56h-9.12l-.65-11.56h-2.28l-1.41 11.56H97.5l-.66-11.56h-2.27l-1.42 11.56h-9.12l-.65-11.56H81.1l-1.41 11.56H68.7l-.65-11.56h-2.28l-1.41 11.56h-9.13l-.65-11.56H52.3l-1.41 11.56-10.25-.64 3.76-16.77M281.9 198.35l7.02 16.59h-7.23l-1.49-11.56h-1.21l-1.41 11.56h-8.23l-.65-11.56h-2.28l-1.41 11.56h-9.13l-.65-11.56h-2.28l-1.41 11.56h-10.99l-.65-11.56h-2.28l-1.41 11.56h-9.12l-.65-11.56h-2.28l-1.42 11.56h-10.68l-.65-11.56h-2.28l-1.41 11.56h-9.12l-.65-11.56h-2.28l-1.41 11.56h-10.99l-.65-11.56h-2.28l-1.41 11.56h-9.13l-.65-11.56h-2.28l-1.41 11.56h-10.33l-.65-11.56h-2.28l-1.41 11.56h-9.13l-.65-11.56h-2.28l-1.41 11.56h-10.99l-.65-11.56h-2.28l-1.41 11.56h-9.12l-.65-11.56h-2.28l-1.41 11.56H97.5l-.66-11.56h-2.27l-1.42 11.56h-9.12l-.65-11.56H81.1l-1.41 11.56H68.7l-.65-11.56h-2.28l-1.41 11.56h-6.99l-.65-11.56h-2.28l-1.41 11.56-9.73-.5 4.23-15.95"/>
  <path d="m46.95 184.73-1.69 13.56v.03c.02-.28.24-.5.53-.5h11.1l1.35-11.09a.53.53 0 0 1 .53-.47h2.28c.28 0 .52.22.53.5l.62 11.05h8.15l1.35-11.09a.53.53 0 0 1 .53-.47h2.28c.28 0 .52.22.53.5l.62 11.05h10.01l1.35-11.09a.53.53 0 0 1 .53-.47h2.28c.28 0 .52.22.53.5l.62 11.05h8.15l1.35-11.09a.53.53 0 0 1 .53-.47h2.28c.28 0 .52.22.53.5l.62 11.05h10.05l1.35-11.09a.53.53 0 0 1 .53-.47h2.28c.28 0 .52.22.53.5l.62 11.05h8.15l1.35-11.09a.53.53 0 0 1 .53-.47h2.28c.28 0 .52.22.53.5l.62 11.05h10.01l1.35-11.09a.53.53 0 0 1 .53-.47h2.28c.28 0 .52.22.53.5l.62 11.05h8.15l1.35-11.09a.53.53 0 0 1 .53-.47h2.28c.28 0 .52.22.53.5l.62 11.05h9.35l1.35-11.09a.53.53 0 0 1 .53-.47h2.28c.28 0 .52.22.53.5l.62 11.05h8.15l1.35-11.09a.53.53 0 0 1 .53-.47h2.28c.28 0 .52.22.53.5l.62 11.05h10.01l1.35-11.09a.53.53 0 0 1 .53-.47h2.28c.28 0 .52.22.53.5l.62 11.05h8.15l1.35-11.09a.53.53 0 0 1 .53-.47h2.28c.28 0 .52.22.53.5l.62 11.05h9.7l1.35-11.09a.53.53 0 0 1 .53-.47h2.28c.28 0 .52.22.53.5l.62 11.05h8.15l1.35-11.09a.53.53 0 0 1 .53-.47h2.28c.28 0 .52.22.53.5l.62 11.05h10.01l1.35-11.09a.53.53 0 0 1 .53-.47h2.28c.28 0 .52.22.53.5l.62 11.05h8.15l.75-6.11c.03-.28.24-.49.56-.47l3.17.17c.27.01.49.23.5.5l.33 5.9h6.73c.21 0 .38.12.47.29v-.02c-2.05-3.54-4.59-7.58-7.96-10.66-.9-.71-2.36-1.76-3.92-2.7l-2.04-1.11c-.59-.28-1.16-.53-1.7-.7-4.35-1.38-9.02-1.21-13.54-1.04-1.14.04-2.28.08-3.4.1l-1.69.03c-50.74.75-81.81.94-85.25.52-3.1-.37-5.89-1.39-8.33-3l.54-.04c.17-.01.32-.1.41-.25s.11-.32.04-.48c-4.2-10.62-10.44-27.13-10.42-29.09 0-.14-.05-.28-.15-.38s-.24-.16-.38-.16H49.1c-.28 0-.51.21-.53.49l-2.24 29.32c-.01.14.04.28.13.39.09.11.22.17.37.18l.77.05-.5 4.05-.14 1.11Z" style="fill:url(#linear-gradient-21)"/>
  <path class="cls-6" d="m47.9 179.06-2.1 19.3h11.57l1.41-11.56h2.28l.65 11.56h9.12l1.41-11.56h2.28l.65 11.56h10.99l1.41-11.56h2.28l.65 11.56h9.12l1.41-11.56h2.28l.65 11.56h11.03l1.41-11.56h2.28l.65 11.56h9.12l1.41-11.56h2.28l.65 11.56h10.99l1.41-11.56h2.28l.65 11.56h9.12l1.41-11.56h2.28l.65 11.56h10.33l1.41-11.56h2.28l.65 11.56h9.13l1.41-11.56h2.28l.65 11.56h10.99l1.41-11.56h2.28l.65 11.56h9.13l1.41-11.56h2.28l.65 11.56h10.68l1.41-11.56h2.28l.65 11.56h9.12l1.41-11.56h2.28l.65 11.56h10.99l1.41-11.56h2.28l.65 11.56h9.12l.81-6.58 3.17.17.36 6.4h7.24s-3.56-9.45-9.74-12.55c-6.18-3.1-10.38-3.83-16.12-4.01-7.94-.24-50.27.76-50.27.76s-39.67 1.07-45.19-.42c-5.52-1.49-6.9-3.07-6.9-3.07"/>
  <path d="M283.53 198.6s-.02.04-.04.05c0-.01.02-.02.03-.03v-.02Z" style="fill:url(#linear-gradient-22)"/>
  <path d="M283.36 198.79s-.04.03-.06.04a.21.21 0 0 0 .06-.04Z" style="fill:url(#linear-gradient-23)"/>
  <path d="M283.59 198.35Z" style="fill:url(#linear-gradient-24)"/>
  <path d="M45.28 198.44s0 .06.02.09c-.01-.03-.01-.06-.02-.09Z" style="fill:url(#linear-gradient-25)"/>
  <path d="M45.41 198.72s-.03-.04-.05-.07l.03.06h.01Z" style="fill:url(#linear-gradient-26)"/>
  <path d="M45.53 198.81s.03.02.05.03c-.02 0-.03-.02-.05-.03Z" style="fill:url(#linear-gradient-27)"/>
  <path class="cls-6" d="m47.96 162.12-1.1 16.86 9.18.64 1.41-11.56h2.28l.66 11.56h9.12l1.41-11.56h2.28l.65 11.56h10.99l1.41-11.56h2.28l.65 11.56h9.13l1.41-11.56H102l.65 11.56h11.03l1.41-11.56h2.28l.65 11.56h9.12l1.42-11.56h2.27l.66 11.56h10.99l1.41-11.56h2.28l.65 11.56 9.37-.66-6.65-17.34"/>
  <path d="M143.6 128.13a.53.53 0 0 1-.53-.46l-1.65-11.1h-.28l-1.35 11.09a.53.53 0 0 1-.53.47h-8.19c-.28 0-.52-.22-.53-.5l-.62-11.05h-1.3l-1.35 11.09a.53.53 0 0 1-.53.47h-9.12c-.28 0-.52-.22-.53-.5l-.62-11.05h-1.3l-1.35 11.09a.53.53 0 0 1-.53.47H102.3c-.28 0-.52-.22-.53-.5l-.62-11.05h-1.3l-1.35 11.09a.53.53 0 0 1-.53.47h-9.12c-.28 0-.52-.22-.53-.5l-.62-11.05h-1.3l-1.35 11.09a.53.53 0 0 1-.53.47H73.49c-.28 0-.52-.22-.53-.5l-.62-11.05h-1.3l-1.35 11.09a.53.53 0 0 1-.53.47h-9.12c-.28 0-.52-.22-.53-.5l-.62-11.05h-1.3l-1.35 11.09a.53.53 0 0 1-.53.47H44.72c-.28 0-.52-.22-.53-.5l-.62-11.05h-1.3l-1.35 11.09a.53.53 0 0 1-.53.47h-9.12c-.28 0-.52-.22-.53-.5l-.62-11.05h-1.3l-1.35 11.09a.53.53 0 0 1-.53.47h-.03l-6.48-.4c.48 6.01 2.4 17.09 2.5 17.63.04.26.27.44.53.44h6.28l-.25 1.12c-.06.27.09.53.35.62 2.61.89 13.61 3.44 14.07 3.55.04 0 .08.01.12.01h1.77l.62 11.05c.02.28.25.5.53.5h6.99c.27 0 .5-.2.53-.47l1.35-11.09h1.3l.62 11.05c.02.28.25.5.53.5h10.99c.27 0 .5-.2.53-.47l1.35-11.09h1.3l.62 11.05c.02.28.25.5.53.5h9.12c.27 0 .5-.2.53-.47l1.35-11.09h1.3l.62 11.05c.02.28.25.5.53.5h11.03c.27 0 .5-.2.53-.47l1.35-11.09h1.3l.62 11.05c.02.28.25.5.53.5h9.12c.27 0 .5-.2.53-.47l1.35-11.09h1.3l.62 11.05c.02.28.25.5.53.5h10.99c.27 0 .5-.2.53-.47l1.35-11.09h1.3l.62 11.05c.02.28.25.5.53.5h9.12c.27 0 .5-.2.53-.47l1.35-11.09h1.3l.62 11.05c.02.28.25.5.53.5h4.94a.533.533 0 0 0 .53-.57c-.14-2.17-.38-9.4-.6-16.29h.84c.15 0 .29-.06.39-.17.1-.11.15-.26.14-.41l-1.45-17.09h-5.8Z" style="fill:url(#linear-gradient-28)"/>
  <path d="M148.36 110.63h2.23c.16 0 .32-.08.42-.21s.14-.3.09-.46l-7.77-30.17a.526.526 0 0 0-.52-.4l-57.53.11c-.14 0-.28.06-.38.16-2.76 2.83-19.04 10.44-23.84 11.49-5.18 1.14-10.75 2.63-17.02 4.58-1.63.51-3.29.88-4.89 1.24-2.16.49-4.4.99-6.6 1.83a.52.52 0 0 0-.34.53l.06 1.14c-.36.15-.72.31-1.08.48 0-.16-.06-.32-.19-.42a.54.54 0 0 0-.52-.07l-1.47.58c-2.84 1.14-9.71 8.23-9.63 8.43.08.2.26.33.47.34l.74.04c-.08.15-.17.29-.25.44-4.24 8.26-4.29 16.35-4.29 16.69 0 .28.22.52.5.53l.07-1.07 9.75.61 1.35-11.06a.53.53 0 0 1 .53-.47h2.28c.28 0 .52.22.53.5l.62 11.05h8.15l1.35-11.09a.53.53 0 0 1 .53-.47h2.28c.28 0 .52.22.53.5l.62 11.05h10.01l1.35-11.09a.53.53 0 0 1 .53-.47h2.28c.28 0 .52.22.53.5l.62 11.05h8.15l1.35-11.09a.53.53 0 0 1 .53-.47h2.28c.28 0 .52.22.53.5l.62 11.05h10.05l1.35-11.09a.53.53 0 0 1 .53-.47h2.28c.28 0 .52.22.53.5l.62 11.05h8.15l1.35-11.09a.53.53 0 0 1 .53-.47h2.28c.28 0 .52.22.53.5l.62 11.05h10.01l1.35-11.09a.53.53 0 0 1 .53-.47h2.28c.28 0 .52.22.53.5l.62 11.05h8.15l1.35-11.09a.53.53 0 0 1 .53-.47h2.28c.28 0 .52.22.53.5l.62 11.05h7.22l1.35-11.09a.53.53 0 0 1 .53-.47h1.21c.27 0 .49.19.53.46l1.65 11.1h6.82v1.07c.16 0 .3-.07.4-.19.1-.12.15-.27.12-.43-.66-4.48-1.9-11.04-3.05-16.89Z" style="fill:url(#linear-gradient-29)"/>
  <path class="cls-1" d="m149.15 145.26.39 16.86h-4.94l-.65-11.56h-2.28l-1.41 11.56h-9.13l-.65-11.56h-2.28l-1.41 11.56H115.8l-.65-11.56h-2.28l-1.41 11.56h-9.12l-.65-11.56h-2.28L98 162.12H86.96l-.65-11.56h-2.28l-1.41 11.56H73.5l-.65-11.56h-2.28l-1.41 11.56H58.17l-.65-11.56h-2.28l-1.41 11.56h-6.99l-.65-11.56h-2.28l-14.54-3.65.36-1.65M149.04 127.6l1.27 17.66h-11.66L138 133.7h-3.03l-1.41 11.56h-10.33l-.65-11.56h-2.28l-1.41 11.56h-9.13l-.65-11.56h-2.28l-1.41 11.56H94.43l-.65-11.56H91.5l-1.41 11.56h-9.12l-.65-11.56h-2.28l-1.41 11.56H65.6l-.66-11.56h-2.27l-1.42 11.56h-9.12l-.65-11.56H49.2l-1.41 11.56H36.8l-.65-11.56h-2.28l-1.41 11.56h-9.13l-3.02-18.07"/>
  <path class="cls-4" d="m146.02 92.46 4.56 17.63h-5.92l-2.79-11.56h-2.28l.73 11.56h-9.26l-.65-11.56h-2.28l-1.41 11.56h-9.12l-.65-11.56h-2.28l-1.41 11.56h-10.99l-.65-11.56h-2.28l-1.41 11.56h-9.12l-.65-11.56h-2.28l-1.41 11.56H73.44l-.65-11.56h-2.28l-1.41 11.56h-9.12l-.65-11.56h-2.28l-1.41 11.56H44.65L44 98.53h-2.28l-1.41 11.56h-6.99l-.56-10.8s15.84-5.52 23.59-6.83 25.41-10.18 25.41-10.18M30.67 101.3c.7-.36 1.41-.7 2.13-1.03"/>
  <path class="cls-4" d="m147.85 110.1 3.02 17.5h-7.28l-1.72-11.56h-1.21l-1.41 11.56h-8.19l-.65-11.56h-2.28l-1.41 11.56h-9.12l-.65-11.56h-2.28l-1.41 11.56h-10.99l-.65-11.56h-2.28l-1.41 11.56h-9.12l-.65-11.56h-2.28l-1.41 11.56H73.44l-.65-11.56h-2.28L69.1 127.6h-9.12l-.65-11.56h-2.28l-1.41 11.56H44.65L44 116.04h-2.28l-1.41 11.56h-9.12l-.65-11.56h-2.28l-1.41 11.56-10.25-.64s-.07-2.32 1.06-8.67c.64-3.59 1.88-6.53 3.54-8.97"/>
  <path class="cls-4" d="m30.67 100.94-1.08 8.82-9.73-.5s5.72-7.13 10.81-8.32Z"/>
  <path d="M140.52 57.15s-.03.05-.05.07c0 0 .02-.01.02-.02.01-.02.01-.03.02-.05Z" style="fill:url(#linear-gradient-30)"/>
  <path d="M140.6 56.94s0 .06-.02.09c0-.03.01-.06.02-.09Z" style="fill:url(#linear-gradient-31)"/>
  <path d="M140.3 57.36s.04-.03.06-.04c-.02.01-.03.03-.06.04Z" style="fill:url(#linear-gradient-32)"/>
  <path d="M94.41 56.64c.09-.18.27-.3.48-.3h7.39l1.35-11.09a.53.53 0 0 1 .53-.47h2.28c.28 0 .52.22.53.5l.62 11.05h8.15l1.35-11.09a.53.53 0 0 1 .53-.47h2.28c.28 0 .52.22.53.5l.62 11.05h8.19l-.69-10.99c0-.15.04-.29.14-.4.1-.11.24-.17.39-.17h2.28c.25 0 .46.17.52.41l2.69 11.15h5.5c.27 0 .48.2.52.46v-.06l-4.52-17.55h1.86c.17 0 .33-.08.43-.22.1-.14.13-.32.08-.48L128.03 6.5a.52.52 0 0 0-.28-.32c-.28-.14-6.88-3.27-9.93.82-1.53 2.04-5.87 6.63-9.7 10.67-3.7 3.91-6 6.34-6.47 7.09-1.39 2.23-2.46 4.69-3.26 7.53-.01.04-.02.08-.02.12l-.33 6.19c0 .15.04.29.15.4.1.11.24.17.39.17h.64c-1.46 7.16-3.05 14.14-4.81 17.43v.02Z" style="fill:url(#linear-gradient-33)"/>
  <path d="M94.45 57.18s-.03-.04-.04-.06v.03c0 .01.02.02.03.03Z" style="fill:url(#linear-gradient-34)"/>
  <path d="m148.37 92.32-4.96-17.84.94-.06c.17-.01.32-.1.41-.24.09-.14.11-.31.06-.47l-5.51-16.3h-5.16c-.25 0-.46-.17-.52-.41l-2.69-11.15h-1.29l.69 10.99c0 .15-.04.29-.14.4-.1.11-.24.17-.39.17h-9.26c-.28 0-.52-.22-.53-.5l-.62-11.05h-1.3l-1.35 11.09a.53.53 0 0 1-.53.47h-9.12c-.28 0-.52-.22-.53-.5l-.62-11.05h-1.3l-1.35 11.09a.53.53 0 0 1-.53.47h-6.55c-3.59 8.69-8.58 16.81-8.63 16.9-.1.16-.11.37-.01.54.03.05.06.09.09.12-.73.66-1.46 1.32-2.2 1.98-1.77 1.58-3.59 3.21-5.35 4.98-.06.06-.11.14-.13.22l-3.04 9.78a.53.53 0 0 0 .08.47c.1.14.25.22.42.22l11.38.34c.23.01.48-.17.54-.41l2.58-11.11h1.35l.62 11.05c.02.28.25.5.53.5h10.99c.27 0 .5-.2.53-.47l1.35-11.09h1.3l.62 11.05c.02.28.25.5.53.5h9.12c.27 0 .5-.2.53-.47l1.35-11.09h1.3l.62 11.05c.02.28.25.5.53.5h10.33a.533.533 0 0 0 .53-.57l-.69-10.99h2.04l2.69 11.15c.06.24.27.41.52.41h9.21c.17 0 .32-.08.43-.21.1-.13.13-.31.09-.47Z" style="fill:url(#linear-gradient-35)"/>
  <path d="M94.35 56.88v.03-.03Z" style="fill:url(#linear-gradient-36)"/>
  <path d="M94.59 57.31s.03.03.06.04a.21.21 0 0 1-.06-.04Z" style="fill:url(#linear-gradient-37)"/>
  <path class="cls-6" d="m96.19 57.41-8.17 17.18h12.61l1.41-11.56h2.28l.65 11.56h9.13l1.41-11.56h2.28l.65 11.56h10.99l1.41-11.56h2.28l2.21 11.45 8.99-.59-5.44-16.77"/>
  <path class="cls-1" d="m135.37 38.66 4.7 18.22h-5.92l-2.79-11.56h-2.28l.73 11.56h-9.26l-.65-11.56h-2.28l-1.41 11.56h-9.12l-.65-11.56h-2.28l-1.41 11.56h-7.87s4.22-14.48 4.4-18.22"/>
  <path class="cls-1" d="M98.58 38.66h10.39l1.41-11.56h2.28l.65 11.56h10.33l-.73-11.56h3.03l2.79 11.56h9.2l-9.9-32.13s-5.65-3.4-9.57 0-14.89 15.99-16.8 18.27-3.28 7.65-3.28 7.65l.21 6.22Z"/>
  <g>
    <circle cx="76.78" cy="109.76" r="12.93" style="stroke-miterlimit:10;fill:#fff;stroke:#183dd1"/>
    <circle cx="76.78" cy="112.72" r="9.43" style="fill:#183dd1"/>
  </g>
  <path class="cls-6" d="m88.02 74.59-7.54 7.71-3.04 9.78 11.38.34L91.5 80.9h2.28l.65 11.56h10.99l1.41-11.56h2.28l.65 11.56h9.13l1.41-11.56h2.28l.65 11.56h10.33l-.73-11.56h3.03l2.79 11.56h9.2L142.61 74"/>
  <g>
    <path class="cls-14" d="M339.65 295.24a.478.478 0 0 0-.48-.26c-3.65-.47-34.33-54.6-54.05-90.87 0-.01-.02-.02-.02-.03-.76-1.76-1.5-3.56-2.14-5.24h.11c.08 0 .15-.02.22-.06l.25.47h0l.1-.07h0l-.29-.41.14.2-.16-.23s.1-.07.13-.12l.08.06.26.34.11-.09.1-.28-.47-.07-.06-.03c.06-.12.08-.26.03-.39l-.02-.05.07-.04.44-.05-.07-.2c-.86-1.49-1.81-3.06-2.87-4.61-1.69-2.86-4.23-6.2-7.52-7.86-.51-.34-1.07-.71-1.68-1.07l-2.06-1.12c-.69-.33-1.27-.57-1.77-.73-3.5-1.11-7.17-1.23-10.8-1.15h-.04c-7.86-.24-49.88.75-50.3.76h-.02c-20.73.22-34.62.26-40.27.11-1.45-.08-2.66-.18-3.57-.3-.74-.13-1.46-.29-2.16-.49-.33-.1-.64-.2-.94-.3a18.1 18.1 0 0 1-3.04-1.37c.06-.06.11-.12.15-.19.18-.28.21-.63.09-.93-2.33-5.88-4.72-12.13-6.62-17.31-.12-2.29-.3-7.31-.54-14.97h.32c.29 0 .57-.12.76-.34.19-.21.29-.5.27-.79l-1.45-17.08h.48v.53h.5c.3 0 .58-.13.78-.36.2-.23.29-.53.24-.83-.55-3.69-1.53-9.18-2.93-16.31h1.62c.32 0 .62-.15.82-.4.2-.25.26-.58.19-.89l-4.21-16.34h.48c.32 0 .63-.15.83-.41.19-.26.25-.59.17-.9l-4.79-17.25.33-.02c.32-.02.61-.19.79-.46.18-.27.22-.6.12-.9l-5.47-16.18h.24c.07 0 .14-.02.2-.05l.02.03.21.45.11-.07-.27-.42-.02-.03s.07-.05.1-.08l.32.42.08-.06.15-.24-.41-.17-.08-.05s.04-.07.05-.11l.51.15.04-.17-.53-.06v-.12l.19-.03.34.02v-.11l-4.38-17h1.22a1.032 1.032 0 0 0 .98-1.35L128.48 6.34s-.02-.03-.02-.04a.746.746 0 0 0-.07-.12c-.1-.19-.25-.35-.44-.45-.29-.14-7.25-3.44-10.54.97-.04.06-.09.12-.14.18-3.54 3.33-10.29 10.94-13.89 15.09-1.15 1.25-1.87 2.07-2.14 2.49-1.67 2.01-2.91 6.15-3.26 7.43-.03.09-.06.17-.08.26 0 .03-.01.08-.02.12h0v.04c0 .02 0 .04-.01.07l-.33 6.19c-.02.28.09.56.28.76.19.21.47.33.75.33h.03c-1.34 6.54-2.93 13.5-4.62 16.65l-.07.11v.12l.44.06.06.03-.02.07c-.04.12-.01.24.04.36l-.52.12.02.11.2.24.31-.39h.03s.08.07.12.1l-.29.45.1.06.26-.46c.07.03.14.05.21.05h.77l-4.79 10.07c-2.06 3.88-3.7 6.55-3.72 6.6-.15.25-.19.55-.12.82-.63.57-1.27 1.15-1.94 1.75-1.76 1.58-3.58 3.2-5.33 4.97-.12.12-.2.26-.26.42l-.23.74c-1.59.87-3.4 1.78-5.25 2.67-3.86 1.76-8.58 3.78-12.58 5.15-.17.04-.32.08-.47.11-2.82.62-5.76 1.35-8.86 2.2-3.42.84-7.39 2.02-10.85 3.11-.74.18-1.48.35-2.2.51-2.18.49-4.43.99-6.67 1.85-.42.16-.69.57-.67 1.02l.04.79c-.1.04-.2.09-.3.13a1.05 1.05 0 0 0-1.17-.29l-1.48.58c-2.94 1.18-9.44 9.69-9.05 9.73-4.17 8.28-4.22 16.33-4.22 16.67 0 .54.43 1 .97 1.03l.5.03.03-.53 2.76.17v.11c.5 6.19 2.49 17.56 2.51 17.67.09.5.51.86 1.02.86h5.66l-.11.51h0c-.11.52.18 1.03.68 1.21 2.34.79 11.31 2.91 14 3.54l.12.03c.07.02.15.02.23.02h1.3l.6 10.58c.03.55.48.98 1.03.98h.19l-1.2 15.75c-.02.27.07.55.25.75.18.21.43.33.71.36l.24.02-2.24 18.1c-.01.05-.02.1-.02.16h0v.03h.53s0 .08.01.12l-.53.09.04.18.51-.17s.02.04.04.06l-.45.28.04.09.1.09.33-.33h0l-.33.33.1.09.24-.43.04-.02s.06.05.09.07l-.28.46.13.08.25-.48c.05.02.1.03.15.03h.51l-4.01 15.32c-.08.3-.02.62.17.87.18.25.47.41.78.42l.52.03-4.13 16.05c-.08.3-.02.61.17.86.18.25.47.41.77.42l1.16.07-2.13 17.07c-.04.29.06.59.25.81.2.22.48.35.78.35h.25l-1.8 17.33a.516.516 0 0 0 .5.56h1.38l-3.04 4.75c-.15.24-.2.53-.13.81.07.27.25.51.49.65l.5.28-9.01 14.09c-.15.24-.2.53-.13.81.07.27.25.51.49.65l.39.22-8.91 13.92c-.15.24-.2.53-.13.81.07.27.25.51.49.65h.01l-8.67 13.17c-.16.24-.21.54-.14.81.07.28.25.52.5.66l.98.55-8.97 13.61c-.08.12-.1.26-.07.39.02.1.09.19.17.25-1.85 2.24-3.27 4.21-3.47 5.16-.04.21-.11.43-.17.65-.86 2.92-2.05 6.91 22.95 21.09 3.75 2.13 6.99 3.85 9.81 5.23l-1.09 3.19c-.04.13-.03.27.03.4.05.09.13.16.23.2-1.23 2.63-2.11 4.89-2.07 5.87v.67c-.11 3.04-.25 7.2 27.49 14.68 11.56 3.12 18.59 4.19 22.92 4.19 6.13 0 6.84-2.15 7.35-3.69.06-.18.11-.34.18-.49.32-.72.64-3.06.94-5.9l1.58.43s.09.02.13.02a.493.493 0 0 0 .49-.41l2.85-16.06.38.1a1.013 1.013 0 0 0 .83-.12c.24-.15.41-.41.46-.69l2.84-16.01c.14-.13.24-.3.29-.49l4.14-16.02.39.11c.09.02.18.04.27.04.46 0 .87-.3 1-.77l4.36-16.18.37.1c.28.08.58.03.83-.13.24-.16.41-.41.46-.69l2.83-16.26c.16.38.52.64.95.64h9.12c.52 0 .96-.39 1.03-.91l1.3-10.65h.39l.6 10.58c.03.55.48.98 1.03.98h10.99c.52 0 .96-.39 1.03-.91l1.3-10.65h.39l.6 10.58c.03.55.48.98 1.03.98h9.12c.52 0 .96-.39 1.03-.91l1.3-10.65h.39l.6 10.58c.03.55.48.98 1.03.98h10.33c.52 0 .96-.39 1.03-.91l1.3-10.65h.39l.6 10.58c.03.55.48.98 1.03.98h4.81l1.09 4c.07.27.26.51.51.64s.55.16.82.07l.54-.18 4.42 16.13c.07.27.26.5.51.64a1.044 1.044 0 0 0 .81.07l.43-.14 4.37 15.94c.07.27.26.5.51.64.25.13.55.16.81.07h.02l3.96 15.25c.07.28.25.51.51.65a1.044 1.044 0 0 0 .81.07l1.06-.35 4.09 15.78c.04.13.12.25.25.31.07.04.16.06.24.06.02 0 .04 0 .06-.01.43 2.87.93 5.24 1.51 6.03.13.18.24.37.37.57.81 1.33 1.78 2.92 6.23 2.92 4.21 0 11.54-1.42 24.8-5.83 2.92-.97 5.5-1.88 7.8-2.75l3.94 15.18c.04.13.12.25.25.31.07.04.16.06.24.06.02 0 .04 0 .06-.01.43 2.87.93 5.24 1.5 6.03.13.18.24.37.37.57.81 1.33 1.78 2.92 6.23 2.92 4.21 0 11.54-1.42 24.8-5.83 27.46-9.12 26.25-13.59 25.53-16.27-.05-.18-.09-.35-.12-.5-.13-.77-1.15-2.91-2.47-5.44l1.55-.52c.13-.04.24-.14.3-.27s.06-.27 0-.4l-6.47-14.98.38-.12c.28-.09.5-.3.62-.56.12-.26.12-.57 0-.83l-6.45-14.92c.04-.19.04-.38-.03-.57l-5.38-15.65.39-.13c.26-.09.48-.27.6-.52s.14-.53.06-.79l-5.28-15.9.37-.12c.27-.09.5-.29.62-.56.09-.21.09-.45.04-.67h.4c.56 0 1.01-.44 1.03-1l.51-16.66h.74c.28 0 .55-.11.74-.32.19-.2.3-.47.29-.75l-.52-17.26h.31v.53h.5c.28 0 .55-.12.74-.31.19-.2.3-.47.29-.75l-.49-15.91c6.32 28.5 19.43 77.69 20.16 80.4.04.16.16.29.32.34a.472.472 0 0 0 .46-.07l8.27-6.21c.16-.12.24-.32.19-.52a.48.48 0 0 0-.4-.37c-.42-.17-1.23-1.69-2.43-4.77l6.2-5.61c.14-.13.2-.33.14-.52-.01-.05-.04-.11-.05-.16l4.51-4.64c1.8 3.64 2.97 6 3.22 6.52.07.15.22.25.38.27h.07c.14 0 .28-.06.37-.17l6.87-7.74c.13-.15.17-.37.09-.55a.505.505 0 0 0-.47-.28c-.7-.12-2.29-2.28-4.53-5.93l5.42-6.77c.13-.16.16-.38.06-.55ZM94.45 57.18l-.18.13.09-.07.09-.06h0ZM283.64 199.2h0zM283.5 198.99l.14.21h0l-.14-.21zM45.05 199.07l.01-.01h0l-.01.01z"/>
  </g>
</svg>
