<svg id="Layer_1" data-name="Layer 1" xmlns="http://www.w3.org/2000/svg" width="354" height="600" xmlns:xlink="http://www.w3.org/1999/xlink" viewBox="0 0 354 600">
  <defs>
    <linearGradient id="linear-gradient" x1="173.59" y1="55.6" x2="155.51" y2="15.05" gradientTransform="matrix(1, 0, 0, 1, 0, 0)" gradientUnits="userSpaceOnUse">
      <stop offset="0" stop-color="#30c8c9"/>
      <stop offset="1" stop-color="#9ef9e0"/>
    </linearGradient>
    <linearGradient id="linear-gradient-2" x1="299.18" y1="333.62" x2="281.09" y2="293.06" gradientTransform="translate(62.26 499.59) rotate(-112.41)" xlink:href="#linear-gradient"/>
    <linearGradient id="linear-gradient-3" x1="195.39" y1="59.29" x2="177.31" y2="18.74" gradientTransform="translate(62.26 499.59) rotate(-112.41)" xlink:href="#linear-gradient"/>
    <linearGradient id="linear-gradient-4" x1="-53.33" y1="417.18" x2="-71.41" y2="376.63" gradientTransform="translate(462.04 630.6) rotate(150.99)" xlink:href="#linear-gradient"/>
    <linearGradient id="linear-gradient-5" x1="-133.81" y1="311.74" x2="-151.89" y2="271.18" gradientTransform="translate(413.33 45.01) rotate(52.93)" xlink:href="#linear-gradient"/>
    <linearGradient id="linear-gradient-6" x1="-12.66" y1="640.52" x2="-30.74" y2="599.97" gradientTransform="translate(179.27 734.07) rotate(177.03)" xlink:href="#linear-gradient"/>
    <linearGradient id="linear-gradient-7" x1="-147.88" y1="414.97" x2="-165.96" y2="374.42" gradientTransform="translate(478.97 451.68) rotate(98.32)" xlink:href="#linear-gradient"/>
    <linearGradient id="linear-gradient-8" x1="123.29" y1="285.51" x2="105.21" y2="244.96" gradientTransform="translate(323.05 -72.95) rotate(43.18)" xlink:href="#linear-gradient"/>
    <linearGradient id="linear-gradient-9" x1="356.99" y1="351.1" x2="338.91" y2="310.55" gradientTransform="translate(-148.49 66.32) rotate(-3.59)" xlink:href="#linear-gradient"/>
    <linearGradient id="linear-gradient-10" x1="34.81" y1="214.6" x2="16.72" y2="174.04" gradientTransform="translate(179.27 734.07) rotate(177.03)" xlink:href="#linear-gradient"/>
    <style>
      .cls-1{fill:#0f6a80}.cls-12{stroke:#0f6a80;stroke-linejoin:round;fill:none;stroke-width:2px}
    </style>
  </defs>
  <path d="m150.79 1.88-5.17 61.74s39.99 2.43 51.76-25.43L150.79 1.88Z" style="stroke:#0f6a80;stroke-linejoin:round;stroke-width:3px;fill:url(#linear-gradient)"/>
  <path class="cls-12" d="M146.2 56.7s34.26 2.96 46.08-22.48"/>
  <circle class="cls-1" cx="163.49" cy="17.6" r="4.87"/>
  <path class="cls-1" d="M149.89 24.48c-.16 0-.3.03-.45.05-.27 3.14-.82 6.24-1.32 9.35.55.22 1.15.35 1.78.35a4.87 4.87 0 1 0 0-9.74Z"/>
  <circle class="cls-1" cx="171.5" cy="32.78" r="4.87"/>
  <path class="cls-1" d="M183.02 27.79c-.78.86-1.27 1.99-1.27 3.25a4.87 4.87 0 0 0 4.87 4.87c2.04 0 3.78-1.25 4.5-3.02-2.71-1.7-5.62-3.08-8.11-5.1Z"/>
  <circle class="cls-1" cx="162.1" cy="45.98" r="4.87"/>
  <path d="m215.68 137.39 59.05-18.75s-13-37.89-43.23-38.16l-15.81 56.91Z" style="fill:url(#linear-gradient-2);stroke:#0f6a80;stroke-linejoin:round;stroke-width:3px"/>
  <path class="cls-12" d="M268.11 120.74s-10.33-32.8-38.35-34.03"/>
  <circle class="cls-1" cx="255.29" cy="115.16" r="4.87"/>
  <path class="cls-1" d="M223.19 133.17c.06.14.14.27.22.4 3-.95 6.08-1.62 9.15-2.34 0-.59-.12-1.19-.36-1.77-1.03-2.49-3.87-3.67-6.36-2.65s-3.67 3.87-2.65 6.36Z"/>
  <circle class="cls-1" cx="236.54" cy="113.81" r="4.87"/>
  <circle class="cls-1" cx="237.42" cy="96.88" r="4.87"/>
  <g>
    <path d="m1.63 337.91 59.05-18.75s-13-37.89-43.23-38.16L1.63 337.91Z" style="fill:url(#linear-gradient-3);stroke:#0f6a80;stroke-linejoin:round;stroke-width:3px"/>
    <path class="cls-12" d="M54.06 321.25s-10.33-32.8-38.35-34.03"/>
    <circle class="cls-1" cx="41.24" cy="315.67" r="4.87"/>
    <path class="cls-1" d="M9.13 333.68c.06.14.14.27.22.4 3-.95 6.08-1.62 9.15-2.34 0-.59-.12-1.19-.36-1.77-1.03-2.49-3.87-3.67-6.36-2.65s-3.67 3.87-2.65 6.36Z"/>
    <circle class="cls-1" cx="22.49" cy="314.32" r="4.87"/>
    <circle class="cls-1" cx="23.37" cy="297.4" r="4.87"/>
  </g>
  <g>
    <path d="m352.37 275.82-25.42-56.5s-36.15 17.27-32.94 47.33l58.36 9.17Z" style="fill:url(#linear-gradient-4);stroke:#0f6a80;stroke-linejoin:round;stroke-width:3px"/>
    <path class="cls-12" d="M329.8 225.65s-31.39 14.03-29.4 42.01"/>
    <circle class="cls-1" cx="325.73" cy="239.02" r="4.87"/>
    <path class="cls-1" d="M347.32 268.84c.14-.08.25-.17.37-.26-1.28-2.87-2.31-5.86-3.38-8.82-.59.08-1.17.25-1.72.56a4.875 4.875 0 0 0-1.9 6.62c1.3 2.35 4.27 3.2 6.62 1.9Z"/>
    <circle class="cls-1" cx="326.55" cy="257.8" r="4.87"/>
    <circle class="cls-1" cx="309.63" cy="258.87" r="4.87"/>
  </g>
  <g>
    <path d="m113.05 75.57-52.38 33.09s22.16 33.37 51.49 25.97l.89-59.06Z" style="fill:url(#linear-gradient-5);stroke:#0f6a80;stroke-linejoin:round;stroke-width:3px"/>
    <path class="cls-12" d="M66.54 104.96s18.29 29.11 45.71 23.22"/>
    <circle class="cls-1" cx="109.57" cy="86.37" r="4.87"/>
    <path class="cls-1" d="M94.48 88.48c-.09-.12-.21-.22-.31-.33-2.66 1.67-5.47 3.1-8.26 4.58.16.57.42 1.12.8 1.63 1.62 2.15 4.68 2.57 6.82.95s2.57-4.68.95-6.82Z"/>
    <circle class="cls-1" cx="102.02" cy="103.48" r="4.87"/>
    <path class="cls-1" d="M111.8 112.12c-1.16-.1-2.35.19-3.35.95a4.867 4.867 0 0 0 4.18 8.59c-.27-3.18-.93-6.34-.82-9.54Z"/>
    <circle class="cls-1" cx="87.86" cy="112.61" r="4.87"/>
  </g>
  <g>
    <path d="m184.32 146.22 1.97-61.92s-40.06-.36-50.37 28.07l48.41 33.85Z" style="fill:url(#linear-gradient-6);stroke:#0f6a80;stroke-linejoin:round;stroke-width:3px"/>
    <path class="cls-12" d="M186.06 91.24s-34.36-1.18-44.86 24.84"/>
    <circle class="cls-1" cx="161.97" cy="125.63" r="4.87"/>
    <path class="cls-1" d="M183.08 123.91c.16 0 .3-.05.45-.07.11-3.15.5-6.27.84-9.41-.56-.19-1.16-.29-1.79-.25-2.69.14-4.75 2.43-4.61 5.12s2.43 4.75 5.12 4.61Z"/>
    <circle class="cls-1" cx="161.14" cy="106.92" r="4.87"/>
    <path class="cls-1" d="M177.85 141.2c.73-.9 1.16-2.06 1.1-3.31a4.868 4.868 0 0 0-5.12-4.61 4.866 4.866 0 0 0-4.34 3.25c2.79 1.56 5.77 2.78 8.36 4.67Z"/>
    <circle class="cls-1" cx="177.02" cy="100.77" r="4.87"/>
  </g>
  <g>
    <path d="m146.23 230.5-60.34-14.05s-8.19 39.21 17.66 54.89l42.68-40.84Z" style="fill:url(#linear-gradient-7);stroke:#0f6a80;stroke-linejoin:round;stroke-width:3px"/>
    <path class="cls-12" d="M92.65 218.02s-7.88 33.47 15.57 48.85"/>
    <circle class="cls-1" cx="121.66" cy="248.39" r="4.87"/>
    <path class="cls-1" d="M124.11 227.34c.02-.15.01-.3.02-.46-3.06-.72-6.05-1.72-9.06-2.66-.29.51-.51 1.09-.6 1.71-.39 2.66 1.45 5.14 4.11 5.52 2.66.39 5.14-1.45 5.52-4.11Z"/>
    <circle class="cls-1" cx="103.15" cy="245.54" r="4.87"/>
    <path class="cls-1" d="M140.04 235.86c-.74-.9-1.79-1.54-3.03-1.72-2.66-.39-5.14 1.45-5.52 4.11-.29 2.01.69 3.92 2.34 4.89 2.07-2.43 3.86-5.12 6.22-7.29Z"/>
    <circle class="cls-1" cx="100.23" cy="228.75" r="4.87"/>
  </g>
  <g>
    <path d="m237.71 164.83-46.02 41.48s27.49 29.13 55.14 16.88l-9.12-58.36Z" style="fill:url(#linear-gradient-8);stroke:#0f6a80;stroke-linejoin:round;stroke-width:3px"/>
    <path class="cls-12" d="M196.85 201.66s22.96 25.6 48.99 15.14"/>
    <circle class="cls-1" cx="236.22" cy="184.99" r="4.87"/>
    <path class="cls-1" d="M221.6 180.7c-.11-.11-.24-.18-.36-.28-2.34 2.1-4.87 3.99-7.36 5.91.25.54.6 1.04 1.06 1.47 1.96 1.84 5.04 1.74 6.89-.22s1.74-5.04-.22-6.89Z"/>
    <circle class="cls-1" cx="231.67" cy="201.53" r="4.87"/>
    <path class="cls-1" d="M243.48 205.78c-1.16.1-2.29.59-3.15 1.5-1.84 1.96-1.74 5.04.22 6.89a4.878 4.878 0 0 0 5.35.88c-.81-3.09-1.99-6.09-2.43-9.26Z"/>
    <circle class="cls-1" cx="215.78" cy="204.73" r="4.87"/>
  </g>
  <g>
    <path d="m203.67 342.18-1.29 61.94s40.06-.08 50.06-28.62l-48.77-33.32Z" style="fill:url(#linear-gradient-9);stroke:#0f6a80;stroke-linejoin:round;stroke-width:3px"/>
    <path class="cls-12" d="M202.53 397.18s34.37.8 44.58-25.32"/>
    <circle class="cls-1" cx="217.34" cy="357.07" r="4.87"/>
    <path class="cls-1" d="M204.2 364.79c-.16 0-.3.05-.45.07-.07 3.15-.43 6.28-.73 9.41.56.18 1.17.27 1.8.23 2.68-.17 4.72-2.48 4.56-5.17s-2.48-4.72-5.17-4.56Z"/>
    <circle class="cls-1" cx="226.28" cy="371.72" r="4.87"/>
    <path class="cls-1" d="M237.46 366.02c-.72.91-1.14 2.07-1.06 3.32a4.884 4.884 0 0 0 5.17 4.56 4.893 4.893 0 0 0 4.31-3.3c-2.81-1.53-5.8-2.72-8.41-4.58Z"/>
    <circle class="cls-1" cx="217.72" cy="385.48" r="4.87"/>
  </g>
  <g>
    <path d="m158.96 574.03 1.97-61.92s-40.06-.36-50.37 28.07l48.41 33.85Z" style="fill:url(#linear-gradient-10);stroke:#0f6a80;stroke-linejoin:round;stroke-width:3px"/>
    <path class="cls-12" d="M160.71 519.05s-34.36-1.18-44.86 24.84"/>
    <circle class="cls-1" cx="136.61" cy="553.44" r="4.87"/>
    <path class="cls-1" d="M157.72 551.72c.16 0 .3-.05.45-.07.11-3.15.5-6.27.84-9.41-.56-.19-1.16-.29-1.79-.25-2.69.14-4.75 2.43-4.61 5.12s2.43 4.75 5.12 4.61Z"/>
    <circle class="cls-1" cx="135.78" cy="534.73" r="4.87"/>
    <path class="cls-1" d="M152.49 569.01c.73-.9 1.16-2.06 1.1-3.31a4.868 4.868 0 0 0-5.12-4.61 4.866 4.866 0 0 0-4.34 3.25c2.79 1.56 5.77 2.78 8.36 4.67Z"/>
    <circle class="cls-1" cx="151.67" cy="528.58" r="4.87"/>
  </g>
</svg>
