<svg id="Layer_1" data-name="Layer 1" xmlns="http://www.w3.org/2000/svg" width="215" height="1051" xmlns:xlink="http://www.w3.org/1999/xlink" viewBox="0 0 215 1051">
  <defs>
    <linearGradient id="linear-gradient" x1="89.4" y1="950.2" x2="89.4" y2="347.19" gradientTransform="matrix(1, 0, 0, 1, 0, 0)" gradientUnits="userSpaceOnUse">
      <stop offset=".06" stop-color="#587ef8" stop-opacity="0"/>
      <stop offset=".38" stop-color="#587ef8"/>
      <stop offset="1" stop-color="#9ef9e0"/>
    </linearGradient>
    <linearGradient id="linear-gradient-2" x1="125.6" y1="918.36" x2="125.6" xlink:href="#linear-gradient"/>
    <linearGradient id="linear-gradient-3" x1="114.01" y1="960.04" x2="114.01" xlink:href="#linear-gradient"/>
    <linearGradient id="linear-gradient-4" x1="101.26" y1="891.46" x2="101.26" xlink:href="#linear-gradient"/>
    <linearGradient id="linear-gradient-5" x1="4.27" y1="293.86" x2="70.96" y2="293.86" gradientTransform="matrix(1, 0, 0, 1, 0, 0)" gradientUnits="userSpaceOnUse">
      <stop offset="0" stop-color="#30c8c9"/>
      <stop offset="1" stop-color="#9ef9e0"/>
    </linearGradient>
    <linearGradient id="linear-gradient-6" x1="-141.25" y1="293.86" x2="-74.56" y2="293.86" gradientTransform="translate(69.57) rotate(-180) scale(1 -1)" xlink:href="#linear-gradient-5"/>
    <linearGradient id="linear-gradient-7" x1="76.01" y1="347.19" x2="139.07" y2="347.19" xlink:href="#linear-gradient-5"/>
    <linearGradient id="linear-gradient-8" x1="107.54" y1="344.45" x2="107.54" y2="4.43" xlink:href="#linear-gradient-5"/>
    <linearGradient id="linear-gradient-9" x1="82.93" y1="-4153.2" x2="132.07" y2="-4153.2" gradientTransform="translate(0 -4024) scale(1 -1)" xlink:href="#linear-gradient-5"/>
    <linearGradient id="linear-gradient-10" x1="76.67" y1="-4152.88" x2="138.42" y2="-4152.88" gradientTransform="translate(0 -4024) scale(1 -1)" xlink:href="#linear-gradient-5"/>
    <linearGradient id="linear-gradient-11" x1="82.93" y1="-4153.2" x2="132.07" y2="-4153.2" gradientTransform="translate(0 -4024) scale(1 -1)" xlink:href="#linear-gradient-5"/>
    <clipPath id="clippath">
      <path class="cls-1" d="M107.5 104.63c13.57 0 24.57 11 24.57 24.57s-11 24.57-24.57 24.57-24.57-11-24.57-24.57 11-24.57 24.57-24.57Z"/>
    </clipPath>
    <clipPath id="clippath-1">
      <path class="cls-1" d="M107.5 104.63c13.57 0 24.57 11 24.57 24.57s-11 24.57-24.57 24.57-24.57-11-24.57-24.57 11-24.57 24.57-24.57Z"/>
    </clipPath>
    <style>
      .cls-1,.cls-2,.cls-3{fill:none}.cls-2{stroke:#84f3df;stroke-miterlimit:10}.cls-2,.cls-3{stroke-width:3px}.cls-12{fill:#30c8c9}.cls-3{stroke:#0f6a80;stroke-linejoin:round}
    </style>
  </defs>
  <path style="fill:url(#linear-gradient)" d="M87.14 347.19h4.52V950.2h-4.52z"/>
  <path style="fill:url(#linear-gradient-2)" d="M123.34 347.19h4.52v571.18h-4.52z"/>
  <path style="fill:url(#linear-gradient-3)" d="M111.75 347.19h4.52v612.85h-4.52z"/>
  <path style="fill:url(#linear-gradient-4)" d="M99 347.19h4.52v544.27H99z"/>
  <path style="fill:url(#linear-gradient-5);stroke:#0f6a80;stroke-linejoin:round;stroke-width:3px" d="m54.46 238.39-41.69 21.25-8.5 89.69 66.69-31.55-16.5-79.39z"/>
  <path style="fill:url(#linear-gradient-6);stroke:#0f6a80;stroke-linejoin:round;stroke-width:3px" d="m160.63 238.39 41.69 21.25 8.5 89.69-66.69-31.55 16.5-79.39z"/>
  <path style="fill:url(#linear-gradient-7)" d="M76.01 334.47h63.06v25.43H76.01z"/>
  <path d="M137.57 335.97v22.43H77.51v-22.43h60.06m3-3H74.52v28.43h66.06v-28.43Z" style="fill:#0f6a80"/>
  <path d="M107.55 4.43S51.18 43.19 51.18 174.44c0 80.93 18 170.01 18 170.01h76.74s18-93.76 18-170.01C163.91 43.19 107.55 4.43 107.55 4.43Z" style="fill:url(#linear-gradient-8)"/>
  <path class="cls-12" d="M82.71 72.81H64.77l9.94-22.69h8v22.69zM87.45 50.12h17.95V72.8H87.45zM109.69 50.12h17.95V72.8h-17.95zM150.32 72.81h-17.94V50.12h8.41l9.53 22.69z"/>
  <path class="cls-2" d="m19.67 263.79-7.16 74.06M195.49 263.79l7.17 74.06"/>
  <path class="cls-3" d="M107.55 4.43S51.18 43.19 51.18 174.44c0 80.93 18 170.01 18 170.01h76.74s18-93.76 18-170.01C163.91 43.19 107.55 4.43 107.55 4.43Z"/>
  <g style="clip-path:url(#clippath)">
    <circle cx="107.5" cy="129.2" r="24.57" style="fill:url(#linear-gradient-9)"/>
    <path class="cls-12" transform="translate(-72.16 118.95) rotate(-45)" d="M95.21 134.29h24.57v24.57H95.21z"/>
    <path class="cls-12" transform="translate(-47.59 108.77) rotate(-45)" d="M95.21 99.54h24.57v24.57H95.21z"/>
  </g>
  <circle cx="107.54" cy="128.88" r="30.87" style="fill:url(#linear-gradient-10)"/>
  <circle class="cls-3" cx="107.54" cy="128.88" r="30.87"/>
  <g style="clip-path:url(#clippath-1)">
    <circle cx="107.5" cy="129.2" r="24.57" style="fill:url(#linear-gradient-11)"/>
    <path class="cls-12" transform="translate(-72.16 118.95) rotate(-45)" d="M95.21 134.29h24.57v24.57H95.21z"/>
    <path class="cls-12" transform="translate(-47.59 108.77) rotate(-45)" d="M95.21 99.54h24.57v24.57H95.21z"/>
  </g>
</svg>
