<svg id="Layer_1" data-name="Layer 1" xmlns="http://www.w3.org/2000/svg" width="218" height="204" xmlns:xlink="http://www.w3.org/1999/xlink" viewBox="0 0 218 204">
  <defs>
    <linearGradient id="linear-gradient" x1="118.61" y1="150.87" x2="126.78" y2="194.88" gradientTransform="matrix(1, 0, 0, 1, 0, 0)" gradientUnits="userSpaceOnUse">
      <stop offset="0" stop-color="#183dd1"/>
      <stop offset=".73" stop-color="#587ef8"/>
      <stop offset="1" stop-color="#587ef8"/>
    </linearGradient>
    <linearGradient id="linear-gradient-2" x1="62.67" y1="143.03" x2="38.68" y2="174.92" xlink:href="#linear-gradient"/>
    <linearGradient id="linear-gradient-3" x1="73.21" y1="94.55" x2="32.98" y2="136.42" xlink:href="#linear-gradient"/>
    <linearGradient id="linear-gradient-4" x1="95.19" y1="77.32" x2="63.89" y2="41.03" xlink:href="#linear-gradient"/>
    <linearGradient id="linear-gradient-5" x1="86.84" y1="130.45" x2="77.88" y2="163.66" xlink:href="#linear-gradient"/>
    <linearGradient id="linear-gradient-6" x1="95.3" y1="89.17" x2="73.47" y2="97.11" xlink:href="#linear-gradient"/>
    <linearGradient id="linear-gradient-7" x1="138.83" y1="88.4" x2="212.89" y2="115.81" xlink:href="#linear-gradient"/>
    <linearGradient id="linear-gradient-8" x1="128.92" y1="80.71" x2="182.29" y2="49.43" xlink:href="#linear-gradient"/>
    <linearGradient id="linear-gradient-9" x1="87.88" y1="122.73" x2="132.2" y2="66.17" gradientTransform="matrix(1, 0, 0, 1, 0, 0)" gradientUnits="userSpaceOnUse">
      <stop offset="0" stop-color="#183dd1"/>
      <stop offset=".82" stop-color="#587ef8"/>
      <stop offset="1" stop-color="#5586ff"/>
    </linearGradient>
    <linearGradient id="linear-gradient-10" x1="118.86" y1="142.35" x2="116.41" y2="109.41" xlink:href="#linear-gradient"/>
    <linearGradient id="linear-gradient-11" x1="90.01" y1="102.07" x2="90" y2="102" gradientTransform="matrix(1, 0, 0, 1, 0, 0)" gradientUnits="userSpaceOnUse">
      <stop offset="0" stop-color="#6e2ff4"/>
      <stop offset=".77" stop-color="#9973fd"/>
      <stop offset="1" stop-color="#a989fd"/>
    </linearGradient>
    <style>
      .cls-1{fill:#183dd1}.cls-13{stroke:#183dd1;stroke-width:3px;fill:#a6bffd;stroke-miterlimit:10}
    </style>
  </defs>
  <path d="M166.7 156.85c-.47-2.92-1.01-6.02-2.95-8.25-1.58-1.82-3.88-2.82-6.1-3.76-3.17-1.35-6.35-2.7-9.52-4.05-3.2-1.36-6.44-2.73-9.87-3.25-3.88-.59-7.86-.08-11.7.75-4.96 1.07-9.8 2.67-14.42 4.75-2.35 1.06-4.67 2.26-7.19 2.81-6.77 1.49-13.89-1.87-20.69-.47l-7.96 8.2c-.83 3.8-1.59 7.64-1.57 11.53.07 12.69 8.31 23.69 16.18 33.66.98 1.25 2.03 2.55 3.5 3.15 1.57.65 3.37.39 5.01-.07 4.88-1.39 9.13-4.49 14.02-5.85 10.05-2.8 21.11 2.15 31.09-.88 6.33-1.92 11.28-6.77 15.77-11.63 2.18-2.36 4.34-4.81 5.69-7.73 2.67-5.82 1.72-12.58.71-18.9Z" style="stroke:#183dd1;stroke-width:3px;stroke-linejoin:round;fill:url(#linear-gradient)"/>
  <path d="M38.54 132.11c-4.2 5.08-8.64 10.77-8.5 17.36.05 2.5.78 4.94.99 7.43.4 4.57-1.01 9.28-3.85 12.88-.23.3-.49.6-.57.97-.16.69.32 1.36.81 1.88 3.71 3.91 9.47 4.94 14.83 5.5 5.68.59 11.47.88 17.05-.33 10.24-2.23 19.17-9.79 23.05-19.53.84-2.1 1.46-4.43.87-6.61" style="fill:url(#linear-gradient-2);stroke:#183dd1;stroke-width:3px;stroke-linejoin:round"/>
  <path d="M49.74 90.24c-10.79 4.33-21.72 8.71-33.25 10.2-3.48.45-7.19.7-10.06 2.73-2.73 1.93-4.25 5.25-4.54 8.58-.29 3.33.54 6.67 1.78 9.77 3.81 9.6 11.69 17.5 21.27 21.34 4.67 1.87 9.75 2.85 13.99 5.54 6.01 3.81 9.99 10.85 16.82 12.89 5.11 1.53 10.77-.23 15.01-3.48s7.25-7.8 9.9-12.43c4.97-8.69 9-18.23 9.24-28.24.28-11.85-4.72-23.1-9.62-33.89" style="fill:url(#linear-gradient-3);stroke:#183dd1;stroke-width:3px;stroke-linejoin:round"/>
  <path d="M117.92 23.5c-4.56-5.4-5.83-12.69-10.25-17.26-3.36-3.47-8.54-4.4-13.36-4.53-4.33-.12-8.77.29-12.71 2.09-3.35 1.53-6.17 3.98-9.03 6.29-13.71 11.1-29.46 19.94-41.09 33.2-3.55 4.04-6.79 8.77-7.14 14.14-.51 7.87 5.14 14.57 9.13 21.38 3 5.13 5.18 10.75 6.41 16.57.37 1.75.67 3.56 1.6 5.09 2.3 3.81 7.66 4.55 11.96 3.39 4.29-1.16 8.08-3.72 12.31-5.11 3.29-1.09 6.78-1.43 10.15-2.25 5.57-1.34 10.75-3.93 15.87-6.5 4.31-2.16 8.62-4.32 12.94-6.48 1.74-.87 3.51-1.76 4.87-3.15 2-2.04 2.88-4.89 3.7-7.63 1.93-6.49 3.87-12.99 5.8-19.49 1.44-4.85 2.9-9.8 2.8-14.86-.11-5.17-1.85-10.17-3.94-14.9Z" style="fill:url(#linear-gradient-4);stroke:#183dd1;stroke-width:3px;stroke-linejoin:round"/>
  <path d="M111.94 139.5a38.264 38.264 0 0 1-19.57-8.92c-3.53-3.06-6.56-6.81-10.69-8.99-7.16-3.78-15.93-2.01-23.6.6-7.93 2.69-15.63 6.21-22.45 11.06-2.21 1.57-4.51 3.66-4.52 6.37 0 1.93 1.2 3.64 2.43 5.14 4.7 5.75 10.45 10.54 15.98 15.5 2.89 2.59 5.79 5.29 9.33 6.89 3.34 1.51 7.08 1.97 10.75 2.01 5.82.06 11.65-.87 17.16-2.74 6-2.04 11.59-5.17 17.57-7.25 5.99-2.08 12.71-3.06 18.59-.71 1.68.67 3.37 1.62 5.17 1.44 2.93-.3 4.68-3.36 5.74-6.11.53-1.37 1.01-2.78 1.04-4.24.1-4.73-4.6-8.3-9.24-9.26-4.64-.97-9.46-.2-14.17-.74" style="fill:url(#linear-gradient-5);stroke:#183dd1;stroke-width:3px;stroke-linejoin:round"/>
  <path d="M93.69 74.48c-1.76-6.58-6.74-12.21-13.05-14.76-4.33-1.75-9.26-2.16-13.13-4.77-.6-.41-1.26-.88-1.97-.77-.78.13-1.26.9-1.61 1.61-4.63 9.42-4.46 20.51-2.71 30.86 1.41 8.36 3.78 16.55 7.04 24.37 2.84 6.8 6.5 13.5 12.25 18.11s13.96 6.72 20.67 3.67c1.75-.8 3.42-2 4.25-3.74.55-1.16.68-2.48.73-3.77.57-15.05-8.82-28.91-9.54-43.96" style="fill:url(#linear-gradient-6);stroke:#183dd1;stroke-width:3px;stroke-linejoin:round"/>
  <path d="M214.6 73.39c-1.29-2.2-3.5-4.16-3.36-6.71.06-1.18.64-2.26 1.07-3.36 1.29-3.28 1.1-7.52-1.62-9.75-1.59-1.3-3.71-1.69-5.74-2.04-11.33-1.93-23.08-3.84-34.17-.85l-32.85 28.85c-6.47 15.52-8.12 33.02-4.66 49.48.61 2.91 1.38 5.8 2.62 8.51 1.39 3.03 3.35 5.78 5.57 8.26 10.7 11.95 28.04 17.46 43.72 14.09 11.75-2.53 23.01-10.72 25.78-22.42 2-8.42-.57-17.18-.94-25.83-.26-6.03.57-12.1 2.43-17.83 1.09-3.36 2.54-6.63 3.27-10.09s.67-7.26-1.12-10.31Z" style="fill:url(#linear-gradient-7);stroke:#183dd1;stroke-width:3px;stroke-linejoin:round"/>
  <path d="M117.73 58.15c-5.86-2.61-11.3-6.2-16-10.56-3.39-3.15-6.64-7.66-5.16-12.05 1.01-3.02 3.98-4.92 6.93-6.14 6.52-2.69 13.93-3.13 20.73-1.26 6.14 1.7 11.67 5.19 17.85 6.72 7.45 1.84 15.84.86 22.25 5.06 5.34 3.5 8.01 9.79 10.39 15.71l7.65 19.02c1.5 3.72 3.01 7.5 3.42 11.49.49 4.78-.62 9.57-1.85 14.21-1.63 6.13-3.56 12.37-7.51 17.33-3.95 4.96-10.39 8.42-16.6 7.16-2.88-.58-5.47-2.1-7.98-3.62-6.17-3.74-12.46-7.92-16-14.21-1.5-2.66-2.44-5.59-3.37-8.49l-5.05-15.8" style="fill:url(#linear-gradient-8);stroke:#183dd1;stroke-width:3px;stroke-linejoin:round"/>
  <path d="M137.49 109.12c-1.22-5.38.22-11.1 2.93-15.9 2.72-4.8 6.64-8.8 10.68-12.54 2.26-2.09 4.72-4.41 5.04-7.46.24-2.34-.92-4.71-2.73-6.21s-4.2-2.2-6.56-2.27c-2.06-.06-4.26.31-6.08-.67-2.53-1.37-3.14-4.63-4.21-7.31-2.36-5.9-8.46-10.11-14.82-10.24-1.08-.02-2.19.07-3.16.55-1.01.5-1.79 1.37-2.53 2.22-4.45 5.06-9.09 10.09-14.87 13.56-2.88 1.73-6.02 3.05-8.66 5.12-4.97 3.92-7.63 10.14-8.8 16.36-1.39 7.36-.57 15.88 4.99 20.9 1.99 1.8 4.45 3.01 6.95 3.97 13.25 5.11 28.84 3.71 40.97-3.67.64-.39 1.42-.82 2.11-.52" style="fill:url(#linear-gradient-9);stroke:#183dd1;stroke-width:3px;stroke-linejoin:round"/>
  <path d="M144.95 102.1c-.2-2.33-.51-4.75-1.83-6.68-.8-1.17-2.09-2.14-3.5-2.03-.96.08-1.81.64-2.56 1.26-2.13 1.78-3.7 4.14-5.68 6.08-5.22 5.13-12.96 7.03-20.26 6.64-7.26-.39-14.24-2.8-21.07-5.3-1.51 3.57-2.26 7.39-2.31 11.24-.12 8.78 3.37 17.71 9.53 24.06 2.45 2.53 5.31 4.71 8.61 5.93 4.14 1.53 8.7 1.45 13.09.98 3.92-.41 7.92-1.15 11.25-3.26s5.7-5.41 7.98-8.62c2.29-3.23 4.62-6.53 5.85-10.3 1.1-3.36 1.29-6.96 1.29-10.5 0-3.17-.13-6.35-.4-9.51Z" style="fill:url(#linear-gradient-10);stroke:#183dd1;stroke-width:3px;stroke-linejoin:round"/>
  <path d="M89.92 102.03s.09.03.13.05c.02-.04.03-.08.04-.12l-.18.07Z" style="fill:url(#linear-gradient-11);stroke:#183dd1;stroke-width:3px;stroke-linejoin:round"/>
  <path class="cls-1" d="M94.49 102.81c-1.56-7.8-2.95-17.16 4.1-22.75 2.97-2.35 6.58-3.78 9.92-5.53 3.76-1.97 6.87-4.49 9.63-7.71 1.67-1.95 3.22-4.01 5.01-5.86 1.54-1.61 3.91-3.45 6.18-2.09 1.66.99 3.17-1.6 1.51-2.59-4.67-2.79-8.96 1.45-11.79 4.79-3.13 3.71-6.03 7.43-10.3 9.91-3.66 2.12-7.69 3.6-11.14 6.09s-6.12 6.2-6.98 10.61c-1.03 5.29-.08 10.72.96 15.94.38 1.89 3.27 1.09 2.89-.8Z"/>
  <path class="cls-1" d="M124.46 67.45c6.41 1.31 9.93 7.99 9.06 14.17-.98 6.97-5.33 13.01-5.33 20.19 0 1.93 3 1.93 3 0 0-7.77 5.35-14.38 5.48-22.16.11-6.81-4.56-13.69-11.41-15.09-1.88-.38-2.69 2.51-.8 2.89Z"/>
  <path class="cls-1" d="M104.63 103.89c-2.34-6.7 3.43-12.54 9.05-15.09 3.34-1.51 6.95-2.34 10.48-3.25 1.65-.42 3.39-.85 4.8-1.85s2.36-2.54 3.05-4.16c1.54-3.58 1.8-7.57-.1-11.09-.92-1.7-3.51-.19-2.59 1.51 1.63 3.02 1.01 6.65-.61 9.54-.93 1.66-2.35 2.34-4.13 2.83s-3.46.88-5.19 1.35c-6.52 1.78-13.29 4.56-16.61 10.86-1.64 3.12-2.24 6.75-1.05 10.13.63 1.81 3.53 1.03 2.89-.8Z"/>
  <path class="cls-1" d="M118.85 69.5c-2.49 2.16-3.65 5.55-3.14 8.79.48 3.05 2.67 5.84 5.5 7.08.74.32 1.61.22 2.05-.54.37-.64.21-1.73-.54-2.05-2.11-.92-3.71-2.78-4.09-5.09s.63-4.58 2.34-6.07c.61-.53.54-1.58 0-2.12-.61-.61-1.51-.53-2.12 0Z"/>
  <path class="cls-1" d="M122.66 78.19c.24-.22.47-.44.72-.65l.15-.12c-.14.1-.13.1 0 0 .12-.09.25-.17.38-.25s.26-.14.39-.21c-.33.16.13-.04.21-.06l.36-.09c.17-.03.16-.03-.04 0 .08 0 .16-.01.24-.02h.37c.08 0 .16 0 .24.02-.2-.03-.21-.03-.04 0 .12.03.24.05.36.08.07.02.54.22.21.06.11.05.21.12.32.17.29.14-.21-.22-.07-.06.04.05.09.1.14.14.17.15-.22-.34-.02-.01.1.16.2.32.28.5.05.09.08.19.13.28.05.1.03.05-.06-.15.02.06.05.12.07.17.16.42.3.86.42 1.3s.21.85.29 1.28l.06.33c.04.28-.01.05 0-.09 0 .17.04.35.05.52.05.78.66 1.54 1.5 1.5.77-.03 1.55-.66 1.5-1.5-.1-1.69-.55-3.42-1.26-4.96-.35-.76-.86-1.5-1.61-1.9-1.18-.64-2.51-.8-3.82-.56-1.43.25-2.56 1.2-3.59 2.17-.57.54-.58 1.59 0 2.12.61.56 1.51.57 2.12 0Z"/>
  <path class="cls-13" d="M140.21 94.56c-.67-.66-1.81-.36-2.63.11-2.34 1.37-3.88 3.74-5.65 5.79-6.27 7.25-16.52 10.83-25.94 9.05-5.47-1.03-10.5-3.7-15.91-5.01-2.5-.61-5.29-1.05-6.92-3.03-1.04-1.26-1.41-2.92-1.7-4.53a76.1 76.1 0 0 1-1.13-10.32c-.01-.37-.04-.76-.26-1.05-.39-.51-1.24-.41-1.71.02s-.67 1.09-.84 1.7c-.91 3.19-1.82 6.42-1.93 9.73-.12 3.31 6.85 13.27 9.4 14.52 2.55 1.25 5.5 1.43 8.33 1.29 2.84-.14 6.45 2.36 9.29 2.45 5.2.15 11.86.69 17.07.85 5.27.17 8.16-3.11 12.35-6.3 4.19-3.19 7.24-7.86 8.47-12.98.19-.79.3-1.73-.28-2.3Z"/>
  <path class="cls-13" d="M83.59 126.77c-6.28-3.89-10.34-10.62-12.74-17.61s-3.35-14.38-4.83-21.62c-.93-4.56-2.09-9.2-1.47-13.81.52-3.89 2.29-7.55 2.61-11.46.31-3.91-7.08-8.34-7.08-8.34-8.4 76.52 29.87 82.51 30.2 80.75.34-1.82-5.13-6.94-6.7-7.91ZM183.06 66.11c-1.81-4.29-4.5-8.13-6.92-12.11-2.44-4.02-4.63-8.21-7.5-11.94s-6.5-7.04-10.95-8.57c-3.02-1.04-6.28-1.22-9.3-2.28-2.47-.86-4.71-2.29-7.16-3.24-2.96-1.14-6.14-1.55-9.28-1.95-3.85-.49-7.76-.98-11.61-.61-3.08-.7-6.24-1.06-9.4-1.03-1.45.01-2.96.12-4.2.85-1.25.73-2.14 2.26-1.69 3.64.6 1.86 2.99 2.3 4.94 2.37 5.86.22 11.74.01 17.57.65 5.83.63 11.7 2.18 16.49 5.57 1.6 1.14 3.1 2.48 4.91 3.24 3.25 1.35 7.1.63 10.31 2.07 2.78 1.24 4.63 3.89 6.29 6.45 4.81 7.41 9.21 15.09 13.17 22.99 1.43 2.84 2.93 5.86 5.64 7.53 1.38-4.44.5-9.32-1.31-13.61ZM210.19 131.24l.61-.69c-1.06-.38-1.93.86-2.4 1.87-2.59 5.66-5.79 11.13-10.21 15.51s-10.19 7.6-16.4 8.12c-1.28.11-2.6.11-3.79.61s-2.21 1.67-2.04 2.95c.28 2.13 3.17 2.57 5.31 2.31 6.79-.83 13.42-2.99 19.39-6.34 2.02-1.13 3.98-2.42 5.57-4.1 4.28-4.55 5.19-11.28 5.28-17.53.02-1.09-.24-2.5-1.31-2.69ZM94.84 157.29c-1.56.06-3.12.12-4.68.19l-.36.54c-2.55.75-4.97 1.89-7.52 2.62-6.53 1.87-13.92 1.05-19.7 4.61-.15.09-.31.2-.39.37-.15.36.19.73.51.95 2.28 1.58 5.19 1.94 7.97 1.96 9.25.07 18.5-3.17 25.68-9 .31-.25.64-.54.7-.94.16-.97-1.23-1.34-2.21-1.3Z"/>
</svg>
