<?xml version="1.0" encoding="UTF-8"?>
<svg id="Layer_1" data-name="Layer 1" xmlns="http://www.w3.org/2000/svg" width="800" height="1193" xmlns:xlink="http://www.w3.org/1999/xlink" viewBox="0 0 800 1193">
  <defs>
    <style>
      .cls-1 {
        stroke-dasharray: 0 0 11.98 11.98;
      }

      .cls-1, .cls-2 {
        fill: none;
        stroke: #fff;
      }

      .cls-1, .cls-2, .cls-3, .cls-4 {
        stroke-width: 3px;
      }

      .cls-1, .cls-2, .cls-4 {
        stroke-linejoin: round;
      }

      .cls-5 {
        fill: #6e2ff4;
      }

      .cls-3 {
        fill: url(#linear-gradient-2);
        stroke: #0f6a80;
        stroke-miterlimit: 10;
      }

      .cls-4 {
        fill: url(#linear-gradient);
        stroke: #6e2ff4;
      }
    </style>
    <linearGradient id="linear-gradient" x1="86.54" y1="134.31" x2="86.54" y2="41.75" gradientTransform="matrix(1, 0, 0, 1, 0, 0)" gradientUnits="userSpaceOnUse">
      <stop offset="0" stop-color="#6e2ff4"/>
      <stop offset="1" stop-color="#9973fd"/>
    </linearGradient>
    <linearGradient id="linear-gradient-2" x1="723.97" y1="1150.89" x2="723.97" y2="1058.33" gradientTransform="matrix(1, 0, 0, 1, 0, 0)" gradientUnits="userSpaceOnUse">
      <stop offset="0" stop-color="#30c8c9"/>
      <stop offset="1" stop-color="#9ef9e0"/>
    </linearGradient>
  </defs>
  <path class="cls-4" d="M86.54,41.75c-15.81,0-28.63,12.82-28.63,28.63s21.18,63.93,28.63,63.93,28.63-48.12,28.63-63.93-12.82-28.63-28.63-28.63Zm0,36.01c-5.88,0-10.65-4.77-10.65-10.65s4.77-10.65,10.65-10.65,10.65,4.77,10.65,10.65-4.77,10.65-10.65,10.65Z"/>
  <path class="cls-3" d="M723.97,1058.33c-15.81,0-28.63,12.82-28.63,28.63s21.18,63.93,28.63,63.93,28.63-48.12,28.63-63.93-12.82-28.63-28.63-28.63Zm0,36.01c-5.88,0-10.65-4.77-10.65-10.65s4.77-10.65,10.65-10.65,10.65,4.77,10.65,10.65-4.77,10.65-10.65,10.65Z"/>
  <path class="cls-5" d="M455.63,242.75c1.93,0,1.93-3,0-3s-1.93,3,0,3h0Z"/>
  <g>
    <path class="cls-2" d="M100.78,140.42s2.07-.17,5.98-.48"/>
    <path class="cls-1" d="M118.69,139.06c105.49-7.53,641.01-38.82,641.01,102.19,0,156.41-678.44,69.34-683.81,260.16s671.47,7.41,676.72,127.83c5.25,120.42-546.84,53.73-543.14,209.35,3.71,155.62,422.4,25.94,426.11,133.39,3.71,107.45-461.31,42.79-461.31,122.36,0,72.39,431.23,59.87,509.1,57.02"/>
    <path class="cls-2" d="M689.35,1151.13c3.91-.15,5.99-.24,5.99-.24"/>
  </g>
</svg>