<svg id="Layer_1" data-name="Layer 1" xmlns="http://www.w3.org/2000/svg" width="800" height="900" viewBox="0 0 800 900">
  <defs>
    <style>
      .cls-1{fill:#fff}
    </style>
  </defs>
  <path class="cls-1" d="M277.12 866.95c1.93 0 1.93-3 0-3s-1.93 3 0 3ZM369.44 46.31c1.93 0 1.93-3 0-3s-1.93 3 0 3ZM123.25 162.57c1.93 0 1.93-3 0-3s-1.93 3 0 3ZM482.28 289.08c1.93 0 1.93-3 0-3s-1.93 3 0 3ZM154.02 483.98c1.93 0 1.93-3 0-3s-1.93 3 0 3ZM313.02 331.82c1.93 0 1.93-3 0-3s-1.93 3 0 3ZM672.05 654.95c1.93 0 1.93-3 0-3s-1.93 3 0 3ZM436.12 583.14c1.93 0 1.93-3 0-3s-1.93 3 0 3ZM359.18 769.5c1.93 0 1.93-3 0-3s-1.93 3 0 3ZM61.7 723.34c1.93 0 1.93-3 0-3s-1.93 3 0 3ZM714.79 825.92c1.93 0 1.93-3 0-3s-1.93 3 0 3ZM617.34 419.02c1.93 0 1.93-3 0-3s-1.93 3 0 3ZM699.41 82.21c1.93 0 1.93-3 0-3s-1.93 3 0 3ZM781.47 254.89c1.93 0 1.93-3 0-3s-1.93 3 0 3ZM30.93 313.02c1.93 0 1.93-3 0-3s-1.93 3 0 3ZM20.67 607.08c1.93 0 1.93-3 0-3s-1.93 3 0 3ZM779.76 632.72c1.93 0 1.93-3 0-3s-1.93 3 0 3ZM260.02 639.56c1.93 0 1.93-3 0-3s-1.93 3 0 3Z"/>
</svg>
