<svg id="Layer_1" data-name="Layer 1" xmlns="http://www.w3.org/2000/svg" width="800" height="900" viewBox="0 0 800 900">
  <defs>
    <style>
      .cls-1{fill:#fff}
    </style>
  </defs>
  <g style="opacity:.6">
    <path class="cls-1" d="M74.31 58.28c1.93 0 1.93-3 0-3s-1.93 3 0 3ZM253.82 203.6c1.93 0 1.93-3 0-3s-1.93 3 0 3ZM269.21 18.96c1.93 0 1.93-3 0-3s-1.93 3 0 3ZM117.05 169.41c1.93 0 1.93-3 0-3s-1.93 3 0 3ZM373.5 513.05c1.93 0 1.93-3 0-3s-1.93 3 0 3ZM57.21 362.6c1.93 0 1.93-3 0-3s-1.93 3 0 3ZM183.73 333.53c1.93 0 1.93-3 0-3s-1.93 3 0 3ZM192.28 552.37c1.93 0 1.93-3 0-3s-1.93 3 0 3ZM46.95 617.34c1.93 0 1.93-3 0-3s-1.93 3 0 3ZM582.08 820.79c1.93 0 1.93-3 0-3s-1.93 3 0 3ZM730.82 661.79c1.93 0 1.93-3 0-3s-1.93 3 0 3ZM551.31 625.89c1.93 0 1.93-3 0-3s-1.93 3 0 3ZM689.79 359.18c1.93 0 1.93-3 0-3s-1.93 3 0 3ZM481.21 242.92c1.93 0 1.93-3 0-3s-1.93 3 0 3ZM470.95 89.05c1.93 0 1.93-3 0-3s-1.93 3 0 3ZM664.14 24.08c1.93 0 1.93-3 0-3s-1.93 3 0 3ZM725.69 138.63c1.93 0 1.93-3 0-3s-1.93 3 0 3ZM705.17 188.21c1.93 0 1.93-3 0-3s-1.93 3 0 3ZM356.4 395.08c1.93 0 1.93-3 0-3s-1.93 3 0 3ZM667.56 473.73c1.93 0 1.93-3 0-3s-1.93 3 0 3ZM686.37 518.18c1.93 0 1.93-3 0-3s-1.93 3 0 3ZM286.31 677.18c1.93 0 1.93-3 0-3s-1.93 3 0 3ZM109.92 780.69c1.93 0 1.93-3 0-3s-1.93 3 0 3ZM147.53 796.08c1.93 0 1.93-3 0-3s-1.93 3 0 3ZM378.63 858.4c1.93 0 1.93-3 0-3s-1.93 3 0 3ZM419.66 757.53c1.93 0 1.93-3 0-3s-1.93 3 0 3ZM747.92 846.43c1.93 0 1.93-3 0-3s-1.93 3 0 3ZM370.08 165.99c1.93 0 1.93-3 0-3s-1.93 3 0 3ZM561.56 393.37c1.93 0 1.93-3 0-3s-1.93 3 0 3ZM797.5 419.02c1.93 0 1.93-3 0-3s-1.93 3 0 3ZM790.66 220.7c1.93 0 1.93-3 0-3s-1.93 3 0 3ZM9.34 499.37c1.93 0 1.93-3 0-3s-1.93 3 0 3Z"/>
  </g>
</svg>
