<?xml version="1.0" encoding="UTF-8"?>
<svg id="Layer_1" data-name="Layer 1" xmlns="http://www.w3.org/2000/svg" width="353" height="221" xmlns:xlink="http://www.w3.org/1999/xlink" viewBox="0 0 353 221">
  <defs>
    <style>
      .cls-1, .cls-2 {
        fill: none;
      }

      .cls-1, .cls-2, .cls-3, .cls-4, .cls-5 {
        stroke-linejoin: round;
      }

      .cls-1, .cls-4 {
        stroke: #22262a;
      }

      .cls-6, .cls-5, .cls-7 {
        fill: #fff;
      }

      .cls-8 {
        fill: #a6a6a6;
      }

      .cls-9, .cls-4 {
        fill: #22262a;
      }

      .cls-2 {
        stroke: #0f6a80;
      }

      .cls-2, .cls-3, .cls-4, .cls-5 {
        stroke-width: 3px;
      }

      .cls-10 {
        opacity: .4;
      }

      .cls-10, .cls-11 {
        fill: url(#linear-gradient);
      }

      .cls-3 {
        fill: #e5e5e5;
      }

      .cls-3, .cls-5 {
        stroke: #c4c4c4;
      }

      .cls-11 {
        opacity: .8;
      }

      .cls-12, .cls-7 {
        opacity: .9;
      }
    </style>
    <linearGradient id="linear-gradient" x1="26.87" y1="95.45" x2="326.29" y2="95.45" gradientTransform="matrix(1, 0, 0, 1, 0, 0)" gradientUnits="userSpaceOnUse">
      <stop offset="0" stop-color="#30c8c9"/>
      <stop offset="1" stop-color="#9ef9e0"/>
    </linearGradient>
  </defs>
  <path class="cls-5" d="M349.93,158.21c0,25.18-77.65,58.46-173.43,58.46S3.07,183.39,3.07,158.21s77.65-34.32,173.43-34.32,173.43,9.14,173.43,34.32Z"/>
  <ellipse class="cls-5" cx="176.5" cy="158.21" rx="173.43" ry="45.6"/>
  <path class="cls-11" d="M280.97,19.5c0-8.37-46.67-15.16-104.23-15.16s-104.23,6.79-104.23,15.16C20.23,85.56,27.18,134.04,27.18,147.24c0,21.72,66.96,39.32,149.55,39.32s149.56-17.6,149.56-39.32c0-13.57-7.12-84.42-45.32-127.75Z"/>
  <path class="cls-8" d="M27.05,142.44c.07,1.92,.13,3.53,.13,4.8,0,21.72,66.96,39.32,149.55,39.32s149.56-17.6,149.56-39.32c0-1.22-.06-2.9-.19-4.98-23.99-12.64-81.82-21.55-149.36-21.55s-125.9,8.99-149.69,21.72Z"/>
  <g>
    <rect class="cls-3" x="81.31" y="95.33" width="150.34" height="14.27" transform="translate(22.66 -28.21) rotate(11.1)"/>
    <path class="cls-4" d="M159.33,73.14l.76-3.86-69.77-13.69-13.03,24.07,65.21,12.8h0l144.03,28.26,2.51-12.82s-52.45-20.01-129.71-34.76Z"/>
    <path class="cls-4" d="M229.94,105.91l-10.41,18.11c-2.79,4.59-5.87,6.49-10.95,6l-3.98-.39-135.29-13.15-1.24,12.77,218.35,21.22,.53-5.4,.72-7.36,2.52-25.93-60.24-5.85Z"/>
    <circle class="cls-9" cx="90.07" cy="89.44" r="1.76"/>
    <line class="cls-1" x1="99.41" y1="91.2" x2="227.98" y2="116.74"/>
  </g>
  <path class="cls-10" d="M280.97,19.5c0-8.37-46.67-15.16-104.23-15.16s-104.23,6.79-104.23,15.16C20.23,85.56,27.18,134.04,27.18,147.24c0,21.72,66.96,39.32,149.55,39.32s149.56-17.6,149.56-39.32c0-13.57-7.12-84.42-45.32-127.75Z"/>
  <g>
    <path class="cls-2" d="M280.97,19.5c38.2,43.32,45.32,114.17,45.32,127.75,0,21.72-66.96,39.32-149.55,39.32S27.18,168.96,27.18,147.24c0-13.2-6.95-61.68,45.32-127.75"/>
    <ellipse class="cls-2" cx="176.74" cy="19.5" rx="104.23" ry="15.16"/>
  </g>
  <g class="cls-12">
    <path class="cls-6" d="M71.12,157.79c-3.16-2.97-7.52-4.19-11.6-5.68-4.08-1.49-8.31-3.6-10.27-7.47-1.49-2.95-4.31-32.71-8.71-33.26-4.4-.54-7.76,30.3-3.27,39.66,.83,1.72,2.51,2.89,4.14,3.89,2.39,1.46,5.02,2.48,7.67,3.41,6.47,2.25,13.13,3.96,19.89,5.1,1.03,.17,2.17,.31,3.02-.29,1.69-1.2,.65-3.93-.87-5.35Z"/>
  </g>
  <ellipse class="cls-7" cx="227.98" cy="24.55" rx="35.43" ry="3.61" transform="translate(-1.15 15.84) rotate(-3.97)"/>
  <path class="cls-7" d="M250.27,171.56c.14,1.99-16.28,4.19-35.8,5.54s-35.2,.39-35.34-1.6,15.82-1.46,35.34-2.81c19.52-1.35,35.66-3.12,35.8-1.13Z"/>
  <path class="cls-7" d="M266.78,120.64c-4.8,1.19-7.31-11.63-10.16-27.1-2.86-15.48-4.94-28.63-.18-28.94,4.76-.31,7.31,11.63,10.16,27.1,2.86,15.48,4.98,27.76,.18,28.94Z"/>
</svg>