<?xml version="1.0" encoding="UTF-8"?>
<svg id="Layer_1" data-name="Layer 1" xmlns="http://www.w3.org/2000/svg" width="237" height="148" xmlns:xlink="http://www.w3.org/1999/xlink" viewBox="0 0 237 148">
  <defs>
    <style>
      .cls-1, .cls-2 {
        fill: none;
      }

      .cls-1, .cls-2, .cls-3, .cls-4, .cls-5 {
        stroke-linejoin: round;
      }

      .cls-1, .cls-4 {
        stroke: #22262a;
      }

      .cls-6, .cls-5, .cls-7 {
        fill: #fff;
      }

      .cls-8 {
        fill: #a6a6a6;
      }

      .cls-9, .cls-4 {
        fill: #22262a;
      }

      .cls-2 {
        stroke: #0f6a80;
      }

      .cls-2, .cls-3, .cls-4, .cls-5 {
        stroke-width: 3px;
      }

      .cls-10 {
        opacity: .4;
      }

      .cls-10, .cls-11 {
        fill: url(#linear-gradient);
      }

      .cls-3 {
        fill: #e5e5e5;
      }

      .cls-3, .cls-5 {
        stroke: #c4c4c4;
      }

      .cls-11 {
        opacity: .8;
      }

      .cls-12, .cls-7 {
        opacity: .9;
      }
    </style>
    <linearGradient id="linear-gradient" x1="18.7" y1="65.44" x2="218.11" y2="65.44" gradientTransform="matrix(1, 0, 0, 1, 0, 0)" gradientUnits="userSpaceOnUse">
      <stop offset="0" stop-color="#30c8c9"/>
      <stop offset="1" stop-color="#9ef9e0"/>
    </linearGradient>
  </defs>
  <path class="cls-5" d="M233.86,107.24c0,16.77-51.71,38.93-115.51,38.93S2.84,124.02,2.84,107.24s51.71-22.86,115.51-22.86,115.51,6.09,115.51,22.86Z"/>
  <ellipse class="cls-5" cx="118.35" cy="107.24" rx="115.51" ry="30.37"/>
  <path class="cls-11" d="M187.93,14.86c0-5.58-31.08-10.1-69.42-10.1S49.09,9.28,49.09,14.86C14.27,58.86,18.9,91.15,18.9,99.94c0,14.46,44.59,26.19,99.6,26.19s99.61-11.72,99.61-26.19c0-9.04-4.74-56.23-30.19-85.08Z"/>
  <path class="cls-8" d="M18.81,96.74c.05,1.28,.09,2.35,.09,3.2,0,14.46,44.59,26.19,99.6,26.19s99.6-11.72,99.6-26.19c0-.81-.04-1.93-.13-3.31-15.97-8.42-54.49-14.35-99.48-14.35s-83.85,5.99-99.69,14.47Z"/>
  <g>
    <rect class="cls-3" x="54.95" y="65.37" width="100.12" height="9.51" transform="translate(15.47 -18.91) rotate(11.1)"/>
    <path class="cls-4" d="M106.91,50.59l.5-2.57-46.47-9.12-8.68,16.03,43.43,8.52h0l95.93,18.82,1.67-8.54s-34.93-13.32-86.39-23.15Z"/>
    <path class="cls-4" d="M153.94,72.41l-6.94,12.06c-1.86,3.06-3.91,4.32-7.29,3.99l-2.65-.26-90.11-8.76-.83,8.5,145.42,14.13,.35-3.6,.48-4.9,1.68-17.27-40.12-3.9Z"/>
    <circle class="cls-9" cx="60.79" cy="61.44" r="1.17"/>
    <line class="cls-1" x1="67.01" y1="62.61" x2="152.64" y2="79.63"/>
  </g>
  <path class="cls-10" d="M187.93,14.86c0-5.58-31.08-10.1-69.42-10.1S49.09,9.28,49.09,14.86C14.27,58.86,18.9,91.15,18.9,99.94c0,14.46,44.59,26.19,99.6,26.19s99.61-11.72,99.61-26.19c0-9.04-4.74-56.23-30.19-85.08Z"/>
  <g>
    <path class="cls-2" d="M187.93,14.86c25.44,28.85,30.19,76.04,30.19,85.08,0,14.46-44.59,26.19-99.6,26.19s-99.6-11.72-99.6-26.19c0-8.79-4.63-41.08,30.19-85.08"/>
    <ellipse class="cls-2" cx="118.51" cy="14.86" rx="69.42" ry="10.1"/>
  </g>
  <g class="cls-12">
    <path class="cls-6" d="M48.17,106.96c-2.11-1.98-5.01-2.79-7.73-3.78-2.71-.99-5.54-2.4-6.84-4.97-1-1.96-2.87-21.79-5.8-22.15s-5.17,20.18-2.18,26.42c.55,1.15,1.67,1.92,2.76,2.59,1.59,.97,3.34,1.65,5.11,2.27,4.31,1.5,8.75,2.64,13.25,3.39,.68,.11,1.45,.2,2.01-.2,1.13-.8,.43-2.62-.58-3.56Z"/>
  </g>
  <ellipse class="cls-7" cx="152.64" cy="18.23" rx="23.59" ry="2.4" transform="translate(-.9 10.61) rotate(-3.97)"/>
  <path class="cls-7" d="M167.48,116.13c.09,1.32-10.84,2.79-23.84,3.69-13,.9-23.45,.26-23.54-1.07s10.54-.97,23.54-1.87c13-.9,23.75-2.08,23.84-.75Z"/>
  <path class="cls-7" d="M178.48,82.22c-3.2,.79-4.87-7.74-6.77-18.05-1.9-10.31-3.29-19.07-.12-19.28s4.87,7.74,6.77,18.05c1.9,10.31,3.32,18.49,.12,19.28Z"/>
</svg>