<?xml version="1.0" encoding="UTF-8"?>
<svg id="Layer_1" data-name="Layer 1" xmlns="http://www.w3.org/2000/svg" width="160" height="145" xmlns:xlink="http://www.w3.org/1999/xlink" viewBox="0 0 160 145">
  <defs>
    <style>
      .cls-1 {
        fill: #484d51;
      }

      .cls-2 {
        fill: url(#linear-gradient);
      }

      .cls-2, .cls-3, .cls-4 {
        stroke: #c4c4c4;
        stroke-linejoin: round;
        stroke-width: 3px;
      }

      .cls-3 {
        fill: url(#linear-gradient-2);
      }

      .cls-4 {
        fill: url(#linear-gradient-3);
      }
    </style>
    <linearGradient id="linear-gradient" x1="157.17" y1="75.31" x2="43.63" y2="75.31" gradientTransform="matrix(1, 0, 0, 1, 0, 0)" gradientUnits="userSpaceOnUse">
      <stop offset=".27" stop-color="#f7f7f7"/>
      <stop offset=".7" stop-color="#e6e6e6"/>
      <stop offset="1" stop-color="#ccc"/>
    </linearGradient>
    <linearGradient id="linear-gradient-2" x1="100.4" y1="3" x2="100.4" y2="14.05" xlink:href="#linear-gradient"/>
    <linearGradient id="linear-gradient-3" x1="3" y1="65.88" x2="48.39" y2="65.88" xlink:href="#linear-gradient"/>
  </defs>
  <path class="cls-2" d="M43.63,8.53V116.23c0,2.45,2.17,4.77,6.01,6.82l3.27,8.42s8.62,10.61,48.05,10.61,47.55-10.61,47.55-10.61l3.87-9.11c3.08-1.88,4.8-3.95,4.8-6.13V8.53H43.63Z"/>
  <ellipse class="cls-3" cx="100.4" cy="8.53" rx="56.77" ry="5.53"/>
  <path class="cls-4" d="M43.55,21.23s-3.43,1.46-7.26,0S7.25,17.75,4.02,48.41c-3.23,30.66,.81,57.28,17.95,61.11s25.82,0,25.82,0c0,0,2.22-13.92-1.82-14.72-4.03-.81-5.43,8.67-15.02,7.87s-17.86-8.46-18.66-32.67c-.81-24.21,4.43-38.53,13.41-38.73s15.84,3.63,18.26,10.89c0,0,4.64-12.82-.4-20.93Z"/>
  <g>
    <path class="cls-1" d="M59.8,59.22c-1.37-5.7-2.05-8.55-3.4-14.25,1.14,.11,1.72,.17,2.86,.27,.85,3.91,1.28,5.86,2.14,9.77,.98-3.75,1.48-5.62,2.46-9.37,1.33,.11,1.99,.16,3.32,.25,1,3.97,1.51,5.95,2.51,9.91,.82-3.84,1.23-5.76,2.05-9.61,1.12,.07,1.68,.1,2.81,.16-1.29,5.51-1.94,8.26-3.23,13.75-1.19-.07-1.79-.11-2.98-.19-1.14-4.25-1.71-6.37-2.85-10.63-1.06,4.09-1.59,6.13-2.66,10.21-1.21-.1-1.81-.15-3.02-.26Z"/>
    <path class="cls-1" d="M75.47,53.44c-.02-1.66,.27-3.01,.85-4.06,.58-1.05,1.35-1.81,2.31-2.3,.95-.49,2.11-.7,3.48-.66,1.98,.07,3.6,.73,4.86,2.01,1.26,1.28,1.91,3.06,1.94,5.37,.03,2.33-.61,4.15-1.92,5.43-1.15,1.13-2.72,1.68-4.71,1.61-2.01-.07-3.6-.71-4.77-1.91-1.34-1.37-2.01-3.21-2.04-5.5Zm2.88,.04c.02,1.6,.4,2.82,1.15,3.66,.75,.83,1.67,1.27,2.76,1.3,1.1,.04,2.01-.34,2.72-1.11,.71-.78,1.06-1.99,1.04-3.64-.02-1.62-.38-2.82-1.1-3.61-.71-.79-1.64-1.2-2.78-1.24-1.14-.04-2.06,.32-2.77,1.07-.71,.75-1.05,1.94-1.03,3.58Z"/>
    <path class="cls-1" d="M91.2,60.8c-.07-5.58-.11-8.37-.18-13.95,2.35,.03,3.53,.03,5.88,.02,1.5,0,2.58,.11,3.23,.35,.65,.24,1.18,.67,1.61,1.28,.42,.61,.64,1.35,.65,2.21,.02,1.09-.29,1.97-.91,2.65-.62,.68-1.52,1.11-2.69,1.29,.6,.35,1.11,.73,1.5,1.15,.4,.42,.94,1.17,1.64,2.25,.69,1.08,1.03,1.61,1.73,2.69-1.34,.03-2.01,.04-3.34,.06-.83-1.2-1.24-1.81-2.07-3.01-.74-1.09-1.25-1.78-1.51-2.05-.27-.27-.54-.46-.84-.57-.29-.1-.76-.16-1.41-.16-.23,0-.35,0-.58,0,.03,2.33,.05,3.49,.08,5.82-1.12,0-1.68,0-2.79-.02Zm2.69-8.03c.83,0,1.24,0,2.07,0,1.27,0,2.07-.05,2.42-.15,.34-.09,.62-.28,.83-.56,.21-.28,.31-.65,.31-1.12,0-.44-.12-.8-.34-1.07-.22-.27-.51-.45-.88-.55-.26-.07-1.02-.1-2.27-.09-.88,0-1.31,0-2.19,0,.02,1.42,.03,2.12,.05,3.54Z"/>
    <path class="cls-1" d="M105.26,60.7l-.21-13.83c1.11-.03,1.67-.04,2.79-.08,.07,4.59,.11,6.88,.18,11.47,2.79-.09,4.18-.15,6.96-.28,.02,.94,.02,1.42,.04,2.36-3.9,.19-5.85,.27-9.76,.36Z"/>
    <path class="cls-1" d="M116.76,46.29c2.04-.11,3.05-.17,5.09-.31,1.29-.09,2.26-.04,2.92,.15,.66,.19,1.27,.54,1.83,1.06,.56,.52,1.01,1.22,1.34,2.09,.33,.87,.51,1.98,.54,3.32,.02,1.2-.12,2.27-.43,3.18s-.72,1.66-1.21,2.22c-.5,.56-1.1,1-1.81,1.32-.71,.32-1.63,.52-2.76,.59-2.1,.14-3.15,.21-5.25,.32-.1-5.58-.15-8.37-.24-13.94Zm2.82,2.2c.07,3.69,.1,5.54,.17,9.23,.84-.05,1.26-.08,2.1-.13,.9-.06,1.55-.18,1.95-.34,.4-.17,.73-.4,.98-.7,.25-.3,.46-.76,.61-1.38,.16-.62,.23-1.43,.21-2.42-.02-1.03-.12-1.84-.31-2.42-.18-.58-.46-1.03-.83-1.35-.37-.32-.82-.51-1.34-.58-.39-.05-1.15-.04-2.27,.03-.51,.03-.76,.05-1.27,.08Z"/>
    <path class="cls-1" d="M130.59,45.3c1.06-.09,1.58-.14,2.64-.25,.02,.77,.02,1.15,.04,1.92,.02,1.08-.11,1.9-.41,2.46-.36,.68-.98,1.23-1.85,1.63-.22-.43-.32-.64-.54-1.07,.52-.22,.89-.5,1.11-.83,.22-.33,.34-.76,.34-1.31-.51,.05-.76,.07-1.27,.12-.02-1.07-.03-1.6-.05-2.67Z"/>
    <path class="cls-1" d="M135.55,54.24c1.09-.22,1.63-.33,2.72-.55,.34,1.75,1.37,2.53,3.07,2.33,.84-.1,1.5-.36,1.97-.78s.7-.9,.69-1.44c0-.32-.1-.58-.27-.78-.17-.2-.43-.35-.78-.45s-1.19-.24-2.52-.42c-1.19-.16-2.07-.39-2.63-.68-.56-.29-1.01-.7-1.34-1.23-.34-.53-.51-1.13-.53-1.78-.02-.76,.18-1.47,.58-2.12,.4-.65,.97-1.17,1.7-1.56,.73-.39,1.63-.65,2.71-.77,1.62-.19,2.89,.02,3.82,.63,.92,.61,1.43,1.59,1.51,2.94-1.11,.19-1.67,.29-2.78,.48-.14-.73-.41-1.22-.83-1.47-.41-.25-.99-.33-1.74-.24-.75,.09-1.32,.28-1.72,.59-.4,.3-.6,.65-.59,1.03,0,.38,.2,.68,.57,.9,.37,.22,1.23,.41,2.55,.56,1.4,.17,2.42,.4,3.05,.69,.63,.29,1.12,.71,1.46,1.25,.34,.54,.52,1.23,.54,2.07,.03,1.21-.4,2.29-1.28,3.23-.88,.94-2.28,1.53-4.19,1.75-3.38,.39-5.3-1.01-5.75-4.16Z"/>
    <path class="cls-1" d="M77.79,67.19c2.23,.1,3.34,.14,5.56,.21,1.52,.05,2.59,.19,3.21,.43,.62,.24,1.15,.66,1.58,1.24,.43,.59,.65,1.24,.66,1.97,0,.67-.17,1.28-.52,1.81-.36,.54-.83,.93-1.4,1.18,.83,.26,1.48,.68,1.95,1.27,.47,.59,.72,1.3,.73,2.14,.01,1.01-.27,1.87-.86,2.56-.59,.69-1.28,1.11-2.09,1.26-.56,.1-1.87,.13-3.93,.06-1.9-.06-2.84-.1-4.74-.18-.06-5.58-.09-8.37-.14-13.94Zm2.82,2.44l.03,3.22c.74,.03,1.11,.04,1.85,.07,1.11,.04,1.8,.04,2.06,.01,.48-.05,.85-.21,1.12-.47,.27-.26,.4-.63,.39-1.09,0-.41-.12-.75-.34-1.01-.22-.26-.49-.43-.8-.5-.31-.07-1.21-.13-2.69-.18-.65-.02-.97-.03-1.62-.06Zm.06,5.55c.02,1.49,.02,2.23,.04,3.72,1.04,.04,1.57,.06,2.61,.09,1.14,.04,1.88,0,2.2-.08,.32-.09,.59-.28,.81-.56,.22-.28,.32-.65,.32-1.09,0-.46-.13-.83-.37-1.13-.24-.3-.56-.51-.95-.63-.39-.12-1.19-.2-2.4-.24-.91-.03-1.36-.04-2.27-.08Z"/>
    <path class="cls-1" d="M91.99,81.52c-.07-5.58-.11-8.37-.18-13.95,4.12,.04,6.19,.03,10.31-.04,.01,.94,.02,1.42,.03,2.36-3.01,.05-4.51,.06-7.52,.05,.02,1.24,.02,1.85,.04,3.09,2.8,0,4.19,0,6.99-.05l.03,2.35c-2.8,.04-4.19,.05-6.99,.05,.02,1.51,.03,2.27,.05,3.79,3.11,0,4.67,0,7.78-.06,.01,.94,.02,1.42,.03,2.36-4.24,.07-6.35,.08-10.59,.04Z"/>
    <path class="cls-1" d="M104.18,76.9c1.1-.13,1.64-.2,2.74-.33,.34,1.77,1.36,2.64,3.07,2.58,.85-.03,1.51-.24,1.99-.62,.48-.38,.72-.85,.71-1.39,0-.32-.09-.58-.27-.8-.17-.21-.43-.39-.78-.51-.35-.13-1.2-.34-2.53-.62-1.2-.26-2.08-.56-2.64-.89-.56-.33-1.01-.78-1.35-1.34-.34-.56-.51-1.17-.52-1.82-.01-.76,.19-1.45,.6-2.07,.41-.62,.98-1.09,1.72-1.42,.73-.33,1.64-.52,2.73-.55,1.63-.06,2.91,.25,3.84,.94,.93,.69,1.43,1.71,1.51,3.06-1.12,.1-1.68,.15-2.81,.25-.14-.74-.41-1.26-.82-1.54-.41-.28-1-.41-1.75-.38-.75,.03-1.33,.18-1.74,.45-.4,.27-.6,.6-.6,.99,0,.38,.2,.69,.57,.94,.37,.25,1.24,.5,2.57,.77,1.41,.28,2.44,.59,3.07,.94,.63,.34,1.12,.8,1.46,1.37,.34,.57,.52,1.27,.53,2.11,.02,1.21-.41,2.25-1.31,3.12s-2.3,1.34-4.23,1.41c-3.41,.12-5.34-1.44-5.77-4.62Z"/>
    <path class="cls-1" d="M121.06,80.73c-.08-4.63-.13-6.95-.21-11.58-1.65,.11-2.47,.15-4.12,.24-.02-.94-.02-1.42-.04-2.36,4.41-.24,6.61-.38,11.02-.74,.02,.94,.03,1.42,.05,2.36-1.64,.13-2.46,.2-4.11,.31,.09,4.63,.13,6.95,.22,11.58-1.12,.08-1.68,.12-2.8,.19Z"/>
    <path class="cls-1" d="M76.37,87.83c2.23,.11,3.35,.16,5.58,.23,1.52,.05,2.6,.2,3.22,.44,.62,.24,1.15,.66,1.58,1.25,.43,.59,.65,1.24,.66,1.97,0,.67-.17,1.28-.53,1.81-.36,.53-.83,.92-1.41,1.17,.83,.26,1.48,.69,1.96,1.28,.47,.59,.72,1.31,.73,2.15,.01,1.01-.28,1.87-.86,2.55-.59,.69-1.29,1.1-2.1,1.25-.56,.1-1.88,.12-3.94,.05-1.9-.07-2.85-.11-4.75-.2-.06-5.58-.08-8.37-.14-13.94Zm2.83,2.45c.01,1.29,.02,1.93,.03,3.22,.74,.03,1.11,.05,1.86,.07,1.11,.04,1.8,.05,2.07,.02,.48-.05,.85-.2,1.12-.46,.27-.26,.4-.62,.39-1.09,0-.41-.12-.75-.34-1.01-.22-.26-.49-.43-.81-.5-.31-.07-1.21-.13-2.7-.19-.65-.02-.97-.04-1.62-.06Zm.06,5.55c.02,1.49,.02,2.23,.04,3.72,1.05,.04,1.57,.06,2.62,.1,1.15,.04,1.89,.01,2.21-.08,.32-.09,.6-.27,.81-.56,.22-.28,.32-.64,.32-1.09,0-.46-.13-.83-.37-1.13-.24-.3-.56-.51-.95-.63-.39-.12-1.19-.2-2.4-.25-.91-.03-1.37-.05-2.28-.09Z"/>
    <path class="cls-1" d="M89.95,95.32c-.02-1.66,.26-3.02,.85-4.09,.59-1.07,1.36-1.86,2.32-2.38,.96-.52,2.13-.78,3.51-.78,2,0,3.63,.6,4.91,1.83,1.28,1.23,1.93,3,1.96,5.31,.03,2.33-.61,4.17-1.92,5.5-1.15,1.17-2.74,1.78-4.74,1.78-2.02,0-3.63-.58-4.81-1.74-1.35-1.32-2.04-3.14-2.07-5.43Zm2.9-.06c.02,1.6,.41,2.81,1.16,3.62,.76,.81,1.68,1.21,2.79,1.21,1.11,0,2.02-.41,2.74-1.21,.72-.8,1.07-2.03,1.04-3.68-.02-1.62-.39-2.81-1.12-3.58-.72-.77-1.65-1.15-2.8-1.14-1.15,0-2.08,.39-2.79,1.17-.71,.78-1.06,1.98-1.03,3.62Z"/>
    <path class="cls-1" d="M105.03,97.6c1.1-.13,1.65-.2,2.75-.34,.34,1.77,1.37,2.64,3.09,2.57,.85-.03,1.52-.24,2-.63,.48-.38,.72-.85,.71-1.39,0-.32-.09-.58-.27-.8-.17-.21-.44-.39-.79-.51-.35-.13-1.2-.33-2.54-.62-1.2-.26-2.09-.55-2.65-.88-.56-.33-1.01-.78-1.35-1.34-.34-.56-.51-1.16-.52-1.82-.01-.76,.19-1.45,.6-2.07,.41-.62,.99-1.09,1.72-1.43,.74-.33,1.65-.52,2.74-.56,1.64-.06,2.92,.25,3.86,.93,.93,.69,1.44,1.7,1.51,3.06-1.13,.11-1.69,.16-2.82,.26-.14-.74-.41-1.25-.83-1.54-.41-.28-1-.41-1.76-.38-.76,.03-1.34,.18-1.74,.45-.41,.27-.61,.6-.6,.99,0,.38,.2,.69,.57,.94,.38,.25,1.24,.5,2.58,.76,1.42,.28,2.45,.59,3.09,.93,.64,.34,1.13,.8,1.47,1.37,.34,.57,.52,1.27,.54,2.11,.02,1.21-.42,2.25-1.31,3.12-.9,.87-2.31,1.35-4.25,1.42-3.43,.13-5.36-1.43-5.79-4.61Z"/>
    <path class="cls-1" d="M118.04,97.09c1.1-.17,1.65-.25,2.75-.43,.34,1.76,1.37,2.59,3.09,2.47,.85-.06,1.52-.29,2-.69,.48-.4,.72-.87,.71-1.41,0-.32-.1-.58-.27-.79-.17-.21-.44-.37-.79-.49s-1.2-.29-2.54-.54c-1.2-.22-2.09-.48-2.65-.8-.56-.31-1.01-.75-1.35-1.29-.34-.55-.51-1.15-.53-1.8-.01-.76,.19-1.46,.6-2.09,.41-.63,.98-1.13,1.72-1.48,.74-.36,1.65-.57,2.74-.65,1.64-.11,2.92,.15,3.85,.81,.93,.66,1.44,1.66,1.52,3.01-1.12,.14-1.69,.21-2.81,.35-.14-.74-.41-1.24-.83-1.51-.41-.27-1-.37-1.76-.32-.76,.05-1.34,.22-1.74,.51-.4,.29-.6,.62-.6,1.01,0,.38,.2,.69,.57,.92,.38,.24,1.24,.46,2.58,.68,1.42,.23,2.45,.51,3.08,.83,.64,.32,1.13,.76,1.47,1.32,.34,.56,.52,1.26,.54,2.09,.02,1.21-.41,2.27-1.3,3.16-.89,.9-2.31,1.42-4.24,1.56-3.42,.24-5.35-1.26-5.8-4.43Z"/>
  </g>
</svg>