<?xml version="1.0" encoding="UTF-8"?>
<svg id="Layer_1" data-name="Layer 1" xmlns="http://www.w3.org/2000/svg" width="200" height="274" xmlns:xlink="http://www.w3.org/1999/xlink" viewBox="0 0 200 274">
  <defs>
    <style>
      .cls-1 {
        stroke: url(#linear-gradient);
      }

      .cls-1, .cls-2, .cls-3, .cls-4, .cls-5 {
        fill: none;
        stroke-linecap: round;
        stroke-miterlimit: 10;
        stroke-width: 5px;
      }

      .cls-2 {
        stroke: url(#linear-gradient-6);
      }

      .cls-3 {
        stroke: url(#linear-gradient-3);
      }

      .cls-4 {
        stroke: url(#linear-gradient-8);
      }

      .cls-5 {
        stroke: url(#linear-gradient-9);
      }

      .cls-6 {
        fill: url(#radial-gradient);
        stroke: #6e2ff4;
      }

      .cls-6, .cls-7, .cls-8, .cls-9, .cls-10 {
        stroke-linejoin: round;
        stroke-width: 3px;
      }

      .cls-7 {
        fill: url(#linear-gradient-2);
      }

      .cls-7, .cls-8, .cls-9, .cls-10 {
        stroke: #0f6a80;
      }

      .cls-8 {
        fill: url(#linear-gradient-4);
      }

      .cls-9 {
        fill: url(#linear-gradient-5);
      }

      .cls-10 {
        fill: url(#linear-gradient-7);
      }

      .cls-11 {
        fill: #b7a6fc;
        opacity: .5;
      }
    </style>
    <radialGradient id="radial-gradient" cx="88.72" cy="216.94" fx="88.72" fy="216.94" r="36.46" gradientTransform="matrix(1, 0, 0, 1, 0, 0)" gradientUnits="userSpaceOnUse">
      <stop offset="0" stop-color="#a989fd"/>
      <stop offset=".33" stop-color="#9973fd"/>
      <stop offset="1" stop-color="#6e2ff4"/>
    </radialGradient>
    <linearGradient id="linear-gradient" x1="75.1" y1="143.23" x2="96.46" y2="143.23" gradientTransform="matrix(1, 0, 0, 1, 0, 0)" gradientUnits="userSpaceOnUse">
      <stop offset="0" stop-color="#a989fd"/>
      <stop offset=".31" stop-color="#9973fd"/>
      <stop offset="1" stop-color="#6e2ff4"/>
    </linearGradient>
    <linearGradient id="linear-gradient-2" x1="133.94" y1="97.78" x2="122.86" y2="12.9" gradientTransform="matrix(1, 0, 0, 1, 0, 0)" gradientUnits="userSpaceOnUse">
      <stop offset="0" stop-color="#30c8c9"/>
      <stop offset="1" stop-color="#9ef9e0"/>
    </linearGradient>
    <linearGradient id="linear-gradient-3" x1="124.53" y1="113.8" x2="98.56" y2="113.8" xlink:href="#linear-gradient"/>
    <linearGradient id="linear-gradient-4" x1="92.22" y1="113.83" x2="74.09" y2="17.29" gradientTransform="matrix(1, 0, 0, 1, 0, 0)" gradientUnits="userSpaceOnUse">
      <stop offset="0" stop-color="#30c8c9"/>
      <stop offset="1" stop-color="#9ef9e0"/>
    </linearGradient>
    <linearGradient id="linear-gradient-5" x1="119.29" y1="135.79" x2="167.62" y2="52.68" gradientTransform="translate(17.67 -22.95) rotate(7.38)" xlink:href="#linear-gradient-2"/>
    <linearGradient id="linear-gradient-6" x1="76.84" y1="112.9" x2="101.46" y2="112.9" xlink:href="#linear-gradient"/>
    <linearGradient id="linear-gradient-7" x1="77.92" y1="125.69" x2="15.92" y2="58.93" gradientTransform="translate(8.92 -7.99) rotate(3.94)" xlink:href="#linear-gradient-2"/>
    <linearGradient id="linear-gradient-8" x1="43.13" y1="128.69" x2="90.97" y2="128.69" xlink:href="#linear-gradient"/>
    <linearGradient id="linear-gradient-9" x1="165.19" y1="130.73" x2="102.06" y2="130.73" xlink:href="#linear-gradient"/>
  </defs>
  <path class="cls-6" d="M132.75,216.93c0-16.38-16.63-29.65-37.15-29.65s-37.15,13.28-37.15,29.65c0,11.81,25.61,29.32,28.39,31.19,5.62,3.79,5.25,12.63,4.9,16.57-.2,2.22-.78,4.39-1.37,6.55,3.46-2.73,6.15-6.44,7.66-10.58,.46-1.25,.81-2.55,.94-3.87,.08-.85-.47-6.87,3.78-9.7s29.99-18.95,29.99-30.16Z"/>
  <ellipse class="cls-11" cx="96" cy="194.3" rx="16.66" ry="4.17"/>
  <path class="cls-1" d="M93.96,194.3s-3.73-68.39-16.36-102.14"/>
  <path class="cls-7" d="M146.34,60.88c1.16-3.53,3.36-6.62,4.89-10.01,1.53-3.39,2.34-7.45,.62-10.75-1.79-3.44-5.76-5.08-9.48-6.16,3.22-3.07,1.88-8.7-1.14-11.97-3.01-3.27-7.23-5.17-10.53-8.15-4.64-4.2-7.67-12.17-9.24-10.86-1.57,1.31-6.21,2.26-7.99,3.25-10.2,5.69-15.94,18.4-13.46,29.82l15.9,66.83c2.42,2.74,4.89,5.53,8.02,7.43s7.07,2.81,10.49,1.51c3.42-1.29,5.92-5.21,4.84-8.71,5.39-2.31,11.59-5.69,12.05-11.54,.2-2.55-.8-5.02-1.76-7.39-2.99-7.43-5.72-15.69-3.23-23.31Z"/>
  <path class="cls-3" d="M101.06,194.3s23.53-120.1,20.73-161"/>
  <path class="cls-8" d="M111.28,108.81c.08-.5,.47-.88,.83-1.23,6.06-5.89,9.63-14.27,9.68-22.73s-3.43-16.88-9.42-22.84c-.68-.68-1.42-1.37-1.73-2.28-.58-1.71,.52-3.49,1.53-4.99,1.28-1.9,2.52-3.9,2.96-6.14,.44-2.25-.08-4.81-1.83-6.28-2.35-1.97-6.73-2.11-7.21-5.14-.24-1.55,.81-2.96,1.53-4.36,.72-1.4,.96-3.44-.38-4.26-1.49-.92-3.28,.56-4.4,1.91,0,0-3.92-10.9-7.32-15.14-6.19-7.72-15.75-13.67-25.55-12.31-1.27,.18-2.58,.5-3.59,1.29-.64,.5-1.12,1.16-1.57,1.84-3.83,5.74-5.44,12.94-4.4,19.77,.32,2.11,.87,4.32,.12,6.32-.6,1.6-1.94,2.78-3.16,3.98-3.73,3.69-6.78,8.96-5.32,14,.47,1.6,1.37,3.08,1.58,4.74,.17,1.35-.13,2.72-.5,4.04-1.98,7.11-5.81,14.85-2.39,21.39,1.32,2.52,3.56,4.42,5.85,6.11,4.28,3.16,8.92,5.84,13.8,7.96,.91,.4,1.87,.81,2.46,1.61,.49,.67,.63,1.53,.77,2.35,.74,4.54,1.47,9.07,2.21,13.61,.57,3.53,1.29,7.33,3.9,9.76,2.47,2.29,6.09,2.83,9.46,2.79,.83,0,1.71-.03,2.41,.41,1.1,.7,1.27,2.21,2.01,3.28,1.09,1.57,3.33,1.97,5.16,1.44,1.84-.52,3.36-1.77,4.84-2.98,2.54-2.1,5.12-4.25,6.86-7.04,1.74-2.8,2.52-6.4,1.19-9.42-.21-.47-.47-.96-.38-1.46Z"/>
  <path class="cls-9" d="M194.9,48.63c-2.84-1.32-9.34,1.61-9.34,1.61-4.53-1.83-4.59-8.43-9.29-9.76-1.58-.45-13.06,1.66-14.69,1.81-4.32,.39-7.22,4.43-9.72,7.97-2.5,3.54-6,7.33-10.3,6.83-1.7-.2-3.51-1.05-5.02-.26-.8,.42-1.32,1.24-1.74,2.04-2.05,3.98-2.53,8.74-1.31,13.04-4.99-.75-11.25-.62-13.62,3.84-2.82,5.31,2.55,11.38,2.66,17.39,0,.38-.02,.8-.26,1.1-.32,.4-.9,.44-1.41,.5-4.57,.51-8.37,4.87-8.26,9.46,.05,2.03,.77,4.05,.46,6.06-.71,4.66-6.51,7.35-6.99,12.04-.33,3.26,2.06,6.12,4.45,8.37,4.12,3.88,6.86,13.24,16.03,13.24s9.17-10.11,9.62-14.08c3.87,2.42,9.83-.42,10.4-4.95,.25-2.02-.3-4.39,1.11-5.85,.97-1,2.5-1.14,3.84-1.54,4.05-1.19,6.91-5.54,6.41-9.74,7.52,.48,15.56-2.24,20.01-8.33,4.45-6.09,4.16-15.66-1.66-20.45,4.4-3.57,8.3-7.76,11.54-12.41,1.39-1.99,2.71-4.44,1.92-6.73,2.96,1,6.6-.44,7.94-3.26,1.34-2.83,.06-6.65-2.78-7.97Z"/>
  <path class="cls-2" d="M79.34,31.51s26.48,75.2,17.92,162.79"/>
  <path class="cls-10" d="M104.13,107.09c-.79-1.5-2.54-2.16-4.15-2.7-2.79-.94-5.59-1.87-8.38-2.81,2.83-1.55,5.31-3.99,6.24-7.08,.93-3.09-.02-6.84-2.71-8.62-3.45-2.28-8.14-.76-12.12-1.89-.46-.13-.93-.31-1.23-.68-.71-.85-.18-2.11,.26-3.12,1.98-4.49,1.69-10.1-1.36-13.95-3.05-3.85-8.97-5.36-13.19-2.84-2.32-4.62-4.65-9.24-6.97-13.86-1.11-2.2-2.39-4.58-4.66-5.53-3.8-1.6-7.81,1.54-10.73,4.44,.01-2.08-.18-4.16-.59-6.2-.38-1.92-.97-3.87-2.22-5.38-1.25-1.52-3.27-2.52-5.18-2.1-1.92,.42-3.42,2.57-2.75,4.41,0,0-8.65-2.09-13.01-2.34-2.73-.16-5.58-.3-8.1,.78s-4.57,3.78-3.96,6.45c.23,1,.8,1.94,.77,2.96-.04,1.06-.71,1.98-1.32,2.85-2.95,4.25-4.83,9.23-5.43,14.37-.36,3.14-.16,6.57,1.79,9.05,1.36,1.72,3.39,2.75,5.35,3.73,2.26,1.13,4.52,2.26,6.79,3.38,.52,.26,1.06,.53,1.38,1.01,1.13,1.64-.99,3.53-1.66,5.4-.69,1.95,.36,4.17,1.96,5.47,1.61,1.3,3.66,1.88,5.66,2.42,3.38,.93,6.77,1.86,10.16,2.79,1.67,.46,3.39,.94,4.75,2.02,1.36,1.08,2.27,2.91,1.75,4.56-.58,1.84-2.57,2.75-4.21,3.77s-3.23,2.96-2.4,4.7c.47,.99,1.55,1.5,2.55,1.92,2.8,1.17,5.66,2.19,8.56,3.07-1.07,2.43-3.94,3.41-5.89,5.22-3.21,2.97-3.48,8.56-.58,11.83,3.13,3.53,8.95,4.21,11.26,8.33,1.15,2.05,1.34,4.83,3.32,6.11,1.63,1.05,3.87,.55,5.4-.64,1.52-1.19,2.49-2.93,3.46-4.6,3.28-5.67,7.36-11.44,13.51-13.68,4.08-1.49,8.61-1.24,12.78-2.46,7.28-2.14,12.67-8.71,14.98-15.95,.48-1.51,.84-3.23,.1-4.64Z"/>
  <path class="cls-4" d="M45.63,64.67s37.57,57.23,42.85,128.03"/>
  <path class="cls-5" d="M104.56,193.23s5.4-74.28,58.13-125"/>
</svg>