<?xml version="1.0" encoding="UTF-8"?>
<svg id="Layer_1" data-name="Layer 1" xmlns="http://www.w3.org/2000/svg" width="212" height="112" xmlns:xlink="http://www.w3.org/1999/xlink" viewBox="0 0 212 112">
  <defs>
    <style>
      .cls-1 {
        fill: none;
        stroke-linecap: round;
      }

      .cls-1, .cls-2 {
        stroke: #0f6a80;
        stroke-linejoin: round;
        stroke-width: 2px;
      }

      .cls-2 {
        fill: url(#linear-gradient);
      }
    </style>
    <linearGradient id="linear-gradient" x1="106" y1="108.38" x2="106" y2="3.62" gradientTransform="matrix(1, 0, 0, 1, 0, 0)" gradientUnits="userSpaceOnUse">
      <stop offset="0" stop-color="#30c8c9"/>
      <stop offset="1" stop-color="#9ef9e0"/>
    </linearGradient>
  </defs>
  <path class="cls-2" d="M186.66,52.52c-4.4,0-8.48,1.34-11.87,3.64,0-.13,.01-.26,.01-.4,0-19.88-16.12-36-36-36-6.42,0-12.44,1.69-17.66,4.64-7.97-12.49-21.95-20.78-37.86-20.78-21.48,0-39.43,15.09-43.85,35.24-6.44,.65-11.46,6.09-11.46,12.7,0,.02,0,.05,0,.07-.55-.04-1.11-.07-1.67-.07-12.23,0-22.14,9.91-22.14,22.14s9.91,22.14,22.14,22.14c4.58,0,8.84-1.39,12.37-3.78,2.13,4.08,6.39,6.87,11.32,6.87,3.68,0,6.99-1.57,9.32-4.07,5.29,8.13,14.44,13.51,24.86,13.51,11.63,0,21.69-6.7,26.55-16.45,1.79,5.09,6.63,8.75,12.34,8.75s10.08-3.3,12.06-8c4.41,4.91,10.8,8,17.92,8,8.36,0,15.72-4.26,20.04-10.73,3.68,3.07,8.41,4.93,13.57,4.93,11.7,0,21.18-9.48,21.18-21.18s-9.48-21.18-21.18-21.18Z"/>
  <path class="cls-1" d="M111.98,31.76c6.59-7.36,16.17-11.99,26.83-11.99,19.88,0,36,16.12,36,36,0,2.49-.25,4.91-.73,7.25"/>
  <path class="cls-1" d="M113.82,78.73c0,16.37-13.27,29.64-29.64,29.64s-29.64-13.27-29.64-29.64"/>
</svg>