<?xml version="1.0" encoding="UTF-8"?>
<svg id="Layer_1" data-name="Layer 1" xmlns="http://www.w3.org/2000/svg" width="70" height="122" xmlns:xlink="http://www.w3.org/1999/xlink" viewBox="0 0 70 122">
  <defs>
    <style>
      .cls-1 {
        fill: #183dd1;
        opacity: .5;
      }

      .cls-1, .cls-2, .cls-3 {
        stroke: #193dd1;
      }

      .cls-1, .cls-3 {
        stroke-miterlimit: 10;
      }

      .cls-4 {
        fill: url(#linear-gradient);
        stroke: #183dd1;
      }

      .cls-4, .cls-2 {
        stroke-linejoin: round;
        stroke-width: 3px;
      }

      .cls-2 {
        fill: #193dd1;
      }

      .cls-3 {
        fill: #587ef8;
      }
    </style>
    <linearGradient id="linear-gradient" x1="35" y1="1.67" x2="35" y2="107.57" gradientTransform="matrix(1, 0, 0, 1, 0, 0)" gradientUnits="userSpaceOnUse">
      <stop offset="0" stop-color="#183dd1"/>
      <stop offset="1" stop-color="#587ef8"/>
    </linearGradient>
  </defs>
  <rect class="cls-2" x="1.82" y="14.43" width="66.37" height="105.9"/>
  <rect class="cls-4" x="1.82" y="1.67" width="66.37" height="105.9"/>
  <g>
    <path class="cls-3" d="M22.19,18.4h0c4.61,0,9.59,5.62,9.59,5.62v3.97h0c0,5.3-4.29,9.59-9.59,9.59h0c-5.3,0-9.59-4.29-9.59-9.59h0v-3.97s5.21-5.62,9.59-5.62Z"/>
    <path class="cls-1" d="M22.19,18.4h0c4.61,0,9.59,5.62,9.59,5.62v3.97h0c0,5.3-4.29,9.59-9.59,9.59h0c-5.3,0-9.59-4.29-9.59-9.59h0v-3.97s5.21-5.62,9.59-5.62Z"/>
    <path class="cls-3" d="M22.19,14.43h0c5.3,0,9.59,4.29,9.59,9.59h0c0,5.3-4.29,9.59-9.59,9.59h0c-5.3,0-9.59-4.29-9.59-9.59h0c0-5.3,4.29-9.59,9.59-9.59Z"/>
  </g>
  <g>
    <path class="cls-3" d="M47.81,18.4h0c4.61,0,9.59,5.62,9.59,5.62v3.97h0c0,5.3-4.29,9.59-9.59,9.59h0c-5.3,0-9.59-4.29-9.59-9.59h0v-3.97s5.21-5.62,9.59-5.62Z"/>
    <path class="cls-1" d="M47.81,18.4h0c4.61,0,9.59,5.62,9.59,5.62v3.97h0c0,5.3-4.29,9.59-9.59,9.59h0c-5.3,0-9.59-4.29-9.59-9.59h0v-3.97s5.21-5.62,9.59-5.62Z"/>
    <path class="cls-3" d="M47.81,14.43h0c5.3,0,9.59,4.29,9.59,9.59h0c0,5.3-4.29,9.59-9.59,9.59h0c-5.3,0-9.59-4.29-9.59-9.59h0c0-5.3,4.29-9.59,9.59-9.59Z"/>
  </g>
  <g>
    <path class="cls-3" d="M22.19,49.01h0c4.61,0,9.59,5.62,9.59,5.62v3.97h0c0,5.3-4.29,9.59-9.59,9.59h0c-5.3,0-9.59-4.29-9.59-9.59h0v-3.97s5.21-5.62,9.59-5.62Z"/>
    <path class="cls-1" d="M22.19,49.01h0c4.61,0,9.59,5.62,9.59,5.62v3.97h0c0,5.3-4.29,9.59-9.59,9.59h0c-5.3,0-9.59-4.29-9.59-9.59h0v-3.97s5.21-5.62,9.59-5.62Z"/>
    <path class="cls-3" d="M22.19,45.04h0c5.3,0,9.59,4.29,9.59,9.59h0c0,5.3-4.29,9.59-9.59,9.59h0c-5.3,0-9.59-4.29-9.59-9.59h0c0-5.3,4.29-9.59,9.59-9.59Z"/>
  </g>
  <g>
    <path class="cls-3" d="M47.81,49.01h0c4.61,0,9.59,5.62,9.59,5.62v3.97h0c0,5.3-4.29,9.59-9.59,9.59h0c-5.3,0-9.59-4.29-9.59-9.59h0v-3.97s5.21-5.62,9.59-5.62Z"/>
    <path class="cls-1" d="M47.81,49.01h0c4.61,0,9.59,5.62,9.59,5.62v3.97h0c0,5.3-4.29,9.59-9.59,9.59h0c-5.3,0-9.59-4.29-9.59-9.59h0v-3.97s5.21-5.62,9.59-5.62Z"/>
    <path class="cls-3" d="M47.81,45.04h0c5.3,0,9.59,4.29,9.59,9.59h0c0,5.3-4.29,9.59-9.59,9.59h0c-5.3,0-9.59-4.29-9.59-9.59h0c0-5.3,4.29-9.59,9.59-9.59Z"/>
  </g>
  <g>
    <path class="cls-3" d="M22.19,79.08h0c4.61,0,9.59,5.62,9.59,5.62v3.97h0c0,5.3-4.29,9.59-9.59,9.59h0c-5.3,0-9.59-4.29-9.59-9.59h0v-3.97s5.21-5.62,9.59-5.62Z"/>
    <path class="cls-1" d="M22.19,79.08h0c4.61,0,9.59,5.62,9.59,5.62v3.97h0c0,5.3-4.29,9.59-9.59,9.59h0c-5.3,0-9.59-4.29-9.59-9.59h0v-3.97s5.21-5.62,9.59-5.62Z"/>
    <path class="cls-3" d="M22.19,75.11h0c5.3,0,9.59,4.29,9.59,9.59h0c0,5.3-4.29,9.59-9.59,9.59h0c-5.3,0-9.59-4.29-9.59-9.59h0c0-5.3,4.29-9.59,9.59-9.59Z"/>
  </g>
  <path class="cls-3" d="M47.81,79.08h0c4.61,0,9.59,5.62,9.59,5.62v3.97h0c0,5.3-4.29,9.59-9.59,9.59h0c-5.3,0-9.59-4.29-9.59-9.59h0v-3.97s5.21-5.62,9.59-5.62Z"/>
  <path class="cls-1" d="M47.81,79.08h0c4.61,0,9.59,5.62,9.59,5.62v3.97h0c0,5.3-4.29,9.59-9.59,9.59h0c-5.3,0-9.59-4.29-9.59-9.59h0v-3.97s5.21-5.62,9.59-5.62Z"/>
  <path class="cls-3" d="M47.81,75.11h0c5.3,0,9.59,4.29,9.59,9.59h0c0,5.3-4.29,9.59-9.59,9.59h0c-5.3,0-9.59-4.29-9.59-9.59h0c0-5.3,4.29-9.59,9.59-9.59Z"/>
</svg>