<?xml version="1.0" encoding="UTF-8"?>
<svg id="Layer_1" data-name="Layer 1" xmlns="http://www.w3.org/2000/svg" width="332" height="206" viewBox="0 0 332 206">
  <defs>
    <style>
      .cls-1 {
        fill: none;
        stroke-linecap: round;
      }

      .cls-1, .cls-2 {
        stroke: #a6bffd;
        stroke-linejoin: round;
        stroke-width: 3px;
      }

      .cls-3 {
        fill: #a6bffd;
      }

      .cls-2 {
        fill: #fff;
      }

      .cls-4 {
        opacity: .2;
      }
    </style>
  </defs>
  <path class="cls-2" d="M194.74,19.62c-11.73,2.88-23.6-2.89-35.32-5.83-41.18-10.33-84.95,14.57-126.3,4.96-8.13-1.89-15.89-5.08-23.66-8.14-1.69-.67-3.62-1.32-5.25-.52-2.5,1.23-2.42,4.8-1.77,7.52,4.58,19,18.39,35.02,21.59,54.31,2.72,16.41-2.6,33.01-3.15,49.63-.68,20.3,5.27,42.72-6.1,59.55-2.19,3.24-3.42,6.92-5.54,10.21-7.19,11.17,8.39,13.3,16.18,12.44s14.53-5.59,21.86-8.37c15.3-5.79,32.3-2.84,48.6-1.36,22.03,1.99,44.2,1.11,66.31,.22l78.51-3.14c10.52-.42,21.07,3.16,31.57,4.02,18.79,1.54,38.58,7.04,55.87-.5,.59-.26,1.21-.56,1.55-1.11,.63-1.02,0-2.34-.7-3.31-5.03-6.87-14.63-9.91-18.1-17.68-1.62-3.62-1.62-7.73-1.59-11.7,.18-25.41,.36-54.81,.54-80.22,.07-9.2,.13-18.46,1.74-27.52,2.44-13.84,8.38-26.81,11.88-40.42,.57-2.22,1.06-4.65,.14-6.76-1.23-2.8-4.67-4.05-7.71-3.76s-5.81,1.8-8.55,3.16c-20.39,10.19-43.76,14.3-66.4,11.67-14.17-1.64-29.42-5.67-42.04,.97l-4.13,1.68Z"/>
  <g class="cls-4">
    <path class="cls-3" d="M328.98,190.18c-5.03-6.87-14.63-9.91-18.1-17.68-1.62-3.62-1.62-7.73-1.59-11.7,.05-7.7,.11-15.76,.16-23.97-2.33,4.69-4.39,9.48-5.3,14.67-.46,2.6-.59,5.29-.32,7.92,.33,3.11,1.4,6.12,2.43,9.05,1.91,5.46,3.78,11.09,1.96,16.85-.13,.4-.52,.77-.96,.73-4.02-.31-7.97-1.25-11.84-2.38-8.85-2.57-17.29-6.24-26-9.2-9.2-3.13-18.78-5.14-28.4-6.47-19.79-2.73-40.03-2.75-59.9-.86-11.17,1.06-22.19,2.88-33.25,4.72-10.84,1.81-21.74,3.51-32.75,3.85-5.58,.17-11.18-.02-16.73-.71-5.5-.68-10.72-2.07-16.08-3.41-7.13-1.79-14.49-2.32-21.69-3.74-6.23-1.23-12.56-3.35-17.01-8.11-5.45-5.84-7.53-14.57-7.26-22.37,.32-9.01,3.84-17.39,7-25.7,3.12-8.19,6.2-17.24,4.8-26.14-1.33-8.48-6.5-15.66-10.8-22.87-2.17-3.65-4.21-7.42-5.62-11.44-1.16-3.32-2.03-7.28-1.41-10.81,.98-5.6,6.59-6.25,11.33-6.07,3.52,.13,7.03,.59,10.55,.69,5.68,.15,11.37-.18,17.02-.84,11.18-1.31,22.15-3.91,33.15-6.23,11.28-2.38,22.77-3.38,34.19-4.85,5.88-.76,11.76-1.67,17.55-2.97,4.66-1.05,9.18-2.52,13.74-3.91-2.82-.87-5.63-1.74-8.44-2.44-41.18-10.33-84.95,14.57-126.3,4.96-8.13-1.89-15.89-5.08-23.66-8.14-1.69-.67-3.62-1.32-5.25-.52-2.5,1.23-2.42,4.8-1.77,7.52,4.58,19,18.39,35.02,21.59,54.31,2.72,16.41-2.6,33.01-3.15,49.63-.68,20.3,5.27,42.72-6.1,59.55-2.19,3.24-3.42,6.92-5.54,10.21-7.19,11.17,8.39,13.3,16.18,12.44,7.79-.86,14.53-5.59,21.86-8.37,15.3-5.79,32.3-2.84,48.6-1.36,22.03,1.99,44.2,1.11,66.31,.22l78.51-3.14c10.52-.42,21.07,3.16,31.57,4.02,18.79,1.54,38.58,7.04,55.87-.5,.59-.26,1.21-.56,1.55-1.11,.63-1.02,0-2.34-.7-3.31Z"/>
  </g>
  <path class="cls-1" d="M201.72,16.64l-10.67,4.62c-3.41,1.48-6.83,2.96-10.4,3.97-4.22,1.19-8.6,1.71-12.96,2.22"/>
  <path class="cls-1" d="M24.7,82.81c2.23-4.06,4.62-8.02,7.18-11.88"/>
  <path class="cls-1" d="M18.2,174.41c3.21-5.93,7.84-11.08,13.4-14.91"/>
  <path class="cls-1" d="M245.08,191.27c3.96-.22,7.67-1.98,11.01-4.12s6.4-4.68,9.79-6.74"/>
  <path class="cls-1" d="M263.04,17.54c8.93-.9,18.19,2.13,24.87,8.13"/>
  <path class="cls-1" d="M305.49,52.67c1.18,3.27,2.36,6.56,3,9.98,1.85,9.94-1.31,20.69-8.25,28.05"/>
  <path class="cls-1" d="M48.5,20.47c13.35,1.81,26.8,2.78,40.27,2.93"/>
</svg>