<svg id="Layer_1" data-name="Layer 1" xmlns="http://www.w3.org/2000/svg" width="800" height="1193" viewBox="0 0 800 1193">
  <defs>
    <linearGradient id="linear-gradient" x1="86.54" y1="134.31" x2="86.54" y2="41.75" gradientTransform="matrix(1, 0, 0, 1, 0, 0)" gradientUnits="userSpaceOnUse">
      <stop offset="0" stop-color="#6e2ff4"/>
      <stop offset="1" stop-color="#9973fd"/>
    </linearGradient>
    <linearGradient id="linear-gradient-2" x1="723.97" y1="1150.89" x2="723.97" y2="1058.33" gradientTransform="matrix(1, 0, 0, 1, 0, 0)" gradientUnits="userSpaceOnUse">
      <stop offset="0" stop-color="#30c8c9"/>
      <stop offset="1" stop-color="#9ef9e0"/>
    </linearGradient>
    <clipPath id="clippath">
      <path transform="translate(-840 1193) rotate(180)" style="opacity:.2;fill:none" d="M-820 0h800v1193h-800z"/>
    </clipPath>
    <style>
      .cls-2{stroke:#fff;stroke-width:3px;stroke-linejoin:round;fill:none}.cls-6{fill:#fff}.cls-8{opacity:.2}
    </style>
  </defs>
  <g style="clip-path:url(#clippath)">
    <g class="cls-8">
      <path class="cls-6" d="M9.97 49.99c-23.84-2.23-48.57-4.53-71.89 2.37-19.32 5.71-36.35 17.53-45.47 35.85-4.88 9.8-7.78 20.4-11.61 30.62-3.55 9.45-8.23 18.34-14.54 26.24-11.55 14.44-27.2 24.99-43.91 32.59-17.36 7.89-36.04 12.76-54.83 15.74-21.56 3.42-44.22 4.22-62.81 17.04-15.29 10.54-26.54 26.84-30.91 44.9s-1.06 37.81 8.54 54.02c4.84 8.17 11.17 15.49 18.66 21.34 3.69 2.88 7.63 5.43 11.82 7.54 4.62 2.32 9.64 3.85 14.11 6.47 9.89 5.79 13.45 17.76 14.02 28.58.58 11.09-2.09 22.16-6.66 32.22-19.03 41.9-64.9 60.83-92.23 96.04-6.18 7.97-11.43 16.68-14.93 26.17-3.52 9.54-5.9 20.74-3.06 30.76 2.75 9.72 10.81 16.34 19.5 20.75 9.61 4.88 20.22 7.65 30.98 8.26 20.96 1.18 40.14-6.66 56.76-18.93s29.81-26.58 45.87-38.47c17.56-13.01 38.19-21.24 59.98-23.45 10.88-1.1 21.93-.78 32.7 1.12 11.22 1.98 21.96 5.8 32.56 9.88 20.25 7.79 40.92 16.37 63.08 14.07 18.5-1.92 36.18-10.12 49.75-22.82a80.68 80.68 0 0 0 16.58-21.91c.88-1.71-1.71-3.23-2.59-1.51-8.77 17.04-23.86 30.39-41.58 37.61-8.76 3.57-18.13 5.69-27.59 6-10.73.35-21.29-1.81-31.49-5.01-20.98-6.59-40.67-16.96-62.7-19.94s-42.55-.18-62.16 7.63-34.11 19.93-49.06 33.23c-14.54 12.94-29.28 26.74-47.6 34.14-20.29 8.19-44.1 7.21-63.43-3.24-9.83-5.32-17.21-13.3-17.73-24.94-.48-10.67 3.1-21.6 7.89-31 20.22-39.69 64.06-58.06 90.59-92.41 12.52-16.21 21.65-36.82 19.29-57.7-1.07-9.42-4.31-19.42-12-25.51-4.07-3.23-8.99-4.93-13.7-6.97a69.364 69.364 0 0 1-12.33-6.91c-15.66-11.01-26.62-28.5-29.88-47.35s2.19-38.43 13.58-53.71c5.7-7.64 12.9-14.21 21.12-19.05 9.6-5.65 20.42-8.46 31.32-10.28 10.58-1.77 21.27-2.75 31.84-4.64 9.16-1.64 18.23-3.76 27.13-6.47 34.43-10.48 67.16-30.59 81.32-65.1 4.17-10.16 6.93-20.85 11.43-30.87s10.35-17.91 18.64-24.41c17.47-13.71 40.19-17.78 61.87-17.77 11.96 0 23.88 1.11 35.78 2.23 1.92.18 1.91-2.82 0-3Z"/>
    </g>
    <path class="cls-6" d="M17.78 87.46c-19.85-3.57-40.53-7.26-60.51-2.45-8.12 1.96-16.05 5.28-22.81 10.24s-12.31 11.84-16.06 19.62c-7.79 16.13-9.83 34.4-20.04 49.44-10.52 15.51-26.14 28.01-42.19 37.4-16.01 9.37-33.49 15.56-51.72 18.86-16.55 3-33.47 4.27-49.71 8.8s-30.87 12.25-39.68 26.17c-4.69 7.42-6.58 16.05-4.93 24.7s6.46 16.57 12.09 23.29c11.87 14.19 29.04 23.56 38.54 39.8 9.21 15.75 9.36 35.16 4.5 52.34-10.65 37.6-43.7 62.69-67.87 91.41-6 7.13-11.65 14.61-16.44 22.61-4 6.67-8.8 14.46-8.82 22.5 0 3.1.86 6.32 3.26 8.43 3.04 2.68 7.15 2.58 10.91 1.94 8.69-1.47 17.12-4.51 25.14-8.11 16.8-7.54 32-18.07 48.06-26.98 17.14-9.51 35.41-16.23 54.89-18.89 19.94-2.73 40.02-1.15 59.45 3.97 19.35 5.1 38.21 12.62 58.28 14.55 32.41 3.12 65.58-10.84 87.01-35.15 5.2-5.9 9.69-12.39 13.34-19.36.9-1.71-1.69-3.23-2.59-1.51-15.01 28.62-44.65 48.65-76.64 52.71-18.63 2.36-36.69-1.75-54.46-7.05-18.73-5.58-37.18-11.36-56.84-12.33-19.03-.94-38.28 1.75-56.31 7.92-17.23 5.9-32.69 15.38-48.24 24.67s-31.01 18.14-48.55 22.01c-4.04.89-9.91 2.34-12.55-1.95-1.78-2.91-1.24-6.85-.4-9.97 1.12-4.15 3.26-8.04 5.32-11.79 2.27-4.14 4.78-8.14 7.47-12.01 21.34-30.8 53.18-53.31 71.16-86.61 8.23-15.23 13-32.75 11.28-50.14-.82-8.31-3.13-16.46-7.21-23.77-4.29-7.7-10.45-14.11-16.93-20.01-13.06-11.89-29.14-23.38-33.56-41.54s9.09-33.77 24.21-41.95 30.92-10.25 46.86-12.59c17.07-2.5 33.96-5.08 50.15-11.31s32.2-15.63 45.76-27.24c7-6 13.56-12.6 19-20.06 5.16-7.08 8.77-14.9 11.6-23.16 5.57-16.29 9.12-34.09 23.1-45.58s34-14.52 52.08-13.33c10.37.68 20.62 2.52 30.84 4.36 1.89.34 2.7-2.55.8-2.89Z" style="opacity:.3"/>
    <g class="cls-8">
      <path class="cls-6" d="M19.58 118.4C6.89 107.86-7.85 96.12-25.38 97.34c-15.25 1.06-27.48 11.52-36.09 23.42-18.94 26.18-20.48 64.3-49.95 82.52-14.48 8.95-31.65 12.02-47.94 16.01-18.11 4.44-35.71 10.72-52.45 18.94-8.44 4.14-16.64 8.76-24.56 13.82-7.36 4.71-14.46 9.84-20.23 16.47-4.99 5.74-9.15 12.64-9.83 20.37-.61 7.04 2.21 13.88 7.09 18.89 9.56 9.8 23.97 12.61 34.09 21.7 11.64 10.46 13.98 27.02 12.25 41.83-1.97 16.82-9.23 32.93-17.65 47.44-8.95 15.42-19.88 29.56-31.14 43.34-5.53 6.77-11.15 13.47-16.7 20.22-2.8 3.4-5.8 6.75-8.29 10.39-2.06 3.02-3.97 6.82-3.38 10.59 1.34 8.61 11.94 7.42 18.18 6.36 7.81-1.33 15.31-4.04 22.46-7.4 14.98-7.05 28.36-16.94 42.68-25.17 15.76-9.05 32.67-15.02 50.95-15.81 9.41-.41 18.85.44 28.02 2.6 9.66 2.27 18.8 6.14 27.84 10.16 16.22 7.21 32.56 13.76 50.35 15.71 16.48 1.81 33.71-.69 47.52-10.36 13.04-9.12 21.56-22.99 27.99-37.26 3.19-7.08 5.95-14.35 8.63-21.64.67-1.81-2.23-2.6-2.89-.8-5.44 14.74-11.16 29.75-20.56 42.5-9.78 13.25-23.65 22.03-40.03 24.4-16.8 2.43-34.1-1.26-49.88-6.94-17.37-6.26-33.44-15.81-51.72-19.44s-36.26-2.47-53.41 3.1c-15.64 5.08-29.44 14.14-43.26 22.83-13.32 8.38-27.15 16.79-42.73 20.1-3.81.81-8.13 1.74-12.02 1.07-1.91-.33-3.77-1.18-4.7-2.97-1.08-2.09-.39-4.63.53-6.65 1.76-3.86 4.77-7.07 7.43-10.33s5.39-6.56 8.1-9.83c21.71-26.19 44.41-52.95 55.78-85.54 4.87-13.95 7.35-29.49 3.7-44.04-1.72-6.88-4.97-13.39-9.86-18.56-4.56-4.83-10.41-8.16-16.24-11.21-11.42-5.96-26.54-12.59-26.22-27.82.17-8.12 5.01-15.45 10.36-21.21 6.02-6.48 13.29-11.43 20.76-16.08a250.11 250.11 0 0 1 49.74-23.82c8.53-2.98 17.22-5.42 26-7.54 7.95-1.92 15.93-3.68 23.77-6.04 15.49-4.65 29.73-11.99 39.72-25.05 9.78-12.79 14.94-28.35 20.93-43.1 5.77-14.21 13.19-28.29 25.32-38.12 5.75-4.66 12.66-8.09 20.07-8.94 8.36-.95 16.53 1.44 23.85 5.38 7.41 4 13.99 9.31 20.44 14.67 1.47 1.23 3.61-.89 2.12-2.12Z"/>
    </g>
    <g class="cls-8">
      <path class="cls-6" d="M19.66 115.37c-19.17 3.65-37.18 12.39-52.22 24.78a118.402 118.402 0 0 0-20.03 21.15c-6.14 8.32-10.82 17.39-14.73 26.94-4.31 10.51-8.25 21.19-15.15 30.35-5.9 7.82-13.44 14.32-21.64 19.62-17.25 11.15-36.93 16.91-56.64 21.95-10.74 2.75-21.85 5.84-31.06 12.27-8 5.59-14.79 13.98-16.68 23.75s2.35 19.08 7.79 27.34c2.77 4.2 5.72 8.3 8.05 12.77 2.62 5.02 4.1 10.5 4.46 16.16.76 11.92-2.79 23.53-7.14 34.48-2.26 5.7-4.75 11.31-7.04 17.01-1.12 2.8-2.19 5.61-3.16 8.47s-1.92 5.56-2.2 8.47c-.55 5.64 3.09 9.04 7.69 11.51 4.68 2.51 9.81 4.08 15.07 4.81 10.6 1.47 21.4-.2 31.68-2.89 22.7-5.95 45.99-18.76 70-12.04 21.04 5.88 38.14 23.9 61.21 22.62 5.05-.28 9.94-1.63 14.3-4.21 1.66-.98.15-3.58-1.51-2.59-9.32 5.51-20.6 4.35-30.48 1.04-10.44-3.5-19.67-9.73-29.51-14.54-4.83-2.36-9.85-4.44-15.09-5.7-5.66-1.36-11.53-1.74-17.34-1.35-11.91.81-23.36 4.54-34.6 8.31-19.52 6.54-43.14 14.53-62.68 3.7-2.21-1.22-4.76-2.74-5.53-5.32-.83-2.77.21-5.79 1.04-8.44 1.77-5.66 4-11.16 6.29-16.63 4.52-10.8 9.33-21.62 11.21-33.26 1.76-10.91.86-21.93-4.44-31.77-4.59-8.52-11.66-15.9-14.5-25.3s.59-19.65 7.12-27.08c7.26-8.25 17.42-12.77 27.75-15.92s20.41-5.19 30.46-8.36c9.29-2.94 18.43-6.47 27.1-10.95 8.45-4.37 16.48-9.69 23.44-16.21 7.43-6.95 13.27-15.21 17.58-24.41 4.72-10.09 8.08-20.77 13.46-30.55 4.6-8.38 10.3-16.13 16.87-23.08 13.19-13.94 29.85-24.63 48.12-30.55 4.42-1.43 8.92-2.58 13.49-3.45 1.89-.36 1.09-3.25-.8-2.89Z"/>
    </g>
    <g class="cls-8">
      <path class="cls-6" d="M33.52 196.3c-16.76-4.07-34.68-2.34-50.56 4.28-7.98 3.33-15.43 7.8-22.04 13.38s-11.89 12.02-16.41 19.21c-8.67 13.77-14.61 29.82-26.32 41.47-2.84 2.83-6.01 5.3-9.52 7.26-4.35 2.43-9.11 3.91-13.95 4.97-9.53 2.09-19.49 2.48-28.76 5.71-7.64 2.67-15.25 7.16-19.56 14.24s-3.86 15.09-.98 22.46 7.7 14.17 10.69 21.67c1.44 3.61 2.45 7.42 2.38 11.33-.08 4.45-1.58 8.71-3.61 12.63s-4.67 7.76-7.13 11.55-5.24 7.87-6.61 12.26.27 8.73 4.46 10.95 9.01 2.67 13.51 2.93c10.07.59 20.29-1.61 29.22-6.29s16.61-11.91 24.93-17.83c8.09-5.76 17.84-10.77 28.08-9.73 8.75.89 15.79 6.61 21.62 12.79s10.94 13.66 17.66 19.22c6.46 5.35 14.75 9.94 23.39 9.67 3.93-.12 7.72-1.38 10.89-3.72 1.54-1.13.04-3.74-1.51-2.59-6.85 5.06-15.47 3.56-22.59-.13-3.82-1.98-7.33-4.53-10.46-7.47s-5.81-6.25-8.57-9.5c-5.38-6.35-10.93-12.95-18.2-17.21-8.18-4.79-17.61-5.2-26.48-2.12-9.61 3.34-17.5 9.72-25.4 15.91s-16.13 11.84-26 14.39a53.707 53.707 0 0 1-14.83 1.68c-4.33-.11-9.31-.46-13.27-2.36-1.68-.81-3.29-2-3.8-3.88-.66-2.42.56-4.97 1.62-7.09 2.02-4.01 4.54-7.73 7-11.48 4.67-7.14 9.38-14.91 9.11-23.75-.25-7.98-4.21-15.19-7.93-22.03s-7.63-13.6-7.39-21.31c.25-8.1 5.72-14.43 12.39-18.45 16.2-9.77 36.77-5.74 52.98-15.6 13.88-8.44 21.36-23.64 28.87-37.4 3.92-7.19 7.97-14.43 13.23-20.75s11.78-11.93 18.9-16.3c14.32-8.79 31.33-13.14 48.11-11.95 4.08.29 8.11.93 12.08 1.9 1.88.46 2.68-2.44.8-2.89Z"/>
    </g>
    <g class="cls-8">
      <path class="cls-6" d="M9.39 291.43c3.89-2.22 3.91-7.35 1.82-10.85-2.96-4.93-9.11-5.24-14.22-4.36-3.17.55-6.28 1.46-9.4 2.25l-9.98 2.53c-5.63 1.43-11.29 2.76-16.83 4.51-9.78 3.08-19.69 7.76-25.4 16.68-2.62 4.09-4.21 8.75-5.98 13.25-1.68 4.25-3.58 8.66-6.97 11.84-3.96 3.7-9.3 4.44-14.5 4.53-5.49.1-11.17-.39-16.51 1.22-9.94 3-15.94 13.6-16.42 23.56-.21 4.36.66 9.15 3.21 12.78 2.85 4.06 7.49 5.92 12.38 4.89 5.95-1.24 10.82-5.84 15.49-9.43s9.81-7.49 15.07-10.71c9.91-6.06 21.72-10.38 33.47-8.16 5.48 1.04 10.14 3.62 14.45 7.08 3.94 3.16 7.69 6.75 12.27 8.99 2.25 1.1 4.6 1.79 7.1 2.03 1.92.18 1.91-2.82 0-3-4.74-.45-8.79-3.26-12.4-6.16-3.84-3.09-7.5-6.51-11.89-8.81-9.77-5.11-21.62-4.45-31.76-.81-11.03 3.95-20.39 11.22-29.57 18.3-4.29 3.31-9.32 8.04-15.1 7.98-4.25-.04-7.26-3.2-8.62-7.01-3.01-8.45.15-19.16 6.76-25.09 8.21-7.36 20.01-3.26 29.81-5.45 4.71-1.05 8.61-3.72 11.46-7.58 2.69-3.63 4.3-7.96 5.92-12.15s3.34-8.68 6.16-12.37c2.94-3.84 6.88-6.75 11.13-8.99 9.42-4.97 20.21-7.05 30.45-9.64l9.5-2.41c2.9-.74 5.82-1.62 8.8-1.96 4.46-.51 9.72.61 10.48 5.79.24 1.64-.2 3.27-1.7 4.12-1.68.96-.17 3.55 1.51 2.59Z"/>
    </g>
    <g class="cls-8">
      <path class="cls-6" d="M-55.6-11.96C-94.03-.95-133.49 10.71-167.1 33.07c-16.34 10.87-30.77 24.3-42.06 40.39-12.65 18.03-21.89 38.67-37.57 54.45-29.17 29.35-73.47 33.1-107.61 54.32-31.7 19.7-52.48 54.64-56.9 91.47-2.39 19.85.73 39.16 7.26 57.95 7.17 20.62 17.3 40.35 21.81 61.83 2.3 10.97 2.86 22.28.78 33.34-2.04 10.86-6.26 21.16-11.5 30.85-10.74 19.87-25.53 37.08-37.5 56.15-11.6 18.48-21.33 39.68-19.91 62.01 1.23 19.31 11.01 37.05 24.81 50.3 32.56 31.26 82.95 34.68 125.54 30.05 24.02-2.61 47.5-8.55 69.96-17.43 21.99-8.69 43.25-19.51 66.2-25.61 24.5-6.51 50.25-6.44 75.19-2.62a248.74 248.74 0 0 1 67.03 20.23c10.33 4.79 20.3 10.31 29.89 16.45 1.63 1.04 3.14-1.55 1.51-2.59-38.4-24.6-84.04-39.25-129.78-39.7-24.01-.24-46.81 4.82-69.1 13.54-22.07 8.64-43.33 19.19-66.15 25.83a261.475 261.475 0 0 1-72.11 10.44c-22.86.08-46.33-2.63-67.43-11.88-18.83-8.26-35.4-22.01-44.98-40.42-10.28-19.75-9.32-41.84-1.14-62.15 16.31-40.53 55.62-70.31 62.74-114.81 6.92-43.21-23.72-79.76-29.81-121.01-5.57-37.79 8.63-77.74 35.78-104.39 29.11-28.57 70.59-33.56 104.95-53.08 8.37-4.75 16.23-10.45 22.98-17.33 7.27-7.41 13.25-15.97 18.79-24.72 11.27-17.82 21.36-36 36.69-50.78C-159.7 26.14-120.88 11.1-83-.71c9.36-2.92 18.77-5.65 28.2-8.35 1.85-.53 1.07-3.43-.8-2.89Z"/>
    </g>
    <g class="cls-8">
      <path class="cls-6" d="M-855.91 680.88c35.86 3.35 72.14 6.47 108.09 2.55 34.07-3.72 65.67-14.65 93.62-34.64 25.86-18.5 48.45-41.68 76.43-57.16 26.1-14.43 69.24-25.14 86.39 7.94 4.03 7.78 6.14 16.36 8.72 24.68 2.42 7.78 5.21 15.45 8.38 22.95 6.21 14.66 13.92 28.73 23.49 41.47 19.24 25.61 45.68 44.12 77.05 51.4 72.73 16.88 142.23-19.61 209.11-42.39 35.21-11.99 71.3-19.46 108.65-18.16 36.51 1.27 72.81 9.92 105.87 25.49 7.91 3.72 15.61 7.86 23.12 12.33 1.66.99 3.17-1.6 1.51-2.59-61.33-36.54-135.85-47.4-205.11-30.33-72.05 17.76-138.91 60.65-215.38 56.51-35.49-1.92-68.27-15.79-92.5-42.08-11.06-12-20.05-25.8-27.34-40.37s-12.48-31.22-17.75-47.38c-4.57-14.04-11.85-26.57-26.02-32.48-13.28-5.54-28.72-4.82-42.36-1.06-30.53 8.41-55.21 29.84-79.19 49.47-12.81 10.49-25.8 20.88-40.07 29.33-15.25 9.04-31.88 15.39-49.12 19.42-35.45 8.31-72.39 7.23-108.44 4.46-9.06-.7-18.1-1.52-27.15-2.36-1.92-.18-1.91 2.82 0 3Z"/>
    </g>
    <g class="cls-8">
      <path class="cls-6" d="M-836.74 1685.61c35.4 17.71 77.87 17.63 114.19 2.57 17.96-7.45 34.48-18.56 47.64-32.93 16.04-17.51 26.49-39.46 33.45-61.98 3.77-12.2 6.22-24.8 10.51-36.83 4.23-11.85 10.72-22.25 19.79-30.98 16.53-15.92 37.9-25.4 57.43-36.96 37.04-21.92 73.18-52.26 86.97-94.49 8.21-25.15 6.82-51.9 8.36-77.96.79-13.24 2.4-26.46 6.39-39.16 3.67-11.67 9.04-22.71 15.26-33.22 12.03-20.3 27.11-38.54 41.28-57.35 5.22-6.94 10.28-13.25 16.2-19.57 23.16-24.73 48.27-48.08 75.86-67.82 15.72-11.24 32.52-21.6 50.71-28.32 14.35-5.3 29.59-8.1 44.67-10.34 37.09-5.52 74.77-7.13 112.21-8.39 29.48-.99 59.11-.78 88.54-2.98 3.62-.27 7.25-.59 10.82-1.21 1.9-.33 1.09-3.22-.8-2.89-9.27 1.62-18.89 1.69-28.27 2.04-15.15.57-30.3.89-45.46 1.3-37.12 1.01-74.3 2.22-111.26 5.97-32.78 3.32-65.16 8.32-94.41 24.3-32.79 17.92-61.71 43.07-88.17 69.22-7.9 7.81-15.62 15.81-23.06 24.06-9.07 10.08-16.7 21.63-24.94 32.4-14.14 18.49-28.09 37.54-37.28 59.07-9.98 23.39-11.31 48.06-12.13 73.15-.85 25.83-2.8 51.36-14.92 74.68-10.42 20.05-26.05 36.9-43.48 51.08-17.74 14.43-37.48 25.43-57.32 36.63-18.78 10.61-37.98 22.8-49.09 41.91-6.25 10.76-9.51 22.89-12.62 34.85s-6.8 24.81-11.85 36.69c-8.92 21.01-21.89 40.01-39.82 54.29-31.88 25.39-75.78 35.55-115.56 26.65-9.83-2.2-19.34-5.58-28.34-10.09-1.72-.86-3.24 1.73-1.51 2.59Z"/>
    </g>
    <g class="cls-8">
      <path class="cls-6" d="M-856.63 1665.55c46.53 5.58 99.2 11.09 139.77-17.73 32.22-22.89 44.47-62.11 61.96-95.67 9.47-18.17 20.96-34.88 37.12-47.73 16.45-13.09 35.57-22.24 53.88-32.36 17.81-9.85 35.35-20.9 48.6-36.62 13.83-16.4 22.67-36.37 28.54-56.86 13.85-48.34 11.5-99.99 30.8-146.97 12.54-30.51 29.81-56.59 50.54-81.35 11.05-13.21 22.48-26.13 34.55-38.42s24.87-23.16 38.73-33.33c27.46-20.15 55.71-38.15 89.27-46.15 42.23-10.06 86.26-4.28 128.86.1 20.17 2.07 40.41 4.28 60.7 4.61 14.65.24 30.43-.08 44.24-5.59 4.96-1.98 9.55-4.72 13.28-8.59 1.34-1.39-.78-3.51-2.12-2.12-9.34 9.7-24.22 11.94-37.01 12.87-18.37 1.33-36.92-.17-55.22-1.83-42.37-3.85-85.64-11.29-128.23-6.67-35.91 3.9-68.25 17.81-97.78 38.2-12.26 8.47-24.71 17.12-36.05 26.79-13.75 11.72-26.27 24.89-38.32 38.33-18.03 20.11-34.92 40.52-48.79 63.74-12.09 20.24-22.31 41.83-28.39 64.67-6.66 25.03-9.14 50.9-12.91 76.46-6.6 44.7-18.95 90.44-56.93 118.7-32.57 24.23-74.17 35.77-100.51 68.14-24.55 30.17-33.74 69.33-56.34 100.71-12.91 17.93-30.39 30.98-51.3 38.2-23.3 8.05-48.19 8.99-72.59 7.37-12.82-.85-25.59-2.38-38.34-3.91-1.91-.23-1.9 2.77 0 3Z"/>
    </g>
    <g class="cls-8">
      <path class="cls-6" d="M9.81 1836.03c-42.7-27.35-95.57-43.29-146.5-39.12-26.19 2.14-50.12 11.72-74.03 21.98s-49.46 19.63-76.08 23.93c-26.11 4.22-53.61 5.02-79.67 0-23.62-4.55-46.36-14.77-62.41-33.15-15.81-18.12-22.1-41.55-16.24-65.01 6.05-24.22 21.46-44.55 35.71-64.51 13.62-19.07 27.47-39.58 31.26-63.2 3.77-23.44-3.91-46.01-12.45-67.53s-17.84-43.22-18.48-66.83c-.58-21.2 4.69-42.47 14.64-61.17 9.9-18.61 24.45-34.73 42.5-45.73 19.32-11.78 41.24-18.11 62.07-26.59 20.47-8.33 39.33-19.1 53.22-36.68 14.25-18.04 23.42-39.63 38.62-56.97 27.78-31.71 69.22-47.41 108.02-60.87 9.27-3.22 18.58-6.33 27.84-9.59 2.51-.88 5.08-2.13 7.66-2.67 1.59-.33 3.28-.42 4.9-.63l38.36-4.95 8.89-1.15c1.89-.24 1.91-3.25 0-3l-30.06 3.88-18.21 2.35c-4.7.61-8.62 1.98-13.16 3.57-38.74 13.58-79.45 25.4-113.04 49.9-8.22 5.99-15.91 12.72-22.68 20.32-7.52 8.45-13.65 17.97-19.53 27.6-6.35 10.38-12.47 20.98-20.05 30.52a98.68 98.68 0 0 1-25.59 22.69c-19.45 12.01-41.68 18.3-62.69 26.91s-38.38 18.89-52.81 35.26c-28.05 31.83-38.74 76.65-26.99 117.49 6.69 23.26 18.55 44.77 24.22 68.35 2.91 12.1 3.87 24.63 1.54 36.91-2.3 12.12-7.3 23.5-13.39 34.17-22.43 39.26-67.52 79.24-52.97 129.3 5.98 20.6 21.14 37.89 39.36 48.79 21.42 12.82 46.68 17.53 71.35 18.39 26.94.94 54.07-2.39 80.02-9.65 25.61-7.16 49.2-19.37 74.05-28.59 12.91-4.79 26.17-8.53 39.87-10.19s28.12-1.57 42.12-.18c26.32 2.61 52.27 9.6 76.4 20.41 11.41 5.11 22.4 11.09 32.92 17.83 1.63 1.04 3.14-1.55 1.51-2.59Z"/>
    </g>
    <g class="cls-8">
      <path class="cls-6" d="M-848.87 1783.23c46.73 14.6 99.42 30.06 146.93 9.87 19.99-8.49 37.02-22.33 53-36.77 17.32-15.64 33.93-31.84 52.81-45.66 19.1-13.99 39.28-26.67 56.79-42.71s29.87-33.82 39.8-54.14c20.07-41.05 27.39-86.56 36.05-130.99 8.77-45.02 19.46-91.59 46.52-129.57 14.66-20.57 34.25-36.56 52.15-54.14 17.29-16.98 32.46-35.93 47.7-54.72 14.69-18.1 29.52-36.23 46.53-52.23 8.55-8.03 17.83-15.16 27.07-22.36 23.78-18.53 48.64-36.67 75.55-50.41 6.52-3.33 13.25-6.42 20.29-8.49 5.31-1.56 10.84-2.5 16.24-3.68 15.47-3.39 30.91-6.93 46.29-10.7 16.69-4.09 33.34-8.42 49.78-13.41 12.43-3.78 25.23-7.67 36.79-13.71 3.09-1.62 6.42-3.47 8.69-6.2 1.23-1.47-.89-3.61-2.12-2.12-2.48 2.99-6.27 4.86-9.69 6.54-5.44 2.68-11.15 4.84-16.86 6.86-15.28 5.41-30.94 9.76-46.6 13.88-16.37 4.3-32.83 8.25-49.33 12.01-12.2 2.78-25.04 4.57-36.9 8.57-14.19 4.8-27.42 12.56-40.07 20.45-13.69 8.53-26.92 17.8-39.87 27.42-6.98 5.18-13.81 10.54-20.66 15.9-15.77 12.33-30.01 25.81-43.25 40.85-15.43 17.52-29.62 36.07-44.67 53.91s-32.97 34.99-50.5 51.71c-17.12 16.33-31.92 34.04-42.9 55.08-10.45 20.01-17.66 41.56-23.3 63.37-11.39 44.07-16.3 89.6-29.55 133.21-6.62 21.78-15.28 43.09-27.67 62.26-13.2 20.44-30.67 36.63-50.15 50.98-18.91 13.93-38.67 26.63-56.42 42.1-17.23 15.02-33.14 31.6-51.38 45.45-18.89 14.34-40.08 24.46-63.83 27.2-25.62 2.96-51.49-1.52-76.26-7.93-12.18-3.15-24.21-6.82-36.22-10.58-1.85-.58-2.64 2.32-.8 2.89Z"/>
    </g>
    <g class="cls-8">
      <path class="cls-6" d="M18.6 711.06c-34.78 5.38-70.1-1.86-104.89 3.32-17.04 2.54-33.41 8.13-49.49 14.16s-32.15 12.22-48.52 17.56c-32.94 10.76-66.7 19.23-100.86 25.04s-69.89 8.43-103.19-2.41c-28.19-9.17-52.24-27.76-71.75-49.72-9.87-11.11-18.68-23.14-26.63-35.69-7.03-11.1-13.71-22.52-22.39-32.45-8-9.15-18.06-16.96-30.21-19.4-14.75-2.96-29.54 2.33-42.25 9.55-24.77 14.08-44.37 35.33-64.61 54.99-21.84 21.22-45.11 40.14-74.74 49.06-30.95 9.32-63.88 8.87-95.81 6.69-7.93-.54-15.85-1.2-23.77-1.89-1.92-.17-1.91 2.83 0 3 31.7 2.74 63.84 5.25 95.48.57 29.71-4.4 56.06-16.34 79.16-35.46 22.45-18.58 41.32-41.06 64.03-59.35 12.05-9.7 25.68-19.09 40.78-23.17 15.4-4.16 30.29-.53 42.24 9.88 10.27 8.96 17.72 20.67 24.89 32.12 7.4 11.82 15.04 23.41 23.78 34.28 17.91 22.28 39.85 42.02 66.03 54.01 29.56 13.54 62.42 15.22 94.34 11.84 34.25-3.63 68.29-11.48 101.35-20.96 16.71-4.79 33.25-10.19 49.57-16.18s32.13-12.6 48.67-17.53c17.25-5.14 34.71-7.41 52.68-7.53s34.82 1.17 52.23.71c8.27-.22 16.5-.88 24.68-2.15 1.9-.29 1.09-3.19-.8-2.89Z"/>
    </g>
    <g class="cls-8">
      <path class="cls-6" d="M-840.47 771.39c51.13 21.51 110.29 22.35 162.17 2.79 13.02-4.91 25.38-11.17 37.29-18.36 12.19-7.36 24.07-15.34 36.96-21.47 13.88-6.6 28.67-10.22 44.08-9.68 14.86.52 29.43 4.51 43.1 10.19 53.7 22.32 92.49 72.36 149.99 86.72 62.67 15.64 124.25-13.32 182.45-32.71 61.71-20.56 126.99-26.45 191.08-14.17 7.75 1.48 15.44 3.24 23.08 5.2 1.87.48 2.67-2.41.8-2.89-60.9-15.7-125.59-15.79-186.46.14-61.54 16.1-120.66 50.09-186.11 45.33-30.76-2.24-57.87-15.27-83.1-32.29s-46.32-35.14-71.87-49.07c-24.58-13.4-52.79-22.88-81.06-18.32-28.5 4.6-51.19 23.68-75.9 37.03-50.29 27.18-111.6 32.73-166.13 15.83-6.64-2.06-13.16-4.46-19.56-7.16-1.78-.75-2.55 2.15-.8 2.89Z"/>
    </g>
    <g class="cls-8">
      <path class="cls-6" d="M6.3 868.36c-45.89 24.45-95.37 39.36-146.92 45.68-25.31 3.1-50.8 4.48-76.28 5.27-29.09.91-58.15 1.67-87.19-.8-15.45-1.31-30.84-3.17-46.23-4.95-14.7-1.7-30.14-4.6-44.95-2.93-12.54 1.42-23.6 7.4-33.47 15-10.88 8.38-20.7 18.15-29.84 28.38-9.08 10.15-17.49 20.88-25.67 31.75-4.2 5.58-8.34 11.2-12.48 16.82-3.82 5.19-7.42 10.95-12.35 15.17-6.41 5.5-13.22 4.38-20.26.67-5.69-3-11.16-6.43-16.39-10.17-10.7-7.65-20.35-16.76-28.65-26.96-15.09-18.56-24.2-43.42-45.77-55.87s-45.37-10.24-68.03-13.96c-11.8-1.94-23.47-5.38-33.2-12.56-9.97-7.35-17.24-17.89-22.09-29.19-2.48-5.77-4.33-11.81-5.66-17.94s-3.07-13.93-.66-20.27 9.1-9.36 15.18-11.31c6.88-2.21 13.91-4.02 20.87-5.97 29.41-8.26 58.93-17.11 88.81-23.48 14.86-3.17 30.01-4.95 45.19-3.37 14.52 1.52 28.64 5.77 42.29 10.83 27.83 10.31 54.92 22.56 82.73 32.97 28.19 10.56 56.7 20.86 85.69 29.02 27.67 7.79 56.36 12.4 85 7.67 26.63-4.4 51.52-15.5 75.94-26.56 25.88-11.73 51.72-22.95 79.49-29.48 28.28-6.65 57.49-9.21 86.5-7.65 14.21.77 28.34 2.56 42.3 5.3 1.89.37 2.69-2.52.8-2.89-57.1-11.23-116.97-6.07-171.22 15.04-26.18 10.19-51.07 23.47-77.46 33.16-12.87 4.73-26.13 8.6-39.72 10.59-15.58 2.28-31.38 1.82-46.92-.52-30.37-4.57-59.76-15.23-88.64-25.35-29.18-10.23-58.04-21.35-86.57-33.26-26.41-11.03-53.65-22.67-82.8-22.49-15.14.09-30.09 3.11-44.73 6.74s-30.6 7.97-45.85 12.12c-15.11 4.11-30.2 8.3-45.26 12.59-10.07 2.87-22.6 6.08-25.18 17.88-1.28 5.84-.18 12.04.98 17.81 1.22 6.09 2.96 12.09 5.28 17.85 4.29 10.7 10.51 20.76 19.07 28.56 18.09 16.5 42.79 17.74 65.91 20.16 12.4 1.3 25.15 3.03 36.51 8.49s20.27 15.19 27.5 25.77 13.07 21.04 20.83 30.74 17.58 19.2 28.02 26.94c5.33 3.95 10.94 7.55 16.76 10.74 4.93 2.71 10.39 5.43 16.19 4.49 11.37-1.85 18.41-15.41 24.58-23.78 17.08-23.18 34.49-46.45 56.14-65.63 10.36-9.18 22.01-17.95 35.84-20.84 15.05-3.15 31.4.13 46.46 1.85 31.7 3.63 63.35 7.52 95.32 7 27.09-.44 54.2-.98 81.23-2.81 50.92-3.45 101.18-12.48 148.45-32.27 12.31-5.15 24.33-10.92 36.11-17.19 1.7-.91.19-3.5-1.51-2.59Z"/>
    </g>
    <g class="cls-8">
      <path class="cls-6" d="M13.47 835.34c-29.47-.69-59.03-1.39-88.44 1.17-26.61 2.31-53.18 7.31-78.11 17.1a201.58 201.58 0 0 0-18.07 8.1c-2.89 1.47-5.73 3.02-8.54 4.64-2.65 1.53-5.39 3.04-7.8 4.93-2.19 1.71-4.03 4.07-3.98 6.98s1.85 5.37 3.98 7.15c4.47 3.73 10.51 5.8 16.17 6.82 12.5 2.24 25.28-.19 37.53-2.79 13.88-2.94 27.7-6.24 41.42-9.88a847.324 847.324 0 0 0 81.09-25.91c3.28-1.23 6.56-2.49 9.83-3.76 1.78-.69 1.01-3.6-.8-2.89a852.244 852.244 0 0 1-78.92 26.39c-13.2 3.71-26.5 7.1-39.87 10.16-12.44 2.85-25.16 6.15-37.98 6.52-5.88.17-11.79-.37-17.39-2.22-2.8-.93-5.58-2.18-8.02-3.86-2.03-1.4-4.43-3.73-4-6.45s3.23-4.34 5.32-5.64c2.75-1.72 5.55-3.35 8.39-4.91 5.55-3.05 11.25-5.81 17.07-8.29 23.79-10.16 49.4-15.71 75.06-18.45 28.45-3.04 57.12-2.77 85.68-2.14l10.38.24c1.93.05 1.93-2.95 0-3Z"/>
    </g>
  </g>
  <path d="M86.54 41.75c-15.81 0-28.63 12.82-28.63 28.63s21.18 63.93 28.63 63.93 28.63-48.12 28.63-63.93-12.82-28.63-28.63-28.63Zm0 36.01c-5.88 0-10.65-4.77-10.65-10.65s4.77-10.65 10.65-10.65 10.65 4.77 10.65 10.65-4.77 10.65-10.65 10.65Z" style="fill:url(#linear-gradient);stroke:#6e2ff4;stroke-linejoin:round;stroke-width:3px"/>
  <path d="M723.97 1058.33c-15.81 0-28.63 12.82-28.63 28.63s21.18 63.93 28.63 63.93 28.63-48.12 28.63-63.93-12.82-28.63-28.63-28.63Zm0 36.01c-5.88 0-10.65-4.77-10.65-10.65s4.77-10.65 10.65-10.65 10.65 4.77 10.65 10.65-4.77 10.65-10.65 10.65Z" style="fill:url(#linear-gradient-2);stroke:#0f6a80;stroke-miterlimit:10;stroke-width:3px"/>
  <path d="M455.63 242.75c1.93 0 1.93-3 0-3s-1.93 3 0 3Z" style="fill:#6e2ff4"/>
  <path class="cls-2" d="M100.78 140.42s2.07-.17 5.98-.48"/>
  <path d="M118.69 139.06c105.49-7.53 641.01-38.82 641.01 102.19 0 156.41-678.44 69.34-683.81 260.16s671.47 7.41 676.72 127.83-546.84 53.73-543.14 209.35c3.71 155.62 422.4 25.94 426.11 133.39 3.71 107.45-461.31 42.79-461.31 122.36 0 72.39 431.23 59.87 509.1 57.02" style="fill:none;stroke-linejoin:round;stroke-width:3px;stroke:#fff;stroke-dasharray:0 0 11.98 11.98"/>
  <path class="cls-2" d="M689.35 1151.13c3.91-.15 5.99-.24 5.99-.24"/>
</svg>
