<?xml version="1.0" encoding="UTF-8"?>
<svg id="Layer_1" data-name="Layer 1" xmlns="http://www.w3.org/2000/svg" width="196.58" height="344.02" xmlns:xlink="http://www.w3.org/1999/xlink" viewBox="0 0 196.58 344.02">
  <defs>
    <style>
      .cls-1 {
        fill: none;
      }

      .cls-2 {
        fill: url(#linear-gradient-7);
      }

      .cls-3 {
        fill: url(#linear-gradient-9);
      }

      .cls-4 {
        fill: url(#linear-gradient-6);
      }

      .cls-5 {
        fill: url(#linear-gradient-8);
      }

      .cls-6 {
        fill: url(#linear-gradient-3);
      }

      .cls-7 {
        fill: url(#linear-gradient-2);
      }

      .cls-8 {
        fill: url(#linear-gradient-4);
      }

      .cls-9 {
        fill: url(#linear-gradient-5);
      }

      .cls-10, .cls-11 {
        fill: #9ef9e0;
      }

      .cls-12 {
        fill: #30c8c9;
      }

      .cls-13 {
        fill: #a989fd;
      }

      .cls-14 {
        fill: #0f6a80;
      }

      .cls-15 {
        fill: #183dd1;
      }

      .cls-16 {
        fill: #22262a;
      }

      .cls-17 {
        fill: #6e2ff4;
      }

      .cls-18 {
        fill: #2a2e32;
      }

      .cls-19, .cls-20 {
        fill: #587ef8;
      }

      .cls-21 {
        fill: url(#linear-gradient);
      }

      .cls-22 {
        clip-path: url(#clippath-10);
      }

      .cls-23 {
        clip-path: url(#clippath-15);
      }

      .cls-24 {
        clip-path: url(#clippath-11);
      }

      .cls-25 {
        clip-path: url(#clippath-13);
      }

      .cls-26 {
        clip-path: url(#clippath-14);
      }

      .cls-27 {
        clip-path: url(#clippath-12);
      }

      .cls-28 {
        clip-path: url(#clippath-3);
      }

      .cls-29 {
        clip-path: url(#clippath-1);
      }

      .cls-30 {
        clip-path: url(#clippath-4);
      }

      .cls-31 {
        clip-path: url(#clippath-2);
      }

      .cls-32 {
        clip-path: url(#clippath-9);
      }

      .cls-33 {
        clip-path: url(#clippath-8);
      }

      .cls-34 {
        clip-path: url(#clippath-7);
      }

      .cls-35 {
        clip-path: url(#clippath-6);
      }

      .cls-36 {
        clip-path: url(#clippath-5);
      }

      .cls-37 {
        fill: url(#linear-gradient-17);
      }

      .cls-38 {
        fill: url(#linear-gradient-15);
      }

      .cls-39 {
        fill: url(#linear-gradient-16);
      }

      .cls-40 {
        fill: url(#linear-gradient-21);
      }

      .cls-41 {
        fill: url(#linear-gradient-20);
      }

      .cls-42 {
        fill: url(#linear-gradient-18);
      }

      .cls-43 {
        fill: url(#linear-gradient-14);
      }

      .cls-44 {
        fill: url(#linear-gradient-19);
      }

      .cls-45 {
        fill: url(#linear-gradient-10);
      }

      .cls-46 {
        fill: url(#linear-gradient-13);
      }

      .cls-47 {
        fill: url(#linear-gradient-11);
      }

      .cls-48 {
        fill: url(#linear-gradient-12);
      }

      .cls-20, .cls-11 {
        fill-rule: evenodd;
      }

      .cls-49 {
        clip-path: url(#clippath);
      }
    </style>
    <clipPath id="clippath">
      <rect class="cls-1" y="49.15" width="49.15" height="49.15"/>
    </clipPath>
    <clipPath id="clippath-1">
      <rect class="cls-1" width="49.15" height="49.15"/>
    </clipPath>
    <linearGradient id="linear-gradient" x1="45.06" y1="-1239.41" x2="14.04" y2="-1215.7" gradientTransform="translate(0 -1190) scale(1 -1)" gradientUnits="userSpaceOnUse">
      <stop offset="0" stop-color="#783afa"/>
      <stop offset="1" stop-color="#a989fd"/>
    </linearGradient>
    <linearGradient id="linear-gradient-2" y1="-1214.84" x2="14.04" y2="-1191.13" xlink:href="#linear-gradient"/>
    <clipPath id="clippath-2">
      <rect class="cls-1" x="98.29" width="49.15" height="49.15"/>
    </clipPath>
    <linearGradient id="linear-gradient-3" x1="123.28" y1="-1202.02" x2="99.57" y2="-1233.04" xlink:href="#linear-gradient"/>
    <linearGradient id="linear-gradient-4" x1="122.45" y1="-1227.12" x2="146.16" y2="-1196.1" xlink:href="#linear-gradient"/>
    <clipPath id="clippath-3">
      <rect class="cls-1" x="147.44" y="49.15" width="49.15" height="49.15"/>
    </clipPath>
    <linearGradient id="linear-gradient-5" x1="197.41" y1="-1263.19" x2="149.99" y2="-1325.23" xlink:href="#linear-gradient"/>
    <linearGradient id="linear-gradient-6" x1="221.98" y1="-1214.04" x2="174.56" y2="-1276.08" xlink:href="#linear-gradient"/>
    <clipPath id="clippath-4">
      <rect class="cls-1" x="147.44" y="196.58" width="49.15" height="49.15"/>
    </clipPath>
    <linearGradient id="linear-gradient-7" x1="172.84" y1="-1421.28" x2="125.41" y2="-1483.32" xlink:href="#linear-gradient"/>
    <linearGradient id="linear-gradient-8" x1="221.98" y1="-1421.28" x2="174.56" y2="-1483.32" xlink:href="#linear-gradient"/>
    <clipPath id="clippath-5">
      <rect class="cls-1" y="98.29" width="49.15" height="49.15"/>
    </clipPath>
    <linearGradient id="linear-gradient-9" x1="8.19" y1="-1321.22" x2="8.19" y2="-1337.44" gradientTransform="translate(0 -1190) scale(1 -1)" gradientUnits="userSpaceOnUse">
      <stop offset="0" stop-color="#6e2ff4"/>
      <stop offset="1" stop-color="#9973fd"/>
    </linearGradient>
    <linearGradient id="linear-gradient-10" x1="24.49" y1="-1304.84" x2="24.49" xlink:href="#linear-gradient-9"/>
    <linearGradient id="linear-gradient-11" x1="40.95" y1="-1288.29" x2="40.95" xlink:href="#linear-gradient-9"/>
    <clipPath id="clippath-6">
      <rect class="cls-1" x="98.29" y="49.15" width="49.15" height="49.15"/>
    </clipPath>
    <linearGradient id="linear-gradient-12" x1="147.44" y1="-1276.01" x2="98.29" y2="-1276.01" xlink:href="#linear-gradient-9"/>
    <clipPath id="clippath-7">
      <rect class="cls-1" x="98.29" y="147.44" width="49.15" height="49.15"/>
    </clipPath>
    <clipPath id="clippath-8">
      <rect class="cls-1" x="147.44" y="147.44" width="49.15" height="49.15"/>
    </clipPath>
    <linearGradient id="linear-gradient-13" x1="196.58" y1="-1374.3" x2="147.44" y2="-1374.3" xlink:href="#linear-gradient-9"/>
    <clipPath id="clippath-9">
      <rect class="cls-1" x="147.44" y="147.44" width="49.15" height="24.57"/>
    </clipPath>
    <clipPath id="clippath-10">
      <rect class="cls-1" y="196.58" width="49.15" height="49.15"/>
    </clipPath>
    <linearGradient id="linear-gradient-14" x1="-5428.85" y1="905.84" x2="-5478" y2="905.84" gradientTransform="translate(5478 1127) scale(1 -1)" gradientUnits="userSpaceOnUse">
      <stop offset="0" stop-color="#183dd1"/>
      <stop offset="1" stop-color="#587ef8"/>
    </linearGradient>
    <linearGradient id="linear-gradient-15" x1="-5453.43" y1="1132.13" x2="-5453.43" y2="1181.27" gradientTransform="translate(5478 1427) scale(1 -1)" xlink:href="#linear-gradient-9"/>
    <linearGradient id="linear-gradient-16" x1="-5704.28" y1="379.56" x2="-5704.28" y2="428.71" gradientTransform="translate(5778 527) scale(1 -1)" xlink:href="#linear-gradient-9"/>
    <linearGradient id="linear-gradient-17" x1="-5704.28" y1="679.56" x2="-5704.28" y2="630.42" gradientTransform="translate(5778 827) scale(1 -1)" xlink:href="#linear-gradient-14"/>
    <linearGradient id="linear-gradient-18" x1="49.15" y1="-1460.3" x2="98.29" y2="-1460.3" gradientTransform="translate(0 -1190) scale(1 -1)" gradientUnits="userSpaceOnUse">
      <stop offset="0" stop-color="#30c8c9"/>
      <stop offset="1" stop-color="#9ef9e0"/>
    </linearGradient>
    <clipPath id="clippath-11">
      <path class="cls-1" d="M172.01,0h0c13.57,0,24.57,11,24.57,24.57h0c0,13.57-11,24.57-24.57,24.57h0c-13.57,0-24.57-11-24.57-24.57h0c0-13.57,11-24.57,24.57-24.57Z"/>
    </clipPath>
    <linearGradient id="linear-gradient-19" x1="147.44" y1="-1214.57" x2="196.58" y2="-1214.57" xlink:href="#linear-gradient-18"/>
    <clipPath id="clippath-12">
      <rect class="cls-1" x="98.29" y="196.58" width="49.15" height="49.15"/>
    </clipPath>
    <linearGradient id="linear-gradient-20" x1="-5979.71" y1="905.84" x2="-5930.56" y2="905.84" gradientTransform="translate(6078 1127) scale(1 -1)" xlink:href="#linear-gradient-18"/>
    <clipPath id="clippath-13">
      <rect class="cls-1" x="147.44" y="294.87" width="49.15" height="49.15"/>
    </clipPath>
    <linearGradient id="linear-gradient-21" x1="-6205.99" y1="1432.13" x2="-6205.99" y2="1382.98" gradientTransform="translate(6378 1727) scale(1 -1)" xlink:href="#linear-gradient-14"/>
    <clipPath id="clippath-14">
      <rect class="cls-1" x="147.44" y="245.73" width="49.15" height="49.15"/>
    </clipPath>
    <clipPath id="clippath-15">
      <rect class="cls-1" x="49.15" width="49.15" height="49.15"/>
    </clipPath>
  </defs>
  <rect class="cls-16" x="-6.61" y="-9.82" width="211.74" height="366.67"/>
  <g>
    <g class="cls-49">
      <g>
        <path class="cls-11" d="M48.53,73.72c0-.1,0-.2,0-.31,0-13.4-10.86-24.27-24.26-24.27S0,60.01,0,73.41c0,.1,0,.2,0,.31H48.53Z"/>
        <path class="cls-20" d="M0,73.72c0,.1,0,.2,0,.31,0,13.4,10.86,24.26,24.26,24.26s24.27-10.86,24.27-24.26c0-.1,0-.21,0-.31H0Z"/>
      </g>
    </g>
    <g class="cls-29">
      <g>
        <path class="cls-21" d="M49.15,49.15H12.29c-6.79,0-12.29-5.5-12.29-12.29H0c0-6.79,5.5-12.29,12.29-12.29H49.15v24.57Z"/>
        <path class="cls-7" d="M49.15,24.57H12.29C5.5,24.57,0,19.07,0,12.29H0C0,5.5,5.5,0,12.29,0H49.15V24.57Z"/>
      </g>
    </g>
    <path class="cls-14" d="M98.29,147.44v-24.57c0-13.57,11-24.57,24.57-24.57h0c13.57,0,24.57,11,24.57,24.57v24.57h-49.15Z"/>
    <path class="cls-10" d="M0,196.58v-24.57c0-13.57,11-24.57,24.57-24.57h0c13.57,0,24.57,11,24.57,24.57v24.57H0Z"/>
    <g class="cls-31">
      <g>
        <path class="cls-6" d="M98.29,49.15V12.29c0-6.79,5.5-12.29,12.29-12.29h0c6.79,0,12.29,5.5,12.29,12.29V49.15h-24.57Z"/>
        <path class="cls-8" d="M147.44,0V36.86c0,6.79-5.5,12.29-12.29,12.29h0c-6.79,0-12.29-5.5-12.29-12.29V0h24.57Z"/>
      </g>
    </g>
    <g class="cls-28">
      <g>
        <path class="cls-9" d="M147.44,147.44V73.72c0-13.57,11-24.57,24.57-24.57h0c13.57,0,24.57,11,24.57,24.57v73.72h-49.15Z"/>
        <path class="cls-4" d="M172.01,98.29V24.57c0-13.57,11-24.57,24.57-24.57h0c13.57,0,24.57,11,24.57,24.57V98.29h-49.15Z"/>
      </g>
    </g>
    <g class="cls-30">
      <g>
        <rect class="cls-13" x="147.44" y="196.58" width="49.15" height="49.15"/>
        <path class="cls-2" d="M122.86,305.52v-73.72c0-13.57,11-24.57,24.57-24.57h0c13.57,0,24.57,11,24.57,24.57v73.72h-49.15Z"/>
        <path class="cls-5" d="M172.01,305.52v-73.72c0-13.57,11-24.57,24.57-24.57h0c13.57,0,24.57,11,24.57,24.57v73.72h-49.15Z"/>
      </g>
    </g>
    <g class="cls-36">
      <g>
        <path class="cls-3" d="M0,147.44v-16.22H16.38v16.22H0Z"/>
        <path class="cls-45" d="M16.22,147.44v-32.6h16.55v32.6H16.22Z"/>
        <path class="cls-47" d="M32.76,147.44v-49.15h16.38v49.15h-16.38Z"/>
      </g>
    </g>
    <g class="cls-35">
      <path class="cls-48" d="M98.29,73.72h49.15v24.57h-49.15v-24.57Z"/>
    </g>
    <g class="cls-34">
      <path class="cls-15" d="M98.29,172.01h49.15v24.57h-49.15v-24.57Z"/>
    </g>
    <g class="cls-33">
      <path class="cls-46" d="M147.44,172.01h49.15v24.57h-49.15v-24.57Z"/>
    </g>
    <g class="cls-32">
      <rect class="cls-15" x="147.44" y="147.44" width="49.15" height="24.57"/>
    </g>
    <circle class="cls-18" cx="159.72" cy="110.58" r="12.29"/>
    <circle class="cls-18" cx="159.72" cy="135.15" r="12.29"/>
    <circle class="cls-18" cx="184.3" cy="110.58" r="12.29"/>
    <circle class="cls-18" cx="184.3" cy="135.15" r="12.29"/>
    <g class="cls-22">
      <g>
        <rect class="cls-43" y="196.58" width="49.15" height="49.15"/>
        <circle class="cls-19" cx="0" cy="245.73" r="49.15"/>
      </g>
    </g>
    <rect class="cls-38" y="245.73" width="49.15" height="49.15"/>
    <path class="cls-13" d="M0,245.73l49.15,49.15H0v-49.15Z"/>
    <rect class="cls-39" x="49.15" y="98.29" width="49.15" height="49.15"/>
    <path class="cls-13" d="M49.15,98.29l49.15,49.15H49.15v-49.15Z"/>
    <path class="cls-13" d="M49.15,294.87l24.57,49.15h-24.57v-49.15Z"/>
    <path class="cls-13" d="M73.72,294.87l24.57,49.15h-24.57v-49.15Z"/>
    <path class="cls-12" d="M60.7,65.53c-2.67,0-4.83-2.16-4.83-4.83h0c0-2.67,2.16-4.83,4.83-4.83h0c2.67,0,4.83,2.16,4.83,4.83h0c0,2.67-2.16,4.83-4.83,4.83h0Z"/>
    <path class="cls-12" d="M73.8,65.53c-2.67,0-4.83-2.16-4.83-4.83h0c0-2.67,2.16-4.83,4.83-4.83h0c2.67,0,4.83,2.16,4.83,4.83h0c0,2.67-2.16,4.83-4.83,4.83h0Z"/>
    <path class="cls-12" d="M86.91,65.53c-2.67,0-4.83-2.16-4.83-4.83h0c0-2.67,2.16-4.83,4.83-4.83h0c2.67,0,4.83,2.16,4.83,4.83h0c0,2.67-2.16,4.83-4.83,4.83h0Z"/>
    <path class="cls-12" d="M60.7,78.63c-2.67,0-4.83-2.16-4.83-4.83v-.16c0-2.67,2.16-4.83,4.83-4.83h0c2.67,0,4.83,2.16,4.83,4.83v.16c0,2.67-2.16,4.83-4.83,4.83h0Z"/>
    <path class="cls-12" d="M73.8,78.63c-2.67,0-4.83-2.16-4.83-4.83v-.16c0-2.67,2.16-4.83,4.83-4.83h0c2.67,0,4.83,2.16,4.83,4.83v.16c0,2.67-2.16,4.83-4.83,4.83h0Z"/>
    <path class="cls-12" d="M86.91,78.63c-2.67,0-4.83-2.16-4.83-4.83v-.16c0-2.67,2.16-4.83,4.83-4.83h0c2.67,0,4.83,2.16,4.83,4.83v.16c0,2.67-2.16,4.83-4.83,4.83h0Z"/>
    <path class="cls-12" d="M60.7,91.58c-2.67,0-4.83-2.16-4.83-4.83h0c0-2.67,2.16-4.83,4.83-4.83h0c2.67,0,4.83,2.16,4.83,4.83h0c0,2.67-2.16,4.83-4.83,4.83h0Z"/>
    <path class="cls-12" d="M73.8,91.58c-2.67,0-4.83-2.16-4.83-4.83h0c0-2.67,2.16-4.83,4.83-4.83h0c2.67,0,4.83,2.16,4.83,4.83h0c0,2.67-2.16,4.83-4.83,4.83h0Z"/>
    <path class="cls-12" d="M86.91,91.58c-2.67,0-4.83-2.16-4.83-4.83h0c0-2.67,2.16-4.83,4.83-4.83h0c2.67,0,4.83,2.16,4.83,4.83h0c0,2.67-2.16,4.83-4.83,4.83h0Z"/>
    <rect class="cls-37" x="49.15" y="147.44" width="49.15" height="49.15"/>
    <path class="cls-15" d="M49.15,147.44l24.57,49.15h-24.57v-49.15Z"/>
    <path class="cls-15" d="M73.72,147.44l24.57,49.15h-24.57v-49.15Z"/>
    <circle class="cls-10" cx="61.43" cy="208.87" r="12.29"/>
    <circle class="cls-10" cx="61.43" cy="233.44" r="12.29"/>
    <circle class="cls-10" cx="86.01" cy="208.87" r="12.29"/>
    <circle class="cls-10" cx="86.01" cy="233.44" r="12.29"/>
    <circle class="cls-42" cx="73.72" cy="270.3" r="24.57"/>
    <rect class="cls-12" x="73.72" y="270.3" width="24.57" height="24.57"/>
    <g class="cls-24">
      <g>
        <circle class="cls-44" cx="172.01" cy="24.57" r="24.57"/>
        <rect class="cls-12" x="159.72" y="29.66" width="24.57" height="24.57" transform="translate(20.72 133.92) rotate(-45)"/>
        <rect class="cls-12" x="159.72" y="-5.09" width="24.57" height="24.57" transform="translate(45.29 123.74) rotate(-45)"/>
      </g>
    </g>
    <circle class="cls-10" cx="12.29" cy="307.16" r="12.29"/>
    <circle class="cls-10" cx="36.86" cy="307.16" r="12.29"/>
    <circle class="cls-10" cx="36.86" cy="331.73" r="12.29"/>
    <g class="cls-27">
      <g>
        <rect class="cls-41" x="98.29" y="196.58" width="49.15" height="49.15"/>
        <circle class="cls-10" cx="98.29" cy="221.16" r="24.57"/>
        <circle class="cls-12" cx="147.44" cy="221.16" r="24.57"/>
      </g>
    </g>
    <g class="cls-25">
      <g>
        <rect class="cls-40" x="147.44" y="294.87" width="49.15" height="49.15"/>
        <circle class="cls-19" cx="147.44" cy="319.45" r="24.57"/>
        <circle class="cls-12" cx="196.58" cy="319.45" r="24.57"/>
      </g>
    </g>
    <g class="cls-26">
      <g>
        <circle class="cls-17" cx="147.44" cy="270.3" r="24.57"/>
        <circle class="cls-14" cx="196.58" cy="270.3" r="24.57"/>
      </g>
    </g>
    <g class="cls-23">
      <g>
        <circle class="cls-19" cx="49.15" cy="49.15" r="24.57"/>
        <circle class="cls-19" cx="49.15" cy="0" r="24.57"/>
        <circle class="cls-13" cx="98.29" cy="0" r="24.57"/>
        <circle class="cls-13" cx="98.29" cy="49.15" r="24.57"/>
      </g>
    </g>
  </g>
</svg>