<svg id="Layer_1" data-name="Layer 1" xmlns="http://www.w3.org/2000/svg" width="196.58" height="344.02" xmlns:xlink="http://www.w3.org/1999/xlink" viewBox="0 0 196.58 344.02">
  <defs>
    <linearGradient id="linear-gradient" x1="45.06" y1="-1239.41" x2="14.04" y2="-1215.7" gradientTransform="translate(0 -1190) scale(1 -1)" gradientUnits="userSpaceOnUse">
      <stop offset="0" stop-color="#783afa"/>
      <stop offset="1" stop-color="#a989fd"/>
    </linearGradient>
    <linearGradient id="linear-gradient-2" y1="-1214.84" x2="14.04" y2="-1191.13" xlink:href="#linear-gradient"/>
    <linearGradient id="linear-gradient-3" x1="123.28" y1="-1202.02" x2="99.57" y2="-1233.04" xlink:href="#linear-gradient"/>
    <linearGradient id="linear-gradient-4" x1="122.45" y1="-1227.12" x2="146.16" y2="-1196.1" xlink:href="#linear-gradient"/>
    <linearGradient id="linear-gradient-5" x1="197.41" y1="-1263.19" x2="149.99" y2="-1325.23" xlink:href="#linear-gradient"/>
    <linearGradient id="linear-gradient-6" x1="221.98" y1="-1214.04" x2="174.56" y2="-1276.08" xlink:href="#linear-gradient"/>
    <linearGradient id="linear-gradient-7" x1="172.84" y1="-1421.28" x2="125.41" y2="-1483.32" xlink:href="#linear-gradient"/>
    <linearGradient id="linear-gradient-8" x1="221.98" y1="-1421.28" x2="174.56" y2="-1483.32" xlink:href="#linear-gradient"/>
    <linearGradient id="linear-gradient-9" x1="8.19" y1="-1321.22" x2="8.19" y2="-1337.44" gradientTransform="translate(0 -1190) scale(1 -1)" gradientUnits="userSpaceOnUse">
      <stop offset="0" stop-color="#6e2ff4"/>
      <stop offset="1" stop-color="#9973fd"/>
    </linearGradient>
    <linearGradient id="linear-gradient-10" x1="24.49" y1="-1304.84" x2="24.49" xlink:href="#linear-gradient-9"/>
    <linearGradient id="linear-gradient-11" x1="40.95" y1="-1288.29" x2="40.95" xlink:href="#linear-gradient-9"/>
    <linearGradient id="linear-gradient-12" x1="147.44" y1="-1276.01" x2="98.29" y2="-1276.01" xlink:href="#linear-gradient-9"/>
    <linearGradient id="linear-gradient-13" x1="196.58" y1="-1374.3" x2="147.44" y2="-1374.3" xlink:href="#linear-gradient-9"/>
    <linearGradient id="linear-gradient-14" x1="-5428.85" y1="905.84" x2="-5478" y2="905.84" gradientTransform="translate(5478 1127) scale(1 -1)" gradientUnits="userSpaceOnUse">
      <stop offset="0" stop-color="#183dd1"/>
      <stop offset="1" stop-color="#587ef8"/>
    </linearGradient>
    <linearGradient id="linear-gradient-15" x1="-5453.43" y1="1132.13" x2="-5453.43" y2="1181.27" gradientTransform="translate(5478 1427) scale(1 -1)" xlink:href="#linear-gradient-9"/>
    <linearGradient id="linear-gradient-16" x1="-5704.28" y1="379.56" x2="-5704.28" y2="428.71" gradientTransform="translate(5778 527) scale(1 -1)" xlink:href="#linear-gradient-9"/>
    <linearGradient id="linear-gradient-17" x1="-5704.28" y1="679.56" x2="-5704.28" y2="630.42" gradientTransform="translate(5778 827) scale(1 -1)" xlink:href="#linear-gradient-14"/>
    <linearGradient id="linear-gradient-18" x1="49.15" y1="-1460.3" x2="98.29" y2="-1460.3" gradientTransform="translate(0 -1190) scale(1 -1)" gradientUnits="userSpaceOnUse">
      <stop offset="0" stop-color="#30c8c9"/>
      <stop offset="1" stop-color="#9ef9e0"/>
    </linearGradient>
    <linearGradient id="linear-gradient-19" x1="147.44" y1="-1214.57" x2="196.58" y2="-1214.57" xlink:href="#linear-gradient-18"/>
    <linearGradient id="linear-gradient-20" x1="-5979.71" y1="905.84" x2="-5930.56" y2="905.84" gradientTransform="translate(6078 1127) scale(1 -1)" xlink:href="#linear-gradient-18"/>
    <linearGradient id="linear-gradient-21" x1="-6205.99" y1="1432.13" x2="-6205.99" y2="1382.98" gradientTransform="translate(6378 1727) scale(1 -1)" xlink:href="#linear-gradient-14"/>
    <clipPath id="clippath">
      <path class="cls-1" d="M0 49.15h49.15V98.3H0z"/>
    </clipPath>
    <clipPath id="clippath-1">
      <path class="cls-1" d="M0 0h49.15v49.15H0z"/>
    </clipPath>
    <clipPath id="clippath-2">
      <path class="cls-1" d="M98.29 0h49.15v49.15H98.29z"/>
    </clipPath>
    <clipPath id="clippath-3">
      <path class="cls-1" d="M147.44 49.15h49.15V98.3h-49.15z"/>
    </clipPath>
    <clipPath id="clippath-4">
      <path class="cls-1" d="M147.44 196.58h49.15v49.15h-49.15z"/>
    </clipPath>
    <clipPath id="clippath-5">
      <path class="cls-1" d="M0 98.29h49.15v49.15H0z"/>
    </clipPath>
    <clipPath id="clippath-6">
      <path class="cls-1" d="M98.29 49.15h49.15V98.3H98.29z"/>
    </clipPath>
    <clipPath id="clippath-7">
      <path class="cls-1" d="M98.29 147.44h49.15v49.15H98.29z"/>
    </clipPath>
    <clipPath id="clippath-8">
      <path class="cls-1" d="M147.44 147.44h49.15v49.15h-49.15z"/>
    </clipPath>
    <clipPath id="clippath-9">
      <path class="cls-1" d="M147.44 147.44h49.15v24.57h-49.15z"/>
    </clipPath>
    <clipPath id="clippath-10">
      <path class="cls-1" d="M0 196.58h49.15v49.15H0z"/>
    </clipPath>
    <clipPath id="clippath-11">
      <path class="cls-1" d="M172.01 0c13.57 0 24.57 11 24.57 24.57s-11 24.57-24.57 24.57-24.57-11-24.57-24.57S158.44 0 172.01 0Z"/>
    </clipPath>
    <clipPath id="clippath-12">
      <path class="cls-1" d="M98.29 196.58h49.15v49.15H98.29z"/>
    </clipPath>
    <clipPath id="clippath-13">
      <path class="cls-1" d="M147.44 294.87h49.15v49.15h-49.15z"/>
    </clipPath>
    <clipPath id="clippath-14">
      <path class="cls-1" d="M147.44 245.73h49.15v49.15h-49.15z"/>
    </clipPath>
    <clipPath id="clippath-15">
      <path class="cls-1" d="M49.15 0H98.3v49.15H49.15z"/>
    </clipPath>
    <style>
      .cls-1{fill:none}.cls-10{fill:#9ef9e0}.cls-12{fill:#30c8c9}.cls-13{fill:#a989fd}.cls-14{fill:#0f6a80}.cls-15{fill:#183dd1}.cls-18{fill:#2a2e32}.cls-19{fill:#587ef8}
    </style>
  </defs>
  <path style="fill:#22262a" d="M-6.61-9.82h211.74v366.67H-6.61z"/>
  <g style="clip-path:url(#clippath)">
    <path d="M48.53 73.72v-.31c0-13.4-10.86-24.27-24.26-24.27S0 60.01 0 73.41v.31h48.53Z" style="fill-rule:evenodd;fill:#9ef9e0"/>
    <path d="M0 73.72v.31c0 13.4 10.86 24.26 24.26 24.26s24.27-10.86 24.27-24.26v-.31H0Z" style="fill-rule:evenodd;fill:#587ef8"/>
  </g>
  <g style="clip-path:url(#clippath-1)">
    <path d="M49.15 49.15H12.29C5.5 49.15 0 43.65 0 36.86c0-6.79 5.5-12.29 12.29-12.29h36.86v24.57Z" style="fill:url(#linear-gradient)"/>
    <path d="M49.15 24.57H12.29C5.5 24.57 0 19.07 0 12.29 0 5.5 5.5 0 12.29 0h36.86v24.57Z" style="fill:url(#linear-gradient-2)"/>
  </g>
  <path class="cls-14" d="M98.29 147.44v-24.57c0-13.57 11-24.57 24.57-24.57s24.57 11 24.57 24.57v24.57H98.28Z"/>
  <path class="cls-10" d="M0 196.58v-24.57c0-13.57 11-24.57 24.57-24.57s24.57 11 24.57 24.57v24.57H0Z"/>
  <g style="clip-path:url(#clippath-2)">
    <path d="M98.29 49.15V12.29C98.29 5.5 103.79 0 110.58 0c6.79 0 12.29 5.5 12.29 12.29v36.86H98.3Z" style="fill:url(#linear-gradient-3)"/>
    <path d="M147.44 0v36.86c0 6.79-5.5 12.29-12.29 12.29-6.79 0-12.29-5.5-12.29-12.29V0h24.57Z" style="fill:url(#linear-gradient-4)"/>
  </g>
  <g style="clip-path:url(#clippath-3)">
    <path d="M147.44 147.44V73.72c0-13.57 11-24.57 24.57-24.57s24.57 11 24.57 24.57v73.72h-49.15Z" style="fill:url(#linear-gradient-5)"/>
    <path d="M172.01 98.29V24.57C172.01 11 183.01 0 196.58 0s24.57 11 24.57 24.57v73.72H172Z" style="fill:url(#linear-gradient-6)"/>
  </g>
  <g style="clip-path:url(#clippath-4)">
    <path class="cls-13" d="M147.44 196.58h49.15v49.15h-49.15z"/>
    <path d="M122.86 305.52V231.8c0-13.57 11-24.57 24.57-24.57s24.57 11 24.57 24.57v73.72h-49.15Z" style="fill:url(#linear-gradient-7)"/>
    <path d="M172.01 305.52V231.8c0-13.57 11-24.57 24.57-24.57s24.57 11 24.57 24.57v73.72H172Z" style="fill:url(#linear-gradient-8)"/>
  </g>
  <g style="clip-path:url(#clippath-5)">
    <path d="M0 147.44v-16.22h16.38v16.22H0Z" style="fill:url(#linear-gradient-9)"/>
    <path d="M16.22 147.44v-32.6h16.55v32.6H16.22Z" style="fill:url(#linear-gradient-10)"/>
    <path d="M32.76 147.44V98.29h16.38v49.15H32.76Z" style="fill:url(#linear-gradient-11)"/>
  </g>
  <g style="clip-path:url(#clippath-6)">
    <path d="M98.29 73.72h49.15v24.57H98.29V73.72Z" style="fill:url(#linear-gradient-12)"/>
  </g>
  <path class="cls-15" d="M98.29 172.01h49.15v24.57H98.29v-24.57Z" style="clip-path:url(#clippath-7)"/>
  <g style="clip-path:url(#clippath-8)">
    <path d="M147.44 172.01h49.15v24.57h-49.15v-24.57Z" style="fill:url(#linear-gradient-13)"/>
  </g>
  <path class="cls-15" d="M147.44 147.44h49.15v24.57h-49.15z" style="clip-path:url(#clippath-9)"/>
  <circle class="cls-18" cx="159.72" cy="110.58" r="12.29"/>
  <circle class="cls-18" cx="159.72" cy="135.15" r="12.29"/>
  <circle class="cls-18" cx="184.3" cy="110.58" r="12.29"/>
  <circle class="cls-18" cx="184.3" cy="135.15" r="12.29"/>
  <g style="clip-path:url(#clippath-10)">
    <path style="fill:url(#linear-gradient-14)" d="M0 196.58h49.15v49.15H0z"/>
    <circle class="cls-19" cy="245.73" r="49.15"/>
  </g>
  <path style="fill:url(#linear-gradient-15)" d="M0 245.73h49.15v49.15H0z"/>
  <path class="cls-13" d="m0 245.73 49.15 49.15H0v-49.15Z"/>
  <path style="fill:url(#linear-gradient-16)" d="M49.15 98.29H98.3v49.15H49.15z"/>
  <path class="cls-13" d="m49.15 98.29 49.15 49.15H49.15V98.29ZM49.15 294.87l24.57 49.15H49.15v-49.15ZM73.72 294.87l24.57 49.15H73.72v-49.15Z"/>
  <path class="cls-12" d="M60.7 65.53c-2.67 0-4.83-2.16-4.83-4.83s2.16-4.83 4.83-4.83 4.83 2.16 4.83 4.83-2.16 4.83-4.83 4.83ZM73.8 65.53c-2.67 0-4.83-2.16-4.83-4.83s2.16-4.83 4.83-4.83 4.83 2.16 4.83 4.83-2.16 4.83-4.83 4.83ZM86.91 65.53c-2.67 0-4.83-2.16-4.83-4.83s2.16-4.83 4.83-4.83 4.83 2.16 4.83 4.83-2.16 4.83-4.83 4.83ZM60.7 78.63c-2.67 0-4.83-2.16-4.83-4.83v-.16c0-2.67 2.16-4.83 4.83-4.83s4.83 2.16 4.83 4.83v.16c0 2.67-2.16 4.83-4.83 4.83ZM73.8 78.63c-2.67 0-4.83-2.16-4.83-4.83v-.16c0-2.67 2.16-4.83 4.83-4.83s4.83 2.16 4.83 4.83v.16c0 2.67-2.16 4.83-4.83 4.83ZM86.91 78.63c-2.67 0-4.83-2.16-4.83-4.83v-.16c0-2.67 2.16-4.83 4.83-4.83s4.83 2.16 4.83 4.83v.16c0 2.67-2.16 4.83-4.83 4.83ZM60.7 91.58c-2.67 0-4.83-2.16-4.83-4.83s2.16-4.83 4.83-4.83 4.83 2.16 4.83 4.83-2.16 4.83-4.83 4.83ZM73.8 91.58c-2.67 0-4.83-2.16-4.83-4.83s2.16-4.83 4.83-4.83 4.83 2.16 4.83 4.83-2.16 4.83-4.83 4.83ZM86.91 91.58c-2.67 0-4.83-2.16-4.83-4.83s2.16-4.83 4.83-4.83 4.83 2.16 4.83 4.83-2.16 4.83-4.83 4.83Z"/>
  <path style="fill:url(#linear-gradient-17)" d="M49.15 147.44H98.3v49.15H49.15z"/>
  <path class="cls-15" d="m49.15 147.44 24.57 49.15H49.15v-49.15ZM73.72 147.44l24.57 49.15H73.72v-49.15Z"/>
  <circle class="cls-10" cx="61.43" cy="208.87" r="12.29"/>
  <circle class="cls-10" cx="61.43" cy="233.44" r="12.29"/>
  <circle class="cls-10" cx="86.01" cy="208.87" r="12.29"/>
  <circle class="cls-10" cx="86.01" cy="233.44" r="12.29"/>
  <circle cx="73.72" cy="270.3" r="24.57" style="fill:url(#linear-gradient-18)"/>
  <path class="cls-12" d="M73.72 270.3h24.57v24.57H73.72z"/>
  <g style="clip-path:url(#clippath-11)">
    <circle cx="172.01" cy="24.57" r="24.57" style="fill:url(#linear-gradient-19)"/>
    <path class="cls-12" transform="translate(20.72 133.92) rotate(-45)" d="M159.72 29.66h24.57v24.57h-24.57z"/>
    <path class="cls-12" transform="translate(45.29 123.74) rotate(-45)" d="M159.72-5.09h24.57v24.57h-24.57z"/>
  </g>
  <circle class="cls-10" cx="12.29" cy="307.16" r="12.29"/>
  <circle class="cls-10" cx="36.86" cy="307.16" r="12.29"/>
  <circle class="cls-10" cx="36.86" cy="331.73" r="12.29"/>
  <g style="clip-path:url(#clippath-12)">
    <path style="fill:url(#linear-gradient-20)" d="M98.29 196.58h49.15v49.15H98.29z"/>
    <circle class="cls-10" cx="98.29" cy="221.16" r="24.57"/>
    <circle class="cls-12" cx="147.44" cy="221.16" r="24.57"/>
  </g>
  <g style="clip-path:url(#clippath-13)">
    <path style="fill:url(#linear-gradient-21)" d="M147.44 294.87h49.15v49.15h-49.15z"/>
    <circle class="cls-19" cx="147.44" cy="319.45" r="24.57"/>
    <circle class="cls-12" cx="196.58" cy="319.45" r="24.57"/>
  </g>
  <g style="clip-path:url(#clippath-14)">
    <circle cx="147.44" cy="270.3" r="24.57" style="fill:#6e2ff4"/>
    <circle class="cls-14" cx="196.58" cy="270.3" r="24.57"/>
  </g>
  <g style="clip-path:url(#clippath-15)">
    <circle class="cls-19" cx="49.15" cy="49.15" r="24.57"/>
    <circle class="cls-19" cx="49.15" r="24.57"/>
    <circle class="cls-13" cx="98.29" r="24.57"/>
    <circle class="cls-13" cx="98.29" cy="49.15" r="24.57"/>
  </g>
</svg>
