<svg id="Layer_1" data-name="Layer 1" xmlns="http://www.w3.org/2000/svg" width="800" height="1193" viewBox="0 0 800 1193">
  <defs>
    <clipPath id="clippath">
      <path class="cls-3" transform="translate(800 1193) rotate(180)" d="M0 0h800v1193H0z"/>
    </clipPath>
    <style>
      .cls-1{fill:#fff}.cls-2,.cls-3{opacity:.2}.cls-3{fill:none}
    </style>
  </defs>
  <g style="clip-path:url(#clippath)">
    <g class="cls-2">
      <path class="cls-1" d="M829.97 49.99c-23.84-2.23-48.57-4.53-71.89 2.37-19.32 5.71-36.35 17.53-45.47 35.85-4.88 9.8-7.78 20.4-11.61 30.62-3.55 9.45-8.23 18.34-14.54 26.24-11.55 14.44-27.2 24.99-43.91 32.59-17.36 7.89-36.04 12.76-54.83 15.74-21.56 3.42-44.22 4.22-62.81 17.04-15.29 10.54-26.54 26.84-30.91 44.9s-1.06 37.81 8.54 54.02c4.84 8.17 11.17 15.49 18.66 21.34 3.69 2.88 7.63 5.43 11.82 7.54 4.62 2.32 9.64 3.85 14.11 6.47 9.89 5.79 13.45 17.76 14.02 28.58.58 11.09-2.09 22.16-6.66 32.22-19.03 41.9-64.9 60.83-92.23 96.04-6.18 7.97-11.43 16.68-14.93 26.17-3.52 9.54-5.9 20.74-3.06 30.76 2.75 9.72 10.81 16.34 19.5 20.75 9.61 4.88 20.22 7.65 30.98 8.26 20.96 1.18 40.14-6.66 56.76-18.93s29.81-26.58 45.87-38.47c17.56-13.01 38.19-21.24 59.98-23.45 10.88-1.1 21.93-.78 32.7 1.12 11.22 1.98 21.96 5.8 32.56 9.88 20.25 7.79 40.92 16.37 63.08 14.07 18.5-1.92 36.18-10.12 49.75-22.82a80.68 80.68 0 0 0 16.58-21.91c.88-1.71-1.71-3.23-2.59-1.51-8.77 17.04-23.86 30.39-41.58 37.61-8.76 3.57-18.13 5.69-27.59 6-10.73.35-21.29-1.81-31.49-5.01-20.98-6.59-40.67-16.96-62.7-19.94s-42.55-.18-62.16 7.63-34.11 19.93-49.06 33.23c-14.54 12.94-29.28 26.74-47.6 34.14-20.29 8.19-44.1 7.21-63.43-3.24-9.83-5.32-17.21-13.3-17.73-24.94-.48-10.67 3.1-21.6 7.89-31 20.22-39.69 64.06-58.06 90.59-92.41 12.52-16.21 21.65-36.82 19.29-57.7-1.07-9.42-4.31-19.42-12-25.51-4.07-3.23-8.99-4.93-13.7-6.97a69.364 69.364 0 0 1-12.33-6.91c-15.66-11.01-26.62-28.5-29.88-47.35s2.19-38.43 13.58-53.71c5.7-7.64 12.9-14.21 21.12-19.05 9.6-5.65 20.42-8.46 31.32-10.28 10.58-1.77 21.27-2.75 31.84-4.64 9.16-1.64 18.23-3.76 27.13-6.47 34.43-10.48 67.16-30.59 81.32-65.1 4.17-10.16 6.93-20.85 11.43-30.87s10.35-17.91 18.64-24.41c17.47-13.71 40.19-17.78 61.87-17.77 11.96 0 23.88 1.11 35.78 2.23 1.92.18 1.91-2.82 0-3Z"/>
    </g>
    <path class="cls-1" d="M837.78 87.46c-19.85-3.57-40.53-7.26-60.51-2.45-8.12 1.96-16.05 5.28-22.81 10.24s-12.31 11.84-16.06 19.62c-7.79 16.13-9.83 34.4-20.04 49.44-10.52 15.51-26.14 28.01-42.19 37.4-16.01 9.37-33.49 15.56-51.72 18.86-16.55 3-33.47 4.27-49.71 8.8s-30.87 12.25-39.68 26.17c-4.69 7.42-6.58 16.05-4.93 24.7s6.46 16.57 12.09 23.29c11.87 14.19 29.04 23.56 38.54 39.8 9.21 15.75 9.36 35.16 4.5 52.34-10.65 37.6-43.7 62.69-67.87 91.41-6 7.13-11.65 14.61-16.44 22.61-4 6.67-8.8 14.46-8.82 22.5 0 3.1.86 6.32 3.26 8.43 3.04 2.68 7.15 2.58 10.91 1.94 8.69-1.47 17.12-4.51 25.14-8.11 16.8-7.54 32-18.07 48.06-26.98 17.14-9.51 35.41-16.23 54.89-18.89 19.94-2.73 40.02-1.15 59.45 3.97 19.35 5.1 38.21 12.62 58.28 14.55 32.41 3.12 65.58-10.84 87.01-35.15 5.2-5.9 9.69-12.39 13.34-19.36.9-1.71-1.69-3.23-2.59-1.51-15.01 28.62-44.65 48.65-76.64 52.71-18.63 2.36-36.69-1.75-54.46-7.05-18.73-5.58-37.18-11.36-56.84-12.33-19.03-.94-38.28 1.75-56.31 7.92-17.23 5.9-32.69 15.38-48.24 24.67s-31.01 18.14-48.55 22.01c-4.04.89-9.91 2.34-12.55-1.95-1.78-2.91-1.24-6.85-.4-9.97 1.12-4.15 3.26-8.04 5.32-11.79 2.27-4.14 4.78-8.14 7.47-12.01 21.34-30.8 53.18-53.31 71.16-86.61 8.23-15.23 13-32.75 11.28-50.14-.82-8.31-3.13-16.46-7.21-23.77-4.29-7.7-10.45-14.11-16.93-20.01-13.06-11.89-29.14-23.38-33.56-41.54s9.09-33.77 24.21-41.95 30.92-10.25 46.86-12.59c17.07-2.5 33.96-5.08 50.15-11.31s32.2-15.63 45.76-27.24c7-6 13.56-12.6 19-20.06 5.16-7.08 8.77-14.9 11.6-23.16 5.57-16.29 9.12-34.09 23.1-45.58s34-14.52 52.08-13.33c10.37.68 20.62 2.52 30.84 4.36 1.89.34 2.7-2.55.8-2.89Z" style="opacity:.3"/>
    <g class="cls-2">
      <path class="cls-1" d="M839.58 118.4c-12.69-10.54-27.43-22.28-44.96-21.06-15.25 1.06-27.48 11.52-36.09 23.42-18.94 26.18-20.48 64.3-49.95 82.52-14.48 8.95-31.65 12.02-47.94 16.01-18.11 4.44-35.71 10.72-52.45 18.94-8.44 4.14-16.64 8.76-24.56 13.82-7.36 4.71-14.46 9.84-20.23 16.47-4.99 5.74-9.15 12.64-9.83 20.37-.61 7.04 2.21 13.88 7.09 18.89 9.56 9.8 23.97 12.61 34.09 21.7 11.64 10.46 13.98 27.02 12.25 41.83-1.97 16.82-9.23 32.93-17.65 47.44-8.95 15.42-19.88 29.56-31.14 43.34-5.53 6.77-11.15 13.47-16.7 20.22-2.8 3.4-5.8 6.75-8.29 10.39-2.06 3.02-3.97 6.82-3.38 10.59 1.34 8.61 11.94 7.42 18.18 6.36 7.81-1.33 15.31-4.04 22.46-7.4 14.98-7.05 28.36-16.94 42.68-25.17 15.76-9.05 32.67-15.02 50.95-15.81 9.41-.41 18.85.44 28.02 2.6 9.66 2.27 18.8 6.14 27.84 10.16 16.22 7.21 32.56 13.76 50.35 15.71 16.48 1.81 33.71-.69 47.52-10.36 13.04-9.12 21.56-22.99 27.99-37.26 3.19-7.08 5.95-14.35 8.63-21.64.67-1.81-2.23-2.6-2.89-.8-5.44 14.74-11.16 29.75-20.56 42.5-9.78 13.25-23.65 22.03-40.03 24.4-16.8 2.43-34.1-1.26-49.88-6.94-17.37-6.26-33.44-15.81-51.72-19.44s-36.26-2.47-53.41 3.1c-15.64 5.08-29.44 14.14-43.26 22.83-13.32 8.38-27.15 16.79-42.73 20.1-3.81.81-8.13 1.74-12.02 1.07-1.91-.33-3.77-1.18-4.7-2.97-1.08-2.09-.39-4.63.53-6.65 1.76-3.86 4.77-7.07 7.43-10.33s5.39-6.56 8.1-9.83c21.71-26.19 44.41-52.95 55.78-85.54 4.87-13.95 7.35-29.49 3.7-44.04-1.72-6.88-4.97-13.39-9.86-18.56-4.56-4.83-10.41-8.16-16.24-11.21-11.42-5.96-26.54-12.59-26.22-27.82.17-8.12 5.01-15.45 10.36-21.21 6.02-6.48 13.29-11.43 20.76-16.08a250.11 250.11 0 0 1 49.74-23.82c8.53-2.98 17.22-5.42 26-7.54 7.95-1.92 15.93-3.68 23.77-6.04 15.49-4.65 29.73-11.99 39.72-25.05 9.78-12.79 14.94-28.35 20.93-43.1 5.77-14.21 13.19-28.29 25.32-38.12 5.75-4.66 12.66-8.09 20.07-8.94 8.36-.95 16.53 1.44 23.85 5.38 7.41 4 13.99 9.31 20.44 14.67 1.47 1.23 3.61-.89 2.12-2.12Z"/>
    </g>
    <g class="cls-2">
      <path class="cls-1" d="M839.66 115.37c-19.17 3.65-37.18 12.39-52.22 24.78a118.402 118.402 0 0 0-20.03 21.15c-6.14 8.32-10.82 17.39-14.73 26.94-4.31 10.51-8.25 21.19-15.15 30.35-5.9 7.82-13.44 14.32-21.64 19.62-17.25 11.15-36.93 16.91-56.64 21.95-10.74 2.75-21.85 5.84-31.06 12.27-8 5.59-14.79 13.98-16.68 23.75s2.35 19.08 7.79 27.34c2.77 4.2 5.72 8.3 8.05 12.77 2.62 5.02 4.1 10.5 4.46 16.16.76 11.92-2.79 23.53-7.14 34.48-2.26 5.7-4.75 11.31-7.04 17.01-1.12 2.8-2.19 5.61-3.16 8.47s-1.92 5.56-2.2 8.47c-.55 5.64 3.09 9.04 7.69 11.51 4.68 2.51 9.81 4.08 15.07 4.81 10.6 1.47 21.4-.2 31.68-2.89 22.7-5.95 45.99-18.76 70-12.04 21.04 5.88 38.14 23.9 61.21 22.62 5.05-.28 9.94-1.63 14.3-4.21 1.66-.98.15-3.58-1.51-2.59-9.32 5.51-20.6 4.35-30.48 1.04-10.44-3.5-19.67-9.73-29.51-14.54-4.83-2.36-9.85-4.44-15.09-5.7-5.66-1.36-11.53-1.74-17.34-1.35-11.91.81-23.36 4.54-34.6 8.31-19.52 6.54-43.14 14.53-62.68 3.7-2.21-1.22-4.76-2.74-5.53-5.32-.83-2.77.21-5.79 1.04-8.44 1.77-5.66 4-11.16 6.29-16.63 4.52-10.8 9.33-21.62 11.21-33.26 1.76-10.91.86-21.93-4.44-31.77-4.59-8.52-11.66-15.9-14.5-25.3s.59-19.65 7.12-27.08c7.26-8.25 17.42-12.77 27.75-15.92s20.41-5.19 30.46-8.36c9.29-2.94 18.43-6.47 27.1-10.95 8.45-4.37 16.48-9.69 23.44-16.21 7.43-6.95 13.27-15.21 17.58-24.41 4.72-10.09 8.08-20.77 13.46-30.55 4.6-8.38 10.3-16.13 16.87-23.08 13.19-13.94 29.85-24.63 48.12-30.55 4.42-1.43 8.92-2.58 13.49-3.45 1.89-.36 1.09-3.25-.8-2.89Z"/>
    </g>
    <g class="cls-2">
      <path class="cls-1" d="M853.52 196.3c-16.76-4.07-34.68-2.34-50.56 4.28-7.98 3.33-15.43 7.8-22.04 13.38s-11.89 12.02-16.41 19.21c-8.67 13.77-14.61 29.82-26.32 41.47-2.84 2.83-6.01 5.3-9.52 7.26-4.35 2.43-9.11 3.91-13.95 4.97-9.53 2.09-19.49 2.48-28.76 5.71-7.64 2.67-15.25 7.16-19.56 14.24s-3.86 15.09-.98 22.46 7.7 14.17 10.69 21.67c1.44 3.61 2.45 7.42 2.38 11.33-.08 4.45-1.58 8.71-3.61 12.63s-4.67 7.76-7.13 11.55-5.24 7.87-6.61 12.26.27 8.73 4.46 10.95 9.01 2.67 13.51 2.93c10.07.59 20.29-1.61 29.22-6.29s16.61-11.91 24.93-17.83c8.09-5.76 17.84-10.77 28.08-9.73 8.75.89 15.79 6.61 21.62 12.79s10.94 13.66 17.66 19.22c6.46 5.35 14.75 9.94 23.39 9.67 3.93-.12 7.72-1.38 10.89-3.72 1.54-1.13.04-3.74-1.51-2.59-6.85 5.06-15.47 3.56-22.59-.13-3.82-1.98-7.33-4.53-10.46-7.47s-5.81-6.25-8.57-9.5c-5.38-6.35-10.93-12.95-18.2-17.21-8.18-4.79-17.61-5.2-26.48-2.12-9.61 3.34-17.5 9.72-25.4 15.91s-16.13 11.84-26 14.39a53.707 53.707 0 0 1-14.83 1.68c-4.33-.11-9.31-.46-13.27-2.36-1.68-.81-3.29-2-3.8-3.88-.66-2.42.56-4.97 1.62-7.09 2.02-4.01 4.54-7.73 7-11.48 4.67-7.14 9.38-14.91 9.11-23.75-.25-7.98-4.21-15.19-7.93-22.03s-7.63-13.6-7.39-21.31c.25-8.1 5.72-14.43 12.39-18.45 16.2-9.77 36.77-5.74 52.98-15.6 13.88-8.44 21.36-23.64 28.87-37.4 3.92-7.19 7.97-14.43 13.23-20.75s11.78-11.93 18.9-16.3c14.32-8.79 31.33-13.14 48.11-11.95 4.08.29 8.11.93 12.08 1.9 1.88.46 2.68-2.44.8-2.89Z"/>
    </g>
    <g class="cls-2">
      <path class="cls-1" d="M829.39 291.43c3.89-2.22 3.91-7.35 1.82-10.85-2.96-4.93-9.11-5.24-14.22-4.36-3.17.55-6.28 1.46-9.4 2.25l-9.98 2.53c-5.63 1.43-11.29 2.76-16.83 4.51-9.78 3.08-19.69 7.76-25.4 16.68-2.62 4.09-4.21 8.75-5.98 13.25-1.68 4.25-3.58 8.66-6.97 11.84-3.96 3.7-9.3 4.44-14.5 4.53-5.49.1-11.17-.39-16.51 1.22-9.94 3-15.94 13.6-16.42 23.56-.21 4.36.66 9.15 3.21 12.78 2.85 4.06 7.49 5.92 12.38 4.89 5.95-1.24 10.82-5.84 15.49-9.43s9.81-7.49 15.07-10.71c9.91-6.06 21.72-10.38 33.47-8.16 5.48 1.04 10.14 3.62 14.45 7.08 3.94 3.16 7.69 6.75 12.27 8.99 2.25 1.1 4.6 1.79 7.1 2.03 1.92.18 1.91-2.82 0-3-4.74-.45-8.79-3.26-12.4-6.16-3.84-3.09-7.5-6.51-11.89-8.81-9.77-5.11-21.62-4.45-31.76-.81-11.03 3.95-20.39 11.22-29.57 18.3-4.29 3.31-9.32 8.04-15.1 7.98-4.25-.04-7.26-3.2-8.62-7.01-3.01-8.45.15-19.16 6.76-25.09 8.21-7.36 20.01-3.26 29.81-5.45 4.71-1.05 8.61-3.72 11.46-7.58 2.69-3.63 4.3-7.96 5.92-12.15s3.34-8.68 6.16-12.37c2.94-3.84 6.88-6.75 11.13-8.99 9.42-4.97 20.21-7.05 30.45-9.64l9.5-2.41c2.9-.74 5.82-1.62 8.8-1.96 4.46-.51 9.72.61 10.48 5.79.24 1.64-.2 3.27-1.7 4.12-1.68.96-.17 3.55 1.51 2.59Z"/>
    </g>
    <g class="cls-2">
      <path class="cls-1" d="M429.22-16.44c-16.88 19.92-33.81 40.08-47.05 62.67-6.47 11.03-12.02 22.65-16.01 34.81-4.18 12.76-6.29 25.96-7.27 39.32-2.07 28.29.12 57.41-9.6 84.57-8.11 22.63-23.25 42.01-40.92 58.03-18.1 16.41-38.8 29.05-60.07 40.86-20.31 11.27-41.79 23.45-54.35 43.77-7.09 11.48-10.52 24.67-13.89 37.6-3.5 13.45-7.49 26.72-13.23 39.4-9.91 21.89-24.44 41.1-44.19 54.98-35.12 24.69-82.3 32.36-123.07 18.3-5.07-1.75-10-3.85-14.8-6.26-1.72-.87-3.24 1.72-1.51 2.59 38.55 19.38 85.6 17.4 123.81-1.83 19.51-9.82 36.52-24.24 48.92-42.27 7.64-11.11 13.61-23.29 18.34-35.89 4.86-12.93 7.87-26.34 11.68-39.59 3.79-13.21 9.12-25.66 18.4-35.98 8.08-8.98 17.98-16.06 28.23-22.35 10.33-6.33 21.11-11.88 31.57-17.98 10.51-6.12 20.72-12.78 30.41-20.13 19.04-14.43 36.41-31.68 48.35-52.54 6.02-10.52 10.53-21.88 13.2-33.7 3.13-13.88 3.95-28.16 4.45-42.34.53-14.92.69-29.93 2.94-44.72 2.02-13.26 5.95-26.15 11.45-38.38 10.85-24.1 26.92-45.42 43.65-65.71 4.18-5.07 8.43-10.1 12.68-15.11 1.24-1.46-.87-3.6-2.12-2.12Z"/>
    </g>
    <g class="cls-2">
      <path class="cls-1" d="M396.57-23.68c-15.19 19.53-27.45 41.2-36.28 64.32-9.5 24.88-13.97 50.93-17.57 77.2-6.56 47.89-13.04 101.52-51.42 135.59-32.9 29.2-79.21 39.44-108.09 73.78-26.88 31.96-35.44 74.91-61.5 107.37-14.66 18.26-34.61 30.12-57.17 36.03-26.35 6.89-53.9 5.67-80.74 2.86-6.82-.71-13.63-1.53-20.44-2.34-1.91-.23-1.9 2.77 0 3 49.55 5.94 107.36 11.58 147.87-24.14 31.76-28.01 41.46-71.67 63.64-106.3 5.71-8.91 12.3-17.23 20.07-24.44 8.18-7.59 17.41-13.93 26.95-19.67 19.06-11.46 39.5-20.59 57.8-33.3 9.06-6.29 17.53-13.47 24.7-21.89 7.56-8.89 13.71-18.9 18.63-29.47 10.5-22.56 15.53-47.08 19.17-71.56 4.05-27.26 6.63-54.87 14.2-81.46 6.89-24.23 17.56-47.35 31.47-68.36a240.13 240.13 0 0 1 10.85-15.1c1.17-1.51-.94-3.64-2.12-2.12Z"/>
    </g>
    <g class="cls-2">
      <path class="cls-1" d="M356.69-18.86c-15.31 17.34-28.87 36.36-38.95 57.22s-15.92 43.56-20.16 66.45-7.33 46.87-13.25 69.84c-5.6 21.71-13.75 44.41-29.27 61.11-30.64 32.99-81.25 24.12-117.46 47.05-8.17 5.18-15.27 11.93-20.32 20.22s-7.89 17.57-9.89 26.94c-4.05 19.01-4.45 39.41-12.92 57.23-4.75 10.01-12.21 17.88-21.14 24.32-9.51 6.87-19.88 12.76-30.27 18.18-21.11 11.02-44.29 19.66-68.34 20.16-5.93.12-11.86-.26-17.73-1.19-1.89-.3-2.7 2.59-.8 2.89 23.63 3.72 47.36-1.28 69.25-10.32 11.2-4.63 21.98-10.21 32.43-16.34 9.69-5.68 19.54-11.63 27.52-19.63 14.45-14.46 18.34-34.48 21.35-53.92s5.71-40.32 19.53-55.37 35.18-21.76 54.89-26.21c21.26-4.8 43.77-8.19 62.36-20.37 18.48-12.11 29.53-32.03 36.99-52.29 8.28-22.48 12.24-46.23 16.18-69.77s7.91-47.36 16.16-69.9 20.43-42.63 35-61.11c3.52-4.47 7.19-8.83 10.95-13.09 1.27-1.44-.84-3.57-2.12-2.12Z"/>
    </g>
    <g class="cls-2">
      <path class="cls-1" d="M317.48-15.71c-12.27 17.65-18.79 38.33-23.63 59.06s-8.81 43.3-15.09 64.54a414.964 414.964 0 0 1-25.13 64.6c-5.02 10.26-10.47 20.32-16.32 30.14s-11.63 19.22-19.85 26.86c-12.26 11.4-28.07 17.94-43.66 23.41-15.9 5.58-32.28 10.17-47.38 17.8s-28.04 19.01-35.49 34.68c-8.65 18.2-10.66 38.58-17.44 57.41S54.5 395.9 38.58 407.02c-15.6 10.9-33.3 18.4-51.07 24.97a876.61 876.61 0 0 1-13.31 4.77c-1.81.63-1.03 3.53.8 2.89 34.51-12.08 73.53-26.48 93.53-59.34 10.56-17.35 13.25-37.74 18.89-56.91 2.85-9.68 6.56-19.19 12.49-27.44 4.86-6.76 11.14-12.4 18.07-16.96 28.29-18.59 64.21-20.75 92.22-39.94 17.36-11.9 27.72-30.66 37.58-48.75a418.734 418.734 0 0 0 28.01-63.37c7.42-21.43 12.54-43.35 17.17-65.52 4.42-21.14 9.07-42.66 18.96-62.03 2.41-4.71 5.12-9.25 8.14-13.6 1.1-1.59-1.49-3.09-2.59-1.51Z"/>
    </g>
    <g class="cls-2">
      <path class="cls-1" d="M281.9-26.04c.57 20.63-3.77 40.91-9.94 60.5s-14.21 39.41-21.73 58.94c-7.58 19.68-15.08 39.4-23.08 58.92-7.34 17.91-15.67 35.62-27.52 51.04-20.82 27.1-51.05 46.88-84.26 54.97-8.92 2.17-18.11 3.54-26.49 7.46-7.31 3.43-13.26 8.99-17.78 15.64-9.38 13.81-12.27 30.53-16.16 46.42-4.14 16.88-10.26 33.67-25.22 43.87-13.51 9.21-30.26 12.21-46.21 13.87-4.03.42-8.06.75-12.1 1.06-1.91.14-1.93 3.15 0 3 16.35-1.24 33.18-2.8 48.44-9.23 7.23-3.04 13.99-7.25 19.52-12.86 6.02-6.11 10.22-13.64 13.28-21.6 6.25-16.26 7.77-33.9 14.28-50.08 3.06-7.61 7.27-14.98 13.3-20.63 6.91-6.48 15.72-9.42 24.79-11.52 8.77-2.03 17.48-3.92 25.97-6.96 8-2.86 15.78-6.38 23.21-10.51 14.93-8.3 28.53-19.05 39.99-31.71 12.69-14.02 22.15-30.31 29.9-47.48 8.56-18.97 15.79-38.57 23.3-57.98 7.74-19.99 15.71-39.92 22.87-60.12s12.58-39.1 14.25-59.55c.42-5.15.55-10.31.41-15.47-.05-1.93-3.05-1.93-3 0Z"/>
    </g>
    <g class="cls-2">
      <path class="cls-1" d="M247.59-1.61c-4.03 35.05-12.16 69.85-24.64 102.87-5.48 14.5-12.14 28.71-21.31 41.27s-21.27 22.76-35.21 30.13c-27.05 14.31-57.98 19.52-84.33 35.38-11.99 7.21-22.95 16.58-30.16 28.71-7.61 12.8-10.06 27.66-12.54 42.12s-5.12 29.47-13.66 41.74-22.15 20.22-36.02 25.29c-3.49 1.28-7.04 2.39-10.62 3.39-1.86.52-1.07 3.41.8 2.89 14.24-3.97 28.39-9.93 39.49-19.93 11.24-10.13 16.99-23.78 20.2-38.3s4.42-29.93 9.55-44.18 14.52-25.22 26.41-33.83c25.1-18.19 56.15-23.94 83.95-36.56 14.34-6.51 27.55-15.13 38.04-26.99 10.32-11.66 17.93-25.44 24.03-39.7 6.67-15.6 11.91-31.86 16.36-48.22 4.75-17.44 8.42-35.18 10.99-53.07.62-4.33 1.18-8.67 1.68-13.01.22-1.91-2.78-1.9-3 0Z"/>
    </g>
    <g class="cls-2">
      <path class="cls-1" d="M221.16-20.42c-3.43 31.56-9.93 63.17-22.54 92.43-11.4 26.45-27.9 50.67-49.91 69.43-10.36 8.83-21.89 16.34-34.28 22a128.42 128.42 0 0 1-19.2 6.98c-7 1.93-14.17 3.15-21.28 4.57-14 2.78-28.09 6.71-38.4 17.17-9.78 9.92-15.19 23.3-19.07 36.45-4.41 14.96-7.2 30.65-14.55 44.56-6.34 12-17.12 22.83-30.82 25.66-3.24.67-6.61.8-9.9.36-1.89-.25-2.7 2.64-.8 2.89 13.91 1.87 26.98-5.31 35.98-15.52 10.15-11.53 14.74-26.59 18.64-41.15s7.27-29 15.24-41.68c3.81-6.06 8.66-11.49 14.66-15.45s13.14-6.5 20.24-8.3 14.57-3 21.85-4.53c6.87-1.44 13.63-3.32 20.2-5.79 12.98-4.89 25.15-11.78 36.2-20.15 22.78-17.27 40.59-40.3 53.14-65.88 14.15-28.84 21.89-60.38 26.15-92.1.53-3.98 1.01-7.96 1.45-11.96.21-1.92-2.79-1.9-3 0Z"/>
    </g>
    <g class="cls-2">
      <path class="cls-1" d="M172.89-8.44c-.06 21.59-3.24 43.25-10.62 63.6-6.81 18.79-17.33 36.19-31.48 50.36-13.23 13.24-29.5 23.59-47.54 28.83-11.1 3.23-22.61 4.56-34.02 6.2-5.67.82-11.34 1.72-16.94 2.96-5.53 1.23-10.95 2.89-16.37 4.55-10.2 3.14-20.71 6.46-31.51 6.17-8.51-.23-17.51-2.62-23.94-8.46-1.56-1.41-2.93-3-4.09-4.75-1.06-1.6-3.66-.1-2.59 1.51 5 7.52 13.21 11.96 21.92 13.72 10.17 2.06 20.4.51 30.31-2.15 5.61-1.5 11.13-3.32 16.69-4.97 5.62-1.66 11.29-3.03 17.05-4.07 11.67-2.1 23.52-3.15 35.13-5.57 19.57-4.09 37.41-13.32 52.36-26.56 15.05-13.33 26.71-30.17 34.58-48.63 8.7-20.39 12.99-42.46 13.86-64.56.11-2.72.16-5.45.17-8.18 0-1.93-2.99-1.93-3 0Z"/>
    </g>
    <g class="cls-2">
      <path class="cls-1" d="M139.65-6.31c-2.93 14.83-9.01 28.78-17.22 41.44-8.34 12.87-18.71 24.33-29.96 34.71-11.38 10.51-23.7 19.94-36.42 28.75-14.16 9.81-28.99 19.43-45.72 24.16-14.97 4.22-32.04 4.1-45.85-3.72-1.67-.94-3.27-2-4.8-3.14s-3.05 1.45-1.51 2.59c13.01 9.67 30.15 11.65 45.77 8.83 17.35-3.13 33-12.24 47.47-21.93C64.79 96.42 77.8 86.83 89.9 76.19c11.79-10.36 22.72-21.79 31.8-34.63 8.86-12.53 15.81-26.49 19.58-41.41.47-1.88.9-3.77 1.27-5.67s-2.52-2.69-2.89-.8Z"/>
    </g>
    <g class="cls-2">
      <path class="cls-1" d="M113.01-18.35c-7.44 23.28-21.07 44.44-39.02 61.02C54.85 60.36 30.87 72.26 5.3 77.21a142.065 142.065 0 0 1-44.84 1.45c-1.91-.24-1.89 2.76 0 3 27.1 3.45 55.04-1.1 79.76-12.68 23.1-10.83 42.93-28.01 57.33-49.03 7.89-11.52 14.1-24.19 18.35-37.5.59-1.84-2.31-2.63-2.89-.8Z"/>
    </g>
    <g class="cls-2">
      <path class="cls-1" d="M63.43-21.95c-1.46 15.2-7.74 29.92-17.59 41.58C35.58 31.76 21.6 40.25 6.17 44a75.874 75.874 0 0 1-26.73 1.64c-1.91-.22-1.9 2.78 0 3 16.47 1.92 33.47-1.64 47.89-9.8s25.31-20.38 32.09-35a79.29 79.29 0 0 0 7.02-25.79c.18-1.92-2.82-1.91-3 0Z"/>
    </g>
    <g class="cls-2">
      <path class="cls-1" d="M764.4-11.96c-38.43 11-77.9 22.67-111.5 45.03-16.34 10.87-30.77 24.3-42.06 40.39-12.65 18.03-21.89 38.67-37.57 54.45-29.17 29.35-73.47 33.1-107.61 54.32-31.7 19.7-52.48 54.64-56.9 91.47-2.39 19.85.73 39.16 7.26 57.95 7.17 20.62 17.3 40.35 21.81 61.83 2.3 10.97 2.86 22.28.78 33.34-2.04 10.86-6.26 21.16-11.5 30.85-10.74 19.87-25.53 37.08-37.5 56.15-11.6 18.48-21.33 39.68-19.91 62.01 1.23 19.31 11.01 37.05 24.81 50.3 32.56 31.26 82.95 34.68 125.54 30.05 24.02-2.61 47.5-8.55 69.96-17.43 21.99-8.69 43.25-19.51 66.2-25.61 24.5-6.51 50.25-6.44 75.19-2.62a248.74 248.74 0 0 1 67.03 20.23c10.33 4.79 20.3 10.31 29.89 16.45 1.63 1.04 3.14-1.55 1.51-2.59-38.4-24.6-84.04-39.25-129.78-39.7-24.01-.24-46.81 4.82-69.1 13.54-22.07 8.64-43.33 19.19-66.15 25.83a261.475 261.475 0 0 1-72.11 10.44c-22.86.08-46.33-2.63-67.43-11.88-18.83-8.26-35.4-22.01-44.98-40.42-10.28-19.75-9.32-41.84-1.14-62.15 16.31-40.53 55.62-70.31 62.74-114.81 6.92-43.21-23.72-79.76-29.81-121.01-5.57-37.79 8.63-77.74 35.78-104.39 29.11-28.57 70.59-33.56 104.95-53.08 8.37-4.75 16.23-10.45 22.98-17.33 7.27-7.41 13.25-15.97 18.79-24.72 11.27-17.82 21.36-36 36.69-50.78C660.31 26.14 699.12 11.1 737.01-.71c9.36-2.92 18.77-5.65 28.2-8.35 1.85-.53 1.07-3.43-.8-2.89Z"/>
    </g>
    <g class="cls-2">
      <path class="cls-1" d="M567.92-18.62c-24.23 16.12-43.41 38.16-61.37 60.78-18.65 23.49-36.59 47.36-58.36 68.12-12.05 11.49-24.61 22.48-35.69 34.94-9.87 11.09-18.26 23.39-25.21 36.5-14.08 26.57-22.34 55.78-28.77 85.02-12.72 57.87-18.4 119.7-50.04 171.3-7.98 13.01-17.59 24.9-28.77 35.3-11.53 10.73-24.33 19.95-37.19 29s-25.59 17.84-37.55 27.85c-11.17 9.35-21.67 19.47-32.4 29.31-22.25 20.39-46.24 39.51-76.43 46-33.39 7.18-68-.13-100.23-9.32-8.04-2.29-16.02-4.75-24-7.24-1.85-.58-2.64 2.32-.8 2.89 32.05 10.02 65.2 20.02 99.12 19.51 16.2-.24 32.33-3.13 47.3-9.42 12.99-5.45 24.81-13.21 35.84-21.91 23.65-18.64 43.95-41.07 68.18-59.04 25.13-18.63 52.55-34.87 73.14-58.86 39.11-45.59 49.64-107.17 60.57-164.3 5.71-29.84 11.91-59.8 22.76-88.27 5.45-14.31 12.15-28.17 20.48-41.04 8.89-13.73 19.8-25.73 31.56-37.04 11.81-11.35 24.13-22.17 35.27-34.2 9.88-10.67 19.01-22.01 27.99-33.44 18.22-23.18 36.03-47.11 58.48-66.46 5.6-4.82 11.47-9.3 17.62-13.39 1.6-1.06.1-3.66-1.51-2.59Z"/>
    </g>
    <g class="cls-2">
      <path class="cls-1" d="M-35.91 680.88c35.86 3.35 72.14 6.47 108.09 2.55 34.07-3.72 65.67-14.65 93.62-34.64 25.86-18.5 48.45-41.68 76.43-57.16 26.1-14.43 69.24-25.14 86.39 7.94 4.03 7.78 6.14 16.36 8.72 24.68 2.42 7.78 5.21 15.45 8.38 22.95 6.21 14.66 13.92 28.73 23.49 41.47 19.24 25.61 45.68 44.12 77.05 51.4 72.73 16.88 142.23-19.61 209.11-42.39 35.21-11.99 71.3-19.46 108.65-18.16 36.51 1.27 72.81 9.92 105.87 25.49 7.91 3.72 15.61 7.86 23.12 12.33 1.66.99 3.17-1.6 1.51-2.59-61.33-36.54-135.85-47.4-205.11-30.33-72.05 17.76-138.91 60.65-215.38 56.51-35.49-1.92-68.27-15.79-92.5-42.08-11.06-12-20.05-25.8-27.34-40.37s-12.48-31.22-17.75-47.38c-4.57-14.04-11.85-26.57-26.02-32.48-13.28-5.54-28.72-4.82-42.36-1.06-30.53 8.41-55.21 29.84-79.19 49.47-12.81 10.49-25.8 20.88-40.07 29.33-15.25 9.04-31.88 15.39-49.12 19.42-35.45 8.31-72.39 7.23-108.44 4.46-9.06-.7-18.1-1.52-27.15-2.36-1.92-.18-1.91 2.82 0 3Z"/>
    </g>
    <path class="cls-3" transform="translate(800 3282.83) rotate(180)" d="M0 1191.42h800v900H0z"/>
    <g class="cls-2">
      <path class="cls-1" d="M-16.74 1685.61c35.4 17.71 77.87 17.63 114.19 2.57 17.96-7.45 34.48-18.56 47.64-32.93 16.04-17.51 26.49-39.46 33.45-61.98 3.77-12.2 6.22-24.8 10.51-36.83 4.23-11.85 10.72-22.25 19.79-30.98 16.53-15.92 37.9-25.4 57.43-36.96 37.04-21.92 73.18-52.26 86.97-94.49 8.21-25.15 6.82-51.9 8.36-77.96.79-13.24 2.4-26.46 6.39-39.16 3.67-11.67 9.04-22.71 15.26-33.22 12.03-20.3 27.11-38.54 41.28-57.35 5.22-6.94 10.28-13.25 16.2-19.57 23.16-24.73 48.27-48.08 75.86-67.82 15.72-11.24 32.52-21.6 50.71-28.32 14.35-5.3 29.59-8.1 44.67-10.34 37.09-5.52 74.77-7.13 112.21-8.39 29.48-.99 59.11-.78 88.54-2.98 3.62-.27 7.25-.59 10.82-1.21 1.9-.33 1.09-3.22-.8-2.89-9.27 1.62-18.89 1.69-28.27 2.04-15.15.57-30.3.89-45.46 1.3-37.12 1.01-74.3 2.22-111.26 5.97-32.78 3.32-65.16 8.32-94.41 24.3-32.79 17.92-61.71 43.07-88.17 69.22-7.9 7.81-15.62 15.81-23.06 24.06-9.07 10.08-16.7 21.63-24.94 32.4-14.14 18.49-28.09 37.54-37.28 59.07-9.98 23.39-11.31 48.06-12.13 73.15-.85 25.83-2.8 51.36-14.92 74.68-10.42 20.05-26.05 36.9-43.48 51.08-17.74 14.43-37.48 25.43-57.32 36.63-18.78 10.61-37.98 22.8-49.09 41.91-6.25 10.76-9.51 22.89-12.62 34.85s-6.8 24.81-11.85 36.69c-8.92 21.01-21.89 40.01-39.82 54.29-31.88 25.39-75.78 35.55-115.56 26.65-9.83-2.2-19.34-5.58-28.34-10.09-1.72-.86-3.24 1.73-1.51 2.59Z"/>
    </g>
    <g class="cls-2">
      <path class="cls-1" d="M-36.63 1665.55c46.53 5.58 99.2 11.09 139.77-17.73 32.22-22.89 44.47-62.11 61.96-95.67 9.47-18.17 20.96-34.88 37.12-47.73 16.45-13.09 35.57-22.24 53.88-32.36 17.81-9.85 35.35-20.9 48.6-36.62 13.83-16.4 22.67-36.37 28.54-56.86 13.85-48.34 11.5-99.99 30.8-146.97 12.54-30.51 29.81-56.59 50.54-81.35 11.05-13.21 22.48-26.13 34.55-38.42s24.87-23.16 38.73-33.33c27.46-20.15 55.71-38.15 89.27-46.15 42.23-10.06 86.26-4.28 128.86.1 20.17 2.07 40.41 4.28 60.7 4.61 14.65.24 30.43-.08 44.24-5.59 4.96-1.98 9.55-4.72 13.28-8.59 1.34-1.39-.78-3.51-2.12-2.12-9.34 9.7-24.22 11.94-37.01 12.87-18.37 1.33-36.92-.17-55.22-1.83-42.37-3.85-85.64-11.29-128.23-6.67-35.91 3.9-68.25 17.81-97.78 38.2-12.26 8.47-24.71 17.12-36.05 26.79-13.75 11.72-26.27 24.89-38.32 38.33-18.03 20.11-34.92 40.52-48.79 63.74-12.09 20.24-22.31 41.83-28.39 64.67-6.66 25.03-9.14 50.9-12.91 76.46-6.6 44.7-18.95 90.44-56.93 118.7-32.57 24.23-74.17 35.77-100.51 68.14-24.55 30.17-33.74 69.33-56.34 100.71-12.91 17.93-30.39 30.98-51.3 38.2-23.3 8.05-48.19 8.99-72.59 7.37-12.82-.85-25.59-2.38-38.34-3.91-1.91-.23-1.9 2.77 0 3Z"/>
    </g>
    <g class="cls-2">
      <path class="cls-1" d="M-43.8 1643c25.57 3.94 50.92-2.15 74.3-12.48 12.49-5.52 24.5-12.17 36.05-19.44 9.88-6.22 19.45-13.31 26.06-23.1 12.38-18.35 12.94-41.54 17.03-62.59 2.13-10.96 5.22-21.95 11.45-31.35 6.65-10.04 16.58-17.25 27.36-22.34 22.09-10.43 46.84-12.16 69.93-19.44 11.11-3.5 21.85-8.35 30.99-15.68s16.59-17.36 22.22-27.86c25.16-46.87 22.63-102.44 38.66-152.22 11.32-35.14 34.9-62.87 56.07-92.35 18.06-25.15 36.62-50.06 56.72-73.63 8.75-10.26 17.79-20.92 28.45-29.28 5.47-4.28 11.44-7.97 17.04-12.07 7.5-5.5 14.97-11.04 22.68-16.25 17.69-11.96 36.73-22.16 57.55-27.43 17.58-4.45 35.35-4.28 53.31-3.52 35.43 1.49 70.82 4.38 106.31 3.47 17.06-.44 34.26-1.64 50.99-5.16 12.94-2.72 26.33-6.9 36.89-15.16 4.34-3.39 8.03-7.49 10.75-12.29.95-1.68-1.64-3.2-2.59-1.51-6.22 10.99-17.7 17.43-29.27 21.52-15.2 5.37-31.47 7.49-47.47 8.67-35.88 2.65-71.96.24-107.82-1.66-14.34-.76-28.79-1.74-43.16-1.29-22.08.69-43.41 7.18-62.94 17.3-16.91 8.77-32.18 20.09-47.51 31.3-10.28 7.52-20.31 14.25-29.24 23.41-22.28 22.89-41.58 48.89-60.52 74.55-6.17 8.36-12.28 16.78-18.28 25.26-9.74 13.77-20.52 26.69-29.61 40.94-14.04 22.03-22.8 45.68-28.29 71.16-5.59 25.95-8.5 52.41-14.66 78.25-5.87 24.61-14.68 51.02-33.21 69.13-18.73 18.3-45.45 22.59-69.99 27.99-20.87 4.6-43.36 11.18-58.29 27.44-15.03 16.37-17.47 39-20.82 60-1.74 10.88-3.74 21.98-8.29 32.1-5.28 11.72-14.11 20.44-24.63 27.6-21.87 14.87-46.74 27.66-72.66 33.44-13.39 2.98-27.17 3.77-40.75 1.68-1.89-.29-2.7 2.6-.8 2.89Z"/>
    </g>
    <g class="cls-2">
      <path class="cls-1" d="M-24.99 1631.06c40.23-14.1 85-31.84 101.01-75.06 8.29-22.37 9.4-47.88 23.38-67.9 11.81-16.91 31.17-25.63 50.01-32.32 18.57-6.6 38.01-11.68 55.13-21.72 8.67-5.08 16.42-11.46 22.66-19.35 8.2-10.36 14.75-22.21 21.03-33.8a418.54 418.54 0 0 0 31.45-74.35c8.03-25.64 12.46-52.15 19.51-78.05 3.5-12.83 7.67-25.53 13.4-37.55 2.62-5.5 6.01-10.57 8.53-16.09 5.72-12.55 11.85-24.92 18.17-37.18 11.53-22.38 23.82-44.37 37-65.83 7.52-12.25 15.43-24.22 22.86-36.5 17.44-28.81 41.41-56.68 72.19-71.51 17.32-8.34 36.39-10.55 55.41-10.9 21.41-.4 42.83 1.39 64.14 3.24 21.14 1.83 42.3 3.98 63.52 4.45 17.85.4 35.48-.61 52.55-6.16 35.74-11.63 68.53-33.5 97.9-56.56 1.97-1.55 3.94-3.1 5.86-4.71 1.48-1.24-.65-3.35-2.12-2.12-23.06 19.3-48.96 36.38-75.95 49.58-17.99 8.8-36.63 15.34-56.71 16.63s-39.56-.26-59.2-1.87c-21.81-1.79-43.59-4.06-65.46-5.06-19.01-.87-38.44-1.04-57.18 2.72-36.12 7.25-64.7 34.33-85.8 63.16-5.86 8-11.05 16.36-15.98 24.94-4.81 8.37-10.62 16.25-15.73 24.45a933.946 933.946 0 0 0-21.21 35.84c-10.25 18.2-19.98 36.71-29.12 55.5-2.44 5.01-4.83 10.03-7.16 15.09-2.05 4.46-4.64 8.55-6.9 12.92-11.85 22.9-17.69 48.28-23.29 73.27-5.96 26.57-12.84 52.64-22.99 77.95-10.07 25.1-22.32 50.45-38.02 72.56-12.87 18.13-32.01 27.66-52.45 34.94-18.3 6.52-37.47 11.51-54.41 21.29-8.15 4.7-15.66 10.62-21.56 17.99-6.85 8.56-11.2 18.67-14.39 29.09-6.99 22.76-9.6 47.01-24.84 66.28-13.94 17.63-34.16 29.03-54.5 37.79-10.35 4.45-20.94 8.29-31.57 12.01-1.81.63-1.03 3.53.8 2.89Z"/>
    </g>
    <g class="cls-2">
      <path class="cls-1" d="M-28.59 1581.05c18.98-1.44 39.17-3.26 56-12.94 18.22-10.47 25.78-29.01 30.54-48.55 4.63-18.99 8.1-41.18 24.02-54.45 8.99-7.49 20.64-9.36 31.7-11.89 9.83-2.25 19.4-5.46 28.61-9.58 18.53-8.29 35.44-20.28 49.42-35 15.44-16.27 26.25-35.74 35.05-56.23 9.86-22.96 18.56-46.46 27.53-69.78s18.8-46.6 25.06-70.85c2.96-11.48 5.04-23.23 5.56-35.09.18-4.06-.11-8.11.11-12.14.26-4.83-.1-9.64-.66-14.45-1.51-12.95-4.28-25.75-7.35-38.41-5.25-21.64-11.03-43.48-19.52-64.1-12.79-31.05-32.51-57.77-60.15-77.08-12.02-8.4-25.16-16.2-38.67-21.96s-28.7-8.3-43.39-11.2-28.71-6.57-40.35-15.76c-6.7-5.28-12.11-12-16.4-19.34-5.61-9.59-9.01-20.24-13.75-30.25-7.24-15.29-16.31-30.15-28.36-42.15-6.39-6.36-13.85-12.28-22.38-15.48-1.87-.7-3.91-1.34-5.93-1.37s-1.93 2.97 0 3c5.34.07 11.34 4.04 15.62 7.02 11.26 7.85 20.18 18.92 27.48 30.42 5.52 8.7 10.2 17.92 14.28 27.38 4.06 9.41 7.51 18.9 13.27 27.46 8.23 12.22 19.66 21.05 33.45 26.14 13.24 4.88 27.37 6.56 41.09 9.54 15.05 3.27 28.46 8.94 41.88 16.39 27.34 15.18 50.62 35.21 66.67 62.34 10.76 18.19 17.92 38.01 23.79 58.24 5.12 17.64 9.85 35.46 13.25 53.52 1.58 8.38 3.01 16.92 3.22 25.46.13 5.25.03 8.84-.14 14.68-.68 24.24-8.1 47.65-16.44 70.21-8.8 23.79-18.09 47.42-27.32 71.05-8.74 22.36-17 45.29-29.6 65.84-11 17.94-25.74 33.45-43.05 45.41-16.92 11.69-35.79 19.53-55.84 23.94-9.98 2.2-20.17 4.44-28.44 10.81-7.07 5.45-12.12 13.04-15.76 21.11-8.38 18.64-9.15 39.68-17.73 58.22-4.42 9.55-11.05 17.62-20.02 23.22-8.19 5.12-17.51 8.09-26.92 10.02-9.71 2-19.59 2.89-29.46 3.64-1.91.15-1.93 3.15 0 3Z"/>
    </g>
    <g class="cls-2">
      <path class="cls-1" d="M-20.11 1543.6c16.46-4.61 33.13-11.92 44.56-25.08s15-30.95 17.92-47.95 6.42-35.38 18.27-49.49c11.53-13.73 27.72-22.72 44.05-29.54s34.49-11.95 51.27-19.17 32.91-17.6 44.81-32.39c11.25-13.99 19.02-30.37 25.3-47.09 7.44-19.79 13.61-40.21 18.13-60.86 5.17-23.61 7.49-47.99 9.02-72.11.91-14.41 1.39-28.87.93-43.3-.44-13.55-1.56-27.33-5.83-40.28-4.73-14.32-12.08-27.79-20.33-40.35-8.67-13.2-18.62-25.77-30.07-36.68-9.85-9.39-20.38-16.2-33.25-20.7-15.53-5.43-31.85-8.18-47.8-12.07-9.47-2.31-18.85-4.97-28.05-8.19-8.96-3.13-17.6-6.74-25.11-12.67-11.05-8.73-18.25-20.83-24.3-33.32-5.9-12.2-11.12-24.54-19.53-35.3-9.34-11.93-20.75-22.24-32.92-31.21-2.19-1.61-4.4-3.2-6.69-4.67-1.63-1.04-3.14 1.55-1.51 2.59 21 13.41 39.69 32.18 50.72 54.6 5.73 11.64 10.6 23.78 18.15 34.43 8.62 12.17 20.15 20.82 34.06 26.12 17.64 6.73 35.94 10.92 54.31 15.06 14.27 3.21 29.63 6.4 42.39 13.85 12.02 7.02 22.07 17.54 30.97 28.1 10.48 12.44 19.7 26.08 27.19 40.53 6.31 12.19 11.05 24.9 12.93 38.54 2 14.52 2.08 29.33 1.7 43.96-.51 20.08-2.21 40.15-4.46 60.1-2.41 21.32-7.24 42.32-13.42 62.84-5.66 18.82-11.96 37.78-21.19 55.19-8.71 16.43-20.34 31.08-36.01 41.33-16 10.46-34.32 16.47-52.23 22.75-30.62 10.75-64.45 25.03-77 57.59-6.37 16.53-6.98 34.5-11.54 51.5-2.36 8.79-5.87 17.34-11.6 24.5s-12.75 12.36-20.53 16.57-15.77 7.06-24.09 9.39c-1.86.52-1.07 3.42.8 2.89Z"/>
    </g>
    <g class="cls-2">
      <path class="cls-1" d="M-39.19 1493.56c14.53 1.87 28.15-6.35 37.05-17.31 10.54-12.99 14.6-29.71 18.79-45.54 4.08-15.41 8.74-31.69 19.79-43.71s28.02-15.72 43.97-18.79c15.06-2.91 29.41-7.2 43-14.43 13.17-7 25.21-16.08 35.87-26.5 23.25-22.73 39.34-51.68 49.77-82.29 5.67-16.64 9.68-33.82 12.35-51.19 1.31-8.49 1.78-17.1 3.52-25.48 1.59-7.66 1.79-15.65 1.7-23.44-.19-15.96-1.69-32.23-5.13-47.82-3.53-15.98-9.23-31.51-16.69-46.07-6.19-12.08-13.64-23.78-22.9-33.76-3.41-3.67-7.06-7.17-11.35-9.8s-9.31-4.73-14.2-6.47c-12.58-4.48-25.73-7.29-38.7-10.38-13.12-3.13-26.39-6.27-38.91-11.36-11.13-4.53-21.59-11.05-32.12-16.79-19.42-10.58-38.82-21.21-58.21-31.85-1.2-.66-2.41-1.32-3.61-1.99-1.69-.93-3.21 1.66-1.51 2.59 14.49 7.96 28.98 15.9 43.48 23.83 11.15 6.1 22.31 12.19 33.49 18.24 4.86 2.64 9.68 5.4 14.76 7.62 5.73 2.5 11.65 4.52 17.64 6.31 13.07 3.9 26.43 6.73 39.67 10 11.6 2.86 23.71 5.75 34.3 11.45 9.73 5.24 17.08 14.5 23.32 23.39 8.73 12.43 15.72 26.12 21.06 40.32 6.11 16.23 9.61 32.98 11.31 50.21 1.2 12.17 1.91 24.54.86 36.75-.33 3.86-1.11 7.49-1.91 11.25-.58 2.71-.57 5.66-.88 8.42-.51 4.52-1.1 9.03-1.78 13.53-1.29 8.44-2.89 16.84-4.84 25.16-7.66 32.61-20.81 64.69-41.78 91.08-18.55 23.34-43.16 42.5-71.77 51.64-15.1 4.82-31.3 5.61-46.11 11.37-14.18 5.51-24.17 16.11-30.65 29.71-13.25 27.79-11.64 67.58-41.51 84.65-6.45 3.69-13.68 5.41-21.08 4.46-1.91-.25-1.89 2.76 0 3Z"/>
    </g>
    <g class="cls-2">
      <path class="cls-1" d="M-46.19 1333.95c6.24 9.3 17.05 13.67 27.91 14.55 13.62 1.1 26.79-3.68 39.62-7.54 14.25-4.28 28.8-5.94 43.45-8.24 13.2-2.07 25.96-5.4 37.9-11.49 21.44-10.93 39.14-28.75 51.17-49.48 13.86-23.88 20.49-51.41 21.79-78.85.15-3.15-.08-6.42.19-9.54.03-.33.14-.68.21-1.01.44-2.21.81-4.44 1.15-6.67 1.33-8.76 2.14-17.61 2.35-26.47.29-11.78-.44-23.67-2.9-35.22-2.49-11.69-7.4-22.73-11.42-33.95-3.09-8.63-6.12-17.4-10.56-25.45-4.15-7.51-9.71-14.04-16.41-19.39-8.4-6.72-17.72-11.68-28.04-14.77s-21.53-4.72-32.38-6.65c-9.82-1.75-20.06-3.66-28.93-8.43-8.67-4.67-14.19-13.08-20.82-20.1-12.77-13.52-26.47-26.2-40.45-38.46-.85-.75-1.71-1.5-2.57-2.24-1.46-1.25-3.59.86-2.12 2.12 10.53 9.06 20.76 18.51 30.7 28.21 7.51 7.34 14.91 14.86 21.66 22.92 2.85 3.41 5.89 6.37 9.67 8.74s8.25 4.24 12.65 5.66c20.22 6.5 42.28 6.05 61.86 14.8 8.83 3.95 17.2 9.86 23.82 16.93 5.64 6.03 9.68 13.21 12.9 20.76 3.97 9.31 7.06 18.99 10.59 28.47 2.14 5.75 4.43 11.41 5.95 17.37s2.47 11.74 3.06 17.7c1.74 17.35.74 35.23-2.48 52.36-.38 2.03-.45 3.82-.48 5.93-.12 6.87-.57 13.73-1.37 20.55-1.58 13.47-4.6 26.8-9.23 39.56-8.54 23.52-22.97 44.83-42.75 60.32-9.39 7.35-19.98 13.3-31.25 17.22-13.41 4.66-27.59 6.08-41.55 8.17-7.24 1.08-14.43 2.41-21.48 4.38-6.85 1.91-13.58 4.22-20.45 6.04-11.81 3.12-24.62 4.63-36.15-.41-4.9-2.14-9.22-5.44-12.21-9.9-1.07-1.6-3.67-.1-2.59 1.51Z"/>
    </g>
    <g class="cls-2">
      <path class="cls-1" d="M-41.83 1309.9c16.53 12.25 38.97 12.11 57.74 5.67 10.57-3.63 20.42-9.05 29.82-15.05 8.47-5.41 16.72-11.19 24.82-17.12 15.24-11.16 29.95-23.3 42.33-37.63s22.05-30.56 27.35-48.66c1.45-4.93 2.45-9.98 3.59-14.99 1.41-6.24 2.53-12.54 3.41-18.87 2.67-19.23 3.16-38.85-1.48-57.83-4.2-17.17-11.38-34.38-23.73-47.32-5.65-5.92-12.4-10.77-19.94-13.97-6.54-2.77-13.62-4.08-20.47-5.83-15.56-3.98-31.08-8.35-46.13-14-7.23-2.72-14.38-5.73-21.15-9.46-5.26-2.9-10.55-6.24-14.5-10.83-1.39-1.61-2.58-3.45-3.28-5.47-.62-1.82-3.52-1.04-2.89.8 1.65 4.82 5.35 8.6 9.28 11.68 5.31 4.16 11.32 7.38 17.42 10.22 14.6 6.79 30.08 11.65 45.56 15.99 6.92 1.94 13.87 3.74 20.85 5.48 7.33 1.82 14.38 3.7 20.92 7.65 14.61 8.81 24.2 23.92 30.15 39.57 3.34 8.76 5.87 17.99 7.23 27.27 1.44 9.85 1.49 19.91.85 29.83-.81 12.64-2.77 25.21-5.74 37.52-.72 2.98-1.25 5.99-2.03 8.95-1.22 4.61-2.73 9.14-4.52 13.56-3.47 8.61-8.03 16.77-13.33 24.38-10.57 15.19-24.11 28.1-38.49 39.64-7.33 5.88-14.93 11.42-22.64 16.8-8.77 6.12-17.63 12.16-27.05 17.24-18.06 9.74-39.48 15.73-59.63 8.92-4.6-1.55-8.91-3.82-12.81-6.71-1.55-1.15-3.05 1.45-1.51 2.59Z"/>
    </g>
    <g class="cls-2">
      <path class="cls-1" d="M-39.54 1273.08c18.79 2.39 38.02.95 56.29-4.04 17.92-4.9 34.74-13.26 49.54-24.47 13.78-10.44 25.94-23.14 35.2-37.77 4.61-7.28 8.47-15.03 11.4-23.13 1.42-3.94 2.54-7.97 3.64-12.01 2.73-10.01 4.6-20.31 5.59-30.64 1.32-13.77 1.23-28.64-4.28-41.57s-16.89-21.53-29.27-27.24-24.78-8.57-37.2-12.84c-5.04-1.73-9.69-3.92-14.28-6.64-5.93-3.52-11.68-7.35-17.38-11.24-9.34-6.4-18.53-13.03-27.59-19.83-.51-.38-1.01-.76-1.52-1.14-1.54-1.17-3.04 1.44-1.51 2.59 6.61 5.01 13.33 9.89 20.1 14.69 5.76 4.09 11.58 8.11 17.5 11.96 4.94 3.22 9.97 6.55 15.3 9.09 4.97 2.37 10.26 4.02 15.51 5.64 6.22 1.92 12.48 3.75 18.62 5.92 12.49 4.41 25.24 10.44 33.59 21.11s10.26 25.22 10.03 38.6c-.21 12.02-2.05 24.02-4.85 35.71-2.29 9.58-5.2 19.02-9.54 27.89-7.52 15.35-18.34 28.93-31.03 40.32-13.32 11.97-28.77 21.6-45.54 27.92s-36.06 9.72-54.66 9.17c-4.57-.14-9.14-.5-13.68-1.08-1.91-.24-1.89 2.76 0 3Z"/>
    </g>
    <g class="cls-2">
      <path class="cls-1" d="M-20.55 1240.05c12.79 1.49 25.93-.31 37.9-5.05 11.43-4.53 21.61-11.71 29.96-20.72 7.58-8.18 13.34-17.93 16.43-28.67.84-2.94 1.49-5.94 1.94-8.96.22-1.44.4-2.89.54-4.35.08-.8.04-1.75.19-2.5.29-1.41 1.01-2.84 1.45-4.22 2.34-7.26 4.1-14.73 5.11-22.3 1.2-8.98 1.45-18.58-1.51-27.27-1.38-4.05-3.5-7.81-6.48-10.9-2.61-2.7-5.75-4.9-9-6.77-7.56-4.34-16-7.17-24.39-9.41-12.54-3.36-25.5-5.53-38.43-6.68l-.68-.06c-1.93-.15-1.92 2.85 0 3 10.55.83 21.09 2.59 31.41 4.93 8.32 1.89 16.65 4.23 24.46 7.72 6.76 3.03 13.76 7.03 17.7 13.54 4.54 7.51 5.11 16.83 4.57 25.38-.51 8.1-2.17 16.13-4.41 23.92-.67 2.33-1.39 4.65-2.2 6.94-.89 2.53-.79 5.18-1.18 7.84-1.6 11.05-5.84 21.47-12.47 30.46-14.37 19.48-37.66 31.58-61.9 31.65-3.01 0-6.02-.17-9.02-.52-1.91-.22-1.9 2.78 0 3Z"/>
    </g>
    <g class="cls-2">
      <path class="cls-1" d="M829.81 1836.03c-42.7-27.35-95.57-43.29-146.5-39.12-26.19 2.14-50.12 11.72-74.03 21.98s-49.46 19.63-76.08 23.93c-26.11 4.22-53.61 5.02-79.67 0-23.62-4.55-46.36-14.77-62.41-33.15-15.81-18.12-22.1-41.55-16.24-65.01 6.05-24.22 21.46-44.55 35.71-64.51 13.62-19.07 27.47-39.58 31.26-63.2 3.77-23.44-3.91-46.01-12.45-67.53s-17.84-43.22-18.48-66.83c-.58-21.2 4.69-42.47 14.64-61.17 9.9-18.61 24.45-34.73 42.5-45.73 19.32-11.78 41.24-18.11 62.07-26.59 20.47-8.33 39.33-19.1 53.22-36.68 14.25-18.04 23.42-39.63 38.62-56.97 27.78-31.71 69.22-47.41 108.02-60.87 9.27-3.22 18.58-6.33 27.84-9.59 2.51-.88 5.08-2.13 7.66-2.67 1.59-.33 3.28-.42 4.9-.63l38.36-4.95 8.89-1.15c1.89-.24 1.91-3.25 0-3l-30.06 3.88-18.21 2.35c-4.7.61-8.62 1.98-13.16 3.57-38.74 13.58-79.45 25.4-113.04 49.9-8.22 5.99-15.91 12.72-22.68 20.32-7.52 8.45-13.65 17.97-19.53 27.6-6.35 10.38-12.47 20.98-20.05 30.52a98.68 98.68 0 0 1-25.59 22.69c-19.45 12.01-41.68 18.3-62.69 26.91s-38.38 18.89-52.81 35.26c-28.05 31.83-38.74 76.65-26.99 117.49 6.69 23.26 18.55 44.77 24.22 68.35 2.91 12.1 3.87 24.63 1.54 36.91-2.3 12.12-7.3 23.5-13.39 34.17-22.43 39.26-67.52 79.24-52.97 129.3 5.98 20.6 21.14 37.89 39.36 48.79 21.42 12.82 46.68 17.53 71.35 18.39 26.94.94 54.07-2.39 80.02-9.65 25.61-7.16 49.2-19.37 74.05-28.59 12.91-4.79 26.17-8.53 39.87-10.19s28.12-1.57 42.12-.18c26.32 2.61 52.27 9.6 76.4 20.41 11.41 5.11 22.4 11.09 32.92 17.83 1.63 1.04 3.14-1.55 1.51-2.59Z"/>
    </g>
    <g class="cls-2">
      <path class="cls-1" d="M-28.87 1783.23c46.73 14.6 99.42 30.06 146.93 9.87 19.99-8.49 37.02-22.33 53-36.77 17.32-15.64 33.93-31.84 52.81-45.66 19.1-13.99 39.28-26.67 56.79-42.71s29.87-33.82 39.8-54.14c20.07-41.05 27.39-86.56 36.05-130.99 8.77-45.02 19.46-91.59 46.52-129.57 14.66-20.57 34.25-36.56 52.15-54.14 17.29-16.98 32.46-35.93 47.7-54.72 14.69-18.1 29.52-36.23 46.53-52.23 8.55-8.03 17.83-15.16 27.07-22.36 23.78-18.53 48.64-36.67 75.55-50.41 6.52-3.33 13.25-6.42 20.29-8.49 5.31-1.56 10.84-2.5 16.24-3.68 15.47-3.39 30.91-6.93 46.29-10.7 16.69-4.09 33.34-8.42 49.78-13.41 12.43-3.78 25.23-7.67 36.79-13.71 3.09-1.62 6.42-3.47 8.69-6.2 1.23-1.47-.89-3.61-2.12-2.12-2.48 2.99-6.27 4.86-9.69 6.54-5.44 2.68-11.15 4.84-16.86 6.86-15.28 5.41-30.94 9.76-46.6 13.88-16.37 4.3-32.83 8.25-49.33 12.01-12.2 2.78-25.04 4.57-36.9 8.57-14.19 4.8-27.42 12.56-40.07 20.45-13.69 8.53-26.92 17.8-39.87 27.42-6.98 5.18-13.81 10.54-20.66 15.9-15.77 12.33-30.01 25.81-43.25 40.85-15.43 17.52-29.62 36.07-44.67 53.91s-32.97 34.99-50.5 51.71c-17.12 16.33-31.92 34.04-42.9 55.08-10.45 20.01-17.66 41.56-23.3 63.37-11.39 44.07-16.3 89.6-29.55 133.21-6.62 21.78-15.28 43.09-27.67 62.26-13.2 20.44-30.67 36.63-50.15 50.98-18.91 13.93-38.67 26.63-56.42 42.1-17.23 15.02-33.14 31.6-51.38 45.45-18.89 14.34-40.08 24.46-63.83 27.2-25.62 2.96-51.49-1.52-76.26-7.93-12.18-3.15-24.21-6.82-36.22-10.58-1.85-.58-2.64 2.32-.8 2.89Z"/>
    </g>
    <g class="cls-2">
      <path class="cls-1" d="M838.6 711.06c-34.78 5.38-70.1-1.86-104.89 3.32-17.04 2.54-33.41 8.13-49.49 14.16s-32.15 12.22-48.52 17.56c-32.94 10.76-66.7 19.23-100.86 25.04s-69.89 8.43-103.19-2.41c-28.19-9.17-52.24-27.76-71.75-49.72-9.87-11.11-18.68-23.14-26.63-35.69-7.03-11.1-13.71-22.52-22.39-32.45-8-9.15-18.06-16.96-30.21-19.4-14.75-2.96-29.54 2.33-42.25 9.55-24.77 14.08-44.37 35.33-64.61 54.99-21.84 21.22-45.11 40.14-74.74 49.06-30.95 9.32-63.88 8.87-95.81 6.69-7.93-.54-15.85-1.2-23.77-1.89-1.92-.17-1.91 2.83 0 3 31.7 2.74 63.84 5.25 95.48.57 29.71-4.4 56.06-16.34 79.16-35.46 22.45-18.58 41.32-41.06 64.03-59.35 12.05-9.7 25.68-19.09 40.78-23.17 15.4-4.16 30.29-.53 42.24 9.88 10.27 8.96 17.72 20.67 24.89 32.12 7.4 11.82 15.04 23.41 23.78 34.28 17.91 22.28 39.85 42.02 66.03 54.01 29.56 13.54 62.42 15.22 94.34 11.84 34.25-3.63 68.29-11.48 101.35-20.96 16.71-4.79 33.25-10.19 49.57-16.18s32.13-12.6 48.67-17.53c17.25-5.14 34.71-7.41 52.68-7.53s34.82 1.17 52.23.71c8.27-.22 16.5-.88 24.68-2.15 1.9-.29 1.09-3.19-.8-2.89Z"/>
    </g>
    <g class="cls-2">
      <path class="cls-1" d="M-20.47 771.39c51.13 21.51 110.29 22.35 162.17 2.79 13.02-4.91 25.38-11.17 37.29-18.36 12.19-7.36 24.07-15.34 36.96-21.47 13.88-6.6 28.67-10.22 44.08-9.68 14.86.52 29.43 4.51 43.1 10.19 53.7 22.32 92.49 72.36 149.99 86.72 62.67 15.64 124.25-13.32 182.45-32.71 61.71-20.56 126.99-26.45 191.08-14.17 7.75 1.48 15.44 3.24 23.08 5.2 1.87.48 2.67-2.41.8-2.89-60.9-15.7-125.59-15.79-186.46.14-61.54 16.1-120.66 50.09-186.11 45.33-30.76-2.24-57.87-15.27-83.1-32.29s-46.32-35.14-71.87-49.07c-24.58-13.4-52.79-22.88-81.06-18.32-28.5 4.6-51.19 23.68-75.9 37.03-50.29 27.18-111.6 32.73-166.13 15.83-6.64-2.06-13.16-4.46-19.56-7.16-1.78-.75-2.55 2.15-.8 2.89Z"/>
    </g>
    <g class="cls-2">
      <path class="cls-1" d="M826.3 868.36c-45.89 24.45-95.37 39.36-146.92 45.68-25.31 3.1-50.8 4.48-76.28 5.27-29.09.91-58.15 1.67-87.19-.8-15.45-1.31-30.84-3.17-46.23-4.95-14.7-1.7-30.14-4.6-44.95-2.93-12.54 1.42-23.6 7.4-33.47 15-10.88 8.38-20.7 18.15-29.84 28.38-9.08 10.15-17.49 20.88-25.67 31.75-4.2 5.58-8.34 11.2-12.48 16.82-3.82 5.19-7.42 10.95-12.35 15.17-6.41 5.5-13.22 4.38-20.26.67-5.69-3-11.16-6.43-16.39-10.17-10.7-7.65-20.35-16.76-28.65-26.96-15.09-18.56-24.2-43.42-45.77-55.87s-45.37-10.24-68.03-13.96c-11.8-1.94-23.47-5.38-33.2-12.56-9.97-7.35-17.24-17.89-22.09-29.19-2.48-5.77-4.33-11.81-5.66-17.94s-3.07-13.93-.66-20.27 9.1-9.36 15.18-11.31c6.88-2.21 13.91-4.02 20.87-5.97 29.41-8.26 58.93-17.11 88.81-23.48 14.86-3.17 30.01-4.95 45.19-3.37 14.52 1.52 28.64 5.77 42.29 10.83 27.83 10.31 54.92 22.56 82.73 32.97 28.19 10.56 56.7 20.86 85.69 29.02 27.67 7.79 56.36 12.4 85 7.67 26.63-4.4 51.52-15.5 75.94-26.56 25.88-11.73 51.72-22.95 79.49-29.48 28.28-6.65 57.49-9.21 86.5-7.65 14.21.77 28.34 2.56 42.3 5.3 1.89.37 2.69-2.52.8-2.89-57.1-11.23-116.97-6.07-171.22 15.04-26.18 10.19-51.07 23.47-77.46 33.16-12.87 4.73-26.13 8.6-39.72 10.59-15.58 2.28-31.38 1.82-46.92-.52-30.37-4.57-59.76-15.23-88.64-25.35-29.18-10.23-58.04-21.35-86.57-33.26-26.41-11.03-53.65-22.67-82.8-22.49-15.14.09-30.09 3.11-44.73 6.74s-30.6 7.97-45.85 12.12c-15.11 4.11-30.2 8.3-45.26 12.59-10.07 2.87-22.6 6.08-25.18 17.88-1.28 5.84-.18 12.04.98 17.81 1.22 6.09 2.96 12.09 5.28 17.85 4.29 10.7 10.51 20.76 19.07 28.56 18.09 16.5 42.79 17.74 65.91 20.16 12.4 1.3 25.15 3.03 36.51 8.49s20.27 15.19 27.5 25.77 13.07 21.04 20.83 30.74 17.58 19.2 28.02 26.94c5.33 3.95 10.94 7.55 16.76 10.74 4.93 2.71 10.39 5.43 16.19 4.49 11.37-1.85 18.41-15.41 24.58-23.78 17.08-23.18 34.49-46.45 56.14-65.63 10.36-9.18 22.01-17.95 35.84-20.84 15.05-3.15 31.4.13 46.46 1.85 31.7 3.63 63.35 7.52 95.32 7 27.09-.44 54.2-.98 81.23-2.81 50.92-3.45 101.18-12.48 148.45-32.27 12.31-5.15 24.33-10.92 36.11-17.19 1.7-.91.19-3.5-1.51-2.59Z"/>
    </g>
    <g class="cls-2">
      <path class="cls-1" d="M359.87 874.99c-4.38-6.98-12.43-9.79-20.26-10.6-4.42-.46-8.81-.23-13.2.39-4.92.7-9.82 1.8-14.81 1.77s-9.79-2.17-14.58-4.04c-5.21-2.03-10.42-4.05-15.64-6.06-10.36-3.98-20.74-7.89-31.18-11.64-20.21-7.26-40.88-14.64-62.45-16.29-18.14-1.38-37.42 1.85-52.63 12.32-3.66 2.52-7.39 5.42-10.09 8.97-2.69 3.53-3.5 7.91-2.07 12.14 2.88 8.49 11.49 14 19.28 17.48 16.54 7.38 35.13 7.35 52.84 9.2 9.12.96 18.11 2.59 26.88 5.34s17.12 6.44 25.04 11.01c7.98 4.6 15.45 10.06 22.22 16.31 6.72 6.2 12.21 13.71 19.3 19.5 3.47 2.83 7.33 5.16 11.65 6.43s8.53 1.45 12.79.9c8.96-1.15 17.24-5.49 23.82-11.6 6.87-6.38 11.98-14.42 16.3-22.68 4.28-8.18 8.91-17.01 9.58-26.38.31-4.35-.52-8.71-2.77-12.47-.99-1.66-3.58-.15-2.59 1.51 4.73 7.93 1.65 17.71-1.8 25.52-3.66 8.28-7.91 16.53-13.28 23.84-5.25 7.14-11.94 13.35-20.21 16.76-7.8 3.22-16.91 4.02-24.7.32s-13.58-11.02-19.49-17.34c-6.05-6.47-12.79-12.27-20.05-17.33-14.51-10.13-31.19-17.25-48.56-20.63s-34.9-2.66-51.99-6.5c-8.28-1.86-16.3-4.89-23.19-9.92-3.46-2.52-6.75-5.94-8.15-10.07-1.47-4.35.04-8.15 3.12-11.34 12.23-12.62 30.62-18.01 47.77-18.56 20.34-.65 40.22 5.23 59.27 11.74 20.35 6.95 40.41 14.69 60.45 22.49 4.7 1.83 9.18 3.87 14.3 4.04 4.72.16 9.42-.76 14.06-1.5 7.98-1.27 16.73-1.63 24.31 1.7 3.32 1.46 6.23 3.67 8.17 6.77 1.02 1.63 3.62.13 2.59-1.51Z"/>
    </g>
    <g class="cls-2">
      <path class="cls-1" d="M330.23 884.4c-3.17-3.92-8.17-5.32-13.03-5.45-3.72-.1-7.46 0-11.18.09-1.83.05-3.65.4-5.48.52-3.11.2-6.24.16-9.35-.08-6.28-.49-12.48-1.82-18.52-3.57-12.19-3.53-23.76-8.82-35.68-13.1-11.64-4.17-23.92-7.64-36.3-8.51-5.29-.37-11.34.07-15.64 3.53-1.87 1.5-2.8 3.85-1.9 6.16s2.96 3.83 5.02 4.91c2.49 1.3 5.26 2.2 7.91 3.12 2.8.97 5.64 1.85 8.49 2.66 5.73 1.61 11.54 2.93 17.37 4.12 11.69 2.39 23.48 4.29 35.07 7.16s22.93 6.9 33.41 12.83c5.25 2.97 10.25 6.33 15.09 9.93 4.33 3.22 9.05 6.51 14.7 6.42 2.53-.04 5.01-.78 7-2.36s3.17-3.79 3.99-6.12c1.62-4.61 2.56-10.13 1.93-15-.32-2.51-1.14-4.91-2.67-6.94-1.15-1.52-3.75-.03-2.59 1.51 3.02 4.01 2.71 9.23 1.85 13.93-.79 4.28-1.87 9.92-6.59 11.49-5.05 1.68-10-1.12-14-3.97-4.64-3.31-9.18-6.7-14.07-9.65-9.64-5.81-19.99-10.16-30.8-13.25-10.82-3.09-21.92-5.08-32.96-7.19-11.03-2.11-22.07-4.33-32.74-7.88-2.65-.88-5.33-1.8-7.9-2.92-1.73-.76-4.19-2.05-4.77-4.02-.69-2.34 2.66-3.77 4.37-4.4 2.47-.9 5.09-1.18 7.71-1.16 5.76.03 11.58 1.13 17.19 2.36s11.57 2.92 17.22 4.82c11.35 3.83 22.29 8.78 33.64 12.59s22.79 6.37 34.53 5.6c1.78-.12 3.55-.46 5.33-.51 1.52-.04 3.05-.08 4.57-.1 3.91-.06 8.14-.41 11.93.76 2.27.7 4.24 1.96 5.74 3.82 1.21 1.5 3.33-.63 2.12-2.12Z"/>
    </g>
    <g class="cls-2">
      <path class="cls-1" d="M833.47 835.34c-29.47-.69-59.03-1.39-88.44 1.17-26.61 2.31-53.18 7.31-78.11 17.1a201.58 201.58 0 0 0-18.07 8.1c-2.89 1.47-5.73 3.02-8.54 4.64-2.65 1.53-5.39 3.04-7.8 4.93-2.19 1.71-4.03 4.07-3.98 6.98s1.85 5.37 3.98 7.15c4.47 3.73 10.51 5.8 16.17 6.82 12.5 2.24 25.28-.19 37.53-2.79 13.88-2.94 27.7-6.24 41.42-9.88a847.324 847.324 0 0 0 81.09-25.91c3.28-1.23 6.56-2.49 9.83-3.76 1.78-.69 1.01-3.6-.8-2.89a852.244 852.244 0 0 1-78.92 26.39c-13.2 3.71-26.5 7.1-39.87 10.16-12.44 2.85-25.16 6.15-37.98 6.52-5.88.17-11.79-.37-17.39-2.22-2.8-.93-5.58-2.18-8.02-3.86-2.03-1.4-4.43-3.73-4-6.45s3.23-4.34 5.32-5.64c2.75-1.72 5.55-3.35 8.39-4.91 5.55-3.05 11.25-5.81 17.07-8.29 23.79-10.16 49.4-15.71 75.06-18.45 28.45-3.04 57.12-2.77 85.68-2.14l10.38.24c1.93.05 1.93-2.95 0-3Z"/>
    </g>
  </g>
</svg>
