<?xml version="1.0" encoding="UTF-8"?>
<svg id="Layer_1" data-name="Layer 1" xmlns="http://www.w3.org/2000/svg" width="330" height="373" viewBox="0 0 330 373">
  <defs>
    <style>
      .cls-1, .cls-2 {
        fill: #fff;
      }

      .cls-3 {
        fill: #efefef;
      }

      .cls-4 {
        fill: #999;
      }

      .cls-2, .cls-5, .cls-6 {
        stroke: #000;
        stroke-miterlimit: 10;
        stroke-width: 2px;
      }

      .cls-5 {
        fill: none;
      }
    </style>
  </defs>
  <path class="cls-3" d="M307.2,1h-16.99V40.72H39.8V1H22.8C11.03,1,1.48,10.55,1.48,22.32V349.91c0,11.77,9.55,21.32,21.32,21.32H307.2c11.77,0,21.32-9.55,21.32-21.32V22.32c0-11.77-9.55-21.32-21.32-21.32Z"/>
  <rect class="cls-6" x="16.05" y="66.05" width="297.91" height="75.05" rx="9.72" ry="9.72"/>
  <rect class="cls-2" x="16.29" y="162.15" width="55.77" height="15.5" rx="7.75" ry="7.75"/>
  <rect class="cls-2" x="82.37" y="162.15" width="55.77" height="15.5" rx="7.75" ry="7.75"/>
  <rect class="cls-2" x="147.96" y="162.15" width="55.77" height="15.5" rx="7.75" ry="7.75"/>
  <rect class="cls-2" x="214.04" y="162.15" width="55.77" height="15.5" rx="7.75" ry="7.75"/>
  <rect class="cls-2" x="279.62" y="162.15" width="34.33" height="15.5" rx="5.53" ry="5.53"/>
  <rect class="cls-2" x="16.17" y="195.41" width="55.77" height="44.73" rx="9.72" ry="9.72"/>
  <rect class="cls-2" x="82.25" y="195.41" width="55.77" height="44.73" rx="9.72" ry="9.72"/>
  <rect class="cls-2" x="147.84" y="195.41" width="55.77" height="44.73" rx="9.72" ry="9.72"/>
  <rect class="cls-2" x="213.91" y="195.41" width="55.77" height="44.73" rx="9.72" ry="9.72"/>
  <rect class="cls-2" x="279.5" y="195.41" width="34.33" height="44.73" rx="5.53" ry="5.53"/>
  <rect class="cls-2" x="16.17" y="251.87" width="55.77" height="44.73" rx="9.72" ry="9.72"/>
  <rect class="cls-2" x="82.25" y="251.87" width="55.77" height="44.73" rx="9.72" ry="9.72"/>
  <rect class="cls-2" x="147.84" y="251.87" width="55.77" height="44.73" rx="9.72" ry="9.72"/>
  <rect class="cls-2" x="213.91" y="251.87" width="55.77" height="44.73" rx="9.72" ry="9.72"/>
  <rect class="cls-2" x="279.5" y="251.87" width="34.33" height="44.73" rx="5.53" ry="5.53"/>
  <rect class="cls-2" x="16.17" y="308.32" width="55.77" height="44.73" rx="9.72" ry="9.72"/>
  <rect class="cls-2" x="82.25" y="308.32" width="55.77" height="44.73" rx="9.72" ry="9.72"/>
  <rect class="cls-2" x="147.84" y="308.32" width="55.77" height="44.73" rx="9.72" ry="9.72"/>
  <rect class="cls-2" x="213.91" y="308.32" width="55.77" height="44.73" rx="9.72" ry="9.72"/>
  <rect class="cls-2" x="279.5" y="308.32" width="34.33" height="44.73" rx="5.53" ry="5.53"/>
  <g>
    <path class="cls-1" d="M140.87,113.5v-6.5h-6.41v-1.44h6.41v-6.35h1.5v6.35h6.41v1.44h-6.41v6.5h-1.5Z"/>
    <path class="cls-1" d="M159.59,114.8c-1.62,0-2.99-.38-4.12-1.16-1.13-.77-1.98-1.89-2.57-3.37-.59-1.47-.88-3.25-.88-5.33,0-2.37,.33-4.37,.98-5.99,.65-1.63,1.6-2.86,2.83-3.71,1.23-.85,2.71-1.27,4.42-1.27,1.04,0,2.1,.23,3.18,.68,1.08,.45,1.95,1.06,2.63,1.83l-.72,1.44c-.73-.79-1.54-1.38-2.41-1.76-.88-.38-1.78-.58-2.7-.58-2.06,0-3.65,.76-4.77,2.27-1.12,1.51-1.67,3.76-1.67,6.74v2.92h-.2c.12-1.16,.45-2.15,1-2.99,.55-.84,1.27-1.48,2.17-1.94,.9-.45,1.89-.68,2.99-.68,1.25,0,2.36,.27,3.32,.81,.96,.54,1.71,1.29,2.25,2.25,.54,.96,.81,2.07,.81,3.32s-.28,2.37-.84,3.37-1.33,1.76-2.31,2.31c-.98,.55-2.11,.82-3.38,.82Zm-.14-1.59c.96,0,1.81-.2,2.56-.61,.74-.4,1.32-.97,1.73-1.7,.41-.73,.62-1.58,.62-2.54s-.21-1.81-.62-2.53c-.41-.72-.99-1.29-1.73-1.7-.74-.41-1.59-.62-2.56-.62s-1.82,.21-2.56,.62c-.74,.41-1.31,.98-1.72,1.7-.4,.72-.61,1.56-.61,2.53s.2,1.81,.61,2.54c.4,.73,.98,1.3,1.72,1.7,.74,.4,1.59,.61,2.56,.61Z"/>
    <path class="cls-1" d="M176.28,114.8c-2.27,0-4.01-.89-5.23-2.67-1.21-1.78-1.82-4.36-1.82-7.73s.61-6.02,1.82-7.78c1.21-1.76,2.96-2.64,5.23-2.64s4.04,.88,5.24,2.64c1.2,1.76,1.8,4.35,1.8,7.76s-.61,5.97-1.82,7.76c-1.21,1.78-2.96,2.67-5.23,2.67Zm0-1.59c1.75,0,3.06-.72,3.93-2.17s1.3-3.67,1.3-6.67c0-2.02-.19-3.68-.58-4.97-.38-1.29-.96-2.25-1.73-2.89-.77-.64-1.74-.95-2.92-.95-1.73,0-3.04,.72-3.91,2.15-.88,1.43-1.31,3.65-1.31,6.66,0,1.98,.19,3.63,.58,4.94,.39,1.31,.97,2.29,1.75,2.93,.78,.65,1.75,.97,2.9,.97Z"/>
    <path class="cls-1" d="M194.71,114.56v-11.24c0-.52-.02-1.05-.06-1.59-.04-.54-.1-1.09-.17-1.65h1.73l.26,3.32h-.35c.37-1.14,.97-2.02,1.82-2.64,.85-.63,1.88-.94,3.09-.94s2.23,.3,3,.9c.77,.6,1.28,1.52,1.53,2.77h-.43c.35-1.12,.98-2.01,1.91-2.67,.92-.66,2.01-1,3.26-1,1.58,0,2.77,.45,3.58,1.36,.81,.91,1.21,2.32,1.21,4.25v9.13h-1.76v-9.01c0-1.46-.26-2.53-.78-3.19-.52-.66-1.37-1-2.54-1-1.31,0-2.34,.44-3.1,1.33-.76,.89-1.14,2.08-1.14,3.58v8.29h-1.76v-9.01c0-1.46-.26-2.53-.78-3.19-.52-.66-1.36-1-2.51-1-1.31,0-2.34,.44-3.1,1.33-.76,.89-1.14,2.08-1.14,3.58v8.29h-1.76Z"/>
    <path class="cls-1" d="M219.52,96.54v-2.2h2.37v2.2h-2.37Zm.29,18.02v-14.47h1.76v14.47h-1.76Z"/>
    <path class="cls-1" d="M226.39,114.56v-11.24c0-.52-.02-1.05-.06-1.59-.04-.54-.1-1.09-.17-1.65h1.73l.26,3.32h-.35c.42-1.16,1.11-2.04,2.05-2.66s2.04-.92,3.29-.92c1.71,0,3.01,.45,3.88,1.36,.88,.91,1.31,2.32,1.31,4.25v9.13h-1.76v-8.98c0-1.48-.3-2.56-.9-3.22-.6-.66-1.52-1-2.77-1-1.46,0-2.62,.44-3.48,1.33-.86,.89-1.29,2.08-1.29,3.58v8.29h-1.76Z"/>
    <path class="cls-1" d="M248.17,114.8c-1.7,0-2.98-.46-3.86-1.37-.88-.91-1.31-2.33-1.31-4.23v-9.1h1.76v8.98c0,1.46,.3,2.53,.9,3.21,.6,.67,1.51,1.01,2.74,1.01,1.37,0,2.47-.45,3.31-1.34,.84-.9,1.26-2.08,1.26-3.57v-8.29h1.76v14.47h-1.73v-3.41h.38c-.4,1.17-1.06,2.08-1.98,2.7-.92,.63-1.99,.94-3.22,.94Z"/>
    <path class="cls-1" d="M264.2,114.8c-1.29,0-2.28-.38-2.96-1.16-.68-.77-1.03-1.95-1.03-3.55v-8.58h-2.89v-1.42h2.89v-4.04l1.76-.58v4.62h4.28v1.42h-4.28v8.32c0,1.21,.19,2.09,.58,2.63,.38,.54,1,.81,1.85,.81,.38,0,.73-.04,1.03-.12,.3-.08,.55-.16,.76-.26v1.56c-.23,.1-.53,.18-.9,.25-.37,.07-.73,.1-1.1,.1Z"/>
    <path class="cls-1" d="M275.32,114.8c-1.46,0-2.73-.29-3.8-.87-1.07-.58-1.89-1.42-2.47-2.54-.58-1.12-.87-2.46-.87-4.02s.28-2.87,.85-3.99c.57-1.12,1.36-1.99,2.38-2.61,1.02-.63,2.21-.94,3.55-.94s2.38,.27,3.26,.82c.88,.55,1.57,1.33,2.05,2.34,.48,1.01,.72,2.21,.72,3.6v.81h-11.55v-1.27h10.46l-.49,.38c0-1.64-.38-2.92-1.13-3.86-.75-.93-1.87-1.4-3.35-1.4-1.06,0-1.96,.25-2.72,.75-.75,.5-1.32,1.19-1.72,2.08s-.59,1.93-.59,3.12v.2c0,1.93,.48,3.39,1.43,4.39,.95,1,2.29,1.5,4,1.5,.88,0,1.71-.13,2.48-.4,.77-.27,1.51-.73,2.22-1.39l.72,1.3c-.62,.64-1.42,1.13-2.4,1.47-.98,.35-2,.52-3.06,.52Z"/>
    <path class="cls-1" d="M289.48,114.8c-1.12,0-2.16-.16-3.13-.49-.97-.33-1.78-.78-2.41-1.36l.69-1.3c.71,.58,1.48,1.01,2.31,1.29,.83,.28,1.69,.42,2.6,.42,1.23,0,2.17-.23,2.8-.69,.63-.46,.95-1.09,.95-1.88,0-.62-.2-1.12-.61-1.5s-1.08-.67-2.02-.87l-2.6-.55c-1.23-.29-2.15-.75-2.76-1.39-.61-.64-.91-1.43-.91-2.4,0-.83,.22-1.56,.65-2.2,.43-.64,1.05-1.14,1.86-1.5s1.76-.55,2.86-.55c1.04,0,2,.17,2.87,.51s1.59,.81,2.15,1.43l-.75,1.27c-.58-.58-1.23-1.01-1.95-1.3-.72-.29-1.49-.43-2.3-.43-1.19,0-2.1,.25-2.71,.74-.62,.49-.92,1.14-.92,1.95,0,.62,.19,1.12,.58,1.52,.38,.4,.99,.69,1.82,.88l2.6,.58c1.31,.29,2.28,.73,2.92,1.33,.64,.6,.95,1.39,.95,2.37,0,.85-.23,1.58-.69,2.21-.46,.63-1.11,1.1-1.94,1.43-.83,.33-1.8,.49-2.92,.49Z"/>
  </g>
  <polygon points="290.2 14.85 290.2 40.72 39.8 40.72 39.8 14.85 33.13 14.85 33.13 51 296.87 51 296.87 14.85 290.2 14.85"/>
  <rect class="cls-4" x="39.8" y="41.5" width="250.41" height="3.51"/>
  <path class="cls-5" d="M290.2,1h16.99c11.77,0,21.32,9.55,21.32,21.32V349.91c0,11.77-9.55,21.32-21.32,21.32H22.8c-11.77,0-21.32-9.55-21.32-21.32V22.32C1.48,10.55,11.03,1,22.8,1h17"/>
</svg>