<?xml version="1.0" encoding="UTF-8"?>
<svg id="Layer_1" data-name="Layer 1" xmlns="http://www.w3.org/2000/svg" width="182" height="110" xmlns:xlink="http://www.w3.org/1999/xlink" viewBox="0 0 182 110">
  <defs>
    <style>
      .cls-1 {
        fill: url(#linear-gradient-7);
      }

      .cls-2 {
        fill: url(#linear-gradient-9);
      }

      .cls-3 {
        fill: url(#linear-gradient-6);
      }

      .cls-4 {
        fill: url(#linear-gradient-8);
      }

      .cls-5 {
        fill: url(#linear-gradient-3);
      }

      .cls-6 {
        fill: url(#linear-gradient-2);
      }

      .cls-7 {
        fill: url(#linear-gradient-4);
      }

      .cls-8 {
        fill: url(#linear-gradient-5);
      }

      .cls-9 {
        fill: #0f6a80;
      }

      .cls-10 {
        fill: url(#linear-gradient);
      }

      .cls-11 {
        fill: url(#linear-gradient-10);
      }
    </style>
    <linearGradient id="linear-gradient" x1="39.92" y1="36.37" x2="105.94" y2="36.37" gradientTransform="matrix(1, 0, 0, 1, 0, 0)" gradientUnits="userSpaceOnUse">
      <stop offset="0" stop-color="#30c8c9"/>
      <stop offset="1" stop-color="#9ef9e0"/>
    </linearGradient>
    <linearGradient id="linear-gradient-2" x1="44.79" y1="72.07" x2="113.93" y2="72.07" xlink:href="#linear-gradient"/>
    <linearGradient id="linear-gradient-3" x1="103.35" y1="60.09" x2="158.85" y2="60.09" xlink:href="#linear-gradient"/>
    <linearGradient id="linear-gradient-4" x1="96.59" y1="43.49" x2="124.81" y2="43.49" xlink:href="#linear-gradient"/>
    <linearGradient id="linear-gradient-5" x1="142.08" y1="64.31" x2="177.8" y2="64.31" xlink:href="#linear-gradient"/>
    <linearGradient id="linear-gradient-6" x1="25.67" y1="44.03" x2="51.41" y2="44.03" xlink:href="#linear-gradient"/>
    <linearGradient id="linear-gradient-7" x1="4.2" y1="64.31" x2="49.26" y2="64.31" xlink:href="#linear-gradient"/>
    <linearGradient id="linear-gradient-8" x1="30.06" y1="78.79" x2="54.36" y2="78.79" xlink:href="#linear-gradient"/>
    <linearGradient id="linear-gradient-9" x1="122.5" y1="78.36" x2="158.22" y2="78.36" xlink:href="#linear-gradient"/>
    <linearGradient id="linear-gradient-10" x1="107.39" y1="87.84" x2="129.77" y2="87.84" xlink:href="#linear-gradient"/>
  </defs>
  <g>
    <circle class="cls-10" cx="72.93" cy="36.37" r="33.01"/>
    <circle class="cls-6" cx="79.36" cy="72.07" r="34.57"/>
    <circle class="cls-5" cx="131.1" cy="60.09" r="27.75"/>
    <circle class="cls-7" cx="110.7" cy="43.49" r="14.11"/>
    <circle class="cls-8" cx="159.94" cy="64.31" r="17.86"/>
    <circle class="cls-3" cx="38.54" cy="44.03" r="12.87"/>
    <circle class="cls-1" cx="26.73" cy="64.31" r="22.53"/>
    <circle class="cls-4" cx="42.21" cy="78.79" r="12.15"/>
    <circle class="cls-2" cx="140.36" cy="78.36" r="17.86"/>
    <circle class="cls-11" cx="118.58" cy="87.84" r="11.19"/>
  </g>
  <path class="cls-9" d="M72.93,3.36c16.2,0,29.66,11.67,32.46,27.05,1.64-.67,3.43-1.04,5.31-1.04,4.21,0,7.97,1.85,10.55,4.77,3.06-1.16,6.38-1.8,9.85-1.8,10.6,0,19.8,5.94,24.48,14.67,1.4-.35,2.85-.56,4.36-.56,9.86,0,17.86,8,17.86,17.86s-8,17.86-17.86,17.86c-.71,0-1.41-.05-2.1-.13-1.69,8.1-8.87,14.19-17.48,14.19-4.35,0-8.33-1.56-11.43-4.14-1.67,4.08-5.67,6.95-10.35,6.95-4.92,0-9.09-3.18-10.59-7.59-6.22,9.17-16.72,15.2-28.64,15.2-13.03,0-24.36-7.21-30.26-17.85-1.96,1.35-4.33,2.15-6.89,2.15-3.97,0-7.48-1.91-9.7-4.85-1.84,.49-3.78,.75-5.78,.75-12.44,0-22.53-10.09-22.53-22.53s9.63-22.06,21.68-22.51c1.06-6.04,6.32-10.64,12.66-10.64,.6,0,1.19,.06,1.77,.14C42.75,15.48,56.42,3.36,72.93,3.36m0-3c-8.65,0-17.01,3.11-23.55,8.77-5.78,5-9.8,11.69-11.52,19.05-6.63,.28-12.3,4.63-14.36,10.81-12.67,1.58-22.3,12.3-22.3,25.32,0,14.08,11.45,25.53,25.53,25.53,1.57,0,3.14-.15,4.68-.43,2.84,2.9,6.68,4.53,10.8,4.53,2.01,0,3.98-.39,5.81-1.16,6.93,10.47,18.68,16.86,31.34,16.86,10.9,0,21.16-4.71,28.25-12.8,2.64,3.23,6.63,5.2,10.97,5.2s8.68-2.13,11.32-5.63c3.16,1.83,6.77,2.82,10.46,2.82,8.94,0,16.85-5.77,19.72-14.05,11.44-.08,20.72-9.4,20.72-20.86s-9.36-20.86-20.86-20.86c-.94,0-1.89,.07-2.84,.21-5.62-8.88-15.38-14.32-25.99-14.32-3.09,0-6.12,.46-9.05,1.36-3.12-2.77-7.15-4.32-11.35-4.32-1.04,0-2.08,.09-3.1,.28C103.31,11.24,89.22,.36,72.93,.36h0Z"/>
</svg>