<?xml version="1.0" encoding="UTF-8"?>
<svg id="Layer_1" data-name="Layer 1" xmlns="http://www.w3.org/2000/svg" width="182" height="110" xmlns:xlink="http://www.w3.org/1999/xlink" viewBox="0 0 182 110">
  <defs>
    <style>
      .cls-1 {
        fill: none;
        stroke-linecap: round;
      }

      .cls-1, .cls-2 {
        stroke: #0f6a80;
        stroke-linejoin: round;
        stroke-width: 2px;
      }

      .cls-2 {
        fill: url(#linear-gradient);
      }
    </style>
    <linearGradient id="linear-gradient" x1="91" y1="106.64" x2="91" y2="3.36" gradientTransform="matrix(1, 0, 0, 1, 0, 0)" gradientUnits="userSpaceOnUse">
      <stop offset="0" stop-color="#30c8c9"/>
      <stop offset="1" stop-color="#9ef9e0"/>
    </linearGradient>
  </defs>
  <path class="cls-2" d="M159.94,46.45c-1.51,0-2.96,.21-4.36,.56-4.68-8.73-13.88-14.67-24.48-14.67-3.47,0-6.79,.64-9.85,1.8-2.58-2.92-6.35-4.77-10.55-4.77-1.88,0-3.67,.37-5.31,1.04-2.8-15.39-16.27-27.05-32.46-27.05s-30.18,12.11-32.62,27.94c-.58-.08-1.17-.14-1.77-.14-6.35,0-11.61,4.6-12.66,10.64-12.05,.45-21.68,10.35-21.68,22.51s10.09,22.53,22.53,22.53c2,0,3.94-.26,5.78-.75,2.22,2.94,5.73,4.85,9.7,4.85,2.56,0,4.93-.8,6.89-2.15,5.89,10.64,17.23,17.85,30.26,17.85,11.91,0,22.42-6.03,28.64-15.2,1.5,4.41,5.67,7.59,10.59,7.59s8.68-2.87,10.35-6.95c3.1,2.58,7.08,4.14,11.43,4.14,8.6,0,15.78-6.09,17.48-14.19,.69,.08,1.39,.13,2.1,.13,9.86,0,17.86-8,17.86-17.86s-8-17.86-17.86-17.86Z"/>
  <path class="cls-1" d="M39.92,36.37c0-18.23,14.78-33.01,33.01-33.01s33.01,14.78,33.01,33.01"/>
  <path class="cls-1" d="M112.38,82.35c-4.38,14.07-17.5,24.29-33.02,24.29-16.33,0-30.01-11.32-33.63-26.53"/>
  <path class="cls-1" d="M131.1,32.3c15.33,0,27.75,12.43,27.75,27.75"/>
</svg>