<?xml version="1.0" encoding="UTF-8"?>
<svg id="Layer_1" data-name="Layer 1" xmlns="http://www.w3.org/2000/svg" width="890" height="97" viewBox="0 0 890 97">
  <defs>
    <style>
      .cls-1, .cls-2 {
        fill: #fff;
      }

      .cls-2, .cls-3 {
        opacity: .2;
      }
    </style>
  </defs>
  <path class="cls-2" d="M3.13,50.43c3.71,3.71,9.72,3.71,13.44,0l13.6-13.6v46.06c0,5.25,4.25,9.5,9.5,9.5s9.5-4.25,9.5-9.5V36.82l13.6,13.6c3.71,3.71,9.72,3.71,13.44,0s3.71-9.73,0-13.44L46.61,7.4c-1.86-1.85-4.29-2.78-6.72-2.78-.08,0-.15,0-.23,.01-.08,0-.15-.01-.23-.01-2.43,0-4.86,.93-6.72,2.78L3.13,36.99c-3.71,3.71-3.71,9.73,0,13.44Z"/>
  <path class="cls-2" d="M92.79,50.43c3.71,3.71,9.72,3.71,13.44,0l13.6-13.6v46.06c0,5.25,4.25,9.5,9.5,9.5s9.5-4.25,9.5-9.5V36.82l13.6,13.6c3.71,3.71,9.72,3.71,13.44,0s3.71-9.73,0-13.44l-29.6-29.6c-1.86-1.85-4.29-2.78-6.72-2.78-.08,0-.15,0-.23,.01-.08,0-.15-.01-.23-.01-2.43,0-4.86,.93-6.72,2.78l-29.6,29.6c-3.71,3.71-3.71,9.73,0,13.44Z"/>
  <path class="cls-2" d="M345.19,46.57c-3.71-3.71-9.72-3.71-13.44,0l-13.6,13.6V14.11c0-5.25-4.25-9.5-9.5-9.5s-9.5,4.25-9.5,9.5V60.18l-13.6-13.6c-3.71-3.71-9.72-3.71-13.44,0s-3.71,9.73,0,13.44l29.6,29.6c1.86,1.85,4.29,2.78,6.72,2.78,.08,0,.15,0,.23-.01,.08,0,.15,.01,.23,.01,2.43,0,4.86-.93,6.72-2.78l29.6-29.6c3.71-3.71,3.71-9.73,0-13.44Z"/>
  <path class="cls-2" d="M255.53,46.57c-3.71-3.71-9.72-3.71-13.44,0l-13.6,13.6V14.11c0-5.25-4.25-9.5-9.5-9.5s-9.5,4.25-9.5,9.5V60.18l-13.6-13.6c-3.71-3.71-9.72-3.71-13.44,0s-3.71,9.73,0,13.44l29.6,29.6c1.86,1.85,4.29,2.78,6.72,2.78,.08,0,.15,0,.23-.01,.08,0,.15,.01,.23,.01,2.43,0,4.86-.93,6.72-2.78l29.6-29.6c3.71-3.71,3.71-9.73,0-13.44Z"/>
  <path class="cls-2" d="M486.04,11.96c-3.71,3.71-3.71,9.72,0,13.44l13.6,13.6h-44.06c-5.25,0-9.5,4.25-9.5,9.5s4.25,9.5,9.5,9.5h44.06l-13.6,13.6c-3.71,3.71-3.71,9.72,0,13.44s9.73,3.71,13.44,0l29.6-29.6c1.85-1.86,2.78-4.29,2.78-6.72,0-.08,0-.15-.01-.23,0-.08,.01-.15,.01-.23,0-2.43-.93-4.86-2.78-6.72l-29.6-29.6c-3.71-3.71-9.73-3.71-13.44,0Z"/>
  <path class="cls-2" d="M400.23,85.04c3.71-3.71,3.71-9.72,0-13.44l-13.6-13.6h44.06c5.25,0,9.5-4.25,9.5-9.5s-4.25-9.5-9.5-9.5h-44.06l13.6-13.6c3.71-3.71,3.71-9.72,0-13.44s-9.73-3.71-13.44,0l-29.6,29.6c-1.85,1.86-2.78,4.29-2.78,6.72,0,.08,0,.15,.01,.23,0,.08-.01,.15-.01,.23,0,2.43,.93,4.86,2.78,6.72l29.6,29.6c3.71,3.71,9.73,3.71,13.44,0Z"/>
  <path class="cls-2" d="M669.36,11.96c-3.71,3.71-3.71,9.72,0,13.44l13.6,13.6h-44.06c-5.25,0-9.5,4.25-9.5,9.5s4.25,9.5,9.5,9.5h44.06l-13.6,13.6c-3.71,3.71-3.71,9.72,0,13.44s9.73,3.71,13.44,0l29.6-29.6c1.85-1.86,2.78-4.29,2.78-6.72,0-.08,0-.15-.01-.23,0-.08,.01-.15,.01-.23,0-2.43-.93-4.86-2.78-6.72l-29.6-29.6c-3.71-3.71-9.73-3.71-13.44,0Z"/>
  <path class="cls-2" d="M583.55,85.04c3.71-3.71,3.71-9.72,0-13.44l-13.6-13.6h44.06c5.25,0,9.5-4.25,9.5-9.5s-4.25-9.5-9.5-9.5h-44.06l13.6-13.6c3.71-3.71,3.71-9.72,0-13.44s-9.73-3.71-13.44,0l-29.6,29.6c-1.85,1.86-2.78,4.29-2.78,6.72,0,.08,0,.15,.01,.23,0,.08-.01,.15-.01,.23,0,2.43,.93,4.86,2.78,6.72l29.6,29.6c3.71,3.71,9.73,3.71,13.44,0Z"/>
  <g class="cls-3">
    <path class="cls-1" d="M770.61,52.12c-1.5-.96-3.74-1.44-6.72-1.44h-8.91v12.34h9.2c5.79,0,8.68-2.09,8.68-6.26,0-2.13-.75-3.68-2.25-4.64Z"/>
    <path class="cls-1" d="M763.09,9.18c-21.72,0-39.32,17.6-39.32,39.32s17.61,39.32,39.32,39.32,39.32-17.6,39.32-39.32-17.61-39.32-39.32-39.32Zm16.63,54.61c-1.21,1.89-2.85,3.29-4.9,4.2-1.29,.54-2.77,.92-4.44,1.14-1.67,.22-3.62,.33-5.86,.33h-12.92c-1.87,0-3.2-.42-4-1.25-.8-.84-1.2-2.17-1.2-3.99v-31.78c0-1.87,.41-3.21,1.23-4.02,.82-.82,2.14-1.23,3.97-1.23h13.7c2.02,0,3.77,.12,5.25,.38s2.81,.73,3.98,1.44c1,.6,1.88,1.35,2.65,2.26,.77,.91,1.36,1.92,1.76,3.03,.4,1.11,.61,2.27,.61,3.5,0,4.23-2.12,7.33-6.35,9.29,5.56,1.77,8.34,5.21,8.34,10.33,0,2.36-.61,4.49-1.82,6.39Z"/>
    <path class="cls-1" d="M767.76,43.93c1.16-.4,2.05-1.17,2.67-2.31,.48-.81,.72-1.71,.72-2.71,0-2.13-.76-3.55-2.28-4.25-1.52-.7-3.84-1.05-6.95-1.05h-6.95v10.93h7.85c2.13,0,3.78-.2,4.95-.61Z"/>
  </g>
  <g class="cls-3">
    <polygon class="cls-1" points="843.8 52.93 856.43 52.93 850.06 35.48 843.8 52.93"/>
    <path class="cls-1" d="M850.33,9.18c-21.72,0-39.32,17.6-39.32,39.32s17.61,39.32,39.32,39.32,39.32-17.6,39.32-39.32-17.61-39.32-39.32-39.32Zm18.34,59.77c-.82,.82-1.8,1.23-2.96,1.23-.67,0-1.25-.12-1.73-.36s-.88-.57-1.21-.98c-.33-.41-.68-1.05-1.05-1.9-.37-.86-.7-1.61-.97-2.26l-2.02-5.31h-17.19l-2.02,5.42c-.79,2.12-1.46,3.54-2.02,4.28-.56,.74-1.47,1.11-2.74,1.11-1.08,0-2.03-.39-2.86-1.18-.83-.79-1.24-1.68-1.24-2.68,0-.58,.1-1.17,.29-1.79,.19-.62,.51-1.47,.95-2.57l10.82-27.46c.31-.79,.68-1.74,1.11-2.84s.89-2.02,1.38-2.75c.49-.73,1.13-1.32,1.93-1.77,.8-.45,1.78-.68,2.96-.68s2.19,.23,2.99,.68c.8,.45,1.44,1.03,1.93,1.75,.49,.71,.9,1.48,1.24,2.29,.34,.82,.76,1.91,1.28,3.27l11.05,27.29c.87,2.08,1.3,3.59,1.3,4.53s-.41,1.88-1.23,2.7Z"/>
  </g>
</svg>