<?xml version="1.0" encoding="UTF-8"?>
<svg id="Layer_1" data-name="Layer 1" xmlns="http://www.w3.org/2000/svg" width="341" height="400" xmlns:xlink="http://www.w3.org/1999/xlink" viewBox="0 0 341 400">
  <defs>
    <style>
      .cls-1, .cls-2, .cls-3, .cls-4, .cls-5, .cls-6, .cls-7, .cls-8, .cls-9, .cls-10, .cls-11, .cls-12, .cls-13, .cls-14 {
        stroke-linejoin: round;
      }

      .cls-1, .cls-2, .cls-3, .cls-5 {
        stroke: #0f6a80;
      }

      .cls-1, .cls-2, .cls-3, .cls-14 {
        stroke-linecap: round;
      }

      .cls-1, .cls-4, .cls-5, .cls-6, .cls-14 {
        fill: none;
      }

      .cls-2 {
        fill: url(#linear-gradient-14);
      }

      .cls-3 {
        fill: url(#linear-gradient-13);
      }

      .cls-4, .cls-10 {
        stroke: #6e2ff4;
      }

      .cls-6, .cls-7, .cls-8, .cls-15, .cls-9, .cls-11, .cls-12, .cls-13, .cls-14 {
        stroke: #183dd1;
      }

      .cls-16 {
        fill: url(#linear-gradient-9);
      }

      .cls-17 {
        fill: url(#linear-gradient-6);
      }

      .cls-18 {
        fill: url(#linear-gradient-8);
      }

      .cls-19 {
        fill: url(#linear-gradient-3);
      }

      .cls-20 {
        fill: url(#linear-gradient-2);
      }

      .cls-21 {
        fill: url(#linear-gradient-5);
      }

      .cls-22 {
        fill: #183dd1;
      }

      .cls-7 {
        fill: url(#linear-gradient-4);
      }

      .cls-8 {
        fill: url(#linear-gradient-7);
      }

      .cls-15 {
        fill: #fff;
      }

      .cls-15, .cls-23 {
        stroke-miterlimit: 10;
      }

      .cls-23 {
        fill: #22262a;
        stroke: #22262a;
      }

      .cls-9 {
        fill: url(#linear-gradient);
      }

      .cls-24 {
        fill: url(#linear-gradient-26);
      }

      .cls-25 {
        fill: url(#linear-gradient-27);
      }

      .cls-26 {
        fill: url(#linear-gradient-24);
      }

      .cls-27 {
        fill: url(#linear-gradient-36);
      }

      .cls-28 {
        fill: url(#linear-gradient-17);
      }

      .cls-29 {
        fill: url(#linear-gradient-16);
      }

      .cls-30 {
        fill: url(#linear-gradient-32);
      }

      .cls-31 {
        fill: url(#linear-gradient-33);
      }

      .cls-32 {
        fill: url(#linear-gradient-30);
      }

      .cls-33 {
        fill: url(#linear-gradient-31);
      }

      .cls-34 {
        fill: url(#linear-gradient-29);
      }

      .cls-35 {
        fill: url(#linear-gradient-25);
      }

      .cls-36 {
        fill: url(#linear-gradient-28);
      }

      .cls-37 {
        fill: url(#linear-gradient-23);
      }

      .cls-38 {
        fill: url(#linear-gradient-21);
      }

      .cls-39 {
        fill: url(#linear-gradient-22);
      }

      .cls-40 {
        fill: url(#linear-gradient-20);
      }

      .cls-41 {
        fill: url(#linear-gradient-18);
      }

      .cls-42 {
        fill: url(#linear-gradient-19);
      }

      .cls-43 {
        fill: url(#linear-gradient-37);
      }

      .cls-44 {
        fill: url(#linear-gradient-34);
      }

      .cls-45 {
        fill: url(#linear-gradient-35);
      }

      .cls-10 {
        fill: url(#linear-gradient-10);
      }

      .cls-11 {
        fill: url(#linear-gradient-11);
      }

      .cls-12 {
        fill: url(#linear-gradient-12);
      }

      .cls-13 {
        fill: url(#linear-gradient-15);
      }

      .cls-14 {
        stroke-width: 3px;
      }
    </style>
    <linearGradient id="linear-gradient" x1="65.11" y1="310.19" x2="65.11" y2="340.15" gradientTransform="translate(143.54 22.63) rotate(29.56)" gradientUnits="userSpaceOnUse">
      <stop offset="0" stop-color="#183dd1"/>
      <stop offset="1" stop-color="#587ef8"/>
    </linearGradient>
    <linearGradient id="linear-gradient-2" x1="64.57" y1="275.5" x2="64.57" y2="323.35" gradientTransform="translate(143.54 22.63) rotate(29.56)" gradientUnits="userSpaceOnUse">
      <stop offset="0" stop-color="#30c8c9"/>
      <stop offset="1" stop-color="#9ef9e0"/>
    </linearGradient>
    <linearGradient id="linear-gradient-3" x1="64.62" y1="240.12" x2="64.62" y2="288.93" gradientTransform="translate(143.54 22.63) rotate(29.56)" gradientUnits="userSpaceOnUse">
      <stop offset="0" stop-color="#6e2ff4"/>
      <stop offset="1" stop-color="#9973fd"/>
    </linearGradient>
    <linearGradient id="linear-gradient-4" x1="87.23" y1="312.9" x2="87.23" y2="342.86" gradientTransform="translate(68.43 25.7) rotate(15.08)" xlink:href="#linear-gradient"/>
    <linearGradient id="linear-gradient-5" x1="86.69" y1="278.21" x2="86.69" y2="326.06" gradientTransform="translate(68.43 25.7) rotate(15.08)" xlink:href="#linear-gradient-2"/>
    <linearGradient id="linear-gradient-6" x1="86.74" y1="242.82" x2="86.74" y2="291.64" gradientTransform="translate(68.43 25.7) rotate(15.08)" xlink:href="#linear-gradient-3"/>
    <linearGradient id="linear-gradient-7" x1="224.05" y1="314.19" x2="224.05" y2="344.14" gradientTransform="translate(-88.59 108.56) rotate(-18.37)" xlink:href="#linear-gradient"/>
    <linearGradient id="linear-gradient-8" x1="223.52" y1="279.5" x2="223.52" y2="327.35" gradientTransform="translate(-88.59 108.56) rotate(-18.37)" xlink:href="#linear-gradient-2"/>
    <linearGradient id="linear-gradient-9" x1="223.57" y1="244.11" x2="223.57" y2="292.93" gradientTransform="translate(-88.59 108.56) rotate(-18.37)" xlink:href="#linear-gradient-3"/>
    <linearGradient id="linear-gradient-10" x1="294.32" y1="263.58" x2="331.51" y2="261.7" gradientTransform="translate(-22.28 32.83) rotate(-5.31)" xlink:href="#linear-gradient-3"/>
    <linearGradient id="linear-gradient-11" x1="289.27" y1="262.87" x2="322.06" y2="259.73" gradientTransform="translate(-10.83 16.49) rotate(-2.73)" xlink:href="#linear-gradient"/>
    <linearGradient id="linear-gradient-12" x1="302.41" y1="228.92" x2="302.41" y2="334.18" gradientTransform="translate(33.28 -33.35) rotate(6.17)" xlink:href="#linear-gradient"/>
    <linearGradient id="linear-gradient-13" x1="292.17" y1="249.67" x2="334.26" y2="249.67" gradientTransform="translate(-33.79 50.99) rotate(-8.21)" xlink:href="#linear-gradient-2"/>
    <linearGradient id="linear-gradient-14" x1="289.26" y1="270.77" x2="315.82" y2="266.49" gradientTransform="translate(4.91 -4.69) rotate(.95)" gradientUnits="userSpaceOnUse">
      <stop offset="0" stop-color="#30c8c9"/>
      <stop offset="1" stop-color="#9ef9e0"/>
    </linearGradient>
    <linearGradient id="linear-gradient-15" x1="261.75" y1="344.07" x2="261.75" y2="374.02" gradientTransform="translate(-88.59 108.56) rotate(-18.37)" xlink:href="#linear-gradient"/>
    <linearGradient id="linear-gradient-16" x1="261.21" y1="309.38" x2="261.21" y2="357.23" gradientTransform="translate(-88.59 108.56) rotate(-18.37)" xlink:href="#linear-gradient-2"/>
    <linearGradient id="linear-gradient-17" x1="261.26" y1="273.99" x2="261.26" y2="322.81" gradientTransform="translate(-88.59 108.56) rotate(-18.37)" xlink:href="#linear-gradient-3"/>
    <linearGradient id="linear-gradient-18" x1="165.75" y1="257.5" x2="165.75" y2="304.51" gradientTransform="matrix(1, 0, 0, 1, 0, 0)" xlink:href="#linear-gradient"/>
    <linearGradient id="linear-gradient-19" x1="166" y1="219.61" x2="166" y2="269.06" gradientTransform="matrix(1, 0, 0, 1, 0, 0)" xlink:href="#linear-gradient-2"/>
    <linearGradient id="linear-gradient-20" x1="165.44" y1="187.33" x2="165.44" y2="232.97" gradientTransform="matrix(1, 0, 0, 1, 0, 0)" xlink:href="#linear-gradient-3"/>
    <linearGradient id="linear-gradient-21" x1="164.4" y1="149.13" x2="164.4" y2="198.32" gradientTransform="matrix(1, 0, 0, 1, 0, 0)" xlink:href="#linear-gradient"/>
    <linearGradient id="linear-gradient-22" x1="283.51" y1="198.6" x2="283.51" y2="198.65" gradientTransform="matrix(1, 0, 0, 1, 0, 0)" xlink:href="#linear-gradient-3"/>
    <linearGradient id="linear-gradient-23" x1="283.33" y1="198.79" x2="283.33" y2="198.82" gradientTransform="matrix(1, 0, 0, 1, 0, 0)" xlink:href="#linear-gradient-3"/>
    <linearGradient id="linear-gradient-24" x1="283.59" y1="198.35" x2="283.59" y2="198.35" gradientTransform="matrix(1, 0, 0, 1, 0, 0)" xlink:href="#linear-gradient-3"/>
    <linearGradient id="linear-gradient-25" x1="45.29" y1="198.44" x2="45.29" y2="198.53" gradientTransform="matrix(1, 0, 0, 1, 0, 0)" xlink:href="#linear-gradient-3"/>
    <linearGradient id="linear-gradient-26" x1="45.38" y1="198.65" x2="45.38" y2="198.72" gradientTransform="matrix(1, 0, 0, 1, 0, 0)" xlink:href="#linear-gradient-3"/>
    <linearGradient id="linear-gradient-27" x1="45.56" y1="198.81" x2="45.56" y2="198.84" gradientTransform="matrix(1, 0, 0, 1, 0, 0)" xlink:href="#linear-gradient-3"/>
    <linearGradient id="linear-gradient-28" x1="85.58" y1="116.57" x2="85.58" y2="162.66" gradientTransform="matrix(1, 0, 0, 1, 0, 0)" gradientUnits="userSpaceOnUse">
      <stop offset="0" stop-color="#30c8c9"/>
      <stop offset="1" stop-color="#9ef9e0"/>
    </linearGradient>
    <linearGradient id="linear-gradient-29" x1="83.72" y1="79.39" x2="83.72" y2="128.13" gradientTransform="matrix(1, 0, 0, 1, 0, 0)" xlink:href="#linear-gradient-3"/>
    <linearGradient id="linear-gradient-30" x1="140.5" y1="57.22" x2="140.5" y2="57.15" xlink:href="#linear-gradient-28"/>
    <linearGradient id="linear-gradient-31" x1="140.59" y1="57.03" x2="140.59" y2="56.94" xlink:href="#linear-gradient-28"/>
    <linearGradient id="linear-gradient-32" x1="140.32" y1="57.36" x2="140.32" y2="57.32" xlink:href="#linear-gradient-28"/>
    <linearGradient id="linear-gradient-33" x1="117.5" y1="4.93" x2="117.5" y2="56.8" xlink:href="#linear-gradient-28"/>
    <linearGradient id="linear-gradient-34" x1="94.43" y1="57.18" x2="94.43" y2="57.12" xlink:href="#linear-gradient-28"/>
    <linearGradient id="linear-gradient-35" x1="112.65" y1="45.85" x2="112.65" y2="93" gradientTransform="matrix(1, 0, 0, 1, 0, 0)" xlink:href="#linear-gradient"/>
    <linearGradient id="linear-gradient-36" x1="94.35" y1="56.91" x2="94.35" y2="56.88" xlink:href="#linear-gradient-28"/>
    <linearGradient id="linear-gradient-37" x1="94.61" y1="57.35" x2="94.61" y2="57.31" xlink:href="#linear-gradient-28"/>
  </defs>
  <g>
    <g>
      <path class="cls-23" d="M16.12,325.49s-12.72,13.08-13.31,15.88c-.59,2.8-4.27,5.99,22.53,21.2s27.44,9.52,28.84,7.75c1.4-1.78,6.81-18.42,6.81-18.42l-44.87-26.41Z"/>
      <polygon class="cls-9" points="71.11 338.17 22.62 310.66 6.11 335.73 11 338.51 17.93 329.15 19.91 330.27 14.77 340.65 22.71 345.15 29.64 335.79 31.62 336.92 26.49 347.29 36.05 352.71 42.97 343.36 44.96 344.48 39.82 354.86 47.76 359.36 54.69 350 56.67 351.12 51.53 361.5 58.62 365.52 71.11 338.17"/>
      <path class="cls-20" d="M74.03,335.43s.01,0,.02,0c.14-.04,.25-.13,.32-.26l14.51-26.21c.14-.26,.05-.58-.2-.72l-49.76-28.22c-.25-.14-.56-.06-.71,.18l-16.16,25.27c-.08,.12-.1,.27-.07,.42,.04,.14,.13,.26,.26,.34l.48,.27-8.96,13.6c-.08,.12-.11,.27-.07,.42,.04,.14,.13,.27,.26,.34l4.89,2.77c.24,.13,.53,.07,.69-.15l6.65-8.98,1.13,.64-4.91,9.92c-.13,.25-.03,.56,.22,.7l7.94,4.5c.24,.13,.53,.07,.69-.15l6.65-8.98,1.13,.64-4.91,9.92c-.13,.25-.03,.56,.22,.7l9.56,5.42c.24,.13,.53,.07,.69-.15l6.65-8.98,1.13,.64-4.91,9.92c-.13,.25-.03,.56,.22,.7l7.94,4.5c.24,.13,.53,.07,.69-.15l6.65-8.98,1.13,.64-4.91,9.92c-.13,.25-.03,.56,.22,.7l7.09,4.02c.13,.07,.29,.09,.43,.04s.26-.15,.32-.29l6.84-14.97Z"/>
      <polyline class="cls-1" points="73.9 334.92 66.71 350.18 59.62 346.16 64.75 335.79 62.77 334.66 55.84 344.02 47.91 339.52 53.04 329.14 51.06 328.02 44.13 337.38 34.57 331.95 39.71 321.58 37.72 320.45 30.79 329.81 22.86 325.31 27.99 314.94 26.01 313.81 19.08 323.17 14.19 320.39 23.36 306.25"/>
      <polyline class="cls-1" points="82.56 319.6 73.9 334.92 70.31 332.88 75.44 322.5 73.46 321.38 66.53 330.74 58.59 326.24 63.73 315.86 61.75 314.74 54.82 324.09 45.26 318.67 50.39 308.3 48.41 307.17 41.48 316.53 33.55 312.03 38.68 301.65 36.7 300.53 29.77 309.89 22.49 305.76 31.89 290.86"/>
      <path class="cls-19" d="M106.42,278.67c.11-.25,.02-.55-.22-.68l-50.97-29.39h0c-.25-.14-.56-.06-.71,.18l-16.16,25.27c-.08,.12-.1,.27-.07,.42,.04,.14,.13,.26,.26,.34l.96,.54-9.3,14.53c-.08,.12-.1,.27-.07,.42,.04,.14,.13,.26,.26,.34l7.28,4.13c.24,.13,.53,.07,.69-.15l6.65-8.98,1.13,.64-4.91,9.92c-.13,.25-.03,.56,.22,.7l7.94,4.5c.24,.13,.53,.07,.69-.15l6.65-8.98,1.13,.64-4.91,9.92c-.13,.25-.03,.56,.22,.7l9.56,5.42c.24,.13,.53,.07,.69-.15l6.65-8.98,1.13,.64-4.91,9.92c-.13,.25-.03,.56,.22,.7l7.94,4.5c.24,.13,.53,.07,.69-.15l6.65-8.98,1.13,.64-4.91,9.92c-.13,.25-.03,.56,.22,.7l5.23,2.96c.26,.15,.58,.06,.73-.2l8.51-15.01,.77,.44c.13,.07,.29,.09,.43,.04s.26-.15,.32-.29l12.23-27.02Z"/>
      <polyline class="cls-4" points="92.65 304.87 83.69 320.24 78.46 317.28 83.59 306.9 81.61 305.78 74.68 315.13 66.75 310.63 71.88 300.26 69.9 299.13 62.97 308.49 53.41 303.07 58.55 292.69 56.56 291.57 49.63 300.93 41.7 296.43 46.83 286.05 44.85 284.93 37.92 294.28 30.64 290.16 40.11 275.07"/>
      <polyline class="cls-4" points="94.16 304.04 93.7 305.47 86.61 301.45 91.75 291.07 89.77 289.95 82.84 299.3 74.9 294.8 80.04 284.43 78.05 283.3 71.12 292.66 61.57 287.24 66.7 276.86 64.72 275.74 57.79 285.1 49.85 280.6 54.99 270.22 53.01 269.1 46.08 278.46 38.8 274.33 50.38 255.81"/>
    </g>
    <g>
      <path class="cls-23" d="M41.42,359.16s-9.05,15.85-8.92,18.71c.13,2.86-2.64,6.87,27.12,14.89,29.76,8.02,28.95,2.36,29.86,.29,.91-2.07,1.99-19.53,1.99-19.53l-50.05-14.36Z"/>
      <polygon class="cls-7" points="97.83 357.69 44.01 343.18 34.28 371.59 39.71 373.05 44.08 362.26 46.28 362.85 43.9 374.18 52.71 376.56 57.08 365.76 59.28 366.36 56.91 377.69 67.52 380.54 71.89 369.75 74.09 370.34 71.71 381.67 80.52 384.05 84.89 373.26 87.09 373.85 84.71 385.18 92.58 387.3 97.83 357.69"/>
      <path class="cls-21" d="M99.97,354.32h.02c.12-.08,.21-.2,.25-.33l7.5-29c.07-.28-.1-.57-.38-.65l-55.23-14.89c-.27-.07-.56,.08-.65,.35l-9.33,28.51c-.05,.14-.03,.29,.04,.42,.07,.13,.19,.22,.33,.26l.53,.14-5.28,15.41c-.05,.14-.04,.29,.03,.42,.07,.13,.19,.23,.33,.26l5.43,1.46c.26,.07,.53-.06,.63-.32l4.19-10.35,1.26,.34-2.28,10.84c-.06,.28,.11,.55,.38,.63l8.81,2.37c.26,.07,.53-.06,.63-.32l4.19-10.35,1.26,.34-2.28,10.84c-.06,.28,.11,.55,.38,.63l10.61,2.86c.26,.07,.53-.06,.63-.32l4.19-10.35,1.26,.34-2.28,10.84c-.06,.28,.11,.55,.38,.63l8.81,2.37c.26,.07,.53-.06,.63-.32l4.19-10.35,1.26,.34-2.28,10.84c-.06,.28,.11,.55,.38,.63l7.87,2.12c.15,.04,.3,.02,.43-.06s.21-.21,.24-.36l2.88-16.2Z"/>
      <polyline class="cls-1" points="99.72 353.85 96.57 370.43 88.7 368.31 91.08 356.98 88.88 356.38 84.51 367.18 75.7 364.8 78.08 353.47 75.88 352.88 71.51 363.67 60.9 360.81 63.28 349.48 61.08 348.89 56.71 359.68 47.9 357.31 50.28 345.98 48.08 345.39 43.71 356.18 38.28 354.72 43.62 338.73"/>
      <polyline class="cls-1" points="104.28 336.86 99.72 353.85 95.73 352.77 98.11 341.44 95.91 340.85 91.54 351.64 82.73 349.27 85.11 337.94 82.91 337.35 78.54 348.14 67.93 345.28 70.31 333.95 68.1 333.36 63.73 344.15 54.92 341.78 57.3 330.45 55.1 329.85 50.73 340.65 42.65 338.47 48.03 321.7"/>
      <path class="cls-17" d="M117.14,291.26c.05-.27-.12-.53-.38-.61l-56.7-15.71h0c-.27-.07-.56,.08-.65,.35l-9.33,28.51c-.05,.14-.03,.29,.04,.42,.07,.13,.19,.22,.33,.26l1.06,.29-5.37,16.4c-.05,.14-.03,.29,.04,.42,.07,.13,.19,.22,.33,.26l8.08,2.18c.26,.07,.53-.06,.63-.32l4.19-10.36,1.26,.34-2.27,10.84c-.06,.28,.11,.55,.38,.63l8.81,2.37c.26,.07,.53-.06,.63-.32l4.19-10.36,1.26,.34-2.27,10.84c-.06,.28,.11,.55,.38,.63l10.61,2.86c.26,.07,.53-.06,.63-.32l4.19-10.36,1.26,.34-2.27,10.84c-.06,.28,.11,.55,.38,.63l8.81,2.37c.26,.07,.53-.06,.63-.32l4.19-10.36,1.26,.34-2.27,10.84c-.06,.28,.11,.55,.38,.63l5.8,1.56c.29,.08,.58-.09,.65-.38l4.49-16.66,.86,.23c.15,.04,.3,.01,.43-.07s.21-.21,.24-.36l5.09-29.22Z"/>
      <polyline class="cls-4" points="110.36 320.07 105.53 337.19 99.72 335.63 102.1 324.3 99.9 323.71 95.53 334.5 86.72 332.12 89.1 320.79 86.9 320.2 82.53 330.99 71.92 328.13 74.3 316.81 72.1 316.21 67.73 327.01 58.92 324.63 61.3 313.3 59.1 312.71 54.73 323.5 46.65 321.32 52.04 304.35"/>
      <polyline class="cls-4" points="111.62 318.89 111.53 320.38 103.66 318.26 106.04 306.93 103.84 306.34 99.47 317.13 90.66 314.76 93.04 303.43 90.84 302.84 86.47 313.63 75.86 310.77 78.24 299.44 76.04 298.85 71.67 309.64 62.86 307.27 65.24 295.94 63.03 295.34 58.66 306.14 50.59 303.96 57.17 283.14"/>
    </g>
    <g>
      <path class="cls-23" d="M202.94,359.78s1.19,18.21,2.87,20.53c1.68,2.31,1.59,7.19,30.83-2.52s25.46-13.99,25.08-16.22-9.11-17.4-9.11-17.4l-49.67,15.61Z"/>
      <polygon class="cls-8" points="249.2 327.46 196.3 345.02 203.84 374.08 209.18 372.31 206.87 360.9 209.03 360.18 213.3 370.94 221.96 368.07 219.65 356.65 221.81 355.93 226.08 366.7 236.5 363.24 234.2 351.82 236.36 351.1 240.62 361.87 249.28 358.99 246.98 347.58 249.14 346.86 253.4 357.62 261.14 355.06 249.2 327.46"/>
      <path class="cls-18" d="M249.13,323.46h.01c.06-.14,.07-.29,.03-.42l-9.73-28.33c-.1-.28-.4-.43-.67-.33l-54.29,18.03c-.27,.09-.42,.37-.35,.65l7.93,28.93c.04,.14,.13,.26,.26,.33,.13,.07,.28,.08,.42,.04l.52-.17,4.09,15.77c.04,.14,.13,.26,.26,.34,.13,.07,.28,.08,.42,.04l5.34-1.77c.26-.09,.41-.35,.36-.61l-2.21-10.95,1.23-.41,4.07,10.3c.1,.26,.4,.4,.66,.31l8.66-2.88c.26-.09,.41-.35,.36-.61l-2.21-10.95,1.23-.41,4.07,10.3c.1,.26,.4,.4,.66,.31l10.43-3.46c.26-.09,.41-.35,.36-.61l-2.21-10.95,1.23-.41,4.07,10.3c.1,.26,.4,.4,.66,.31l8.66-2.88c.26-.09,.41-.35,.36-.61l-2.21-10.95,1.23-.41,4.07,10.3c.1,.26,.4,.4,.66,.31l7.73-2.57c.14-.05,.26-.15,.32-.29s.06-.29,0-.43l-6.53-15.11Z"/>
      <polyline class="cls-1" points="248.66 323.21 255.17 338.78 247.44 341.35 243.18 330.58 241.01 331.3 243.32 342.71 234.66 345.59 230.4 334.83 228.23 335.54 230.54 346.96 220.11 350.42 215.85 339.66 213.68 340.37 215.99 351.79 207.33 354.66 203.07 343.9 200.9 344.62 203.21 356.03 197.87 357.8 193.52 341.52"/>
      <polyline class="cls-1" points="243.09 306.52 248.66 323.21 244.74 324.51 240.48 313.75 238.31 314.47 240.62 325.88 231.96 328.76 227.7 317.99 225.53 318.71 227.84 330.12 217.41 333.59 213.15 322.82 210.99 323.54 213.29 334.96 204.63 337.83 200.37 327.07 198.21 327.78 200.51 339.2 192.57 341.84 187.81 324.88"/>
      <path class="cls-16" d="M228.69,261.38c-.11-.25-.39-.38-.65-.3l-55.97,18.14h0c-.27,.09-.42,.38-.35,.65l7.93,28.93c.04,.14,.13,.26,.26,.33,.13,.07,.28,.08,.42,.04l1.04-.35,4.56,16.64c.04,.14,.13,.26,.26,.33,.13,.07,.28,.08,.42,.04l7.94-2.64c.26-.09,.41-.35,.36-.61l-2.21-10.95,1.23-.41,4.08,10.3c.1,.26,.4,.4,.66,.31l8.66-2.88c.26-.09,.41-.35,.36-.61l-2.21-10.95,1.23-.41,4.08,10.3c.1,.26,.4,.4,.66,.31l10.43-3.46c.26-.09,.41-.35,.36-.61l-2.21-10.95,1.23-.41,4.08,10.3c.1,.26,.4,.4,.66,.31l8.66-2.88c.26-.09,.41-.35,.36-.61l-2.21-10.95,1.23-.41,4.08,10.3c.1,.26,.4,.4,.66,.31l5.7-1.89c.28-.09,.43-.4,.34-.68l-5.44-16.38,.84-.28c.14-.05,.26-.15,.32-.29s.06-.29,0-.43l-11.86-27.18Z"/>
      <polyline class="cls-4" points="238.92 289.16 244.32 306.11 238.62 308.01 234.36 297.24 232.2 297.96 234.5 309.37 225.84 312.25 221.58 301.49 219.42 302.2 221.72 313.62 211.29 317.08 207.03 306.32 204.87 307.03 207.17 318.45 198.51 321.32 194.25 310.56 192.09 311.28 194.39 322.69 186.45 325.33 181.6 308.19"/>
      <polyline class="cls-4" points="239.31 287.48 240.07 288.78 232.33 291.35 228.07 280.58 225.91 281.3 228.21 292.71 219.55 295.59 215.29 284.83 213.13 285.54 215.43 296.96 205 300.42 200.74 289.66 198.58 290.37 200.88 301.79 192.22 304.66 187.96 293.9 185.8 294.62 188.1 306.03 180.16 308.67 174.18 287.67"/>
    </g>
    <path class="cls-10" d="M288.85,215.23s45.13,94.01,49.85,93.76l-6.87,7.74s-40.13-80.74-42.71-92.26c-2.58-11.52-.27-9.24-.27-9.24Z"/>
    <path class="cls-11" d="M284.49,211.85s40.86,95.95,45.58,95.91l-7.21,7.42s-36.46-82.46-38.53-94.09c-2.06-11.62,.15-9.24,.15-9.24Z"/>
    <path class="cls-12" d="M289.51,224.83s25.51,101.11,30.19,101.81l-8.27,6.21s-23.26-87.11-23.49-98.92c-.24-11.8,1.58-9.11,1.58-9.11Z"/>
    <path class="cls-3" d="M284.67,204.36s49.82,91.61,54.52,91.12l-6.47,8.07s-44.16-78.61-47.32-89.98-.73-9.22-.73-9.22Z"/>
    <path class="cls-2" d="M283.91,216.75s36.22,88.63,39.32,98.64l-7.67,6.94c1.16-13.66-31.08-84.64-32.4-96.37-1.31-11.73,.74-9.21,.74-9.21Z"/>
    <g>
      <path class="cls-23" d="M248.13,376.27s1.19,18.21,2.87,20.53c1.68,2.31,1.59,7.19,30.83-2.52,29.25-9.71,25.46-13.99,25.08-16.22s-9.11-17.4-9.11-17.4l-49.67,15.61Z"/>
      <polygon class="cls-13" points="294.39 343.94 241.49 361.51 249.03 390.57 254.37 388.79 252.06 377.38 254.22 376.66 258.49 387.43 267.15 384.55 264.84 373.14 267 372.42 271.27 383.18 281.69 379.72 279.39 368.3 281.55 367.59 285.81 378.35 294.47 375.48 292.17 364.06 294.33 363.34 298.59 374.11 306.33 371.54 294.39 343.94"/>
      <path class="cls-29" d="M294.32,339.94h.01c.06-.14,.07-.29,.03-.42l-9.73-28.33c-.1-.28-.4-.43-.67-.33l-54.29,18.03c-.27,.09-.42,.37-.35,.65l7.93,28.93c.04,.14,.13,.26,.26,.33,.13,.07,.28,.08,.42,.04l.52-.17,4.09,15.77c.04,.14,.13,.26,.26,.34,.13,.07,.28,.08,.42,.04l5.34-1.77c.26-.09,.41-.35,.36-.61l-2.21-10.95,1.23-.41,4.07,10.3c.1,.26,.4,.4,.66,.31l8.66-2.88c.26-.09,.41-.35,.36-.61l-2.21-10.95,1.23-.41,4.07,10.3c.1,.26,.4,.4,.66,.31l10.43-3.46c.26-.09,.41-.35,.36-.61l-2.21-10.95,1.23-.41,4.07,10.3c.1,.26,.4,.4,.66,.31l8.66-2.88c.26-.09,.41-.35,.36-.61l-2.21-10.95,1.23-.41,4.07,10.3c.1,.26,.4,.4,.66,.31l7.73-2.57c.14-.05,.26-.15,.32-.29s.06-.29,0-.43l-6.53-15.11Z"/>
      <polyline class="cls-1" points="293.85 339.69 300.36 355.26 292.63 357.83 288.37 347.06 286.2 347.78 288.51 359.2 279.85 362.07 275.59 351.31 273.42 352.03 275.73 363.44 265.3 366.9 261.04 356.14 258.87 356.86 261.18 368.27 252.52 371.15 248.26 360.38 246.09 361.1 248.4 372.51 243.06 374.29 238.71 358"/>
      <polyline class="cls-1" points="288.28 323 293.85 339.69 289.93 341 285.67 330.23 283.5 330.95 285.81 342.36 277.15 345.24 272.89 334.48 270.72 335.19 273.03 346.61 262.6 350.07 258.34 339.31 256.18 340.02 258.48 351.44 249.82 354.31 245.56 343.55 243.4 344.27 245.7 355.68 237.76 358.32 233 341.36"/>
      <path class="cls-28" d="M273.88,277.87c-.11-.25-.39-.38-.65-.3l-55.97,18.14h0c-.27,.09-.42,.38-.35,.65l7.93,28.93c.04,.14,.13,.26,.26,.33,.13,.07,.28,.08,.42,.04l1.04-.35,4.56,16.64c.04,.14,.13,.26,.26,.33,.13,.07,.28,.08,.42,.04l7.94-2.64c.26-.09,.41-.35,.36-.61l-2.21-10.95,1.23-.41,4.08,10.3c.1,.26,.4,.4,.66,.31l8.66-2.88c.26-.09,.41-.35,.36-.61l-2.21-10.95,1.23-.41,4.08,10.3c.1,.26,.4,.4,.66,.31l10.43-3.46c.26-.09,.41-.35,.36-.61l-2.21-10.95,1.23-.41,4.08,10.3c.1,.26,.4,.4,.66,.31l8.66-2.88c.26-.09,.41-.35,.36-.61l-2.21-10.95,1.23-.41,4.08,10.3c.1,.26,.4,.4,.66,.31l5.7-1.89c.28-.09,.43-.4,.34-.68l-5.44-16.38,.84-.28c.14-.05,.26-.15,.32-.29s.06-.29,0-.43l-11.86-27.18Z"/>
      <polyline class="cls-4" points="284.11 305.64 289.51 322.6 283.81 324.49 279.55 313.72 277.39 314.44 279.69 325.86 271.03 328.73 266.77 317.97 264.61 318.69 266.91 330.1 256.48 333.56 252.22 322.8 250.06 323.52 252.36 334.93 243.7 337.81 239.44 327.04 237.28 327.76 239.58 339.17 231.64 341.81 226.79 324.68"/>
      <polyline class="cls-4" points="284.5 303.97 285.26 305.26 277.52 307.83 273.26 297.06 271.1 297.78 273.4 309.2 264.74 312.07 260.48 301.31 258.32 302.03 260.62 313.44 250.19 316.9 245.93 306.14 243.77 306.86 246.07 318.27 237.41 321.15 233.15 310.38 230.99 311.1 233.29 322.51 225.35 325.15 219.37 304.15"/>
    </g>
    <path class="cls-41" d="M281.69,269.06c-.27,0-.5-.2-.53-.47l-1.43-11.09h-.27l-1.35,11.09c-.03,.27-.26,.47-.53,.47h-8.23c-.28,0-.52-.22-.53-.5l-.62-11.05h-1.3l-1.35,11.09c-.03,.27-.26,.47-.53,.47h-9.12c-.28,0-.52-.22-.53-.5l-.62-11.05h-1.3l-1.35,11.09c-.03,.27-.26,.47-.53,.47h-10.99c-.28,0-.52-.22-.53-.5l-.62-11.05h-1.3l-1.35,11.09c-.03,.27-.26,.47-.53,.47h-9.12c-.28,0-.52-.22-.53-.5l-.62-11.05h-1.3l-1.35,11.09c-.03,.27-.26,.47-.53,.47h-10.68c-.28,0-.52-.22-.53-.5l-.62-11.05h-1.3l-1.35,11.09c-.03,.27-.26,.47-.53,.47h-9.13c-.28,0-.52-.22-.53-.5l-.62-11.05h-1.3l-1.35,11.09c-.03,.27-.26,.47-.53,.47h-10.99c-.28,0-.52-.22-.53-.5l-.62-11.05h-1.3l-1.35,11.09c-.03,.27-.26,.47-.53,.47h-9.13c-.28,0-.52-.22-.53-.5l-.62-11.05h-1.3l-1.35,11.09c-.03,.27-.26,.47-.53,.47h-10.33c-.28,0-.52-.22-.53-.5l-.62-11.05h-1.3l-1.35,11.09c-.03,.27-.26,.47-.53,.47h-9.12c-.28,0-.52-.22-.53-.5l-.62-11.05h-1.3l-1.35,11.09c-.03,.27-.26,.47-.53,.47h-10.99c-.28,0-.52-.22-.53-.5l-.62-11.05h-1.3l-1.35,11.09c-.03,.27-.26,.47-.53,.47h-9.12c-.28,0-.52-.22-.53-.5l-.62-11.05h-1.3l-1.35,11.09c-.03,.27-.26,.47-.53,.47h-11.03c-.28,0-.52-.22-.53-.5l-.62-11.05h-1.3l-1.35,11.09c-.03,.27-.26,.47-.53,.47h-9.12c-.28,0-.52-.22-.53-.5l-.62-11.05h-1.3l-1.35,11.09c-.03,.27-.26,.47-.53,.47h-10.99c-.28,0-.52-.22-.53-.5l-.62-11.05h-1.3l-1.35,11.09c-.03,.27-.26,.47-.53,.47h-9.12c-.28,0-.52-.22-.53-.5l-.62-11.05h-1.3l-1.35,11.09c-.03,.27-.26,.47-.53,.47h-8.84l1.17,17.29c.02,.28,.25,.5,.53,.5h.58l-2.15,16.99c-.02,.15,.03,.3,.13,.42,.1,.11,.25,.18,.4,.18h11.63c.27,0,.5-.2,.53-.47l1.35-11.09h1.3l.62,11.05c.02,.28,.25,.5,.53,.5h9.12c.27,0,.5-.2,.53-.47l1.35-11.09h1.3l.62,11.05c.02,.28,.25,.5,.53,.5h10.99c.27,0,.5-.2,.53-.47l1.35-11.09h1.3l.62,11.05c.02,.28,.25,.5,.53,.5h9.12c.27,0,.5-.2,.53-.47l1.35-11.09h1.3l.62,11.05c.02,.28,.25,.5,.53,.5h11.03c.27,0,.5-.2,.53-.47l1.35-11.09h1.3l.62,11.05c.02,.28,.25,.5,.53,.5h9.12c.27,0,.5-.2,.53-.47l1.35-11.09h1.3l.62,11.05c.02,.28,.25,.5,.53,.5h10.99c.27,0,.5-.2,.53-.47l1.35-11.09h1.3l.62,11.05c.02,.28,.25,.5,.53,.5h9.12c.27,0,.5-.2,.53-.47l1.35-11.09h1.3l.62,11.05c.02,.28,.25,.5,.53,.5h10.33c.27,0,.5-.2,.53-.47l1.35-11.09h1.3l.62,11.05c.02,.28,.25,.5,.53,.5h9.12c.27,0,.5-.2,.53-.47l1.35-11.09h1.3l.62,11.05c.02,.28,.25,.5,.53,.5h10.99c.27,0,.5-.2,.53-.47l1.35-11.09h1.3l.62,11.05c.02,.28,.25,.5,.53,.5h9.12c.27,0,.5-.2,.53-.47l1.35-11.09h1.3l.62,11.05c.02,.28,.25,.5,.53,.5h10.68c.27,0,.5-.2,.53-.47l1.35-11.09h1.3l.62,11.05c.02,.28,.25,.5,.53,.5h9.12c.27,0,.5-.2,.53-.47l1.35-11.09h1.3l.62,11.05c.02,.28,.25,.5,.53,.5h10.99c.27,0,.5-.2,.53-.47l1.35-11.09h2.26l.62,11.05c.02,.28,.25,.5,.53,.5h9.92c.27,0,.5-.2,.53-.47l1.35-11.09h1.3l.62,11.05c.02,.28,.25,.5,.53,.5l12.07,.07h0c.29,0,.52-.23,.53-.52l.52-17.15h1.23c.14,0,.28-.06,.38-.16,.1-.1,.15-.24,.15-.39l-.52-17.24h-7.24Z"/>
    <polyline class="cls-6" points="287.28 286.32 286.64 303.98 274.56 303.91 273.91 292.35 271.63 292.35 270.22 303.91 260.3 303.91 259.65 292.35 256.41 292.35 255 303.91 244.01 303.91 243.36 292.35 241.08 292.35 239.67 303.91 230.54 303.91 229.89 292.35 227.61 292.35 226.2 303.91 215.52 303.91 214.87 292.35 212.59 292.35 211.18 303.91 202.06 303.91 201.41 292.35 199.13 292.35 197.72 303.91 186.73 303.91 186.07 292.35 183.8 292.35 182.39 303.91 173.26 303.91 172.61 292.35 170.33 292.35 168.92 303.91 158.59 303.91 157.94 292.35 155.66 292.35 154.25 303.91 145.12 303.91 144.47 292.35 142.19 292.35 140.78 303.91 129.79 303.91 129.14 292.35 126.86 292.35 125.45 303.91 116.33 303.91 115.68 292.35 113.4 292.35 111.99 303.91 100.95 303.91 100.3 292.35 98.02 292.35 96.61 303.91 87.49 303.91 86.84 292.35 84.56 292.35 83.15 303.91 72.16 303.91 71.51 292.35 69.23 292.35 67.82 303.91 58.69 303.91 58.04 292.35 55.76 292.35 54.35 303.91 42.72 303.91 44.93 286.32"/>
    <polyline class="cls-6" points="288.59 268.89 288.92 286.32 280.37 286.32 278.88 274.76 277.67 274.76 276.26 286.32 268.03 286.32 267.38 274.76 265.1 274.76 263.69 286.32 254.56 286.32 253.91 274.76 251.63 274.76 250.22 286.32 239.23 286.32 238.58 274.76 236.3 274.76 234.89 286.32 225.77 286.32 225.12 274.76 222.84 274.76 221.43 286.32 210.75 286.32 210.09 274.76 207.82 274.76 206.41 286.32 197.28 286.32 196.63 274.76 194.35 274.76 192.94 286.32 181.95 286.32 181.3 274.76 179.02 274.76 177.61 286.32 168.48 286.32 167.83 274.76 165.55 274.76 164.14 286.32 153.81 286.32 153.16 274.76 150.88 274.76 149.47 286.32 140.35 286.32 139.7 274.76 137.42 274.76 136.01 286.32 125.02 286.32 124.36 274.76 122.09 274.76 120.67 286.32 111.55 286.32 110.9 274.76 108.62 274.76 107.21 286.32 96.18 286.32 95.53 274.76 93.25 274.76 91.84 286.32 82.71 286.32 82.06 274.76 79.78 274.76 78.37 286.32 67.38 286.32 66.73 274.76 64.45 274.76 63.04 286.32 53.91 286.32 53.26 274.76 50.98 274.76 49.57 286.32 43.76 286.32 42.06 269.06"/>
    <path class="cls-42" d="M289.45,220.1c-.02-.28-.26-.49-.53-.49H44.37c-.27,0-.5,.2-.53,.47l-3.73,29.96c-.02,.15,.03,.3,.13,.42s.25,.18,.4,.18h.8l-1.54,17.35h10.52l1.35-11.09c.03-.27,.26-.47,.53-.47h2.28c.28,0,.52,.22,.53,.5l.62,11.05h8.15l1.35-11.09c.03-.27,.26-.47,.53-.47h2.28c.28,0,.52,.22,.53,.5l.62,11.05h10.01l1.35-11.09c.03-.27,.26-.47,.53-.47h2.28c.28,0,.52,.22,.53,.5l.62,11.05h8.15l1.35-11.09c.03-.27,.26-.47,.53-.47h2.28c.28,0,.52,.22,.53,.5l.62,11.05h10.05l1.35-11.09c.03-.27,.26-.47,.53-.47h2.28c.28,0,.52,.22,.53,.5l.62,11.05h8.15l1.35-11.09c.03-.27,.26-.47,.53-.47h2.28c.28,0,.52,.22,.53,.5l.62,11.05h10.01l1.35-11.09c.03-.27,.26-.47,.53-.47h2.28c.28,0,.52,.22,.53,.5l.62,11.05h8.15l1.35-11.09c.03-.27,.26-.47,.53-.47h2.28c.28,0,.52,.22,.53,.5l.62,11.05h9.35l1.35-11.09c.03-.27,.26-.47,.53-.47h2.28c.28,0,.52,.22,.53,.5l.62,11.05h8.15l1.35-11.09c.03-.27,.26-.47,.53-.47h2.28c.28,0,.52,.22,.53,.5l.62,11.05h10.01l1.35-11.09c.03-.27,.26-.47,.53-.47h2.28c.28,0,.52,.22,.53,.5l.62,11.05h8.15l1.35-11.09c.03-.27,.26-.47,.53-.47h2.28c.28,0,.52,.22,.53,.5l.62,11.05h9.7l1.35-11.09c.03-.27,.26-.47,.53-.47h2.28c.28,0,.52,.22,.53,.5l.62,11.05h8.15l1.35-11.09c.03-.27,.26-.47,.53-.47h2.28c.28,0,.52,.22,.53,.5l.62,11.05h10.01l1.35-11.09c.03-.27,.26-.47,.53-.47h2.28c.28,0,.52,.22,.53,.5l.62,11.05h8.15l1.35-11.09c.03-.27,.26-.47,.53-.47h2.28c.28,0,.52,.22,.53,.5l.62,11.05h7.25l1.35-11.09c.03-.27,.26-.47,.53-.47h1.21c.27,0,.5,.2,.53,.47l1.43,11.09h8.08v1.07c.15,0,.28-.06,.38-.16,.1-.1,.16-.24,.15-.39l-.54-17.87h1.33c.15,0,.29-.06,.39-.17s.15-.26,.14-.41l-2.64-29.96Z"/>
    <polyline class="cls-5" points="289.9 250.1 290.24 268.52 281.69 268.52 280.2 256.97 278.99 256.97 277.58 268.52 269.35 268.52 268.7 256.97 266.42 256.97 265.01 268.52 255.88 268.52 255.23 256.97 252.95 256.97 251.54 268.52 240.55 268.52 239.9 256.97 237.62 256.97 236.21 268.52 227.09 268.52 226.43 256.97 224.16 256.97 222.74 268.52 212.06 268.52 211.41 256.97 209.13 256.97 207.72 268.52 198.6 268.52 197.95 256.97 195.67 256.97 194.26 268.52 183.27 268.52 182.62 256.97 180.34 256.97 178.93 268.52 169.8 268.52 169.15 256.97 166.87 256.97 165.46 268.52 155.13 268.52 154.48 256.97 152.2 256.97 150.79 268.52 141.66 268.52 141.01 256.97 138.73 256.97 137.32 268.52 126.33 268.52 125.68 256.97 123.4 256.97 121.99 268.52 112.87 268.52 112.22 256.97 109.94 256.97 108.53 268.52 97.5 268.52 96.84 256.97 94.57 256.97 93.15 268.52 84.03 268.52 83.38 256.97 81.1 256.97 79.69 268.52 68.7 268.52 68.05 256.97 65.77 256.97 64.36 268.52 55.23 268.52 54.58 256.97 52.3 256.97 50.89 268.52 39.58 268.52 41.44 250.64"/>
    <path class="cls-40" d="M288.83,215.98c0-.07-.03-.13-.06-.19l-.17-.31h.32c.18,0,.34-.09,.44-.23,.1-.14,.12-.33,.06-.49,0,0-4.38-8.98-6.99-15.87h-6.61c-.28,0-.52-.22-.53-.5l-.33-5.93-2.2-.12-.75,6.08c-.03,.27-.26,.47-.53,.47h-9.12c-.28,0-.52-.22-.53-.5l-.62-11.05h-1.3l-1.35,11.09c-.03,.27-.26,.47-.53,.47h-10.99c-.28,0-.52-.22-.53-.5l-.62-11.05h-1.3l-1.35,11.09c-.03,.27-.26,.47-.53,.47h-9.12c-.28,0-.52-.22-.53-.5l-.62-11.05h-1.3l-1.35,11.09c-.03,.27-.26,.47-.53,.47h-10.68c-.28,0-.52-.22-.53-.5l-.62-11.05h-1.3l-1.35,11.09c-.03,.27-.26,.47-.53,.47h-9.13c-.28,0-.52-.22-.53-.5l-.62-11.05h-1.3l-1.35,11.09c-.03,.27-.26,.47-.53,.47h-10.99c-.28,0-.52-.22-.53-.5l-.62-11.05h-1.3l-1.35,11.09c-.03,.27-.26,.47-.53,.47h-9.13c-.28,0-.52-.22-.53-.5l-.62-11.05h-1.3l-1.35,11.09c-.03,.27-.26,.47-.53,.47h-10.33c-.28,0-.52-.22-.53-.5l-.62-11.05h-1.3l-1.35,11.09c-.03,.27-.26,.47-.53,.47h-9.12c-.28,0-.52-.22-.53-.5l-.62-11.05h-1.3l-1.35,11.09c-.03,.27-.26,.47-.53,.47h-10.99c-.28,0-.52-.22-.53-.5l-.62-11.05h-1.3l-1.35,11.09c-.03,.27-.26,.47-.53,.47h-9.12c-.28,0-.52-.22-.53-.5l-.62-11.05h-1.3l-1.35,11.09c-.03,.27-.26,.47-.53,.47h-11.03c-.28,0-.52-.22-.53-.5l-.62-11.05h-1.3l-1.35,11.09c-.03,.27-.26,.47-.53,.47h-9.12c-.28,0-.52-.22-.53-.5l-.62-11.05h-1.3l-1.35,11.09c-.03,.27-.26,.47-.53,.47h-10.99c-.28,0-.52-.22-.53-.5l-.62-11.05h-1.3l-1.35,11.09c-.03,.27-.26,.47-.53,.47h-9.12c-.28,0-.52-.22-.53-.5l-.62-11.05h-1.3l-1.35,11.09c-.03,.27-.26,.47-.53,.47h-10.55l-4.03,15.42c-.04,.16,0,.32,.09,.45,.09,.13,.24,.21,.4,.22l1.13,.06-4.28,16.64c-.04,.15,0,.32,.09,.45s.24,.21,.4,.22l10.25,.64s.02,0,.03,0c.27,0,.5-.2,.53-.47l1.35-11.09h1.3l.62,11.05c.02,.28,.25,.5,.53,.5h9.12c.27,0,.5-.2,.53-.47l1.35-11.09h1.3l.62,11.05c.02,.28,.25,.5,.53,.5h10.99c.27,0,.5-.2,.53-.47l1.35-11.09h1.3l.62,11.05c.02,.28,.25,.5,.53,.5h9.12c.27,0,.5-.2,.53-.47l1.35-11.09h1.3l.62,11.05c.02,.28,.25,.5,.53,.5h11.03c.27,0,.5-.2,.53-.47l1.35-11.09h1.3l.62,11.05c.02,.28,.25,.5,.53,.5h9.12c.27,0,.5-.2,.53-.47l1.35-11.09h1.3l.62,11.05c.02,.28,.25,.5,.53,.5h10.99c.27,0,.5-.2,.53-.47l1.35-11.09h1.3l.62,11.05c.02,.28,.25,.5,.53,.5h9.12c.27,0,.5-.2,.53-.47l1.35-11.09h1.3l.62,11.05c.02,.28,.25,.5,.53,.5h10.33c.27,0,.5-.2,.53-.47l1.35-11.09h1.3l.62,11.05c.02,.28,.25,.5,.53,.5h9.13c.27,0,.5-.2,.53-.47l1.35-11.09h1.3l.62,11.05c.02,.28,.25,.5,.53,.5h10.99c.27,0,.5-.2,.53-.47l1.35-11.09h1.3l.62,11.05c.02,.28,.25,.5,.53,.5h9.13c.27,0,.5-.2,.53-.47l1.35-11.09h1.3l.62,11.05c.02,.28,.25,.5,.53,.5h10.68c.27,0,.5-.2,.53-.47l1.35-11.09h1.3l.62,11.05c.02,.28,.25,.5,.53,.5h9.12c.27,0,.5-.2,.53-.47l1.35-11.09h1.3l.62,11.05c.02,.28,.25,.5,.53,.5h10.99c.27,0,.5-.2,.53-.47l1.35-11.09h1.3l.62,11.05c.02,.28,.25,.5,.53,.5h9.12c.27,0,.5-.2,.53-.47l1.35-11.09h1.3l.62,11.05c.02,.28,.25,.5,.53,.5h8.23c.27,0,.5-.2,.53-.47l1.35-11.09h.27l1.43,11.09c.03,.27,.26,.47,.53,.47h8.55c.15,0,.3-.07,.4-.18s.15-.27,.13-.42l-1.94-16.4Z"/>
    <polyline class="cls-1" points="290.24 232.44 291.56 250.1 283.01 250.1 281.52 238.54 280.31 238.54 278.9 250.1 270.67 250.1 270.02 238.54 267.74 238.54 266.33 250.1 257.2 250.1 256.55 238.54 254.27 238.54 252.86 250.1 241.87 250.1 241.22 238.54 238.94 238.54 237.53 250.1 228.41 250.1 227.76 238.54 225.48 238.54 224.07 250.1 213.39 250.1 212.73 238.54 210.46 238.54 209.04 250.1 199.92 250.1 199.27 238.54 196.99 238.54 195.58 250.1 184.59 250.1 183.94 238.54 181.66 238.54 180.25 250.1 171.12 250.1 170.47 238.54 168.19 238.54 166.78 250.1 156.45 250.1 155.8 238.54 153.52 238.54 152.11 250.1 142.99 250.1 142.34 238.54 140.06 238.54 138.65 250.1 127.66 250.1 127 238.54 124.73 238.54 123.31 250.1 114.19 250.1 113.54 238.54 111.26 238.54 109.85 250.1 98.82 250.1 98.17 238.54 95.89 238.54 94.48 250.1 85.35 250.1 84.7 238.54 82.42 238.54 81.01 250.1 70.02 250.1 69.37 238.54 67.09 238.54 65.68 250.1 56.55 250.1 55.9 238.54 53.62 238.54 52.21 250.1 40.64 250.1 42.85 231.94"/>
    <polyline class="cls-4" points="288.6 215.47 290.24 232.44 281.69 232.44 280.2 220.88 278.99 220.88 277.58 232.44 269.35 232.44 268.7 220.88 266.42 220.88 265.01 232.44 255.88 232.44 255.23 220.88 252.95 220.88 251.54 232.44 240.55 232.44 239.9 220.88 237.62 220.88 236.21 232.44 227.09 232.44 226.43 220.88 224.16 220.88 222.74 232.44 212.06 232.44 211.41 220.88 209.13 220.88 207.72 232.44 198.6 232.44 197.95 220.88 195.67 220.88 194.26 232.44 183.27 232.44 182.62 220.88 180.34 220.88 178.93 232.44 169.8 232.44 169.15 220.88 166.87 220.88 165.46 232.44 155.13 232.44 154.48 220.88 152.2 220.88 150.79 232.44 141.66 232.44 141.01 220.88 138.73 220.88 137.32 232.44 126.33 232.44 125.68 220.88 123.4 220.88 121.99 232.44 112.87 232.44 112.22 220.88 109.94 220.88 108.53 232.44 97.5 232.44 96.84 220.88 94.57 220.88 93.15 232.44 84.03 232.44 83.38 220.88 81.1 220.88 79.69 232.44 68.7 232.44 68.05 220.88 65.77 220.88 64.36 232.44 55.23 232.44 54.58 220.88 52.3 220.88 50.89 232.44 40.64 231.8 44.4 215.03"/>
    <polyline class="cls-4" points="281.9 198.35 288.92 214.94 281.69 214.94 280.2 203.38 278.99 203.38 277.58 214.94 269.35 214.94 268.7 203.38 266.42 203.38 265.01 214.94 255.88 214.94 255.23 203.38 252.95 203.38 251.54 214.94 240.55 214.94 239.9 203.38 237.62 203.38 236.21 214.94 227.09 214.94 226.44 203.38 224.16 203.38 222.74 214.94 212.06 214.94 211.41 203.38 209.13 203.38 207.72 214.94 198.6 214.94 197.95 203.38 195.67 203.38 194.26 214.94 183.27 214.94 182.62 203.38 180.34 203.38 178.93 214.94 169.8 214.94 169.15 203.38 166.87 203.38 165.46 214.94 155.13 214.94 154.48 203.38 152.2 203.38 150.79 214.94 141.66 214.94 141.01 203.38 138.73 203.38 137.32 214.94 126.33 214.94 125.68 203.38 123.4 203.38 121.99 214.94 112.87 214.94 112.22 203.38 109.94 203.38 108.53 214.94 97.5 214.94 96.84 203.38 94.57 203.38 93.15 214.94 84.03 214.94 83.38 203.38 81.1 203.38 79.69 214.94 68.7 214.94 68.05 203.38 65.77 203.38 64.36 214.94 57.37 214.94 56.72 203.38 54.44 203.38 53.03 214.94 43.3 214.44 47.53 198.49"/>
    <path class="cls-38" d="M46.95,184.73l-1.69,13.56s0,.02,0,.03c.02-.28,.24-.5,.53-.5h11.1l1.35-11.09c.03-.27,.26-.47,.53-.47h2.28c.28,0,.52,.22,.53,.5l.62,11.05h8.15l1.35-11.09c.03-.27,.26-.47,.53-.47h2.28c.28,0,.52,.22,.53,.5l.62,11.05h10.01l1.35-11.09c.03-.27,.26-.47,.53-.47h2.28c.28,0,.52,.22,.53,.5l.62,11.05h8.15l1.35-11.09c.03-.27,.26-.47,.53-.47h2.28c.28,0,.52,.22,.53,.5l.62,11.05h10.05l1.35-11.09c.03-.27,.26-.47,.53-.47h2.28c.28,0,.52,.22,.53,.5l.62,11.05h8.15l1.35-11.09c.03-.27,.26-.47,.53-.47h2.28c.28,0,.52,.22,.53,.5l.62,11.05h10.01l1.35-11.09c.03-.27,.26-.47,.53-.47h2.28c.28,0,.52,.22,.53,.5l.62,11.05h8.15l1.35-11.09c.03-.27,.26-.47,.53-.47h2.28c.28,0,.52,.22,.53,.5l.62,11.05h9.35l1.35-11.09c.03-.27,.26-.47,.53-.47h2.28c.28,0,.52,.22,.53,.5l.62,11.05h8.15l1.35-11.09c.03-.27,.26-.47,.53-.47h2.28c.28,0,.52,.22,.53,.5l.62,11.05h10.01l1.35-11.09c.03-.27,.26-.47,.53-.47h2.28c.28,0,.52,.22,.53,.5l.62,11.05h8.15l1.35-11.09c.03-.27,.26-.47,.53-.47h2.28c.28,0,.52,.22,.53,.5l.62,11.05h9.7l1.35-11.09c.03-.27,.26-.47,.53-.47h2.28c.28,0,.52,.22,.53,.5l.62,11.05h8.15l1.35-11.09c.03-.27,.26-.47,.53-.47h2.28c.28,0,.52,.22,.53,.5l.62,11.05h10.01l1.35-11.09c.03-.27,.26-.47,.53-.47h2.28c.28,0,.52,.22,.53,.5l.62,11.05h8.15l.75-6.11c.03-.28,.24-.49,.56-.47l3.17,.17c.27,.01,.49,.23,.5,.5l.33,5.9h6.73c.21,0,.38,.12,.47,.29,0,0,0-.02,0-.02-2.05-3.54-4.59-7.58-7.96-10.66-.9-.71-2.36-1.76-3.92-2.7l-2.04-1.11c-.59-.28-1.16-.53-1.7-.7-4.35-1.38-9.02-1.21-13.54-1.04-1.14,.04-2.28,.08-3.4,.1l-1.69,.03c-50.74,.75-81.81,.94-85.25,.52-3.1-.37-5.89-1.39-8.33-3l.54-.04c.17-.01,.32-.1,.41-.25s.11-.32,.04-.48c-4.2-10.62-10.44-27.13-10.42-29.09,0-.14-.05-.28-.15-.38s-.24-.16-.38-.16H49.1c-.28,0-.51,.21-.53,.49l-2.24,29.32c-.01,.14,.04,.28,.13,.39,.09,.11,.22,.17,.37,.18l.77,.05-.5,4.05-.14,1.11Z"/>
    <path class="cls-6" d="M47.9,179.06l-2.1,19.3h11.57l1.41-11.56h2.28l.65,11.56h9.12l1.41-11.56h2.28l.65,11.56h10.99l1.41-11.56h2.28l.65,11.56h9.12l1.41-11.56h2.28l.65,11.56h11.03l1.41-11.56h2.28l.65,11.56h9.12l1.41-11.56h2.28l.65,11.56h10.99l1.41-11.56h2.28l.65,11.56h9.12l1.41-11.56h2.28l.65,11.56h10.33l1.41-11.56h2.28l.65,11.56h9.13l1.41-11.56h2.28l.65,11.56h10.99l1.41-11.56h2.28l.65,11.56h9.13l1.41-11.56h2.28l.65,11.56h10.68l1.41-11.56h2.28l.65,11.56h9.12l1.41-11.56h2.28l.65,11.56h10.99l1.41-11.56h2.28l.65,11.56h9.12l.81-6.58,3.17,.17,.36,6.4h7.24s-3.56-9.45-9.74-12.55c-6.18-3.1-10.38-3.83-16.12-4.01-7.94-.24-50.27,.76-50.27,.76,0,0-39.67,1.07-45.19-.42-5.52-1.49-6.9-3.07-6.9-3.07"/>
    <path class="cls-39" d="M283.53,198.6s-.02,.04-.04,.05c0-.01,.02-.02,.03-.03,0,0,0-.02,0-.02Z"/>
    <path class="cls-37" d="M283.36,198.79s-.04,.03-.06,.04c.02-.01,.04-.02,.06-.04Z"/>
    <path class="cls-26" d="M283.59,198.35h0Z"/>
    <path class="cls-35" d="M45.28,198.44s0,.06,.02,.09c-.01-.03-.01-.06-.02-.09Z"/>
    <path class="cls-24" d="M45.41,198.72s-.03-.04-.05-.07c.01,.02,.02,.04,.03,.06h.01Z"/>
    <path class="cls-25" d="M45.53,198.81s.03,.02,.05,.03c-.02,0-.03-.02-.05-.03Z"/>
    <polyline class="cls-6" points="47.96 162.12 46.86 178.98 56.04 179.62 57.45 168.06 59.73 168.06 60.39 179.62 69.51 179.62 70.92 168.06 73.2 168.06 73.85 179.62 84.84 179.62 86.25 168.06 88.53 168.06 89.18 179.62 98.31 179.62 99.72 168.06 102 168.06 102.65 179.62 113.68 179.62 115.09 168.06 117.37 168.06 118.02 179.62 127.14 179.62 128.56 168.06 130.83 168.06 131.49 179.62 142.48 179.62 143.89 168.06 146.17 168.06 146.82 179.62 156.19 178.96 149.54 161.62"/>
    <path class="cls-36" d="M143.6,128.13c-.27,0-.49-.19-.53-.46l-1.65-11.1h-.28l-1.35,11.09c-.03,.27-.26,.47-.53,.47h-8.19c-.28,0-.52-.22-.53-.5l-.62-11.05h-1.3l-1.35,11.09c-.03,.27-.26,.47-.53,.47h-9.12c-.28,0-.52-.22-.53-.5l-.62-11.05h-1.3l-1.35,11.09c-.03,.27-.26,.47-.53,.47h-10.99c-.28,0-.52-.22-.53-.5l-.62-11.05h-1.3l-1.35,11.09c-.03,.27-.26,.47-.53,.47h-9.12c-.28,0-.52-.22-.53-.5l-.62-11.05h-1.3l-1.35,11.09c-.03,.27-.26,.47-.53,.47h-11.03c-.28,0-.52-.22-.53-.5l-.62-11.05h-1.3l-1.35,11.09c-.03,.27-.26,.47-.53,.47h-9.12c-.28,0-.52-.22-.53-.5l-.62-11.05h-1.3l-1.35,11.09c-.03,.27-.26,.47-.53,.47h-10.99c-.28,0-.52-.22-.53-.5l-.62-11.05h-1.3l-1.35,11.09c-.03,.27-.26,.47-.53,.47h-9.12c-.28,0-.52-.22-.53-.5l-.62-11.05h-1.3l-1.35,11.09c-.03,.27-.26,.47-.53,.47-.01,0-.02,0-.03,0l-6.48-.4c.48,6.01,2.4,17.09,2.5,17.63,.04,.26,.27,.44,.53,.44h6.28l-.25,1.12c-.06,.27,.09,.53,.35,.62,2.61,.89,13.61,3.44,14.07,3.55,.04,0,.08,.01,.12,.01h1.77l.62,11.05c.02,.28,.25,.5,.53,.5h6.99c.27,0,.5-.2,.53-.47l1.35-11.09h1.3l.62,11.05c.02,.28,.25,.5,.53,.5h10.99c.27,0,.5-.2,.53-.47l1.35-11.09h1.3l.62,11.05c.02,.28,.25,.5,.53,.5h9.12c.27,0,.5-.2,.53-.47l1.35-11.09h1.3l.62,11.05c.02,.28,.25,.5,.53,.5h11.03c.27,0,.5-.2,.53-.47l1.35-11.09h1.3l.62,11.05c.02,.28,.25,.5,.53,.5h9.12c.27,0,.5-.2,.53-.47l1.35-11.09h1.3l.62,11.05c.02,.28,.25,.5,.53,.5h10.99c.27,0,.5-.2,.53-.47l1.35-11.09h1.3l.62,11.05c.02,.28,.25,.5,.53,.5h9.12c.27,0,.5-.2,.53-.47l1.35-11.09h1.3l.62,11.05c.02,.28,.25,.5,.53,.5h4.94c.15,0,.29-.06,.39-.17,.1-.11,.15-.25,.14-.4-.14-2.17-.38-9.4-.6-16.29h.84c.15,0,.29-.06,.39-.17,.1-.11,.15-.26,.14-.41l-1.45-17.09h-5.8Z"/>
    <path class="cls-34" d="M148.36,110.63h2.23c.16,0,.32-.08,.42-.21s.14-.3,.09-.46l-7.77-30.17c-.06-.24-.27-.4-.52-.4h0l-57.53,.11c-.14,0-.28,.06-.38,.16-2.76,2.83-19.04,10.44-23.84,11.49-5.18,1.14-10.75,2.63-17.02,4.58-1.63,.51-3.29,.88-4.89,1.24-2.16,.49-4.4,.99-6.6,1.83-.22,.08-.36,.3-.34,.53l.06,1.14c-.36,.15-.72,.31-1.08,.48,0-.16-.06-.32-.19-.42-.15-.11-.35-.14-.52-.07l-1.47,.58h0c-2.84,1.14-9.71,8.23-9.63,8.43,.08,.2,.26,.33,.47,.34l.74,.04c-.08,.15-.17,.29-.25,.44-4.24,8.26-4.29,16.35-4.29,16.69,0,.28,.22,.52,.5,.53l.07-1.07,9.75,.61,1.35-11.06c.03-.27,.26-.47,.53-.47h2.28c.28,0,.52,.22,.53,.5l.62,11.05h8.15l1.35-11.09c.03-.27,.26-.47,.53-.47h2.28c.28,0,.52,.22,.53,.5l.62,11.05h10.01l1.35-11.09c.03-.27,.26-.47,.53-.47h2.28c.28,0,.52,.22,.53,.5l.62,11.05h8.15l1.35-11.09c.03-.27,.26-.47,.53-.47h2.28c.28,0,.52,.22,.53,.5l.62,11.05h10.05l1.35-11.09c.03-.27,.26-.47,.53-.47h2.28c.28,0,.52,.22,.53,.5l.62,11.05h8.15l1.35-11.09c.03-.27,.26-.47,.53-.47h2.28c.28,0,.52,.22,.53,.5l.62,11.05h10.01l1.35-11.09c.03-.27,.26-.47,.53-.47h2.28c.28,0,.52,.22,.53,.5l.62,11.05h8.15l1.35-11.09c.03-.27,.26-.47,.53-.47h2.28c.28,0,.52,.22,.53,.5l.62,11.05h7.22l1.35-11.09c.03-.27,.26-.47,.53-.47h1.21c.27,0,.49,.19,.53,.46l1.65,11.1h6.82v1.07c.16,0,.3-.07,.4-.19,.1-.12,.15-.27,.12-.43-.66-4.48-1.9-11.04-3.05-16.89Z"/>
    <polyline class="cls-1" points="149.15 145.26 149.54 162.12 144.6 162.12 143.95 150.56 141.67 150.56 140.26 162.12 131.13 162.12 130.48 150.56 128.2 150.56 126.79 162.12 115.8 162.12 115.15 150.56 112.87 150.56 111.46 162.12 102.34 162.12 101.69 150.56 99.41 150.56 98 162.12 86.96 162.12 86.31 150.56 84.03 150.56 82.62 162.12 73.5 162.12 72.85 150.56 70.57 150.56 69.16 162.12 58.17 162.12 57.52 150.56 55.24 150.56 53.83 162.12 46.84 162.12 46.19 150.56 43.91 150.56 29.37 146.91 29.73 145.26"/>
    <polyline class="cls-1" points="149.04 127.6 150.31 145.26 138.65 145.26 138 133.7 134.97 133.7 133.56 145.26 123.23 145.26 122.58 133.7 120.3 133.7 118.89 145.26 109.76 145.26 109.11 133.7 106.83 133.7 105.42 145.26 94.43 145.26 93.78 133.7 91.5 133.7 90.09 145.26 80.97 145.26 80.32 133.7 78.04 133.7 76.63 145.26 65.6 145.26 64.94 133.7 62.67 133.7 61.25 145.26 52.13 145.26 51.48 133.7 49.2 133.7 47.79 145.26 36.8 145.26 36.15 133.7 33.87 133.7 32.46 145.26 23.33 145.26 20.31 127.19"/>
    <path class="cls-4" d="M146.02,92.46l4.56,17.63h-5.92l-2.79-11.56h-2.28l.73,11.56h-9.26l-.65-11.56h-2.28l-1.41,11.56h-9.12l-.65-11.56h-2.28l-1.41,11.56h-10.99l-.65-11.56h-2.28l-1.41,11.56h-9.12l-.65-11.56h-2.28l-1.41,11.56h-11.03l-.65-11.56h-2.28l-1.41,11.56h-9.12l-.65-11.56h-2.28l-1.41,11.56h-10.99l-.65-11.56h-2.28l-1.41,11.56h-6.99l-.56-10.8s15.84-5.52,23.59-6.83,25.41-10.18,25.41-10.18"/>
    <path class="cls-4" d="M30.67,101.3c.7-.36,1.41-.7,2.13-1.03"/>
    <path class="cls-4" d="M147.85,110.1l3.02,17.5h-7.28l-1.72-11.56h-1.21l-1.41,11.56h-8.19l-.65-11.56h-2.28l-1.41,11.56h-9.12l-.65-11.56h-2.28l-1.41,11.56h-10.99l-.65-11.56h-2.28l-1.41,11.56h-9.12l-.65-11.56h-2.28l-1.41,11.56h-11.03l-.65-11.56h-2.28l-1.41,11.56h-9.12l-.65-11.56h-2.28l-1.41,11.56h-10.99l-.65-11.56h-2.28l-1.41,11.56h-9.12l-.65-11.56h-2.28l-1.41,11.56-10.25-.64s-.07-2.32,1.06-8.67c.64-3.59,1.88-6.53,3.54-8.97"/>
    <path class="cls-4" d="M30.67,100.94l-1.08,8.82-9.73-.5s5.72-7.13,10.81-8.32Z"/>
    <path class="cls-32" d="M140.52,57.15s-.03,.05-.05,.07c0,0,.02-.01,.02-.02,.01-.02,.01-.03,.02-.05Z"/>
    <path class="cls-33" d="M140.6,56.94s0,.06-.02,.09c0-.03,.01-.06,.02-.09Z"/>
    <path class="cls-30" d="M140.3,57.36s.04-.03,.06-.04c-.02,.01-.03,.03-.06,.04Z"/>
    <path class="cls-31" d="M94.41,56.64c.09-.18,.27-.3,.48-.3h7.39l1.35-11.09c.03-.27,.26-.47,.53-.47h2.28c.28,0,.52,.22,.53,.5l.62,11.05h8.15l1.35-11.09c.03-.27,.26-.47,.53-.47h2.28c.28,0,.52,.22,.53,.5l.62,11.05h8.19l-.69-10.99c0-.15,.04-.29,.14-.4,.1-.11,.24-.17,.39-.17h2.28c.25,0,.46,.17,.52,.41l2.69,11.15h5.5c.27,0,.48,.2,.52,.46,0-.02,0-.04,0-.06l-4.52-17.55h1.86c.17,0,.33-.08,.43-.22,.1-.14,.13-.32,.08-.48l-10.41-31.97c-.04-.14-.14-.25-.28-.32-.28-.14-6.88-3.27-9.93,.82-1.53,2.04-5.87,6.63-9.7,10.67-3.7,3.91-6,6.34-6.47,7.09-1.39,2.23-2.46,4.69-3.26,7.53-.01,.04-.02,.08-.02,.12l-.33,6.19c0,.15,.04,.29,.15,.4,.1,.11,.24,.17,.39,.17h.64c-1.46,7.16-3.05,14.14-4.81,17.43,0,0,0,.01,0,.02Z"/>
    <path class="cls-44" d="M94.45,57.18s-.03-.04-.04-.06c0,0,0,.02,0,.03,0,.01,.02,.02,.03,.03Z"/>
    <path class="cls-45" d="M148.37,92.32l-4.96-17.84,.94-.06c.17-.01,.32-.1,.41-.24,.09-.14,.11-.31,.06-.47l-5.51-16.3h-5.16c-.25,0-.46-.17-.52-.41l-2.69-11.15h-1.29l.69,10.99c0,.15-.04,.29-.14,.4-.1,.11-.24,.17-.39,.17h-9.26c-.28,0-.52-.22-.53-.5l-.62-11.05h-1.3l-1.35,11.09c-.03,.27-.26,.47-.53,.47h-9.12c-.28,0-.52-.22-.53-.5l-.62-11.05h-1.3l-1.35,11.09c-.03,.27-.26,.47-.53,.47h-6.55c-3.59,8.69-8.58,16.81-8.63,16.9-.1,.16-.11,.37-.01,.54,.03,.05,.06,.09,.09,.12-.73,.66-1.46,1.32-2.2,1.98-1.77,1.58-3.59,3.21-5.35,4.98-.06,.06-.11,.14-.13,.22l-3.04,9.78c-.05,.16-.02,.33,.08,.47,.1,.14,.25,.22,.42,.22l11.38,.34c.23,.01,.48-.17,.54-.41l2.58-11.11h1.35l.62,11.05c.02,.28,.25,.5,.53,.5h10.99c.27,0,.5-.2,.53-.47l1.35-11.09h1.3l.62,11.05c.02,.28,.25,.5,.53,.5h9.12c.27,0,.5-.2,.53-.47l1.35-11.09h1.3l.62,11.05c.02,.28,.25,.5,.53,.5h10.33c.15,0,.29-.06,.39-.17,.1-.11,.15-.25,.14-.4l-.69-10.99h2.04l2.69,11.15c.06,.24,.27,.41,.52,.41h9.21c.17,0,.32-.08,.43-.21,.1-.13,.13-.31,.09-.47Z"/>
    <path class="cls-27" d="M94.35,56.88s0,.02,0,.03c0-.01,0-.02,0-.03Z"/>
    <path class="cls-43" d="M94.59,57.31s.03,.03,.06,.04c-.02-.01-.04-.02-.06-.04Z"/>
    <polyline class="cls-6" points="96.19 57.41 88.02 74.59 100.63 74.59 102.04 63.03 104.32 63.03 104.97 74.59 114.1 74.59 115.51 63.03 117.79 63.03 118.44 74.59 129.43 74.59 130.84 63.03 133.12 63.03 135.33 74.48 144.32 73.89 138.88 57.12"/>
    <path class="cls-1" d="M135.37,38.66l4.7,18.22h-5.92l-2.79-11.56h-2.28l.73,11.56h-9.26l-.65-11.56h-2.28l-1.41,11.56h-9.12l-.65-11.56h-2.28l-1.41,11.56h-7.87s4.22-14.48,4.4-18.22"/>
    <path class="cls-1" d="M98.58,38.66h10.39l1.41-11.56h2.28l.65,11.56h10.33l-.73-11.56h3.03l2.79,11.56h9.2l-9.9-32.13s-5.65-3.4-9.57,0-14.89,15.99-16.8,18.27-3.28,7.65-3.28,7.65l.21,6.22Z"/>
    <g>
      <circle class="cls-15" cx="76.78" cy="109.76" r="12.93"/>
      <circle class="cls-22" cx="76.78" cy="112.72" r="9.43"/>
    </g>
    <polyline class="cls-6" points="88.02 74.59 80.48 82.3 77.44 92.08 88.82 92.42 91.5 80.9 93.78 80.9 94.43 92.46 105.42 92.46 106.83 80.9 109.11 80.9 109.76 92.46 118.89 92.46 120.3 80.9 122.58 80.9 123.23 92.46 133.56 92.46 132.83 80.9 135.86 80.9 138.65 92.46 147.85 92.46 142.61 74"/>
  </g>
  <g>
    <path class="cls-14" d="M339.65,295.24c-.1-.18-.27-.28-.48-.26-3.65-.47-34.33-54.6-54.05-90.87,0-.01-.02-.02-.02-.03-.76-1.76-1.5-3.56-2.14-5.24h.11c.08,0,.15-.02,.22-.06l.25,.47h0l.1-.07h0l-.29-.41,.14,.2-.16-.23s.1-.07,.13-.12l.08,.06,.26,.34,.11-.09,.1-.28-.47-.07-.06-.03c.06-.12,.08-.26,.03-.39l-.02-.05,.07-.04,.44-.05-.07-.2c-.86-1.49-1.81-3.06-2.87-4.61-1.69-2.86-4.23-6.2-7.52-7.86-.51-.34-1.07-.71-1.68-1.07l-2.06-1.12c-.69-.33-1.27-.57-1.77-.73-3.5-1.11-7.17-1.23-10.8-1.15h-.04c-7.86-.24-49.88,.75-50.3,.76h-.02c-20.73,.22-34.62,.26-40.27,.11-1.45-.08-2.66-.18-3.57-.3-.74-.13-1.46-.29-2.16-.49-.33-.1-.64-.2-.94-.3-1.06-.37-2.08-.82-3.04-1.37,.06-.06,.11-.12,.15-.19,.18-.28,.21-.63,.09-.93-2.33-5.88-4.72-12.13-6.62-17.31-.12-2.29-.3-7.31-.54-14.97h.32c.29,0,.57-.12,.76-.34,.19-.21,.29-.5,.27-.79l-1.45-17.08h.48v.53h.5c.3,0,.58-.13,.78-.36,.2-.23,.29-.53,.24-.83-.55-3.69-1.53-9.18-2.93-16.31h1.62c.32,0,.62-.15,.82-.4,.2-.25,.26-.58,.19-.89l-4.21-16.34h.48c.32,0,.63-.15,.83-.41,.19-.26,.25-.59,.17-.9l-4.79-17.25,.33-.02c.32-.02,.61-.19,.79-.46,.18-.27,.22-.6,.12-.9l-5.47-16.18h.24c.07,0,.14-.02,.2-.05l.02,.03,.21,.45,.11-.07-.27-.42-.02-.03s.07-.05,.1-.08l.32,.42,.08-.06,.15-.24-.41-.17-.08-.05s.04-.07,.05-.11l.51,.15,.04-.17-.53-.06s0-.08,0-.12l.19-.03,.34,.02v-.11l-4.38-17h1.22c.33,0,.64-.16,.83-.42,.2-.27,.25-.62,.15-.93l-10.41-31.97s-.02-.03-.02-.04c-.02-.04-.04-.08-.07-.12-.1-.19-.25-.35-.44-.45-.29-.14-7.25-3.44-10.54,.97-.04,.06-.09,.12-.14,.18-3.54,3.33-10.29,10.94-13.89,15.09-1.15,1.25-1.87,2.07-2.14,2.49-1.67,2.01-2.91,6.15-3.26,7.43-.03,.09-.06,.17-.08,.26,0,.03-.01,.08-.02,.12h0s0,.03,0,.04c0,.02,0,.04-.01,.07l-.33,6.19c-.02,.28,.09,.56,.28,.76,.19,.21,.47,.33,.75,.33h.03c-1.34,6.54-2.93,13.5-4.62,16.65l-.07,.11v.12l.44,.06,.06,.03s-.02,.07-.02,.07c-.04,.12-.01,.24,.04,.36l-.52,.12,.02,.11,.2,.24,.31-.39h.03s.08,.07,.12,.1l-.29,.45,.1,.06,.26-.46c.07,.03,.14,.05,.21,.05h.77l-4.79,10.07c-2.06,3.88-3.7,6.55-3.72,6.6-.15,.25-.19,.55-.12,.82-.63,.57-1.27,1.15-1.94,1.75-1.76,1.58-3.58,3.2-5.33,4.97-.12,.12-.2,.26-.26,.42l-.23,.74c-1.59,.87-3.4,1.78-5.25,2.67-3.86,1.76-8.58,3.78-12.58,5.15-.17,.04-.32,.08-.47,.11-2.82,.62-5.76,1.35-8.86,2.2-3.42,.84-7.39,2.02-10.85,3.11-.74,.18-1.48,.35-2.2,.51-2.18,.49-4.43,.99-6.67,1.85-.42,.16-.69,.57-.67,1.02l.04,.79c-.1,.04-.2,.09-.3,.13-.05-.06-.1-.11-.16-.15-.29-.22-.68-.27-1.01-.14l-1.48,.58c-2.94,1.18-9.44,9.69-9.05,9.73-4.17,8.28-4.22,16.33-4.22,16.67,0,.54,.43,1,.97,1.03l.5,.03,.03-.53,2.76,.17v.11c.5,6.19,2.49,17.56,2.51,17.67,.09,.5,.51,.86,1.02,.86h5.66l-.11,.51h0c-.11,.52,.18,1.03,.68,1.21,2.34,.79,11.31,2.91,14,3.54l.12,.03c.07,.02,.15,.02,.23,.02h1.3l.6,10.58c.03,.55,.48,.98,1.03,.98h.19l-1.2,15.75c-.02,.27,.07,.55,.25,.75,.18,.21,.43,.33,.71,.36l.24,.02-2.24,18.1c-.01,.05-.02,.1-.02,.16h0v.03h.53s0,.08,.01,.12l-.53,.09,.04,.18,.51-.17s.02,.04,.04,.06l-.45,.28,.04,.09,.1,.09,.33-.33h0l-.33,.33,.1,.09,.24-.43,.04-.02s.06,.05,.09,.07l-.28,.46,.13,.08,.25-.48c.05,.02,.1,.03,.15,.03h.51l-4.01,15.32c-.08,.3-.02,.62,.17,.87,.18,.25,.47,.41,.78,.42l.52,.03-4.13,16.05c-.08,.3-.02,.61,.17,.86,.18,.25,.47,.41,.77,.42l1.16,.07-2.13,17.07c-.04,.29,.06,.59,.25,.81,.2,.22,.48,.35,.78,.35h.25l-1.8,17.33c-.01,.14,.03,.28,.13,.39s.23,.17,.37,.17h1.38l-3.04,4.75c-.15,.24-.2,.53-.13,.81,.07,.27,.25,.51,.49,.65l.5,.28-9.01,14.09c-.15,.24-.2,.53-.13,.81,.07,.27,.25,.51,.49,.65l.39,.22-8.91,13.92c-.15,.24-.2,.53-.13,.81,.07,.27,.25,.51,.49,.65h.01l-8.67,13.17c-.16,.24-.21,.54-.14,.81,.07,.28,.25,.52,.5,.66l.98,.55-8.97,13.61c-.08,.12-.1,.26-.07,.39,.02,.1,.09,.19,.17,.25-1.85,2.24-3.27,4.21-3.47,5.16-.04,.21-.11,.43-.17,.65-.86,2.92-2.05,6.91,22.95,21.09,3.75,2.13,6.99,3.85,9.81,5.23l-1.09,3.19c-.04,.13-.03,.27,.03,.4,.05,.09,.13,.16,.23,.2-1.23,2.63-2.11,4.89-2.07,5.87,0,.22,0,.44,0,.67-.11,3.04-.25,7.2,27.49,14.68,11.56,3.12,18.59,4.19,22.92,4.19,6.13,0,6.84-2.15,7.35-3.69,.06-.18,.11-.34,.18-.49,.32-.72,.64-3.06,.94-5.9l1.58,.43s.09,.02,.13,.02c.09,0,.19-.03,.27-.08,.12-.08,.2-.2,.22-.33l2.85-16.06,.38,.1c.09,.02,.18,.04,.27,.04,.2,0,.39-.05,.56-.16,.24-.15,.41-.41,.46-.69l2.84-16.01c.14-.13,.24-.3,.29-.49l4.14-16.02,.39,.11c.09,.02,.18,.04,.27,.04,.46,0,.87-.3,1-.77l4.36-16.18,.37,.1c.28,.08,.58,.03,.83-.13,.24-.16,.41-.41,.46-.69l2.83-16.26c.16,.38,.52,.64,.95,.64h9.12c.52,0,.96-.39,1.03-.91l1.3-10.65h.39l.6,10.58c.03,.55,.48,.98,1.03,.98h10.99c.52,0,.96-.39,1.03-.91l1.3-10.65h.39l.6,10.58c.03,.55,.48,.98,1.03,.98h9.12c.52,0,.96-.39,1.03-.91l1.3-10.65h.39l.6,10.58c.03,.55,.48,.98,1.03,.98h10.33c.52,0,.96-.39,1.03-.91l1.3-10.65h.39l.6,10.58c.03,.55,.48,.98,1.03,.98h4.81l1.09,4c.07,.27,.26,.51,.51,.64s.55,.16,.82,.07l.54-.18,4.42,16.13c.07,.27,.26,.5,.51,.64,.15,.08,.32,.12,.49,.12,.11,0,.22-.02,.32-.05l.43-.14,4.37,15.94c.07,.27,.26,.5,.51,.64,.25,.13,.55,.16,.81,.07h.02l3.96,15.25c.07,.28,.25,.51,.51,.65,.15,.08,.32,.12,.49,.12,.11,0,.22-.02,.32-.05l1.06-.35,4.09,15.78c.04,.13,.12,.25,.25,.31,.07,.04,.16,.06,.24,.06,.02,0,.04,0,.06-.01,.43,2.87,.93,5.24,1.51,6.03,.13,.18,.24,.37,.37,.57,.81,1.33,1.78,2.92,6.23,2.92,4.21,0,11.54-1.42,24.8-5.83,2.92-.97,5.5-1.88,7.8-2.75l3.94,15.18c.04,.13,.12,.25,.25,.31,.07,.04,.16,.06,.24,.06,.02,0,.04,0,.06-.01,.43,2.87,.93,5.24,1.5,6.03,.13,.18,.24,.37,.37,.57,.81,1.33,1.78,2.92,6.23,2.92,4.21,0,11.54-1.42,24.8-5.83,27.46-9.12,26.25-13.59,25.53-16.27-.05-.18-.09-.35-.12-.5-.13-.77-1.15-2.91-2.47-5.44l1.55-.52c.13-.04,.24-.14,.3-.27,.06-.13,.06-.27,0-.4l-6.47-14.98,.38-.12c.28-.09,.5-.3,.62-.56,.12-.26,.12-.57,0-.83l-6.45-14.92c.04-.19,.04-.38-.03-.57l-5.38-15.65,.39-.13c.26-.09,.48-.27,.6-.52,.12-.25,.14-.53,.06-.79l-5.28-15.9,.37-.12c.27-.09,.5-.29,.62-.56,.09-.21,.09-.45,.04-.67h.4c.56,0,1.01-.44,1.03-1l.51-16.66h.74c.28,0,.55-.11,.74-.32,.19-.2,.3-.47,.29-.75l-.52-17.26h.31v.53h.5c.28,0,.55-.12,.74-.31,.19-.2,.3-.47,.29-.75l-.49-15.91c6.32,28.5,19.43,77.69,20.16,80.4,.04,.16,.16,.29,.32,.34,.05,.02,.11,.03,.16,.03,.11,0,.21-.03,.3-.1l8.27-6.21c.16-.12,.24-.32,.19-.52-.05-.2-.2-.34-.4-.37-.42-.17-1.23-1.69-2.43-4.77l6.2-5.61c.14-.13,.2-.33,.14-.52-.01-.05-.04-.11-.05-.16l4.51-4.64c1.8,3.64,2.97,6,3.22,6.52,.07,.15,.22,.25,.38,.27,.02,0,.04,0,.07,0,.14,0,.28-.06,.37-.17l6.87-7.74c.13-.15,.17-.37,.09-.55-.09-.18-.28-.29-.47-.28-.7-.12-2.29-2.28-4.53-5.93l5.42-6.77c.13-.16,.16-.38,.06-.55ZM94.45,57.18l-.18,.13,.09-.07,.09-.06h0Z"/>
    <polygon class="cls-14" points="283.64 199.2 283.64 199.2 283.64 199.2 283.64 199.2"/>
    <polygon class="cls-14" points="283.5 198.99 283.64 199.2 283.64 199.2 283.5 198.99"/>
    <polygon class="cls-14" points="45.05 199.07 45.06 199.06 45.06 199.06 45.05 199.07"/>
  </g>
</svg>