<?xml version="1.0" encoding="UTF-8"?>
<svg id="Layer_1" data-name="Layer 1" xmlns="http://www.w3.org/2000/svg" width="215" height="1051" xmlns:xlink="http://www.w3.org/1999/xlink" viewBox="0 0 215 1051">
  <defs>
    <style>
      .cls-1, .cls-2, .cls-3 {
        fill: none;
      }

      .cls-2 {
        stroke: #84f3df;
        stroke-miterlimit: 10;
      }

      .cls-2, .cls-3, .cls-4, .cls-5 {
        stroke-width: 3px;
      }

      .cls-6 {
        fill: url(#linear-gradient-7);
      }

      .cls-7 {
        fill: url(#linear-gradient-9);
      }

      .cls-8 {
        fill: url(#linear-gradient-8);
      }

      .cls-9 {
        fill: url(#linear-gradient-3);
      }

      .cls-10 {
        fill: url(#linear-gradient-2);
      }

      .cls-11 {
        fill: url(#linear-gradient-4);
      }

      .cls-12 {
        fill: #30c8c9;
      }

      .cls-13 {
        fill: #0f6a80;
      }

      .cls-14 {
        fill: url(#linear-gradient);
      }

      .cls-3, .cls-4, .cls-5 {
        stroke: #0f6a80;
        stroke-linejoin: round;
      }

      .cls-15 {
        clip-path: url(#clippath-1);
      }

      .cls-4 {
        fill: url(#linear-gradient-5);
      }

      .cls-5 {
        fill: url(#linear-gradient-6);
      }

      .cls-16 {
        fill: url(#linear-gradient-10);
      }

      .cls-17 {
        fill: url(#linear-gradient-11);
      }

      .cls-18 {
        clip-path: url(#clippath);
      }
    </style>
    <linearGradient id="linear-gradient" x1="89.4" y1="950.2" x2="89.4" y2="347.19" gradientTransform="matrix(1, 0, 0, 1, 0, 0)" gradientUnits="userSpaceOnUse">
      <stop offset=".06" stop-color="#587ef8" stop-opacity="0"/>
      <stop offset=".38" stop-color="#587ef8"/>
      <stop offset="1" stop-color="#9ef9e0"/>
    </linearGradient>
    <linearGradient id="linear-gradient-2" x1="125.6" y1="918.36" x2="125.6" xlink:href="#linear-gradient"/>
    <linearGradient id="linear-gradient-3" x1="114.01" y1="960.04" x2="114.01" xlink:href="#linear-gradient"/>
    <linearGradient id="linear-gradient-4" x1="101.26" y1="891.46" x2="101.26" xlink:href="#linear-gradient"/>
    <linearGradient id="linear-gradient-5" x1="4.27" y1="293.86" x2="70.96" y2="293.86" gradientTransform="matrix(1, 0, 0, 1, 0, 0)" gradientUnits="userSpaceOnUse">
      <stop offset="0" stop-color="#30c8c9"/>
      <stop offset="1" stop-color="#9ef9e0"/>
    </linearGradient>
    <linearGradient id="linear-gradient-6" x1="-141.25" y1="293.86" x2="-74.56" y2="293.86" gradientTransform="translate(69.57) rotate(-180) scale(1 -1)" xlink:href="#linear-gradient-5"/>
    <linearGradient id="linear-gradient-7" x1="76.01" y1="347.19" x2="139.07" y2="347.19" xlink:href="#linear-gradient-5"/>
    <linearGradient id="linear-gradient-8" x1="107.54" y1="344.45" x2="107.54" y2="4.43" xlink:href="#linear-gradient-5"/>
    <clipPath id="clippath">
      <path class="cls-1" d="M107.5,104.63h0c13.57,0,24.57,11,24.57,24.57h0c0,13.57-11,24.57-24.57,24.57h0c-13.57,0-24.57-11-24.57-24.57h0c0-13.57,11-24.57,24.57-24.57Z"/>
    </clipPath>
    <linearGradient id="linear-gradient-9" x1="82.93" y1="-4153.2" x2="132.07" y2="-4153.2" gradientTransform="translate(0 -4024) scale(1 -1)" xlink:href="#linear-gradient-5"/>
    <linearGradient id="linear-gradient-10" x1="76.67" y1="-4152.88" x2="138.42" y2="-4152.88" gradientTransform="translate(0 -4024) scale(1 -1)" xlink:href="#linear-gradient-5"/>
    <clipPath id="clippath-1">
      <path class="cls-1" d="M107.5,104.63h0c13.57,0,24.57,11,24.57,24.57h0c0,13.57-11,24.57-24.57,24.57h0c-13.57,0-24.57-11-24.57-24.57h0c0-13.57,11-24.57,24.57-24.57Z"/>
    </clipPath>
    <linearGradient id="linear-gradient-11" x1="82.93" y1="-4153.2" x2="132.07" y2="-4153.2" gradientTransform="translate(0 -4024) scale(1 -1)" xlink:href="#linear-gradient-5"/>
  </defs>
  <g>
    <rect class="cls-14" x="87.14" y="347.19" width="4.52" height="603.01"/>
    <rect class="cls-10" x="123.34" y="347.19" width="4.52" height="571.18"/>
    <rect class="cls-9" x="111.75" y="347.19" width="4.52" height="612.85"/>
    <rect class="cls-11" x="99" y="347.19" width="4.52" height="544.27"/>
    <g>
      <polygon class="cls-4" points="54.46 238.39 12.77 259.64 4.27 349.33 70.96 317.78 54.46 238.39"/>
      <polygon class="cls-5" points="160.63 238.39 202.32 259.64 210.82 349.33 144.13 317.78 160.63 238.39"/>
    </g>
    <g>
      <rect class="cls-6" x="76.01" y="334.47" width="63.06" height="25.43"/>
      <path class="cls-13" d="M137.57,335.97v22.43h-60.06v-22.43h60.06m3-3H74.52v28.43h66.06v-28.43h0Z"/>
    </g>
    <path class="cls-8" d="M107.55,4.43S51.18,43.19,51.18,174.44c0,80.93,18,170.01,18,170.01h76.74s18-93.76,18-170.01C163.91,43.19,107.55,4.43,107.55,4.43Z"/>
    <g>
      <polygon class="cls-12" points="82.71 72.81 64.77 72.81 74.71 50.12 82.71 50.12 82.71 72.81"/>
      <rect class="cls-12" x="87.45" y="50.12" width="17.95" height="22.68"/>
      <rect class="cls-12" x="109.69" y="50.12" width="17.95" height="22.68"/>
      <polygon class="cls-12" points="150.32 72.81 132.38 72.81 132.38 50.12 140.79 50.12 150.32 72.81"/>
    </g>
    <line class="cls-2" x1="19.67" y1="263.79" x2="12.51" y2="337.85"/>
    <line class="cls-2" x1="195.49" y1="263.79" x2="202.66" y2="337.85"/>
    <path class="cls-3" d="M107.55,4.43S51.18,43.19,51.18,174.44c0,80.93,18,170.01,18,170.01h76.74s18-93.76,18-170.01C163.91,43.19,107.55,4.43,107.55,4.43Z"/>
    <g class="cls-18">
      <g>
        <circle class="cls-7" cx="107.5" cy="129.2" r="24.57"/>
        <rect class="cls-12" x="95.21" y="134.29" width="24.57" height="24.57" transform="translate(-72.16 118.95) rotate(-45)"/>
        <rect class="cls-12" x="95.21" y="99.54" width="24.57" height="24.57" transform="translate(-47.59 108.77) rotate(-45)"/>
      </g>
    </g>
  </g>
  <circle class="cls-16" cx="107.54" cy="128.88" r="30.87"/>
  <circle class="cls-3" cx="107.54" cy="128.88" r="30.87"/>
  <g class="cls-15">
    <g>
      <circle class="cls-17" cx="107.5" cy="129.2" r="24.57"/>
      <rect class="cls-12" x="95.21" y="134.29" width="24.57" height="24.57" transform="translate(-72.16 118.95) rotate(-45)"/>
      <rect class="cls-12" x="95.21" y="99.54" width="24.57" height="24.57" transform="translate(-47.59 108.77) rotate(-45)"/>
    </g>
  </g>
</svg>