<?xml version="1.0" encoding="UTF-8"?>
<svg id="Layer_1" data-name="Layer 1" xmlns="http://www.w3.org/2000/svg" width="237" height="214" xmlns:xlink="http://www.w3.org/1999/xlink" viewBox="0 0 237 214">
  <defs>
    <style>
      .cls-1 {
        fill: #0f6a80;
      }

      .cls-2 {
        fill: url(#linear-gradient);
      }

      .cls-2, .cls-3, .cls-4 {
        stroke: #0f6a80;
        stroke-linejoin: round;
        stroke-width: 3px;
      }

      .cls-3 {
        fill: url(#linear-gradient-2);
      }

      .cls-4 {
        fill: url(#linear-gradient-3);
      }
    </style>
    <linearGradient id="linear-gradient" x1="63.4" y1="111.18" x2="235.02" y2="111.18" gradientTransform="matrix(1, 0, 0, 1, 0, 0)" gradientUnits="userSpaceOnUse">
      <stop offset="0" stop-color="#30c8c9"/>
      <stop offset="1" stop-color="#9ef9e0"/>
    </linearGradient>
    <linearGradient id="linear-gradient-2" x1="149.21" y1="18.58" x2="149.21" y2="1.88" gradientTransform="matrix(1, 0, 0, 1, 0, 0)" gradientUnits="userSpaceOnUse">
      <stop offset="0" stop-color="#30c8c9"/>
      <stop offset="1" stop-color="#9ef9e0"/>
    </linearGradient>
    <linearGradient id="linear-gradient-3" x1="70.6" y1="96.92" x2="1.98" y2="96.92" xlink:href="#linear-gradient"/>
  </defs>
  <g>
    <path class="cls-2" d="M63.4,10.23V173.04c0,3.71,3.28,7.21,9.08,10.32l4.94,12.73s13.03,16.04,72.64,16.04,71.87-16.04,71.87-16.04l5.85-13.78c4.65-2.84,7.25-5.97,7.25-9.27V10.23H63.4Z"/>
    <ellipse class="cls-3" cx="149.21" cy="10.23" rx="85.81" ry="8.35"/>
    <path class="cls-4" d="M63.27,29.43s-5.18,2.2-10.97,0S8.4,24.18,3.52,70.51c-4.88,46.34,1.22,86.58,27.13,92.37,25.91,5.79,39.02,0,39.02,0,0,0,3.35-21.03-2.74-22.25-6.1-1.22-8.2,13.11-22.7,11.89-14.49-1.22-26.99-12.79-28.21-49.38s6.7-58.23,20.27-58.54,23.94,5.49,27.59,16.46c0,0,7.01-19.38-.61-31.64Z"/>
  </g>
  <g>
    <path class="cls-1" d="M87.85,86.85c-2.06-8.61-3.09-12.92-5.15-21.55,1.73,.17,2.59,.25,4.32,.41,1.29,5.91,1.94,8.86,3.24,14.76,1.49-5.66,2.23-8.5,3.71-14.17,2.01,.16,3.02,.24,5.03,.38,1.52,6,2.28,8.99,3.8,14.98,1.24-5.81,1.86-8.71,3.1-14.53,1.7,.1,2.55,.15,4.24,.24-1.95,8.32-2.93,12.48-4.89,20.79-1.8-.11-2.7-.17-4.5-.29-1.73-6.42-2.59-9.63-4.31-16.07-1.6,6.18-2.41,9.27-4.02,15.44-1.83-.15-2.74-.23-4.57-.4Z"/>
    <path class="cls-1" d="M111.53,78.12c-.02-2.51,.4-4.56,1.29-6.14,.88-1.58,2.04-2.74,3.49-3.47,1.44-.73,3.19-1.06,5.26-.99,2.99,.1,5.44,1.1,7.35,3.03,1.91,1.93,2.88,4.63,2.93,8.12,.04,3.53-.93,6.27-2.9,8.21-1.74,1.71-4.11,2.54-7.12,2.44-3.04-.1-5.44-1.07-7.21-2.88-2.02-2.07-3.05-4.85-3.08-8.31Zm4.35,.06c.02,2.43,.6,4.27,1.73,5.53,1.13,1.26,2.52,1.92,4.18,1.97,1.66,.06,3.04-.51,4.12-1.68,1.08-1.17,1.61-3.01,1.58-5.5-.03-2.44-.58-4.26-1.66-5.46-1.08-1.2-2.47-1.82-4.19-1.88-1.72-.06-3.11,.48-4.18,1.61-1.07,1.14-1.59,2.94-1.56,5.41Z"/>
    <path class="cls-1" d="M135.3,89.25c-.11-8.43-.16-12.65-.27-21.08,3.56,.04,5.34,.04,8.89,.03,2.27,0,3.9,.16,4.88,.53,.98,.37,1.79,1.01,2.43,1.94,.64,.92,.97,2.04,.99,3.34,.02,1.65-.43,2.99-1.38,4.01-.94,1.02-2.3,1.67-4.06,1.95,.91,.53,1.67,1.11,2.27,1.74,.6,.63,1.43,1.76,2.47,3.39,1.04,1.63,1.56,2.44,2.61,4.06-2.02,.04-3.03,.06-5.05,.08-1.25-1.82-1.88-2.73-3.13-4.56-1.13-1.65-1.89-2.68-2.29-3.1-.4-.42-.82-.7-1.27-.86-.44-.16-1.15-.24-2.13-.24-.35,0-.52,0-.87,0,.05,3.52,.07,5.28,.12,8.8-1.69,0-2.53-.01-4.22-.03Zm4.06-12.13c1.25,0,1.88,0,3.14,0,1.92,0,3.14-.08,3.66-.22,.52-.14,.94-.43,1.26-.85,.32-.42,.47-.99,.46-1.69,0-.67-.18-1.21-.51-1.61-.33-.4-.78-.68-1.34-.83-.39-.1-1.54-.15-3.43-.14-1.32,0-1.99,0-3.31,0,.03,2.14,.04,3.21,.07,5.35Z"/>
    <path class="cls-1" d="M156.55,89.1c-.13-8.36-.19-12.54-.32-20.91,1.68-.04,2.53-.07,4.21-.12,.11,6.94,.16,10.4,.27,17.34,4.21-.13,6.32-.22,10.53-.43,.02,1.43,.04,2.14,.06,3.57-5.9,.29-8.85,.4-14.75,.55Z"/>
    <path class="cls-1" d="M173.93,67.32c3.08-.17,4.61-.26,7.69-.47,1.94-.13,3.41-.06,4.41,.23,1,.29,1.92,.82,2.77,1.61,.85,.79,1.52,1.84,2.03,3.16,.5,1.32,.77,2.99,.81,5.02,.04,1.82-.18,3.43-.65,4.81s-1.08,2.51-1.83,3.35c-.75,.85-1.66,1.51-2.74,1.99-1.08,.48-2.47,.78-4.17,.9-3.17,.22-4.76,.31-7.94,.49-.15-8.43-.22-12.65-.37-21.08Zm4.27,3.32c.1,5.58,.15,8.37,.25,13.95,1.27-.08,1.9-.12,3.17-.2,1.36-.09,2.34-.27,2.94-.52,.61-.25,1.1-.61,1.48-1.06,.38-.45,.69-1.15,.93-2.09,.24-.94,.34-2.16,.31-3.66-.03-1.56-.18-2.78-.46-3.66-.28-.88-.7-1.56-1.26-2.03-.56-.48-1.24-.77-2.03-.88-.59-.08-1.74-.06-3.43,.05-.77,.05-1.15,.07-1.91,.12Z"/>
    <path class="cls-1" d="M194.84,65.81c1.6-.14,2.39-.22,3.99-.37,.02,1.16,.04,1.74,.06,2.9,.03,1.63-.17,2.87-.62,3.71-.54,1.03-1.48,1.85-2.8,2.46-.33-.64-.49-.97-.82-1.61,.78-.34,1.34-.75,1.68-1.25,.34-.5,.51-1.15,.52-1.98-.77,.07-1.16,.11-1.93,.18-.03-1.62-.05-2.42-.08-4.04Z"/>
    <path class="cls-1" d="M202.34,79.32c1.64-.33,2.46-.5,4.11-.84,.52,2.64,2.07,3.83,4.63,3.53,1.27-.15,2.27-.55,2.98-1.18s1.07-1.37,1.05-2.18c-.01-.48-.15-.87-.41-1.17-.26-.3-.66-.53-1.18-.68s-1.79-.36-3.8-.64c-1.8-.25-3.13-.59-3.97-1.03-.84-.44-1.52-1.06-2.03-1.86-.51-.81-.78-1.7-.8-2.69-.02-1.15,.27-2.22,.88-3.2,.61-.99,1.47-1.77,2.56-2.36,1.1-.59,2.46-.98,4.09-1.17,2.45-.28,4.37,.03,5.77,.96,1.4,.93,2.16,2.41,2.29,4.45-1.68,.29-2.52,.44-4.2,.72-.21-1.11-.63-1.85-1.25-2.23-.62-.38-1.5-.5-2.63-.37-1.13,.13-2,.43-2.6,.89-.6,.46-.9,.98-.89,1.56,.01,.57,.3,1.03,.86,1.35,.56,.33,1.86,.61,3.86,.85,2.12,.25,3.66,.6,4.62,1.04,.95,.44,1.69,1.07,2.2,1.89,.52,.82,.79,1.86,.82,3.13,.04,1.83-.6,3.46-1.93,4.88-1.33,1.42-3.44,2.31-6.34,2.65-5.12,.6-8.02-1.53-8.7-6.3Z"/>
    <path class="cls-1" d="M115.04,98.91c3.36,.15,5.04,.21,8.41,.32,2.3,.07,3.91,.28,4.85,.65,.94,.37,1.73,.99,2.38,1.87,.65,.89,.98,1.88,1,2.98,.01,1.02-.25,1.93-.79,2.74-.54,.81-1.25,1.4-2.12,1.78,1.25,.39,2.23,1.03,2.95,1.93,.71,.89,1.08,1.97,1.1,3.24,.02,1.53-.42,2.82-1.3,3.87-.89,1.04-1.94,1.68-3.16,1.9-.85,.15-2.83,.2-5.93,.09-2.86-.09-4.3-.15-7.16-.28-.09-8.43-.13-12.65-.21-21.08Zm4.26,3.68l.05,4.87c1.12,.04,1.68,.06,2.8,.1,1.68,.06,2.72,.06,3.11,.02,.72-.07,1.28-.31,1.69-.71,.4-.4,.6-.95,.59-1.65,0-.62-.18-1.13-.52-1.53-.34-.4-.74-.65-1.21-.76-.47-.11-1.83-.19-4.06-.27-.98-.03-1.47-.05-2.45-.09Zm.09,8.38c.02,2.25,.04,3.37,.06,5.62,1.58,.06,2.37,.09,3.95,.14,1.73,.05,2.84,0,3.33-.13,.49-.14,.9-.42,1.23-.84,.33-.43,.49-.98,.48-1.65,0-.69-.19-1.26-.55-1.71-.36-.45-.84-.77-1.43-.95-.59-.18-1.8-.3-3.62-.36-1.37-.04-2.06-.07-3.43-.12Z"/>
    <path class="cls-1" d="M136.49,120.57c-.11-8.43-.16-12.65-.27-21.08,6.23,.06,9.35,.05,15.58-.06,.02,1.43,.03,2.14,.05,3.57-4.54,.08-6.82,.09-11.36,.08,.02,1.87,.04,2.8,.06,4.67,4.23,.01,6.34,0,10.56-.07l.05,3.55c-4.23,.06-6.34,.08-10.57,.07,.03,2.29,.05,3.43,.08,5.72,4.71,.01,7.06,0,11.77-.09,.02,1.43,.03,2.14,.05,3.57-6.4,.11-9.61,.12-16.01,.06Z"/>
    <path class="cls-1" d="M154.92,113.58c1.66-.2,2.48-.3,4.14-.51,.51,2.68,2.06,3.99,4.65,3.89,1.28-.05,2.29-.36,3.01-.94,.73-.58,1.08-1.28,1.07-2.09,0-.48-.14-.88-.4-1.21-.26-.32-.66-.58-1.19-.78-.53-.19-1.81-.51-3.83-.94-1.81-.39-3.14-.84-3.99-1.34-.85-.5-1.53-1.18-2.03-2.02-.51-.85-.77-1.76-.79-2.75-.02-1.15,.28-2.19,.91-3.13,.62-.93,1.49-1.65,2.6-2.15,1.11-.5,2.49-.78,4.13-.84,2.47-.09,4.4,.38,5.81,1.42,1.4,1.04,2.16,2.58,2.28,4.63-1.7,.16-2.54,.23-4.24,.38-.2-1.12-.62-1.9-1.24-2.32-.62-.43-1.51-.62-2.65-.58-1.14,.04-2.02,.27-2.63,.68-.61,.41-.91,.91-.9,1.49,0,.57,.3,1.05,.86,1.42,.57,.38,1.87,.76,3.88,1.16,2.14,.42,3.69,.9,4.65,1.41,.96,.52,1.7,1.21,2.21,2.07,.52,.86,.79,1.93,.81,3.19,.03,1.83-.63,3.4-1.98,4.71s-3.48,2.03-6.4,2.13c-5.16,.18-8.07-2.18-8.72-6.99Z"/>
    <path class="cls-1" d="M180.43,119.37c-.13-7-.19-10.51-.32-17.51-2.49,.16-3.74,.23-6.23,.37-.02-1.43-.04-2.14-.06-3.57,6.66-.36,10-.58,16.65-1.12,.03,1.43,.04,2.14,.07,3.57-2.48,.2-3.72,.3-6.21,.47,.13,7,.2,10.51,.33,17.51-1.69,.12-2.54,.18-4.23,.29Z"/>
    <path class="cls-1" d="M112.89,130.1c3.38,.17,5.06,.24,8.44,.35,2.3,.08,3.93,.3,4.87,.67,.94,.37,1.74,1,2.39,1.88,.65,.89,.99,1.88,1,2.98,.01,1.02-.25,1.93-.8,2.73-.54,.81-1.25,1.4-2.13,1.77,1.26,.4,2.24,1.04,2.96,1.94,.72,.9,1.09,1.98,1.1,3.24,.02,1.53-.42,2.82-1.31,3.86-.89,1.04-1.95,1.67-3.18,1.88-.85,.15-2.84,.18-5.96,.07-2.88-.11-4.31-.17-7.19-.31-.08-8.43-.13-12.65-.21-21.08Zm4.28,3.7c.02,1.95,.03,2.92,.05,4.87,1.12,.05,1.68,.07,2.81,.11,1.68,.06,2.73,.07,3.12,.04,.72-.07,1.29-.31,1.69-.7,.4-.39,.6-.94,.6-1.64,0-.62-.18-1.13-.52-1.53-.34-.4-.74-.65-1.22-.76-.47-.11-1.83-.2-4.08-.28-.98-.04-1.47-.06-2.45-.1Zm.09,8.38c.02,2.25,.04,3.37,.06,5.62,1.58,.07,2.38,.1,3.96,.15,1.74,.06,2.85,.02,3.34-.11,.49-.13,.9-.41,1.23-.84,.33-.43,.49-.97,.48-1.64,0-.69-.19-1.26-.56-1.71-.36-.45-.84-.77-1.44-.96-.59-.18-1.81-.3-3.64-.37-1.38-.05-2.07-.08-3.45-.13Z"/>
    <path class="cls-1" d="M133.41,141.42c-.03-2.51,.4-4.57,1.28-6.19,.89-1.61,2.05-2.81,3.51-3.6,1.45-.79,3.22-1.18,5.3-1.18,3.02,0,5.49,.91,7.42,2.77,1.93,1.86,2.92,4.53,2.97,8.02,.05,3.53-.92,6.31-2.9,8.32-1.74,1.77-4.13,2.68-7.17,2.69-3.06,0-5.49-.88-7.28-2.63-2.04-2-3.08-4.74-3.13-8.2Zm4.39-.09c.03,2.43,.62,4.25,1.76,5.47,1.14,1.22,2.55,1.83,4.21,1.82,1.68,0,3.06-.62,4.15-1.83,1.09-1.21,1.61-3.07,1.57-5.56-.04-2.44-.6-4.24-1.69-5.4-1.09-1.16-2.5-1.73-4.23-1.73-1.73,0-3.14,.59-4.21,1.76-1.07,1.17-1.6,2.99-1.56,5.47Z"/>
    <path class="cls-1" d="M156.21,144.87c1.66-.2,2.49-.3,4.16-.51,.51,2.68,2.07,3.98,4.66,3.89,1.29-.05,2.3-.37,3.02-.95,.73-.58,1.09-1.28,1.07-2.1,0-.48-.14-.88-.41-1.2-.26-.32-.66-.58-1.19-.78-.53-.19-1.81-.5-3.84-.94-1.82-.39-3.16-.83-4.01-1.34-.85-.5-1.53-1.18-2.04-2.02-.51-.84-.77-1.76-.79-2.75-.02-1.15,.29-2.19,.91-3.13,.62-.94,1.49-1.65,2.61-2.16,1.11-.5,2.5-.78,4.14-.84,2.48-.09,4.42,.37,5.83,1.41,1.41,1.04,2.17,2.58,2.29,4.62-1.7,.16-2.55,.24-4.26,.39-.21-1.12-.62-1.9-1.25-2.32-.63-.42-1.51-.61-2.66-.57-1.14,.04-2.02,.27-2.64,.68-.61,.41-.92,.91-.91,1.49,0,.57,.3,1.05,.87,1.42,.57,.37,1.88,.76,3.9,1.15,2.14,.42,3.7,.89,4.66,1.41,.96,.52,1.7,1.2,2.22,2.06,.52,.86,.79,1.92,.81,3.19,.03,1.83-.63,3.4-1.98,4.72-1.35,1.31-3.5,2.03-6.42,2.14-5.18,.19-8.1-2.16-8.76-6.97Z"/>
    <path class="cls-1" d="M175.87,144.1c1.66-.25,2.49-.38,4.15-.65,.52,2.66,2.07,3.92,4.67,3.74,1.29-.09,2.29-.44,3.02-1.05,.73-.61,1.08-1.32,1.07-2.13,0-.48-.15-.88-.41-1.19-.26-.32-.66-.56-1.19-.74s-1.81-.45-3.84-.81c-1.82-.33-3.16-.73-4.01-1.21-.85-.48-1.53-1.13-2.04-1.96-.51-.83-.78-1.74-.79-2.72-.02-1.15,.28-2.2,.9-3.16,.62-.96,1.49-1.7,2.6-2.24,1.11-.54,2.49-.86,4.14-.98,2.47-.17,4.41,.23,5.82,1.22,1.41,.99,2.18,2.51,2.3,4.55-1.7,.22-2.55,.32-4.25,.53-.21-1.12-.63-1.88-1.25-2.28-.63-.4-1.51-.57-2.66-.49-1.14,.08-2.02,.33-2.63,.77-.61,.43-.91,.94-.9,1.52,.01,.57,.3,1.04,.87,1.39,.57,.36,1.87,.7,3.9,1.03,2.14,.35,3.7,.77,4.66,1.25,.96,.48,1.7,1.15,2.22,1.99,.52,.84,.79,1.9,.82,3.16,.04,1.83-.62,3.43-1.97,4.78-1.35,1.36-3.49,2.15-6.41,2.35-5.17,.36-8.09-1.9-8.76-6.69Z"/>
  </g>
</svg>