<?xml version="1.0" encoding="UTF-8"?>
<svg id="Layer_1" data-name="Layer 1" xmlns="http://www.w3.org/2000/svg" width="237" height="214" xmlns:xlink="http://www.w3.org/1999/xlink" viewBox="0 0 237 214">
  <defs>
    <style>
      .cls-1 {
        fill: #0f6a80;
      }

      .cls-2 {
        fill: url(#linear-gradient);
      }

      .cls-2, .cls-3, .cls-4 {
        stroke: #0f6a80;
        stroke-linejoin: round;
        stroke-width: 3px;
      }

      .cls-3 {
        fill: url(#linear-gradient-2);
      }

      .cls-4 {
        fill: url(#linear-gradient-3);
      }
    </style>
    <linearGradient id="linear-gradient" x1="63.4" y1="111.18" x2="235.02" y2="111.18" gradientTransform="matrix(1, 0, 0, 1, 0, 0)" gradientUnits="userSpaceOnUse">
      <stop offset="0" stop-color="#30c8c9"/>
      <stop offset="1" stop-color="#9ef9e0"/>
    </linearGradient>
    <linearGradient id="linear-gradient-2" x1="149.21" y1="18.58" x2="149.21" y2="1.88" gradientTransform="matrix(1, 0, 0, 1, 0, 0)" gradientUnits="userSpaceOnUse">
      <stop offset="0" stop-color="#30c8c9"/>
      <stop offset="1" stop-color="#9ef9e0"/>
    </linearGradient>
    <linearGradient id="linear-gradient-3" x1="70.6" y1="96.92" x2="1.98" y2="96.92" xlink:href="#linear-gradient"/>
  </defs>
  <path class="cls-2" d="M63.4,10.23V173.04c0,3.71,3.28,7.21,9.08,10.32l4.94,12.73s13.03,16.04,72.64,16.04,71.87-16.04,71.87-16.04l5.85-13.78c4.65-2.84,7.25-5.97,7.25-9.27V10.23H63.4Z"/>
  <ellipse class="cls-3" cx="149.21" cy="10.23" rx="85.81" ry="8.35"/>
  <g>
    <path class="cls-1" d="M82.72,81.79c-1.74-7.93-3.48-15.71-5.25-23.32,1.52,0,3.05,0,4.57,0,1.1,5.33,2.19,10.72,3.27,16.18,1.35-5.31,2.71-10.71,4.08-16.17,1.77,0,3.54,0,5.31,0,1.27,5.66,2.53,11.38,3.8,17.16,1.16-5.66,2.32-11.38,3.49-17.15,1.49,0,2.99,0,4.48,0-1.83,8.34-3.66,16.59-5.48,24.71-1.58-.1-3.16-.21-4.74-.32-1.44-6.19-2.88-12.3-4.33-18.33-1.48,5.97-2.95,11.86-4.42,17.65-1.6-.13-3.19-.27-4.79-.42Z"/>
    <path class="cls-1" d="M107.77,71.21c.01-2.99,.5-5.44,1.46-7.37,.96-1.93,2.21-3.37,3.74-4.33,1.54-.95,3.39-1.44,5.57-1.44,3.16,0,5.73,1.15,7.71,3.48,1.98,2.33,2.97,5.65,2.95,9.96-.01,4.35-1.08,7.73-3.2,10.11-1.86,2.1-4.38,3.09-7.56,2.95-3.2-.14-5.72-1.31-7.56-3.48-2.1-2.48-3.13-5.76-3.11-9.88Zm4.59-.05c-.01,2.92,.56,5.12,1.74,6.63,1.17,1.51,2.63,2.3,4.38,2.36,1.76,.06,3.22-.63,4.38-2.07,1.16-1.44,1.75-3.7,1.76-6.75,0-3-.54-5.22-1.66-6.66-1.12-1.44-2.58-2.16-4.4-2.18-1.82-.01-3.29,.69-4.45,2.1-1.15,1.41-1.73,3.59-1.74,6.57Z"/>
    <path class="cls-1" d="M132.69,84.6c.02-8.69,.05-17.38,.07-26.08,3.13,0,6.26,0,9.39,0,2.4,0,4.12,.24,5.14,.71,1.03,.47,1.88,1.29,2.54,2.45,.66,1.16,.99,2.56,.99,4.18,0,2.05-.5,3.71-1.52,4.96-1.01,1.25-2.45,2.04-4.32,2.36,.96,.67,1.75,1.41,2.37,2.2,.62,.8,1.48,2.22,2.56,4.27,.9,1.71,1.8,3.41,2.7,5.12-1.78,0-3.56,0-5.34,0-1.08-1.91-2.16-3.82-3.24-5.73-1.16-2.07-1.95-3.37-2.37-3.89-.41-.52-.86-.88-1.33-1.08-.46-.2-1.22-.3-2.25-.31-.31,0-.62,0-.92,0,0,3.64-.02,7.28-.02,10.92-1.49-.02-2.98-.05-4.46-.09Zm4.49-15.01c1.11,0,2.21,.01,3.31,.02,2.03,.01,3.31-.07,3.87-.24,.55-.17,1-.52,1.34-1.04,.34-.52,.51-1.22,.52-2.09,0-.84-.17-1.51-.51-2.02-.34-.51-.81-.86-1.4-1.05-.41-.13-1.62-.2-3.62-.2-1.16,0-2.33,0-3.49,0,0,2.21,0,4.43-.01,6.64Z"/>
    <path class="cls-1" d="M155.17,84.76c0-8.68-.02-17.35-.03-26.03,1.48,0,2.96,0,4.45,0,.01,7.18,.02,14.37,.04,21.55,3.71-.04,7.42-.11,11.13-.19,0,1.46,.01,2.93,.01,4.39-5.2,.15-10.4,.24-15.61,.28Z"/>
    <path class="cls-1" d="M173.84,58.52c2.71,0,5.42,0,8.13,0,2.06,0,3.61,.21,4.66,.64,1.05,.43,2.02,1.15,2.9,2.17,.89,1.01,1.58,2.33,2.09,3.94,.51,1.61,.77,3.62,.78,6.02,.01,2.16-.24,4.06-.76,5.68-.51,1.62-1.18,2.93-1.98,3.91-.8,.98-1.77,1.74-2.92,2.27-1.14,.53-2.61,.85-4.42,.93-2.79,.12-5.59,.23-8.39,.32-.03-8.62-.07-17.25-.1-25.87Zm4.47,4.35c.02,5.67,.05,11.34,.07,17.01,1.12-.04,2.23-.07,3.35-.11,1.44-.05,2.47-.22,3.12-.5,.64-.28,1.17-.68,1.58-1.21,.41-.53,.74-1.35,1.01-2.46,.26-1.11,.39-2.57,.38-4.37-.01-1.87-.16-3.35-.44-4.42-.28-1.08-.71-1.92-1.3-2.54-.59-.62-1.29-1.02-2.13-1.21-.62-.14-1.83-.21-3.62-.2-.67,0-1.35,0-2.02,.01Z"/>
    <path class="cls-1" d="M195.96,58.5c1.41,0,2.82,0,4.22,0,0,1.13,.01,2.25,.02,3.38,0,1.9-.23,3.31-.71,4.27-.6,1.15-1.59,2.03-3,2.65-.28-.65-.56-1.31-.84-1.96,.83-.33,1.43-.78,1.79-1.32,.36-.55,.56-1.31,.58-2.27-.68,0-1.36,.02-2.04,.03,0-1.59-.02-3.17-.02-4.76Z"/>
    <path class="cls-1" d="M203.66,74.88c1.45-.23,2.89-.45,4.34-.68,.5,3.04,2.11,4.47,4.81,4.27,1.34-.1,2.39-.49,3.16-1.15,.77-.66,1.14-1.45,1.15-2.34,0-.53-.14-.97-.4-1.32-.27-.35-.68-.63-1.23-.84-.55-.21-1.88-.54-3.99-1.01-1.89-.42-3.28-.91-4.17-1.48-.88-.57-1.59-1.34-2.11-2.3-.52-.97-.79-2.02-.79-3.16,0-1.32,.33-2.52,.99-3.58,.66-1.06,1.58-1.86,2.75-2.4,1.17-.54,2.62-.8,4.35-.8,2.6,0,4.62,.62,6.08,1.81,1.45,1.2,2.23,2.9,2.31,5.12-1.48,.11-2.97,.22-4.45,.33-.2-1.25-.63-2.11-1.27-2.6-.65-.49-1.58-.73-2.77-.71-1.2,.02-2.12,.25-2.77,.7-.65,.45-.96,1.01-.97,1.68,0,.65,.3,1.19,.89,1.62,.59,.43,1.94,.88,4.06,1.33,2.24,.49,3.85,1.02,4.85,1.59,.99,.57,1.75,1.32,2.28,2.26,.53,.94,.78,2.08,.79,3.45,0,1.98-.71,3.7-2.14,5.19-1.43,1.49-3.65,2.39-6.7,2.66-5.38,.48-8.4-2.08-9.03-7.62Z"/>
    <path class="cls-1" d="M111.13,96.08c2.95,.22,5.91,.42,8.87,.59,2.43,.14,4.13,.43,5.11,.91,.98,.47,1.81,1.26,2.49,2.36,.67,1.11,1.01,2.34,1,3.7,0,1.25-.29,2.37-.88,3.35-.59,.98-1.34,1.68-2.27,2.11,1.31,.53,2.35,1.35,3.08,2.48,.74,1.13,1.11,2.47,1.11,4.04,0,1.89-.49,3.47-1.44,4.71-.96,1.24-2.08,1.97-3.38,2.17-.9,.14-2.99,.08-6.27-.25-2.52-.25-5.03-.54-7.54-.86,.04-8.43,.08-16.86,.12-25.3Zm4.44,4.56c0,1.97-.02,3.93-.03,5.9,.98,.08,1.97,.16,2.95,.24,1.77,.14,2.87,.18,3.28,.15,.76-.06,1.36-.33,1.79-.81,.43-.47,.65-1.14,.65-2,0-.76-.17-1.39-.52-1.89-.35-.5-.77-.82-1.27-.96-.5-.15-1.93-.29-4.29-.45-.86-.06-1.72-.12-2.58-.18Zm-.05,10.14c-.01,2.27-.02,4.54-.03,6.8,1.39,.14,2.77,.28,4.16,.4,1.82,.17,3,.17,3.52,.03,.52-.14,.96-.46,1.31-.97,.35-.51,.53-1.17,.54-1.99,0-.85-.18-1.55-.56-2.12-.37-.57-.88-.98-1.5-1.23-.62-.25-1.89-.44-3.82-.6-1.21-.1-2.42-.2-3.62-.31Z"/>
    <path class="cls-1" d="M133.43,123.37c.02-8.7,.05-17.4,.07-26.09,5.49,.17,11,.26,16.49,.25,0,1.48,0,2.96,0,4.44-4.01,0-8.02-.04-12.03-.14,0,1.93,0,3.87-.01,5.8,3.73,.11,7.46,.16,11.19,.16v4.42c-3.73,0-7.47-.06-11.2-.18,0,2.37,0,4.74-.01,7.11,4.15,.15,8.31,.21,12.47,.2,0,1.48,0,2.96,0,4.44-5.66,.02-11.32-.12-16.97-.42Z"/>
    <path class="cls-1" d="M153.07,115.21c1.47-.18,2.93-.37,4.4-.57,.5,3.34,2.12,4.98,4.87,4.87,1.36-.05,2.43-.44,3.2-1.16,.78-.72,1.17-1.58,1.16-2.59,0-.59-.14-1.09-.41-1.49-.27-.4-.69-.72-1.24-.97-.55-.25-1.9-.63-4.04-1.2-1.92-.5-3.32-1.08-4.21-1.72-.89-.64-1.6-1.49-2.12-2.55-.52-1.06-.79-2.21-.79-3.43,0-1.43,.34-2.72,1.01-3.88,.67-1.15,1.6-2.03,2.78-2.63,1.19-.6,2.64-.92,4.38-.96,2.61-.06,4.66,.55,6.12,1.86,1.47,1.31,2.25,3.21,2.35,5.74-1.5,.15-2.99,.29-4.49,.43-.2-1.39-.63-2.36-1.28-2.89-.66-.54-1.59-.79-2.8-.75-1.21,.03-2.14,.3-2.79,.8-.66,.5-.98,1.11-.98,1.84,0,.71,.3,1.31,.89,1.78,.59,.47,1.96,.98,4.1,1.49,2.26,.55,3.89,1.14,4.9,1.79,1.01,.65,1.78,1.5,2.31,2.56,.54,1.06,.8,2.37,.81,3.93,.01,2.25-.72,4.2-2.16,5.82-1.45,1.63-3.71,2.54-6.81,2.67-5.47,.22-8.52-2.77-9.14-8.77Z"/>
    <path class="cls-1" d="M179.99,122.28c-.03-7.11-.06-14.21-.09-21.32-2.19,.15-4.39,.28-6.59,.39,0-1.46-.01-2.92-.02-4.38,5.88-.27,11.74-.65,17.59-1.13,0,1.42,.01,2.84,.02,4.25-2.18,.2-4.36,.38-6.55,.55,.03,7.05,.07,14.11,.1,21.16-1.49,.17-2.98,.33-4.47,.48Z"/>
    <path class="cls-1" d="M108.36,133.25c2.95,.48,5.91,.9,8.87,1.27,2.43,.3,4.14,.7,5.13,1.22,.99,.53,1.82,1.36,2.5,2.49,.67,1.14,1.01,2.38,1.01,3.74,0,1.25-.3,2.35-.89,3.29-.59,.94-1.35,1.6-2.28,1.97,1.32,.6,2.35,1.48,3.1,2.65,.74,1.16,1.11,2.52,1.11,4.08,0,1.89-.49,3.43-1.45,4.62-.96,1.19-2.09,1.84-3.39,1.97-.9,.08-3-.1-6.28-.67-2.52-.44-5.03-.93-7.54-1.47,.04-8.39,.08-16.78,.13-25.16Zm4.43,4.9c0,1.96-.02,3.91-.03,5.87,.98,.16,1.97,.31,2.95,.46,1.78,.26,2.87,.38,3.29,.38,.77-.01,1.36-.24,1.8-.69,.44-.44,.65-1.09,.66-1.95,0-.76-.17-1.4-.52-1.91-.34-.52-.77-.86-1.27-1.04-.5-.18-1.94-.41-4.3-.74-.86-.12-1.72-.25-2.58-.38Zm-.05,10.1c-.01,2.26-.02,4.51-.03,6.77,1.39,.25,2.78,.49,4.17,.72,1.83,.29,3.01,.37,3.53,.27,.52-.11,.95-.4,1.31-.89,.36-.48,.53-1.14,.54-1.96,0-.84-.19-1.56-.56-2.15-.38-.59-.88-1.03-1.5-1.32-.62-.29-1.9-.56-3.83-.86-1.21-.18-2.42-.38-3.63-.58Z"/>
    <path class="cls-1" d="M129.82,148.95c0-3.1,.5-5.61,1.46-7.54,.96-1.94,2.23-3.35,3.78-4.25,1.55-.9,3.43-1.3,5.64-1.23,3.19,.11,5.81,1.31,7.83,3.68,2.02,2.36,3.02,5.69,3.03,10.04,0,4.39-1.07,7.85-3.21,10.31-1.88,2.18-4.44,3.23-7.67,3.08-3.25-.15-5.82-1.42-7.69-3.72-2.14-2.63-3.19-6.1-3.17-10.37Zm4.65,.19c0,3,.59,5.3,1.78,6.88,1.19,1.58,2.67,2.42,4.45,2.5,1.78,.08,3.26-.63,4.44-2.1,1.18-1.47,1.76-3.77,1.76-6.88,0-3.05-.57-5.3-1.71-6.78-1.14-1.48-2.63-2.24-4.47-2.3-1.84-.06-3.34,.59-4.5,1.99-1.16,1.4-1.74,3.62-1.75,6.69Z"/>
    <path class="cls-1" d="M153.97,154.18c1.47-.2,2.95-.41,4.42-.64,.5,3.33,2.14,4.94,4.9,4.75,1.37-.09,2.44-.52,3.22-1.27,.79-.75,1.17-1.62,1.17-2.63,0-.59-.14-1.08-.41-1.48-.28-.39-.69-.7-1.25-.92-.55-.23-1.92-.57-4.07-1.07-1.93-.45-3.34-1-4.24-1.62-.9-.62-1.61-1.46-2.14-2.52-.53-1.05-.8-2.2-.8-3.42,0-1.43,.34-2.73,1.01-3.89,.67-1.16,1.61-2.05,2.8-2.68,1.19-.63,2.66-.98,4.41-1.07,2.63-.14,4.68,.4,6.16,1.65,1.48,1.25,2.27,3.11,2.36,5.63-1.5,.22-3.01,.42-4.51,.61-.2-1.38-.63-2.33-1.29-2.85-.66-.51-1.6-.74-2.81-.67-1.22,.07-2.15,.35-2.81,.87-.66,.51-.98,1.13-.98,1.86,0,.71,.3,1.3,.9,1.76,.59,.46,1.97,.94,4.12,1.38,2.27,.49,3.91,1.01,4.93,1.61,1.01,.61,1.79,1.42,2.32,2.46,.54,1.04,.81,2.33,.81,3.89,0,2.25-.71,4.23-2.17,5.91-1.45,1.69-3.74,2.69-6.85,2.91-5.5,.38-8.58-2.6-9.2-8.58Z"/>
    <path class="cls-1" d="M174.83,152.72c1.47-.34,2.93-.69,4.39-1.06,.51,3.21,2.13,4.62,4.87,4.15,1.35-.23,2.42-.76,3.19-1.57,.77-.81,1.15-1.7,1.15-2.68,0-.57-.14-1.04-.41-1.39-.27-.35-.68-.61-1.24-.77-.55-.16-1.89-.36-4.03-.65-1.91-.25-3.32-.66-4.21-1.18-.89-.53-1.6-1.29-2.13-2.27-.53-.99-.79-2.09-.8-3.3,0-1.41,.32-2.71,1-3.91,.67-1.2,1.6-2.15,2.77-2.86,1.18-.71,2.64-1.17,4.37-1.4,2.61-.35,4.64,.01,6.11,1.09,1.46,1.08,2.25,2.82,2.34,5.24-1.49,.35-2.98,.68-4.47,1-.2-1.33-.63-2.21-1.29-2.65-.65-.44-1.59-.58-2.79-.41-1.21,.17-2.14,.53-2.79,1.09-.65,.56-.98,1.19-.97,1.91,0,.7,.31,1.25,.9,1.64,.59,.4,1.96,.74,4.09,.98,2.25,.26,3.88,.62,4.88,1.11,1,.49,1.77,1.21,2.3,2.16,.53,.95,.8,2.17,.81,3.68,0,2.17-.7,4.16-2.13,5.95-1.43,1.79-3.68,3.02-6.76,3.57-5.45,.97-8.52-1.62-9.15-7.46Z"/>
  </g>
  <path class="cls-4" d="M63.27,29.43s-5.18,2.2-10.97,0S8.4,24.18,3.52,70.51c-4.88,46.34,1.22,86.58,27.13,92.37,25.91,5.79,39.02,0,39.02,0,0,0,3.35-21.03-2.74-22.25-6.1-1.22-8.2,13.11-22.7,11.89-14.49-1.22-26.99-12.79-28.21-49.38s6.7-58.23,20.27-58.54,23.94,5.49,27.59,16.46c0,0,7.01-19.38-.61-31.64Z"/>
</svg>