<?xml version="1.0" encoding="UTF-8"?>
<svg id="Layer_1" data-name="Layer 1" xmlns="http://www.w3.org/2000/svg" width="350" height="605" viewBox="0 0 350 605">
  <defs>
    <style>
      .cls-1 {
        fill: #f4f4f4;
      }

      .cls-2 {
        fill: #fff;
      }

      .cls-3 {
        fill: #151a1e;
      }

      .cls-4 {
        fill: #707070;
      }

      .cls-5 {
        stroke: #c4c4c4;
        stroke-linejoin: round;
        stroke-width: 3px;
      }

      .cls-5, .cls-6 {
        fill: none;
      }

      .cls-6 {
        stroke: #151a1e;
        stroke-miterlimit: 10;
        stroke-width: 2px;
      }
    </style>
  </defs>
  <path class="cls-1" d="M331.44,8.39H18.56c-6.11,0-11.07,4.96-11.07,11.07V585.54c0,6.11,4.96,11.07,11.07,11.07H331.44c6.11,0,11.07-4.96,11.07-11.07V19.46c0-6.11-4.96-11.07-11.07-11.07Zm-26.57,552.41h-44.43c-6.15,0-11.14-4.99-11.14-11.14s4.99-11.14,11.14-11.14h44.43c6.15,0,11.14,4.99,11.14,11.14s-4.99,11.14-11.14,11.14Zm0-75.65h-44.43c-6.15,0-11.14-4.99-11.14-11.14s4.99-11.14,11.14-11.14h44.43c6.15,0,11.14,4.99,11.14,11.14s-4.99,11.14-11.14,11.14Zm0-75.65h-44.43c-6.15,0-11.14-4.99-11.14-11.14s4.99-11.14,11.14-11.14h44.43c6.15,0,11.14,4.99,11.14,11.14s-4.99,11.14-11.14,11.14Zm0-75.65h-44.43c-6.15,0-11.14-4.99-11.14-11.14s4.99-11.14,11.14-11.14h44.43c6.15,0,11.14,4.99,11.14,11.14s-4.99,11.14-11.14,11.14Zm0-75.65h-44.43c-6.15,0-11.14-4.99-11.14-11.14s4.99-11.14,11.14-11.14h44.43c6.15,0,11.14,4.99,11.14,11.14s-4.99,11.14-11.14,11.14Zm0-75.65h-44.43c-6.15,0-11.14-4.99-11.14-11.14s4.99-11.14,11.14-11.14h44.43c6.15,0,11.14,4.99,11.14,11.14s-4.99,11.14-11.14,11.14Zm0-75.65h-44.43c-6.15,0-11.14-4.99-11.14-11.14s4.99-11.14,11.14-11.14h44.43c6.15,0,11.14,4.99,11.14,11.14s-4.99,11.14-11.14,11.14Z"/>
  <rect class="cls-5" x="7.49" y="8.39" width="335.03" height="588.23" rx="11.07" ry="11.07"/>
  <g>
    <path class="cls-3" d="M34.03,27.77c1.11,0,2.06,.18,2.85,.54,.79,.36,1.38,.87,1.79,1.52s.61,1.4,.61,2.26h-2.61c0-.62-.24-1.13-.71-1.52s-1.13-.58-1.97-.58c-.51,0-.95,.08-1.34,.23-.39,.16-.69,.37-.89,.64-.21,.27-.31,.58-.31,.91,0,.51,.16,.91,.48,1.23,.32,.31,.86,.56,1.62,.76l1.89,.49c1.44,.38,2.49,.89,3.15,1.56,.66,.66,.99,1.56,.99,2.68,0,.82-.2,1.54-.61,2.18-.41,.64-1.02,1.13-1.84,1.49-.82,.36-1.82,.54-3,.54s-2.19-.19-3.03-.58c-.84-.39-1.48-.93-1.93-1.63-.44-.7-.66-1.51-.66-2.43h2.61c0,.51,.12,.96,.37,1.35,.25,.4,.6,.71,1.06,.93,.46,.23,1,.34,1.6,.34s1.11-.09,1.54-.28c.43-.19,.75-.44,.96-.77,.21-.32,.32-.69,.32-1.09,0-.52-.17-.93-.5-1.24-.33-.3-.9-.55-1.7-.75l-1.81-.43c-1.48-.35-2.54-.88-3.18-1.58-.64-.71-.96-1.61-.96-2.71,0-.78,.2-1.48,.61-2.09,.41-.62,1-1.1,1.79-1.44,.78-.34,1.72-.52,2.81-.52Z"/>
    <path class="cls-3" d="M46.65,31.62c1.12,0,2.09,.24,2.93,.73,.84,.49,1.47,1.15,1.92,2,.44,.85,.66,1.79,.66,2.83s-.22,1.98-.66,2.83c-.44,.85-1.08,1.52-1.92,2-.84,.49-1.81,.73-2.93,.73s-2.11-.24-2.94-.73c-.83-.49-1.47-1.15-1.92-1.99s-.67-1.79-.67-2.84,.22-2,.67-2.84,1.09-1.51,1.92-1.99c.83-.49,1.81-.73,2.94-.73Zm0,2.24c-.62,0-1.16,.14-1.62,.41s-.82,.66-1.07,1.16c-.25,.5-.38,1.09-.38,1.76s.13,1.26,.38,1.76,.61,.88,1.07,1.16,1,.41,1.62,.41,1.14-.14,1.6-.41,.82-.66,1.07-1.17,.38-1.09,.38-1.75-.13-1.25-.38-1.75-.61-.89-1.07-1.17-1-.41-1.6-.41Z"/>
    <path class="cls-3" d="M53.91,31.85h2.33v10.64h-2.33v-10.64Zm5.23-.23c.76,0,1.44,.19,2.03,.55s1.05,.91,1.37,1.63,.49,1.58,.49,2.58v6.11h-2.33v-5.58c0-1.01-.2-1.79-.6-2.33-.4-.54-.95-.82-1.63-.82-.43,0-.81,.13-1.15,.38-.34,.25-.6,.62-.79,1.09-.19,.47-.28,1.03-.28,1.66l-.35-2.74c.17-.74,.54-1.35,1.11-1.82,.57-.47,1.28-.71,2.14-.71Zm6.59,0c.8,0,1.51,.2,2.13,.58,.62,.39,1.09,.95,1.43,1.69,.34,.74,.5,1.61,.5,2.63v5.97h-2.33v-5.58c0-1.01-.2-1.79-.59-2.33-.4-.54-.94-.82-1.62-.82-.43,0-.81,.13-1.15,.38-.34,.25-.6,.62-.79,1.09-.19,.47-.28,1.03-.28,1.66l-.82-2.92c.27-.7,.72-1.27,1.33-1.7s1.35-.65,2.19-.65Z"/>
    <path class="cls-3" d="M76.78,31.66c1.08,0,2.02,.22,2.83,.67,.81,.45,1.44,1.08,1.89,1.9,.45,.82,.67,1.77,.67,2.86v.89h-9.9v-1.91h9l-1.54,1.11v-.53c0-.57-.13-1.07-.38-1.5s-.6-.75-1.05-.98c-.45-.23-.96-.34-1.53-.34s-1.04,.13-1.49,.4c-.45,.27-.8,.63-1.05,1.08-.25,.45-.38,.94-.38,1.46v.74c0,.58,.12,1.1,.36,1.56,.24,.45,.58,.81,1.03,1.06s.98,.38,1.58,.38,1.15-.1,1.58-.29,.75-.47,.97-.82h2.53c-.22,.65-.57,1.22-1.04,1.72s-1.06,.88-1.75,1.16c-.69,.27-1.46,.41-2.31,.41-1.08,0-2.02-.23-2.84-.68-.82-.45-1.45-1.1-1.91-1.94-.45-.84-.68-1.81-.68-2.91s.22-2.07,.67-2.9c.45-.83,1.08-1.47,1.9-1.93,.82-.45,1.76-.68,2.82-.68Z"/>
    <path class="cls-3" d="M88.24,31.62c1.01,0,1.86,.23,2.54,.7s1.18,1.12,1.51,1.96l-.47,2.84c0-1.08-.27-1.93-.81-2.55-.54-.62-1.25-.93-2.15-.93-.58,0-1.1,.14-1.55,.43s-.8,.69-1.05,1.22-.38,1.14-.38,1.84,.13,1.31,.38,1.84,.6,.93,1.05,1.22,.96,.43,1.55,.43c.9,0,1.61-.31,2.15-.93s.81-1.47,.81-2.55l.47,2.94c-.32,.84-.83,1.5-1.51,1.97-.68,.47-1.53,.71-2.54,.71-.95,0-1.78-.22-2.51-.67-.73-.45-1.29-1.09-1.69-1.93s-.6-1.83-.6-2.97,.2-2.13,.6-2.98c.4-.84,.97-1.48,1.69-1.92,.73-.44,1.56-.66,2.51-.66Zm3.58-4.32h2.33v15.19h-2.33v-15.19Z"/>
    <path class="cls-3" d="M104.28,35.64l.43,1.87-3.97,.6c-.78,.12-1.32,.29-1.61,.53-.3,.24-.45,.54-.45,.91,0,.27,.14,.49,.42,.66,.28,.17,.68,.25,1.2,.25,.63,0,1.21-.11,1.72-.32,.51-.21,.91-.52,1.21-.9,.29-.39,.44-.82,.44-1.3l.89,.31c0,.87-.18,1.64-.54,2.3-.36,.67-.9,1.19-1.6,1.57-.71,.38-1.55,.56-2.54,.56-1.1,0-1.97-.27-2.62-.8-.64-.53-.96-1.25-.96-2.16s.31-1.63,.94-2.24c.63-.61,1.62-1.02,2.97-1.22l4.08-.62Zm-2.94-3.99c1.48,0,2.62,.4,3.43,1.21,.81,.8,1.22,1.94,1.22,3.4v6.22h-2.33v-6.67c0-.65-.2-1.14-.6-1.48s-.97-.51-1.71-.51c-.69,0-1.21,.13-1.58,.38-.37,.25-.59,.61-.65,1.08h-2.39c.04-.66,.24-1.27,.6-1.82,.36-.55,.89-.99,1.58-1.32,.69-.33,1.5-.5,2.45-.5Z"/>
    <path class="cls-3" d="M106.97,31.85h2.35l3.38,8.4-1.24,2.72-4.49-11.13Zm8.4,0h2.28l-5.93,14.16h-2.28l5.93-14.16Z"/>
  </g>
  <g>
    <path class="cls-3" d="M129.69,27.96h2.51v8.6c0,.83,.13,1.53,.4,2.1,.27,.57,.63,.99,1.08,1.26,.45,.27,.98,.41,1.58,.41s1.12-.14,1.58-.41,.81-.69,1.08-1.26c.27-.57,.4-1.27,.4-2.1v-8.6h2.43v8.64c0,1.96-.47,3.46-1.41,4.51-.94,1.05-2.31,1.58-4.11,1.58s-3.19-.53-4.12-1.58c-.93-1.05-1.4-2.55-1.4-4.51v-8.64Z"/>
    <path class="cls-3" d="M143.55,31.85h2.33v14.33h-2.33v-14.33Zm5.91-.23c.95,0,1.78,.22,2.51,.66,.73,.44,1.29,1.08,1.69,1.92,.4,.84,.6,1.83,.6,2.98s-.2,2.13-.6,2.97-.97,1.48-1.69,1.93c-.73,.45-1.56,.67-2.51,.67-1.01,0-1.86-.24-2.54-.71-.68-.47-1.18-1.13-1.51-1.97l.47-2.84c0,1.08,.27,1.93,.81,2.56s1.25,.94,2.15,.94c.58,0,1.1-.15,1.55-.44,.45-.29,.8-.7,1.05-1.22,.25-.53,.38-1.14,.38-1.84s-.13-1.29-.38-1.82c-.25-.52-.6-.93-1.05-1.22-.45-.29-.96-.44-1.55-.44-.89,0-1.61,.31-2.15,.93-.54,.62-.81,1.47-.81,2.55l-.47-2.94c.32-.84,.83-1.5,1.51-1.96s1.53-.7,2.54-.7Z"/>
    <path class="cls-3" d="M163.53,31.85h2.33v10.64h-2.33v-10.64Zm5.54-.23c.8,0,1.51,.19,2.11,.57,.6,.38,1.07,.94,1.41,1.67,.34,.73,.5,1.62,.5,2.66v5.97h-2.33v-5.54c0-.97-.22-1.73-.65-2.27-.43-.54-1.01-.81-1.74-.81-.48,0-.91,.13-1.29,.38s-.68,.61-.89,1.07c-.21,.46-.32,1-.32,1.6l-.35-2.78c.18-.73,.59-1.33,1.23-1.81,.63-.48,1.41-.72,2.33-.72Z"/>
    <path class="cls-3" d="M179.95,31.66c1.08,0,2.02,.22,2.83,.67,.81,.45,1.44,1.08,1.89,1.9,.45,.82,.67,1.77,.67,2.86v.89h-9.9v-1.91h9l-1.54,1.11v-.53c0-.57-.13-1.07-.38-1.5s-.6-.75-1.05-.98c-.45-.23-.96-.34-1.53-.34s-1.04,.13-1.49,.4c-.45,.27-.8,.63-1.05,1.08-.25,.45-.38,.94-.38,1.46v.74c0,.58,.12,1.1,.36,1.56,.24,.45,.58,.81,1.03,1.06s.98,.38,1.58,.38,1.15-.1,1.58-.29,.75-.47,.97-.82h2.53c-.22,.65-.57,1.22-1.04,1.72s-1.06,.88-1.75,1.16c-.69,.27-1.46,.41-2.31,.41-1.08,0-2.02-.23-2.84-.68-.82-.45-1.45-1.1-1.91-1.94-.45-.84-.68-1.81-.68-2.91s.22-2.07,.67-2.9c.45-.83,1.08-1.47,1.9-1.93,.82-.45,1.76-.68,2.82-.68Z"/>
    <path class="cls-3" d="M193.39,31.85h2.68l-4.3,5.84-.76,.68-3,4.12h-2.68l4.28-5.91,.78-.68,3-4.05Zm-7.96,0h2.76l7.88,10.64h-2.76l-7.88-10.64Z"/>
    <path class="cls-3" d="M196.65,31.85h6.77v1.98h-6.77v-1.98Zm2.08-3.38h2.33v14.02h-2.33v-14.02Z"/>
  </g>
  <line class="cls-6" x1="25.83" y1="37.24" x2="120.29" y2="37.24"/>
  <g>
    <circle class="cls-4" cx="309.95" cy="37.24" r="1.6"/>
    <circle class="cls-4" cx="316.02" cy="37.24" r="1.6"/>
    <circle class="cls-4" cx="322.08" cy="37.24" r="1.6"/>
  </g>
  <g>
    <path class="cls-2" d="M316.46,65.5H33.54c-6.11,0-11.07,4.96-11.07,11.07v38.35c0,6.11,4.96,11.07,11.07,11.07H316.46c6.11,0,11.07-4.96,11.07-11.07v-38.35c0-6.11-4.96-11.07-11.07-11.07Zm-.44,30.24c0,6.15-4.99,11.14-11.14,11.14h-44.43c-6.15,0-11.14-4.99-11.14-11.14h0c0-6.15,4.99-11.14,11.14-11.14h44.43c6.15,0,11.14,4.99,11.14,11.14h0Z"/>
    <rect class="cls-5" x="22.47" y="65.5" width="305.05" height="60.49" rx="11.07" ry="11.07"/>
    <g>
      <path class="cls-3" d="M39.99,90.44h1.84v10.68h-1.84v-10.68Zm3.79,0c.84,0,1.57,.15,2.2,.45,.63,.3,1.12,.73,1.46,1.3,.35,.57,.52,1.24,.52,2.01s-.17,1.43-.52,1.99c-.35,.57-.84,1.01-1.47,1.32s-1.37,.46-2.19,.46h-2.49v-1.74h2.22c.77,0,1.39-.17,1.86-.52s.7-.85,.7-1.51-.23-1.16-.7-1.5-1.09-.51-1.86-.51h-2.22v-1.74h2.49Zm.14,6.92h2.17l2.17,3.76h-2.17l-2.17-3.76Z"/>
      <path class="cls-3" d="M52.86,93.16c.79,0,1.48,.17,2.08,.49,.59,.33,1.06,.79,1.39,1.39,.33,.6,.49,1.3,.49,2.1v.66h-7.27v-1.4h6.62l-1.13,.81v-.39c0-.42-.09-.79-.28-1.1-.19-.31-.44-.56-.77-.72-.33-.17-.7-.25-1.12-.25s-.76,.1-1.09,.29c-.33,.2-.59,.46-.77,.79-.19,.33-.28,.69-.28,1.07v.54c0,.43,.09,.81,.26,1.14,.18,.33,.43,.59,.76,.78,.33,.19,.72,.28,1.17,.28s.84-.07,1.16-.21c.31-.14,.55-.34,.71-.6h1.86c-.16,.48-.42,.9-.76,1.26-.35,.37-.78,.65-1.29,.85s-1.07,.3-1.69,.3c-.79,0-1.49-.17-2.09-.5-.6-.33-1.07-.81-1.4-1.42-.33-.61-.5-1.33-.5-2.14s.17-1.52,.49-2.13c.33-.61,.79-1.08,1.39-1.42,.6-.33,1.29-.5,2.07-.5Z"/>
      <path class="cls-3" d="M63.84,96.09l.31,1.37-2.92,.44c-.57,.09-.97,.22-1.19,.39-.22,.18-.33,.4-.33,.66,0,.2,.1,.36,.31,.49,.2,.12,.5,.19,.88,.19,.47,0,.89-.08,1.26-.24,.38-.16,.67-.38,.89-.67,.21-.29,.32-.6,.32-.96l.66,.23c0,.64-.13,1.2-.4,1.69-.27,.49-.66,.87-1.18,1.15-.52,.28-1.14,.41-1.87,.41-.81,0-1.45-.2-1.92-.59-.47-.39-.71-.92-.71-1.59s.23-1.2,.69-1.64,1.19-.75,2.18-.9l3-.46Zm-2.16-2.93c1.09,0,1.93,.3,2.52,.89s.89,1.42,.89,2.5v4.57h-1.71v-4.9c0-.48-.15-.84-.44-1.09-.3-.25-.71-.37-1.26-.37-.5,0-.89,.09-1.17,.28s-.43,.45-.48,.79h-1.76c.03-.49,.18-.93,.44-1.34,.27-.41,.65-.73,1.16-.97,.5-.24,1.11-.37,1.8-.37Z"/>
      <path class="cls-3" d="M69.91,93.13c.74,0,1.37,.17,1.87,.51s.87,.82,1.11,1.44l-.34,2.09c0-.79-.2-1.42-.59-1.87-.4-.46-.92-.69-1.58-.69-.43,0-.81,.11-1.14,.31-.33,.21-.59,.51-.77,.89-.19,.39-.28,.84-.28,1.35s.09,.96,.28,1.35c.19,.39,.44,.68,.77,.89,.33,.21,.71,.31,1.14,.31,.66,0,1.18-.23,1.58-.69,.39-.46,.59-1.08,.59-1.87l.34,2.16c-.24,.62-.61,1.1-1.11,1.45s-1.12,.52-1.87,.52c-.7,0-1.31-.16-1.84-.49-.53-.33-.95-.8-1.24-1.41-.29-.62-.44-1.34-.44-2.18s.15-1.57,.44-2.19,.71-1.09,1.24-1.42c.53-.32,1.15-.49,1.84-.49Zm2.63-3.17h1.71v11.16h-1.71v-11.16Z"/>
      <path class="cls-3" d="M81.63,93.3h1.71v7.82h-1.71v-7.82Zm4.07-.17c.59,0,1.11,.14,1.55,.42,.44,.28,.79,.69,1.04,1.23,.25,.54,.37,1.19,.37,1.95v4.39h-1.71v-4.07c0-.71-.16-1.27-.48-1.67-.32-.4-.75-.59-1.28-.59-.35,0-.67,.09-.95,.28-.28,.19-.5,.45-.66,.79-.16,.34-.24,.73-.24,1.18l-.26-2.04c.13-.53,.43-.98,.9-1.33,.47-.35,1.04-.53,1.71-.53Z"/>
      <path class="cls-3" d="M93.69,93.16c.79,0,1.48,.17,2.08,.49,.59,.33,1.06,.79,1.39,1.39,.33,.6,.49,1.3,.49,2.1v.66h-7.27v-1.4h6.62l-1.13,.81v-.39c0-.42-.09-.79-.28-1.1-.19-.31-.44-.56-.77-.72-.33-.17-.7-.25-1.12-.25s-.76,.1-1.09,.29c-.33,.2-.59,.46-.77,.79-.19,.33-.28,.69-.28,1.07v.54c0,.43,.09,.81,.26,1.14,.18,.33,.43,.59,.76,.78,.33,.19,.72,.28,1.17,.28s.84-.07,1.16-.21c.31-.14,.55-.34,.71-.6h1.86c-.16,.48-.42,.9-.76,1.26-.35,.37-.78,.65-1.29,.85s-1.07,.3-1.69,.3c-.79,0-1.49-.17-2.09-.5-.6-.33-1.07-.81-1.4-1.42-.33-.61-.5-1.33-.5-2.14s.17-1.52,.49-2.13c.33-.61,.79-1.08,1.39-1.42,.6-.33,1.29-.5,2.07-.5Z"/>
      <path class="cls-3" d="M97.94,93.3h1.67l1.99,6.45h-.56l2.12-6.45h1.5l2.12,6.45h-.56l1.99-6.45h1.64l-2.39,7.82h-1.7l-2-5.92h.23l-2,5.92h-1.66l-2.39-7.82Z"/>
      <path class="cls-3" d="M116.22,89.96h1.71v11.16h-1.71v-11.16Zm4.39,3.17c.7,0,1.31,.16,1.84,.49,.53,.32,.95,.8,1.25,1.42s.45,1.35,.45,2.19-.15,1.56-.45,2.18c-.3,.61-.72,1.09-1.25,1.41-.53,.33-1.15,.49-1.84,.49-.75,0-1.38-.17-1.89-.52-.51-.35-.88-.83-1.12-1.45l.34-2.09c0,.77,.2,1.39,.61,1.87s.94,.71,1.61,.71c.42,0,.8-.11,1.14-.33,.34-.22,.6-.52,.79-.92,.19-.39,.28-.83,.28-1.33s-.09-.95-.28-1.34c-.19-.39-.45-.69-.78-.9-.33-.21-.71-.32-1.14-.32-.68,0-1.21,.23-1.61,.69-.4,.46-.6,1.08-.6,1.87l-.34-2.16c.24-.62,.61-1.1,1.12-1.44,.51-.34,1.14-.51,1.89-.51Z"/>
      <path class="cls-3" d="M129.07,93.13c.82,0,1.54,.18,2.15,.54s1.08,.85,1.41,1.47c.32,.62,.49,1.32,.49,2.08s-.16,1.46-.49,2.08c-.32,.62-.79,1.12-1.41,1.47-.61,.36-1.33,.54-2.15,.54s-1.55-.18-2.16-.54c-.61-.36-1.08-.84-1.41-1.46-.33-.62-.49-1.31-.49-2.09s.17-1.47,.49-2.09c.33-.62,.8-1.11,1.41-1.46,.61-.36,1.33-.54,2.16-.54Zm0,1.64c-.46,0-.86,.1-1.19,.3-.34,.2-.6,.48-.79,.85-.19,.37-.28,.8-.28,1.29s.09,.93,.28,1.29c.19,.37,.45,.65,.79,.85,.34,.2,.74,.3,1.19,.3s.84-.1,1.18-.3,.6-.49,.79-.86c.19-.37,.28-.8,.28-1.29s-.09-.92-.28-1.29c-.19-.37-.45-.66-.79-.86-.34-.2-.73-.3-1.18-.3Z"/>
      <path class="cls-3" d="M138.03,93.13c.82,0,1.54,.18,2.15,.54s1.08,.85,1.41,1.47c.32,.62,.49,1.32,.49,2.08s-.16,1.46-.49,2.08c-.32,.62-.79,1.12-1.41,1.47-.61,.36-1.33,.54-2.15,.54s-1.55-.18-2.16-.54c-.61-.36-1.08-.84-1.41-1.46-.33-.62-.49-1.31-.49-2.09s.17-1.47,.49-2.09c.33-.62,.8-1.11,1.41-1.46,.61-.36,1.33-.54,2.16-.54Zm0,1.64c-.46,0-.86,.1-1.19,.3-.34,.2-.6,.48-.79,.85-.19,.37-.28,.8-.28,1.29s.09,.93,.28,1.29c.19,.37,.45,.65,.79,.85,.34,.2,.74,.3,1.19,.3s.84-.1,1.18-.3,.6-.49,.79-.86c.19-.37,.28-.8,.28-1.29s-.09-.92-.28-1.29c-.19-.37-.45-.66-.79-.86-.34-.2-.73-.3-1.18-.3Z"/>
      <path class="cls-3" d="M143.29,89.96h1.71v11.16h-1.71v-11.16Zm4.92,3.37h2.03l-4.23,4.22-.47-1.33,4.8,4.9h-2.04l-3.94-3.9-.04-.03,3.9-3.86Z"/>
    </g>
    <g>
      <path class="cls-3" d="M263.54,91.74h1.49v8.64h-1.49v-8.64Zm3.07,0c.68,0,1.27,.12,1.78,.36,.51,.24,.9,.59,1.19,1.05,.28,.46,.42,1,.42,1.62s-.14,1.16-.42,1.61-.68,.81-1.19,1.06c-.51,.25-1.1,.38-1.78,.38h-2.01v-1.41h1.79c.62,0,1.13-.14,1.5-.42s.57-.69,.57-1.22-.19-.94-.57-1.21-.88-.42-1.5-.42h-1.79v-1.41h2.01Zm.12,5.6h1.76l1.76,3.04h-1.76l-1.76-3.04Z"/>
      <path class="cls-3" d="M271.8,91.74h1.49v8.64h-1.49v-8.64Zm1.06,0h4.93v1.42h-4.93v-1.42Zm0,3.2h3.6v1.42h-3.6v-1.42Zm0,4.01h4.97v1.42h-4.97v-1.42Z"/>
      <path class="cls-3" d="M282.06,91.74h1.68l3.34,8.64h-1.55l-2.89-7.71h.46l-2.89,7.71h-1.5l3.35-8.64Zm-1.95,5.49h5.46v1.42h-5.46v-1.42Z"/>
      <path class="cls-3" d="M288.12,91.74h1.49v8.64h-1.49v-8.64Zm2.56,0c.96,0,1.79,.17,2.49,.51,.69,.34,1.22,.84,1.59,1.49,.37,.65,.55,1.42,.55,2.33s-.18,1.68-.55,2.33-.9,1.14-1.59,1.48c-.69,.34-1.52,.51-2.49,.51h-1.49v-1.38h1.42c.98,0,1.75-.26,2.31-.77,.56-.51,.84-1.24,.84-2.17s-.28-1.67-.84-2.17c-.56-.51-1.33-.76-2.31-.76h-1.42v-1.39h1.49Z"/>
      <path class="cls-3" d="M295.25,91.74h1.61l2.41,4.41h-.42l2.41-4.41h1.56l-3.24,5.96,.2-1.7v4.38h-1.48v-4.38l.19,1.7-3.23-5.96Z"/>
    </g>
  </g>
  <g>
    <path class="cls-2" d="M316.46,141.16H33.54c-6.11,0-11.07,4.96-11.07,11.07v38.35c0,6.11,4.96,11.07,11.07,11.07H316.46c6.11,0,11.07-4.96,11.07-11.07v-38.35c0-6.11-4.96-11.07-11.07-11.07Zm-.44,30.24c0,6.15-4.99,11.14-11.14,11.14h-44.43c-6.15,0-11.14-4.99-11.14-11.14h0c0-6.15,4.99-11.14,11.14-11.14h44.43c6.15,0,11.14,4.99,11.14,11.14h0Z"/>
    <rect class="cls-5" x="22.47" y="141.16" width="305.05" height="60.49" rx="11.07" ry="11.07"/>
    <g>
      <path class="cls-3" d="M44.32,165.95c.93,0,1.75,.19,2.46,.57,.71,.38,1.26,.87,1.64,1.48,.38,.61,.59,1.26,.61,1.96h-1.96c-.04-.39-.17-.76-.4-1.1-.23-.34-.55-.62-.95-.83-.4-.21-.87-.31-1.41-.31-.57,0-1.08,.14-1.54,.43-.45,.29-.81,.71-1.07,1.27-.26,.56-.39,1.24-.39,2.03s.13,1.45,.39,2.02,.62,.99,1.08,1.28c.46,.29,.97,.44,1.53,.44,.53,0,1-.1,1.41-.31,.41-.21,.72-.49,.95-.83,.23-.34,.36-.71,.4-1.1h1.96c-.03,.69-.23,1.33-.61,1.94-.38,.61-.92,1.1-1.63,1.48-.71,.38-1.52,.56-2.44,.56-.97,0-1.83-.21-2.57-.64s-1.32-1.06-1.74-1.88c-.42-.82-.62-1.81-.62-2.95s.21-2.13,.61-2.95c.41-.82,.99-1.45,1.73-1.89,.74-.43,1.6-.65,2.56-.65Z"/>
      <path class="cls-3" d="M50.68,168.95h1.71v7.82h-1.71v-7.82Zm4.57-.17v1.82h-.67c-.48,0-.88,.09-1.2,.26-.32,.18-.57,.44-.74,.78s-.25,.76-.25,1.26l-.34-1.82c.15-.71,.5-1.26,1.03-1.68,.53-.42,1.26-.62,2.17-.62Z"/>
      <path class="cls-3" d="M56.54,168.95h1.72v4.07c0,.71,.15,1.27,.45,1.67,.3,.4,.7,.59,1.21,.59,.33,0,.63-.09,.89-.28,.26-.19,.47-.45,.61-.79,.15-.34,.22-.73,.22-1.17l.27,2.03c-.13,.54-.42,.99-.87,1.34-.45,.35-1,.53-1.66,.53-.56,0-1.06-.14-1.49-.42-.43-.28-.76-.69-1-1.24s-.36-1.2-.36-1.96v-4.39Zm5.09,0h1.72v7.82h-1.72v-7.82Z"/>
      <path class="cls-3" d="M67.87,168.78c.64,0,1.2,.11,1.67,.34s.84,.53,1.09,.92c.25,.39,.38,.83,.38,1.31h-1.8c0-.29-.14-.54-.38-.74-.24-.2-.57-.29-.98-.29s-.71,.07-.92,.21c-.21,.14-.31,.32-.31,.55s.07,.42,.21,.54c.14,.12,.44,.23,.89,.31l1.1,.21c.57,.11,1.03,.29,1.38,.51s.6,.5,.75,.81,.23,.67,.23,1.07c0,.74-.28,1.33-.84,1.76-.56,.43-1.34,.64-2.33,.64-1.1,0-1.93-.25-2.52-.74-.58-.49-.87-1.13-.87-1.91h1.77c.02,.34,.17,.61,.44,.81s.7,.29,1.27,.29c.42,0,.74-.08,.96-.23,.22-.15,.33-.35,.33-.59,0-.27-.09-.47-.26-.62-.18-.14-.49-.26-.95-.34l-1.2-.23c-.75-.14-1.3-.42-1.64-.82-.34-.4-.51-.91-.51-1.51,0-.44,.12-.83,.35-1.18s.58-.62,1.04-.82c.46-.2,1.01-.3,1.66-.3Z"/>
      <path class="cls-3" d="M72.86,165.61h1.72v11.16h-1.72v-11.16Zm4.07,3.17c.59,0,1.11,.14,1.55,.42s.79,.69,1.04,1.23c.25,.54,.37,1.19,.37,1.95v4.39h-1.71v-4.07c0-.71-.16-1.27-.48-1.67s-.75-.59-1.28-.59c-.35,0-.67,.09-.94,.28-.28,.19-.49,.45-.65,.79-.16,.34-.24,.73-.24,1.18l-.27-2.04c.13-.53,.43-.98,.9-1.33s1.04-.53,1.71-.53Z"/>
      <path class="cls-3" d="M86.65,168.95h4.97v1.46h-4.97v-1.46Zm1.53-2.49h1.71v10.3h-1.71v-10.3Z"/>
      <path class="cls-3" d="M96.08,168.81c.79,0,1.48,.17,2.08,.49,.59,.33,1.06,.79,1.39,1.39,.33,.6,.49,1.3,.49,2.1v.66h-7.27v-1.4h6.62l-1.13,.81v-.39c0-.42-.09-.79-.28-1.1-.19-.31-.44-.56-.77-.72-.33-.17-.7-.25-1.12-.25s-.76,.1-1.09,.29c-.33,.2-.59,.46-.77,.79-.19,.33-.28,.69-.28,1.07v.54c0,.43,.09,.81,.26,1.14,.18,.33,.43,.59,.76,.78,.33,.19,.72,.28,1.17,.28s.84-.07,1.16-.21c.31-.14,.55-.34,.71-.6h1.86c-.16,.48-.42,.9-.76,1.26-.35,.37-.78,.65-1.29,.85s-1.07,.3-1.69,.3c-.79,0-1.49-.17-2.09-.5-.6-.33-1.07-.81-1.4-1.42-.33-.61-.5-1.33-.5-2.14s.17-1.52,.49-2.13c.33-.61,.79-1.08,1.39-1.42,.6-.33,1.29-.5,2.07-.5Z"/>
      <path class="cls-3" d="M104.91,168.78c.69,0,1.3,.14,1.86,.42s.99,.65,1.32,1.12c.33,.47,.51,.99,.54,1.55h-1.82c-.03-.29-.13-.56-.31-.81-.18-.24-.4-.43-.68-.57-.28-.14-.58-.21-.91-.21-.42,0-.79,.1-1.12,.31s-.58,.51-.76,.9c-.18,.39-.27,.85-.27,1.37s.09,.98,.27,1.37c.18,.39,.43,.69,.76,.9,.32,.21,.7,.31,1.12,.31,.33,0,.64-.07,.91-.21,.28-.14,.5-.33,.68-.57,.18-.24,.28-.51,.31-.81h1.82c-.03,.56-.21,1.08-.54,1.55-.33,.47-.77,.85-1.32,1.12s-1.17,.41-1.86,.41c-.8,0-1.5-.17-2.09-.5s-1.05-.81-1.37-1.43c-.32-.62-.49-1.34-.49-2.16s.16-1.55,.48-2.17c.32-.62,.78-1.09,1.37-1.42,.59-.33,1.29-.5,2.09-.5Z"/>
      <path class="cls-3" d="M110,165.61h1.72v11.16h-1.72v-11.16Zm4.07,3.17c.59,0,1.11,.14,1.55,.42s.79,.69,1.04,1.23c.25,.54,.37,1.19,.37,1.95v4.39h-1.71v-4.07c0-.71-.16-1.27-.48-1.67s-.75-.59-1.28-.59c-.35,0-.67,.09-.94,.28-.28,.19-.49,.45-.65,.79-.16,.34-.24,.73-.24,1.18l-.27-2.04c.13-.53,.43-.98,.9-1.33s1.04-.53,1.71-.53Z"/>
      <path class="cls-3" d="M127.32,168.78c.74,0,1.37,.17,1.87,.51s.87,.82,1.11,1.44l-.34,2.09c0-.79-.2-1.42-.59-1.87-.4-.46-.92-.69-1.58-.69-.43,0-.81,.11-1.14,.31-.33,.21-.59,.51-.77,.89-.19,.39-.28,.84-.28,1.35s.09,.96,.28,1.35c.19,.39,.44,.68,.77,.89,.33,.21,.71,.31,1.14,.31,.66,0,1.18-.23,1.58-.69,.39-.46,.59-1.08,.59-1.87l.34,2.16c-.24,.62-.61,1.1-1.11,1.45s-1.12,.52-1.87,.52c-.7,0-1.31-.16-1.84-.49-.53-.33-.95-.8-1.24-1.41-.29-.62-.44-1.34-.44-2.18s.15-1.57,.44-2.19,.71-1.09,1.24-1.42c.53-.32,1.15-.49,1.84-.49Zm2.63-3.17h1.71v11.16h-1.71v-11.16Z"/>
      <path class="cls-3" d="M136.84,168.81c.79,0,1.48,.17,2.08,.49,.59,.33,1.06,.79,1.39,1.39,.33,.6,.49,1.3,.49,2.1v.66h-7.27v-1.4h6.62l-1.13,.81v-.39c0-.42-.09-.79-.28-1.1-.19-.31-.44-.56-.77-.72-.33-.17-.7-.25-1.12-.25s-.76,.1-1.09,.29c-.33,.2-.59,.46-.77,.79-.19,.33-.28,.69-.28,1.07v.54c0,.43,.09,.81,.26,1.14,.18,.33,.43,.59,.76,.78,.33,.19,.72,.28,1.17,.28s.84-.07,1.16-.21c.31-.14,.55-.34,.71-.6h1.86c-.16,.48-.42,.9-.76,1.26-.35,.37-.78,.65-1.29,.85s-1.07,.3-1.69,.3c-.79,0-1.49-.17-2.09-.5-.6-.33-1.07-.81-1.4-1.42-.33-.61-.5-1.33-.5-2.14s.17-1.52,.49-2.13c.33-.61,.79-1.08,1.39-1.42,.6-.33,1.29-.5,2.07-.5Z"/>
      <path class="cls-3" d="M142.16,165.61h1.71v11.16h-1.71v-11.16Zm4.39,3.17c.7,0,1.31,.16,1.84,.49,.53,.32,.95,.8,1.25,1.42s.45,1.35,.45,2.19-.15,1.56-.45,2.18c-.3,.61-.72,1.09-1.25,1.41-.53,.33-1.15,.49-1.84,.49-.75,0-1.38-.17-1.89-.52-.51-.35-.88-.83-1.12-1.45l.34-2.09c0,.77,.2,1.39,.61,1.87s.94,.71,1.61,.71c.42,0,.8-.11,1.14-.33,.34-.22,.6-.52,.79-.92,.19-.39,.28-.83,.28-1.33s-.09-.95-.28-1.34c-.19-.39-.45-.69-.78-.9-.33-.21-.71-.32-1.14-.32-.68,0-1.21,.23-1.61,.69-.4,.46-.6,1.08-.6,1.87l-.34-2.16c.24-.62,.61-1.1,1.12-1.44,.51-.34,1.14-.51,1.89-.51Z"/>
      <path class="cls-3" d="M150.52,168.95h4.97v1.46h-4.97v-1.46Zm1.53-2.49h1.71v10.3h-1.71v-10.3Z"/>
    </g>
    <g>
      <path class="cls-3" d="M263.54,167.39h1.49v8.64h-1.49v-8.64Zm3.07,0c.68,0,1.27,.12,1.78,.36,.51,.24,.9,.59,1.19,1.05,.28,.46,.42,1,.42,1.62s-.14,1.16-.42,1.61-.68,.81-1.19,1.06c-.51,.25-1.1,.38-1.78,.38h-2.01v-1.41h1.79c.62,0,1.13-.14,1.5-.42s.57-.69,.57-1.22-.19-.94-.57-1.21-.88-.42-1.5-.42h-1.79v-1.41h2.01Zm.12,5.6h1.76l1.76,3.04h-1.76l-1.76-3.04Z"/>
      <path class="cls-3" d="M271.8,167.39h1.49v8.64h-1.49v-8.64Zm1.06,0h4.93v1.42h-4.93v-1.42Zm0,3.2h3.6v1.42h-3.6v-1.42Zm0,4.01h4.97v1.42h-4.97v-1.42Z"/>
      <path class="cls-3" d="M282.06,167.39h1.68l3.34,8.64h-1.55l-2.89-7.71h.46l-2.89,7.71h-1.5l3.35-8.64Zm-1.95,5.49h5.46v1.42h-5.46v-1.42Z"/>
      <path class="cls-3" d="M288.12,167.39h1.49v8.64h-1.49v-8.64Zm2.56,0c.96,0,1.79,.17,2.49,.51,.69,.34,1.22,.84,1.59,1.49,.37,.65,.55,1.42,.55,2.33s-.18,1.68-.55,2.33-.9,1.14-1.59,1.48c-.69,.34-1.52,.51-2.49,.51h-1.49v-1.38h1.42c.98,0,1.75-.26,2.31-.77,.56-.51,.84-1.24,.84-2.17s-.28-1.67-.84-2.17c-.56-.51-1.33-.76-2.31-.76h-1.42v-1.39h1.49Z"/>
      <path class="cls-3" d="M295.25,167.39h1.61l2.41,4.41h-.42l2.41-4.41h1.56l-3.24,5.96,.2-1.7v4.38h-1.48v-4.38l.19,1.7-3.23-5.96Z"/>
    </g>
  </g>
  <g>
    <path class="cls-2" d="M316.46,216.81H33.54c-6.11,0-11.07,4.96-11.07,11.07v38.35c0,6.11,4.96,11.07,11.07,11.07H316.46c6.11,0,11.07-4.96,11.07-11.07v-38.35c0-6.11-4.96-11.07-11.07-11.07Zm-.44,30.24c0,6.15-4.99,11.14-11.14,11.14h-44.43c-6.15,0-11.14-4.99-11.14-11.14h0c0-6.15,4.99-11.14,11.14-11.14h44.43c6.15,0,11.14,4.99,11.14,11.14h0Z"/>
    <rect class="cls-5" x="22.47" y="216.81" width="305.05" height="60.49" rx="11.07" ry="11.07"/>
    <g>
      <path class="cls-3" d="M38.7,241.74h1.97l2.52,8.78h-.76l2.76-8.78h2.11l2.67,8.78h-.76l2.62-8.78h1.9l-3.19,10.68h-1.93l-2.99-9.73h1.04l-3.07,9.73h-1.8l-3.1-10.68Z"/>
      <path class="cls-3" d="M57.41,244.46c.79,0,1.48,.17,2.08,.49,.59,.33,1.06,.79,1.39,1.39,.33,.6,.49,1.3,.49,2.1v.66h-7.27v-1.4h6.62l-1.13,.81v-.39c0-.42-.09-.79-.28-1.1-.19-.31-.44-.56-.77-.72-.33-.17-.7-.25-1.12-.25s-.76,.1-1.09,.29c-.33,.2-.59,.46-.77,.79-.19,.33-.28,.69-.28,1.07v.54c0,.43,.09,.81,.26,1.14,.18,.33,.43,.59,.76,.78,.33,.19,.72,.28,1.17,.28s.84-.07,1.16-.21c.31-.14,.55-.34,.71-.6h1.86c-.16,.48-.42,.9-.76,1.26-.35,.37-.78,.65-1.29,.85s-1.07,.3-1.69,.3c-.79,0-1.49-.17-2.09-.5-.6-.33-1.07-.81-1.4-1.42-.33-.61-.5-1.33-.5-2.14s.17-1.52,.49-2.13c.33-.61,.79-1.08,1.39-1.42,.6-.33,1.29-.5,2.07-.5Z"/>
      <path class="cls-3" d="M62.72,241.26h1.71v11.16h-1.71v-11.16Zm4.39,3.17c.7,0,1.31,.16,1.84,.49,.53,.32,.95,.8,1.25,1.42s.45,1.35,.45,2.19-.15,1.56-.45,2.18c-.3,.61-.72,1.09-1.25,1.41-.53,.33-1.15,.49-1.84,.49-.75,0-1.38-.17-1.89-.52-.51-.35-.88-.83-1.12-1.45l.34-2.09c0,.77,.2,1.39,.61,1.87s.94,.71,1.61,.71c.42,0,.8-.11,1.14-.33,.34-.22,.6-.52,.79-.92,.19-.39,.28-.83,.28-1.33s-.09-.95-.28-1.34c-.19-.39-.45-.69-.78-.9-.33-.21-.71-.32-1.14-.32-.68,0-1.21,.23-1.61,.69-.4,.46-.6,1.08-.6,1.87l-.34-2.16c.24-.62,.61-1.1,1.12-1.44,.51-.34,1.14-.51,1.89-.51Z"/>
      <path class="cls-3" d="M74.9,244.43c.64,0,1.2,.11,1.67,.34s.84,.53,1.09,.92c.25,.39,.38,.83,.38,1.31h-1.8c0-.29-.14-.54-.38-.74-.24-.2-.57-.29-.98-.29s-.71,.07-.92,.21c-.21,.14-.31,.32-.31,.55s.07,.42,.21,.54c.14,.12,.44,.23,.89,.31l1.1,.21c.57,.11,1.03,.29,1.38,.51s.6,.5,.75,.81,.23,.67,.23,1.07c0,.74-.28,1.33-.84,1.76-.56,.43-1.34,.64-2.33,.64-1.1,0-1.93-.25-2.52-.74-.58-.49-.87-1.13-.87-1.91h1.77c.02,.34,.17,.61,.44,.81s.7,.29,1.27,.29c.42,0,.74-.08,.96-.23,.22-.15,.33-.35,.33-.59,0-.27-.09-.47-.26-.62-.18-.14-.49-.26-.95-.34l-1.2-.23c-.75-.14-1.3-.42-1.64-.82-.34-.4-.51-.91-.51-1.51,0-.44,.12-.83,.35-1.18s.58-.62,1.04-.82c.46-.2,1.01-.3,1.66-.3Z"/>
      <path class="cls-3" d="M80.52,241.49c.32,0,.59,.11,.79,.31,.2,.21,.3,.47,.3,.77s-.1,.56-.3,.78c-.2,.21-.46,.32-.79,.32s-.59-.11-.79-.31c-.2-.21-.3-.47-.3-.79s.1-.56,.3-.77c.2-.21,.46-.31,.79-.31Zm0,3.22c.35,0,.64-.08,.86-.24v7.96h-1.71v-7.96c.24,.16,.52,.24,.86,.24Z"/>
      <path class="cls-3" d="M82.89,244.6h4.97v1.46h-4.97v-1.46Zm1.53-2.49h1.71v10.3h-1.71v-10.3Z"/>
      <path class="cls-3" d="M92.32,244.46c.79,0,1.48,.17,2.08,.49,.59,.33,1.06,.79,1.39,1.39,.33,.6,.49,1.3,.49,2.1v.66h-7.27v-1.4h6.62l-1.13,.81v-.39c0-.42-.09-.79-.28-1.1-.19-.31-.44-.56-.77-.72-.33-.17-.7-.25-1.12-.25s-.76,.1-1.09,.29c-.33,.2-.59,.46-.77,.79-.19,.33-.28,.69-.28,1.07v.54c0,.43,.09,.81,.26,1.14,.18,.33,.43,.59,.76,.78,.33,.19,.72,.28,1.17,.28s.84-.07,1.16-.21c.31-.14,.55-.34,.71-.6h1.86c-.16,.48-.42,.9-.76,1.26-.35,.37-.78,.65-1.29,.85s-1.07,.3-1.69,.3c-.79,0-1.49-.17-2.09-.5-.6-.33-1.07-.81-1.4-1.42-.33-.61-.5-1.33-.5-2.14s.17-1.52,.49-2.13c.33-.61,.79-1.08,1.39-1.42,.6-.33,1.29-.5,2.07-.5Z"/>
      <path class="cls-3" d="M106.54,244.46c.79,0,1.48,.17,2.08,.49,.59,.33,1.06,.79,1.39,1.39,.33,.6,.49,1.3,.49,2.1v.66h-7.27v-1.4h6.62l-1.13,.81v-.39c0-.42-.09-.79-.28-1.1-.19-.31-.44-.56-.77-.72-.33-.17-.7-.25-1.12-.25s-.76,.1-1.09,.29c-.33,.2-.59,.46-.77,.79-.19,.33-.28,.69-.28,1.07v.54c0,.43,.09,.81,.26,1.14,.18,.33,.43,.59,.76,.78,.33,.19,.72,.28,1.17,.28s.84-.07,1.16-.21c.31-.14,.55-.34,.71-.6h1.86c-.16,.48-.42,.9-.76,1.26-.35,.37-.78,.65-1.29,.85s-1.07,.3-1.69,.3c-.79,0-1.49-.17-2.09-.5-.6-.33-1.07-.81-1.4-1.42-.33-.61-.5-1.33-.5-2.14s.17-1.52,.49-2.13c.33-.61,.79-1.08,1.39-1.42,.6-.33,1.29-.5,2.07-.5Z"/>
      <path class="cls-3" d="M117.52,247.39l.31,1.37-2.92,.44c-.57,.09-.97,.22-1.19,.39-.22,.18-.33,.4-.33,.66,0,.2,.1,.36,.31,.49,.2,.12,.5,.19,.88,.19,.47,0,.89-.08,1.26-.24,.38-.16,.67-.38,.89-.67,.21-.29,.32-.6,.32-.96l.66,.23c0,.64-.13,1.2-.4,1.69-.27,.49-.66,.87-1.18,1.15-.52,.28-1.14,.41-1.87,.41-.81,0-1.45-.2-1.92-.59-.47-.39-.71-.92-.71-1.59s.23-1.2,.69-1.64,1.19-.75,2.18-.9l3-.46Zm-2.16-2.93c1.09,0,1.93,.3,2.52,.89s.89,1.42,.89,2.5v4.57h-1.71v-4.9c0-.48-.15-.84-.44-1.09-.3-.25-.71-.37-1.26-.37-.5,0-.89,.09-1.17,.28s-.43,.45-.48,.79h-1.76c.03-.49,.18-.93,.44-1.34,.27-.41,.65-.73,1.16-.97,.5-.24,1.11-.37,1.8-.37Z"/>
      <path class="cls-3" d="M123.31,244.43c.64,0,1.2,.11,1.67,.34s.84,.53,1.09,.92c.25,.39,.38,.83,.38,1.31h-1.8c0-.29-.14-.54-.38-.74-.24-.2-.57-.29-.98-.29s-.71,.07-.92,.21c-.21,.14-.31,.32-.31,.55s.07,.42,.21,.54c.14,.12,.44,.23,.89,.31l1.1,.21c.57,.11,1.03,.29,1.38,.51s.6,.5,.75,.81,.23,.67,.23,1.07c0,.74-.28,1.33-.84,1.76-.56,.43-1.34,.64-2.33,.64-1.1,0-1.93-.25-2.52-.74-.58-.49-.87-1.13-.87-1.91h1.77c.02,.34,.17,.61,.44,.81s.7,.29,1.27,.29c.42,0,.74-.08,.96-.23,.22-.15,.33-.35,.33-.59,0-.27-.09-.47-.26-.62-.18-.14-.49-.26-.95-.34l-1.2-.23c-.75-.14-1.3-.42-1.64-.82-.34-.4-.51-.91-.51-1.51,0-.44,.12-.83,.35-1.18s.58-.62,1.04-.82c.46-.2,1.01-.3,1.66-.3Z"/>
      <path class="cls-3" d="M127.55,244.6h4.97v1.46h-4.97v-1.46Zm1.53-2.49h1.71v10.3h-1.71v-10.3Z"/>
      <path class="cls-3" d="M136.98,244.46c.79,0,1.48,.17,2.08,.49,.59,.33,1.06,.79,1.39,1.39,.33,.6,.49,1.3,.49,2.1v.66h-7.27v-1.4h6.62l-1.13,.81v-.39c0-.42-.09-.79-.28-1.1-.19-.31-.44-.56-.77-.72-.33-.17-.7-.25-1.12-.25s-.76,.1-1.09,.29c-.33,.2-.59,.46-.77,.79-.19,.33-.28,.69-.28,1.07v.54c0,.43,.09,.81,.26,1.14,.18,.33,.43,.59,.76,.78,.33,.19,.72,.28,1.17,.28s.84-.07,1.16-.21c.31-.14,.55-.34,.71-.6h1.86c-.16,.48-.42,.9-.76,1.26-.35,.37-.78,.65-1.29,.85s-1.07,.3-1.69,.3c-.79,0-1.49-.17-2.09-.5-.6-.33-1.07-.81-1.4-1.42-.33-.61-.5-1.33-.5-2.14s.17-1.52,.49-2.13c.33-.61,.79-1.08,1.39-1.42,.6-.33,1.29-.5,2.07-.5Z"/>
      <path class="cls-3" d="M142.3,244.6h1.71v7.82h-1.71v-7.82Zm4.57-.17v1.82h-.67c-.48,0-.88,.09-1.2,.26-.32,.18-.57,.44-.74,.78s-.25,.76-.25,1.26l-.34-1.82c.15-.71,.5-1.26,1.03-1.68,.53-.42,1.26-.62,2.17-.62Z"/>
      <path class="cls-3" d="M157.06,244.46c.79,0,1.48,.17,2.08,.49,.59,.33,1.06,.79,1.39,1.39,.33,.6,.49,1.3,.49,2.1v.66h-7.27v-1.4h6.62l-1.13,.81v-.39c0-.42-.09-.79-.28-1.1-.19-.31-.44-.56-.77-.72-.33-.17-.7-.25-1.12-.25s-.76,.1-1.09,.29c-.33,.2-.59,.46-.77,.79-.19,.33-.28,.69-.28,1.07v.54c0,.43,.09,.81,.26,1.14,.18,.33,.43,.59,.76,.78,.33,.19,.72,.28,1.17,.28s.84-.07,1.16-.21c.31-.14,.55-.34,.71-.6h1.86c-.16,.48-.42,.9-.76,1.26-.35,.37-.78,.65-1.29,.85s-1.07,.3-1.69,.3c-.79,0-1.49-.17-2.09-.5-.6-.33-1.07-.81-1.4-1.42-.33-.61-.5-1.33-.5-2.14s.17-1.52,.49-2.13c.33-.61,.79-1.08,1.39-1.42,.6-.33,1.29-.5,2.07-.5Z"/>
      <path class="cls-3" d="M165.65,244.43c.75,0,1.38,.17,1.89,.51s.88,.82,1.13,1.44l-.36,1.94c0-.74-.2-1.33-.59-1.76s-.93-.65-1.61-.65c-.43,0-.81,.1-1.15,.3-.34,.2-.6,.48-.79,.85-.19,.37-.28,.79-.28,1.26s.09,.93,.28,1.32c.19,.38,.45,.67,.79,.88,.34,.21,.72,.31,1.15,.31,.68,0,1.21-.23,1.61-.68,.4-.45,.59-1.06,.59-1.82l.36,2.1c-.25,.61-.62,1.09-1.13,1.44s-1.13,.52-1.89,.52c-.71,0-1.32-.16-1.86-.48-.53-.32-.95-.78-1.25-1.39-.3-.61-.45-1.32-.45-2.14s.15-1.51,.45-2.11c.3-.6,.72-1.05,1.25-1.37,.53-.31,1.15-.47,1.86-.47Zm2.66,.17h1.71v8.4c0,.53-.1,.99-.31,1.37s-.5,.67-.89,.88-.85,.31-1.39,.31h-3.77v-1.47h3.52c.75,0,1.13-.37,1.13-1.1v-8.39Z"/>
      <path class="cls-3" d="M174.66,244.43c.75,0,1.38,.17,1.89,.51s.88,.82,1.13,1.44l-.36,1.94c0-.74-.2-1.33-.59-1.76s-.93-.65-1.61-.65c-.43,0-.81,.1-1.15,.3-.34,.2-.6,.48-.79,.85-.19,.37-.28,.79-.28,1.26s.09,.93,.28,1.32c.19,.38,.45,.67,.79,.88,.34,.21,.72,.31,1.15,.31,.68,0,1.21-.23,1.61-.68,.4-.45,.59-1.06,.59-1.82l.36,2.1c-.25,.61-.62,1.09-1.13,1.44s-1.13,.52-1.89,.52c-.71,0-1.32-.16-1.86-.48-.53-.32-.95-.78-1.25-1.39-.3-.61-.45-1.32-.45-2.14s.15-1.51,.45-2.11c.3-.6,.72-1.05,1.25-1.37,.53-.31,1.15-.47,1.86-.47Zm2.66,.17h1.71v8.4c0,.53-.1,.99-.31,1.37s-.5,.67-.89,.88-.85,.31-1.39,.31h-3.77v-1.47h3.52c.75,0,1.13-.37,1.13-1.1v-8.39Z"/>
      <path class="cls-3" d="M183.78,244.43c.64,0,1.2,.11,1.67,.34s.84,.53,1.09,.92c.25,.39,.38,.83,.38,1.31h-1.8c0-.29-.14-.54-.38-.74-.24-.2-.57-.29-.98-.29s-.71,.07-.92,.21c-.21,.14-.31,.32-.31,.55s.07,.42,.21,.54c.14,.12,.44,.23,.89,.31l1.1,.21c.57,.11,1.03,.29,1.38,.51s.6,.5,.75,.81,.23,.67,.23,1.07c0,.74-.28,1.33-.84,1.76-.56,.43-1.34,.64-2.33,.64-1.1,0-1.93-.25-2.52-.74-.58-.49-.87-1.13-.87-1.91h1.77c.02,.34,.17,.61,.44,.81s.7,.29,1.27,.29c.42,0,.74-.08,.96-.23,.22-.15,.33-.35,.33-.59,0-.27-.09-.47-.26-.62-.18-.14-.49-.26-.95-.34l-1.2-.23c-.75-.14-1.3-.42-1.64-.82-.34-.4-.51-.91-.51-1.51,0-.44,.12-.83,.35-1.18s.58-.62,1.04-.82c.46-.2,1.01-.3,1.66-.3Z"/>
    </g>
    <g>
      <path class="cls-3" d="M263.54,243.04h1.49v8.64h-1.49v-8.64Zm3.07,0c.68,0,1.27,.12,1.78,.36,.51,.24,.9,.59,1.19,1.05,.28,.46,.42,1,.42,1.62s-.14,1.16-.42,1.61-.68,.81-1.19,1.06c-.51,.25-1.1,.38-1.78,.38h-2.01v-1.41h1.79c.62,0,1.13-.14,1.5-.42s.57-.69,.57-1.22-.19-.94-.57-1.21-.88-.42-1.5-.42h-1.79v-1.41h2.01Zm.12,5.6h1.76l1.76,3.04h-1.76l-1.76-3.04Z"/>
      <path class="cls-3" d="M271.8,243.04h1.49v8.64h-1.49v-8.64Zm1.06,0h4.93v1.42h-4.93v-1.42Zm0,3.2h3.6v1.42h-3.6v-1.42Zm0,4.01h4.97v1.42h-4.97v-1.42Z"/>
      <path class="cls-3" d="M282.06,243.04h1.68l3.34,8.64h-1.55l-2.89-7.71h.46l-2.89,7.71h-1.5l3.35-8.64Zm-1.95,5.49h5.46v1.42h-5.46v-1.42Z"/>
      <path class="cls-3" d="M288.12,243.04h1.49v8.64h-1.49v-8.64Zm2.56,0c.96,0,1.79,.17,2.49,.51,.69,.34,1.22,.84,1.59,1.49,.37,.65,.55,1.42,.55,2.33s-.18,1.68-.55,2.33-.9,1.14-1.59,1.48c-.69,.34-1.52,.51-2.49,.51h-1.49v-1.38h1.42c.98,0,1.75-.26,2.31-.77,.56-.51,.84-1.24,.84-2.17s-.28-1.67-.84-2.17c-.56-.51-1.33-.76-2.31-.76h-1.42v-1.39h1.49Z"/>
      <path class="cls-3" d="M295.25,243.04h1.61l2.41,4.41h-.42l2.41-4.41h1.56l-3.24,5.96,.2-1.7v4.38h-1.48v-4.38l.19,1.7-3.23-5.96Z"/>
    </g>
  </g>
  <g>
    <path class="cls-2" d="M316.46,292.46H33.54c-6.11,0-11.07,4.96-11.07,11.07v38.35c0,6.11,4.96,11.07,11.07,11.07H316.46c6.11,0,11.07-4.96,11.07-11.07v-38.35c0-6.11-4.96-11.07-11.07-11.07Zm-.44,30.24c0,6.15-4.99,11.14-11.14,11.14h-44.43c-6.15,0-11.14-4.99-11.14-11.14h0c0-6.15,4.99-11.14,11.14-11.14h44.43c6.15,0,11.14,4.99,11.14,11.14h0Z"/>
    <rect class="cls-5" x="22.47" y="292.46" width="305.05" height="60.49" rx="11.07" ry="11.07"/>
    <g>
      <path class="cls-3" d="M39.99,317.39h1.84v10.68h-1.84v-10.68Zm3.16,0c1.19,0,2.21,.21,3.07,.64s1.51,1.04,1.97,1.84c.45,.8,.68,1.76,.68,2.87s-.23,2.07-.68,2.87c-.45,.8-1.11,1.41-1.97,1.83-.86,.42-1.88,.63-3.07,.63h-1.84v-1.7h1.76c1.21,0,2.16-.32,2.85-.95,.69-.63,1.04-1.53,1.04-2.68s-.35-2.06-1.04-2.69c-.69-.63-1.64-.94-2.85-.94h-1.76v-1.71h1.84Z"/>
      <path class="cls-3" d="M50.36,320.25h1.71v7.82h-1.71v-7.82Zm4.57-.17v1.82h-.67c-.48,0-.88,.09-1.2,.26-.32,.18-.57,.44-.74,.78s-.25,.76-.25,1.26l-.34-1.82c.15-.71,.5-1.26,1.03-1.68,.53-.42,1.26-.62,2.17-.62Z"/>
      <path class="cls-3" d="M59.32,320.11c.79,0,1.48,.17,2.08,.49,.59,.33,1.06,.79,1.39,1.39,.33,.6,.49,1.3,.49,2.1v.66h-7.27v-1.4h6.62l-1.13,.81v-.39c0-.42-.09-.79-.28-1.1-.19-.31-.44-.56-.77-.72-.33-.17-.7-.25-1.12-.25s-.76,.1-1.09,.29c-.33,.2-.59,.46-.77,.79-.19,.33-.28,.69-.28,1.07v.54c0,.43,.09,.81,.26,1.14,.18,.33,.43,.59,.76,.78,.33,.19,.72,.28,1.17,.28s.84-.07,1.16-.21c.31-.14,.55-.34,.71-.6h1.86c-.16,.48-.42,.9-.76,1.26-.35,.37-.78,.65-1.29,.85s-1.07,.3-1.69,.3c-.79,0-1.49-.17-2.09-.5-.6-.33-1.07-.81-1.4-1.42-.33-.61-.5-1.33-.5-2.14s.17-1.52,.49-2.13c.33-.61,.79-1.08,1.39-1.42,.6-.33,1.29-.5,2.07-.5Z"/>
      <path class="cls-3" d="M70.3,323.04l.31,1.37-2.92,.44c-.57,.09-.97,.22-1.19,.39-.22,.18-.33,.4-.33,.66,0,.2,.1,.36,.31,.49,.2,.12,.5,.19,.88,.19,.47,0,.89-.08,1.26-.24,.38-.16,.67-.38,.89-.67,.21-.29,.32-.6,.32-.96l.66,.23c0,.64-.13,1.2-.4,1.69-.27,.49-.66,.87-1.18,1.15-.52,.28-1.14,.41-1.87,.41-.81,0-1.45-.2-1.92-.59-.47-.39-.71-.92-.71-1.59s.23-1.2,.69-1.64,1.19-.75,2.18-.9l3-.46Zm-2.16-2.93c1.09,0,1.93,.3,2.52,.89s.89,1.42,.89,2.5v4.57h-1.71v-4.9c0-.48-.15-.84-.44-1.09-.3-.25-.71-.37-1.26-.37-.5,0-.89,.09-1.17,.28s-.43,.45-.48,.79h-1.76c.03-.49,.18-.93,.44-1.34,.27-.41,.65-.73,1.16-.97,.5-.24,1.11-.37,1.8-.37Z"/>
      <path class="cls-3" d="M73.2,320.25h1.71v7.82h-1.71v-7.82Zm3.84-.17c.56,0,1.06,.14,1.49,.41s.77,.67,1.01,1.2c.24,.53,.36,1.16,.36,1.89v4.49h-1.71v-4.1c0-.74-.15-1.32-.44-1.71-.3-.4-.7-.6-1.2-.6-.31,0-.6,.09-.84,.28-.25,.19-.44,.45-.58,.8s-.21,.75-.21,1.22l-.26-2.01c.12-.54,.39-.99,.81-1.34,.42-.35,.94-.52,1.57-.52Zm4.84,0c.59,0,1.11,.14,1.56,.43,.45,.29,.8,.7,1.05,1.24,.25,.54,.37,1.19,.37,1.93v4.39h-1.71v-4.1c0-.74-.15-1.32-.44-1.71-.29-.4-.69-.6-1.19-.6-.31,0-.6,.09-.84,.28-.25,.19-.44,.45-.58,.8-.14,.35-.21,.75-.21,1.22l-.6-2.14c.2-.51,.53-.93,.98-1.25,.45-.32,.99-.48,1.61-.48Z"/>
      <path class="cls-3" d="M91.28,320.25h1.81l2.32,6.37h-.29l2.32-6.37h1.79l-2.96,7.82h-2.01l-2.97-7.82Z"/>
      <path class="cls-3" d="M105.46,323.04l.31,1.37-2.92,.44c-.57,.09-.97,.22-1.19,.39-.22,.18-.33,.4-.33,.66,0,.2,.1,.36,.31,.49,.2,.12,.5,.19,.88,.19,.47,0,.89-.08,1.26-.24,.38-.16,.67-.38,.89-.67,.21-.29,.32-.6,.32-.96l.66,.23c0,.64-.13,1.2-.4,1.69-.27,.49-.66,.87-1.18,1.15-.52,.28-1.14,.41-1.87,.41-.81,0-1.45-.2-1.92-.59-.47-.39-.71-.92-.71-1.59s.23-1.2,.69-1.64,1.19-.75,2.18-.9l3-.46Zm-2.16-2.93c1.09,0,1.93,.3,2.52,.89s.89,1.42,.89,2.5v4.57h-1.71v-4.9c0-.48-.15-.84-.44-1.09-.3-.25-.71-.37-1.26-.37-.5,0-.89,.09-1.17,.28s-.43,.45-.48,.79h-1.76c.03-.49,.18-.93,.44-1.34,.27-.41,.65-.73,1.16-.97,.5-.24,1.11-.37,1.8-.37Z"/>
      <path class="cls-3" d="M111.95,320.08c.69,0,1.3,.14,1.86,.42s.99,.65,1.32,1.12c.33,.47,.51,.99,.54,1.55h-1.82c-.03-.29-.13-.56-.31-.81-.18-.24-.4-.43-.68-.57-.28-.14-.58-.21-.91-.21-.42,0-.79,.1-1.12,.31s-.58,.51-.76,.9c-.18,.39-.27,.85-.27,1.37s.09,.98,.27,1.37c.18,.39,.43,.69,.76,.9,.32,.21,.7,.31,1.12,.31,.33,0,.64-.07,.91-.21,.28-.14,.5-.33,.68-.57,.18-.24,.28-.51,.31-.81h1.82c-.03,.56-.21,1.08-.54,1.55-.33,.47-.77,.85-1.32,1.12s-1.17,.41-1.86,.41c-.8,0-1.5-.17-2.09-.5s-1.05-.81-1.37-1.43c-.32-.62-.49-1.34-.49-2.16s.16-1.55,.48-2.17c.32-.62,.78-1.09,1.37-1.42,.59-.33,1.29-.5,2.09-.5Z"/>
      <path class="cls-3" d="M122.67,323.04l.31,1.37-2.92,.44c-.57,.09-.97,.22-1.19,.39-.22,.18-.33,.4-.33,.66,0,.2,.1,.36,.31,.49,.2,.12,.5,.19,.88,.19,.47,0,.89-.08,1.26-.24,.38-.16,.67-.38,.89-.67,.21-.29,.32-.6,.32-.96l.66,.23c0,.64-.13,1.2-.4,1.69-.27,.49-.66,.87-1.18,1.15-.52,.28-1.14,.41-1.87,.41-.81,0-1.45-.2-1.92-.59-.47-.39-.71-.92-.71-1.59s.23-1.2,.69-1.64,1.19-.75,2.18-.9l3-.46Zm-2.16-2.93c1.09,0,1.93,.3,2.52,.89s.89,1.42,.89,2.5v4.57h-1.71v-4.9c0-.48-.15-.84-.44-1.09-.3-.25-.71-.37-1.26-.37-.5,0-.89,.09-1.17,.28s-.43,.45-.48,.79h-1.76c.03-.49,.18-.93,.44-1.34,.27-.41,.65-.73,1.16-.97,.5-.24,1.11-.37,1.8-.37Z"/>
      <path class="cls-3" d="M125.14,320.25h4.97v1.46h-4.97v-1.46Zm1.53-2.49h1.71v10.3h-1.71v-10.3Z"/>
      <path class="cls-3" d="M132.41,317.14c.32,0,.59,.11,.79,.31,.2,.21,.3,.47,.3,.77s-.1,.56-.3,.78c-.2,.21-.46,.32-.79,.32s-.59-.11-.79-.31c-.2-.21-.3-.47-.3-.79s.1-.56,.3-.77c.2-.21,.46-.31,.79-.31Zm0,3.22c.35,0,.64-.08,.86-.24v7.96h-1.71v-7.96c.24,.16,.52,.24,.86,.24Z"/>
      <path class="cls-3" d="M138.49,320.08c.82,0,1.54,.18,2.15,.54s1.08,.85,1.41,1.47c.32,.62,.49,1.32,.49,2.08s-.16,1.46-.49,2.08c-.32,.62-.79,1.12-1.41,1.47-.61,.36-1.33,.54-2.15,.54s-1.55-.18-2.16-.54c-.61-.36-1.08-.84-1.41-1.46-.33-.62-.49-1.31-.49-2.09s.17-1.47,.49-2.09c.33-.62,.8-1.11,1.41-1.46,.61-.36,1.33-.54,2.16-.54Zm0,1.64c-.46,0-.86,.1-1.19,.3-.34,.2-.6,.48-.79,.85-.19,.37-.28,.8-.28,1.29s.09,.93,.28,1.29c.19,.37,.45,.65,.79,.85,.34,.2,.74,.3,1.19,.3s.84-.1,1.18-.3,.6-.49,.79-.86c.19-.37,.28-.8,.28-1.29s-.09-.92-.28-1.29c-.19-.37-.45-.66-.79-.86-.34-.2-.73-.3-1.18-.3Z"/>
      <path class="cls-3" d="M143.82,320.25h1.71v7.82h-1.71v-7.82Zm4.07-.17c.59,0,1.11,.14,1.55,.42,.44,.28,.79,.69,1.04,1.23,.25,.54,.37,1.19,.37,1.95v4.39h-1.71v-4.07c0-.71-.16-1.27-.48-1.67-.32-.4-.75-.59-1.28-.59-.35,0-.67,.09-.95,.28-.28,.19-.5,.45-.66,.79-.16,.34-.24,.73-.24,1.18l-.26-2.04c.13-.53,.43-.98,.9-1.33,.47-.35,1.04-.53,1.71-.53Z"/>
    </g>
    <g>
      <path class="cls-3" d="M263.54,318.69h1.49v8.64h-1.49v-8.64Zm3.07,0c.68,0,1.27,.12,1.78,.36,.51,.24,.9,.59,1.19,1.05,.28,.46,.42,1,.42,1.62s-.14,1.16-.42,1.61-.68,.81-1.19,1.06c-.51,.25-1.1,.38-1.78,.38h-2.01v-1.41h1.79c.62,0,1.13-.14,1.5-.42s.57-.69,.57-1.22-.19-.94-.57-1.21-.88-.42-1.5-.42h-1.79v-1.41h2.01Zm.12,5.6h1.76l1.76,3.04h-1.76l-1.76-3.04Z"/>
      <path class="cls-3" d="M271.8,318.69h1.49v8.64h-1.49v-8.64Zm1.06,0h4.93v1.42h-4.93v-1.42Zm0,3.2h3.6v1.42h-3.6v-1.42Zm0,4.01h4.97v1.42h-4.97v-1.42Z"/>
      <path class="cls-3" d="M282.06,318.69h1.68l3.34,8.64h-1.55l-2.89-7.71h.46l-2.89,7.71h-1.5l3.35-8.64Zm-1.95,5.49h5.46v1.42h-5.46v-1.42Z"/>
      <path class="cls-3" d="M288.12,318.69h1.49v8.64h-1.49v-8.64Zm2.56,0c.96,0,1.79,.17,2.49,.51,.69,.34,1.22,.84,1.59,1.49,.37,.65,.55,1.42,.55,2.33s-.18,1.68-.55,2.33-.9,1.14-1.59,1.48c-.69,.34-1.52,.51-2.49,.51h-1.49v-1.38h1.42c.98,0,1.75-.26,2.31-.77,.56-.51,.84-1.24,.84-2.17s-.28-1.67-.84-2.17c-.56-.51-1.33-.76-2.31-.76h-1.42v-1.39h1.49Z"/>
      <path class="cls-3" d="M295.25,318.69h1.61l2.41,4.41h-.42l2.41-4.41h1.56l-3.24,5.96,.2-1.7v4.38h-1.48v-4.38l.19,1.7-3.23-5.96Z"/>
    </g>
  </g>
  <g>
    <path class="cls-2" d="M316.46,368.11H33.54c-6.11,0-11.07,4.96-11.07,11.07v38.35c0,6.11,4.96,11.07,11.07,11.07H316.46c6.11,0,11.07-4.96,11.07-11.07v-38.35c0-6.11-4.96-11.07-11.07-11.07Zm-.44,30.24c0,6.15-4.99,11.14-11.14,11.14h-44.43c-6.15,0-11.14-4.99-11.14-11.14h0c0-6.15,4.99-11.14,11.14-11.14h44.43c6.15,0,11.14,4.99,11.14,11.14h0Z"/>
    <rect class="cls-5" x="22.47" y="368.11" width="305.05" height="60.49" rx="11.07" ry="11.07"/>
    <g>
      <path class="cls-3" d="M38.99,393.04h8.58v1.74h-8.58v-1.74Zm3.36,.14h1.84v10.53h-1.84v-10.53Z"/>
      <path class="cls-3" d="M53.01,398.69l.31,1.37-2.92,.44c-.57,.09-.97,.22-1.19,.39-.22,.18-.33,.4-.33,.66,0,.2,.1,.36,.31,.49,.2,.12,.5,.19,.88,.19,.47,0,.89-.08,1.26-.24,.38-.16,.67-.38,.89-.67,.21-.29,.32-.6,.32-.96l.66,.23c0,.64-.13,1.2-.4,1.69-.27,.49-.66,.87-1.18,1.15-.52,.28-1.14,.41-1.87,.41-.81,0-1.45-.2-1.92-.59-.47-.39-.71-.92-.71-1.59s.23-1.2,.69-1.64,1.19-.75,2.18-.9l3-.46Zm-2.16-2.93c1.09,0,1.93,.3,2.52,.89s.89,1.42,.89,2.5v4.57h-1.71v-4.9c0-.48-.15-.84-.44-1.09-.3-.25-.71-.37-1.26-.37-.5,0-.89,.09-1.17,.28s-.43,.45-.48,.79h-1.76c.03-.49,.18-.93,.44-1.34,.27-.41,.65-.73,1.16-.97,.5-.24,1.11-.37,1.8-.37Z"/>
      <path class="cls-3" d="M56.05,392.56h1.71v11.16h-1.71v-11.16Zm4.92,3.37h2.03l-4.23,4.22-.47-1.33,4.8,4.9h-2.04l-3.94-3.9-.04-.03,3.9-3.86Z"/>
      <path class="cls-3" d="M66.77,395.76c.79,0,1.48,.17,2.08,.49,.59,.33,1.06,.79,1.39,1.39,.33,.6,.49,1.3,.49,2.1v.66h-7.27v-1.4h6.62l-1.13,.81v-.39c0-.42-.09-.79-.28-1.1-.19-.31-.44-.56-.77-.72-.33-.17-.7-.25-1.12-.25s-.76,.1-1.09,.29c-.33,.2-.59,.46-.77,.79-.19,.33-.28,.69-.28,1.07v.54c0,.43,.09,.81,.26,1.14,.18,.33,.43,.59,.76,.78,.33,.19,.72,.28,1.17,.28s.84-.07,1.16-.21c.31-.14,.55-.34,.71-.6h1.86c-.16,.48-.42,.9-.76,1.26-.35,.37-.78,.65-1.29,.85s-1.07,.3-1.69,.3c-.79,0-1.49-.17-2.09-.5-.6-.33-1.07-.81-1.4-1.42-.33-.61-.5-1.33-.5-2.14s.17-1.52,.49-2.13c.33-.61,.79-1.08,1.39-1.42,.6-.33,1.29-.5,2.07-.5Z"/>
      <path class="cls-3" d="M80.98,395.73c.69,0,1.3,.14,1.86,.42s.99,.65,1.32,1.12c.33,.47,.51,.99,.54,1.55h-1.82c-.03-.29-.13-.56-.31-.81-.18-.24-.4-.43-.68-.57-.28-.14-.58-.21-.91-.21-.42,0-.79,.1-1.12,.31s-.58,.51-.76,.9c-.18,.39-.27,.85-.27,1.37s.09,.98,.27,1.37c.18,.39,.43,.69,.76,.9,.32,.21,.7,.31,1.12,.31,.33,0,.64-.07,.91-.21,.28-.14,.5-.33,.68-.57,.18-.24,.28-.51,.31-.81h1.82c-.03,.56-.21,1.08-.54,1.55-.33,.47-.77,.85-1.32,1.12s-1.17,.41-1.86,.41c-.8,0-1.5-.17-2.09-.5s-1.05-.81-1.37-1.43c-.32-.62-.49-1.34-.49-2.16s.16-1.55,.48-2.17c.32-.62,.78-1.09,1.37-1.42,.59-.33,1.29-.5,2.09-.5Z"/>
      <path class="cls-3" d="M89.59,395.73c.82,0,1.54,.18,2.15,.54s1.08,.85,1.41,1.47c.32,.62,.49,1.32,.49,2.08s-.16,1.46-.49,2.08c-.32,.62-.79,1.12-1.41,1.47-.61,.36-1.33,.54-2.15,.54s-1.55-.18-2.16-.54c-.61-.36-1.08-.84-1.41-1.46-.33-.62-.49-1.31-.49-2.09s.17-1.47,.49-2.09c.33-.62,.8-1.11,1.41-1.46,.61-.36,1.33-.54,2.16-.54Zm0,1.64c-.46,0-.86,.1-1.19,.3-.34,.2-.6,.48-.79,.85-.19,.37-.28,.8-.28,1.29s.09,.93,.28,1.29c.19,.37,.45,.65,.79,.85,.34,.2,.74,.3,1.19,.3s.84-.1,1.18-.3,.6-.49,.79-.86c.19-.37,.28-.8,.28-1.29s-.09-.92-.28-1.29c-.19-.37-.45-.66-.79-.86-.34-.2-.73-.3-1.18-.3Z"/>
      <path class="cls-3" d="M98.55,395.73c.82,0,1.54,.18,2.15,.54s1.08,.85,1.41,1.47c.32,.62,.49,1.32,.49,2.08s-.16,1.46-.49,2.08c-.32,.62-.79,1.12-1.41,1.47-.61,.36-1.33,.54-2.15,.54s-1.55-.18-2.16-.54c-.61-.36-1.08-.84-1.41-1.46-.33-.62-.49-1.31-.49-2.09s.17-1.47,.49-2.09c.33-.62,.8-1.11,1.41-1.46,.61-.36,1.33-.54,2.16-.54Zm0,1.64c-.46,0-.86,.1-1.19,.3-.34,.2-.6,.48-.79,.85-.19,.37-.28,.8-.28,1.29s.09,.93,.28,1.29c.19,.37,.45,.65,.79,.85,.34,.2,.74,.3,1.19,.3s.84-.1,1.18-.3,.6-.49,.79-.86c.19-.37,.28-.8,.28-1.29s-.09-.92-.28-1.29c-.19-.37-.45-.66-.79-.86-.34-.2-.73-.3-1.18-.3Z"/>
      <path class="cls-3" d="M103.81,392.56h1.71v11.16h-1.71v-11.16Zm4.92,3.37h2.03l-4.23,4.22-.47-1.33,4.8,4.9h-2.04l-3.94-3.9-.04-.03,3.9-3.86Z"/>
      <path class="cls-3" d="M112.3,392.79c.32,0,.59,.11,.79,.31,.2,.21,.3,.47,.3,.77s-.1,.56-.3,.78c-.2,.21-.46,.32-.79,.32s-.59-.11-.79-.31c-.2-.21-.3-.47-.3-.79s.1-.56,.3-.77c.2-.21,.46-.31,.79-.31Zm0,3.22c.35,0,.64-.08,.86-.24v7.96h-1.71v-7.96c.24,.16,.52,.24,.86,.24Z"/>
      <path class="cls-3" d="M114.96,395.9h1.71v7.82h-1.71v-7.82Zm4.07-.17c.59,0,1.11,.14,1.55,.42,.44,.28,.79,.69,1.04,1.23,.25,.54,.37,1.19,.37,1.95v4.39h-1.71v-4.07c0-.71-.16-1.27-.48-1.67-.32-.4-.75-.59-1.28-.59-.35,0-.67,.09-.95,.28-.28,.19-.5,.45-.66,.79-.16,.34-.24,.73-.24,1.18l-.26-2.04c.13-.53,.43-.98,.9-1.33,.47-.35,1.04-.53,1.71-.53Z"/>
      <path class="cls-3" d="M126.77,395.73c.75,0,1.38,.17,1.89,.51s.88,.82,1.13,1.44l-.36,1.94c0-.74-.2-1.33-.59-1.76s-.93-.65-1.61-.65c-.43,0-.81,.1-1.15,.3-.34,.2-.6,.48-.79,.85-.19,.37-.28,.79-.28,1.26s.09,.93,.28,1.32c.19,.38,.45,.67,.79,.88,.34,.21,.72,.31,1.15,.31,.68,0,1.21-.23,1.61-.68,.4-.45,.59-1.06,.59-1.82l.36,2.1c-.25,.61-.62,1.09-1.13,1.44s-1.13,.52-1.89,.52c-.71,0-1.32-.16-1.86-.48-.53-.32-.95-.78-1.25-1.39-.3-.61-.45-1.32-.45-2.14s.15-1.51,.45-2.11c.3-.6,.72-1.05,1.25-1.37,.53-.31,1.15-.47,1.86-.47Zm2.66,.17h1.71v8.4c0,.53-.1,.99-.31,1.37s-.5,.67-.89,.88-.85,.31-1.39,.31h-3.77v-1.47h3.52c.75,0,1.13-.37,1.13-1.1v-8.39Z"/>
      <path class="cls-3" d="M141.74,395.73c.69,0,1.3,.14,1.86,.42s.99,.65,1.32,1.12c.33,.47,.51,.99,.54,1.55h-1.82c-.03-.29-.13-.56-.31-.81-.18-.24-.4-.43-.68-.57-.28-.14-.58-.21-.91-.21-.42,0-.79,.1-1.12,.31s-.58,.51-.76,.9c-.18,.39-.27,.85-.27,1.37s.09,.98,.27,1.37c.18,.39,.43,.69,.76,.9,.32,.21,.7,.31,1.12,.31,.33,0,.64-.07,.91-.21,.28-.14,.5-.33,.68-.57,.18-.24,.28-.51,.31-.81h1.82c-.03,.56-.21,1.08-.54,1.55-.33,.47-.77,.85-1.32,1.12s-1.17,.41-1.86,.41c-.8,0-1.5-.17-2.09-.5s-1.05-.81-1.37-1.43c-.32-.62-.49-1.34-.49-2.16s.16-1.55,.48-2.17c.32-.62,.78-1.09,1.37-1.42,.59-.33,1.29-.5,2.09-.5Z"/>
      <path class="cls-3" d="M146.66,392.56h1.71v11.16h-1.71v-11.16Z"/>
      <path class="cls-3" d="M155.82,398.69l.31,1.37-2.92,.44c-.57,.09-.97,.22-1.19,.39-.22,.18-.33,.4-.33,.66,0,.2,.1,.36,.31,.49,.2,.12,.5,.19,.88,.19,.47,0,.89-.08,1.26-.24,.38-.16,.67-.38,.89-.67,.21-.29,.32-.6,.32-.96l.66,.23c0,.64-.13,1.2-.4,1.69-.27,.49-.66,.87-1.18,1.15-.52,.28-1.14,.41-1.87,.41-.81,0-1.45-.2-1.92-.59-.47-.39-.71-.92-.71-1.59s.23-1.2,.69-1.64,1.19-.75,2.18-.9l3-.46Zm-2.16-2.93c1.09,0,1.93,.3,2.52,.89s.89,1.42,.89,2.5v4.57h-1.71v-4.9c0-.48-.15-.84-.44-1.09-.3-.25-.71-.37-1.26-.37-.5,0-.89,.09-1.17,.28s-.43,.45-.48,.79h-1.76c.03-.49,.18-.93,.44-1.34,.27-.41,.65-.73,1.16-.97,.5-.24,1.11-.37,1.8-.37Z"/>
      <path class="cls-3" d="M161.61,395.73c.64,0,1.2,.11,1.67,.34s.84,.53,1.09,.92c.25,.39,.38,.83,.38,1.31h-1.8c0-.29-.14-.54-.38-.74-.24-.2-.57-.29-.98-.29s-.71,.07-.92,.21c-.21,.14-.31,.32-.31,.55s.07,.42,.21,.54c.14,.12,.44,.23,.89,.31l1.1,.21c.57,.11,1.03,.29,1.38,.51s.6,.5,.75,.81,.23,.67,.23,1.07c0,.74-.28,1.33-.84,1.76-.56,.43-1.34,.64-2.33,.64-1.1,0-1.93-.25-2.52-.74-.58-.49-.87-1.13-.87-1.91h1.77c.02,.34,.17,.61,.44,.81s.7,.29,1.27,.29c.42,0,.74-.08,.96-.23,.22-.15,.33-.35,.33-.59,0-.27-.09-.47-.26-.62-.18-.14-.49-.26-.95-.34l-1.2-.23c-.75-.14-1.3-.42-1.64-.82-.34-.4-.51-.91-.51-1.51,0-.44,.12-.83,.35-1.18s.58-.62,1.04-.82c.46-.2,1.01-.3,1.66-.3Z"/>
      <path class="cls-3" d="M169.1,395.73c.64,0,1.2,.11,1.67,.34s.84,.53,1.09,.92c.25,.39,.38,.83,.38,1.31h-1.8c0-.29-.14-.54-.38-.74-.24-.2-.57-.29-.98-.29s-.71,.07-.92,.21c-.21,.14-.31,.32-.31,.55s.07,.42,.21,.54c.14,.12,.44,.23,.89,.31l1.1,.21c.57,.11,1.03,.29,1.38,.51s.6,.5,.75,.81,.23,.67,.23,1.07c0,.74-.28,1.33-.84,1.76-.56,.43-1.34,.64-2.33,.64-1.1,0-1.93-.25-2.52-.74-.58-.49-.87-1.13-.87-1.91h1.77c.02,.34,.17,.61,.44,.81s.7,.29,1.27,.29c.42,0,.74-.08,.96-.23,.22-.15,.33-.35,.33-.59,0-.27-.09-.47-.26-.62-.18-.14-.49-.26-.95-.34l-1.2-.23c-.75-.14-1.3-.42-1.64-.82-.34-.4-.51-.91-.51-1.51,0-.44,.12-.83,.35-1.18s.58-.62,1.04-.82c.46-.2,1.01-.3,1.66-.3Z"/>
    </g>
    <g>
      <path class="cls-3" d="M263.54,394.34h1.49v8.64h-1.49v-8.64Zm3.07,0c.68,0,1.27,.12,1.78,.36,.51,.24,.9,.59,1.19,1.05,.28,.46,.42,1,.42,1.62s-.14,1.16-.42,1.61-.68,.81-1.19,1.06c-.51,.25-1.1,.38-1.78,.38h-2.01v-1.41h1.79c.62,0,1.13-.14,1.5-.42s.57-.69,.57-1.22-.19-.94-.57-1.21-.88-.42-1.5-.42h-1.79v-1.41h2.01Zm.12,5.6h1.76l1.76,3.04h-1.76l-1.76-3.04Z"/>
      <path class="cls-3" d="M271.8,394.34h1.49v8.64h-1.49v-8.64Zm1.06,0h4.93v1.42h-4.93v-1.42Zm0,3.2h3.6v1.42h-3.6v-1.42Zm0,4.01h4.97v1.42h-4.97v-1.42Z"/>
      <path class="cls-3" d="M282.06,394.34h1.68l3.34,8.64h-1.55l-2.89-7.71h.46l-2.89,7.71h-1.5l3.35-8.64Zm-1.95,5.49h5.46v1.42h-5.46v-1.42Z"/>
      <path class="cls-3" d="M288.12,394.34h1.49v8.64h-1.49v-8.64Zm2.56,0c.96,0,1.79,.17,2.49,.51,.69,.34,1.22,.84,1.59,1.49,.37,.65,.55,1.42,.55,2.33s-.18,1.68-.55,2.33-.9,1.14-1.59,1.48c-.69,.34-1.52,.51-2.49,.51h-1.49v-1.38h1.42c.98,0,1.75-.26,2.31-.77,.56-.51,.84-1.24,.84-2.17s-.28-1.67-.84-2.17c-.56-.51-1.33-.76-2.31-.76h-1.42v-1.39h1.49Z"/>
      <path class="cls-3" d="M295.25,394.34h1.61l2.41,4.41h-.42l2.41-4.41h1.56l-3.24,5.96,.2-1.7v4.38h-1.48v-4.38l.19,1.7-3.23-5.96Z"/>
    </g>
  </g>
  <g>
    <path class="cls-2" d="M316.46,443.76H33.54c-6.11,0-11.07,4.96-11.07,11.07v38.35c0,6.11,4.96,11.07,11.07,11.07H316.46c6.11,0,11.07-4.96,11.07-11.07v-38.35c0-6.11-4.96-11.07-11.07-11.07Zm-.44,30.24c0,6.15-4.99,11.14-11.14,11.14h-44.43c-6.15,0-11.14-4.99-11.14-11.14h0c0-6.15,4.99-11.14,11.14-11.14h44.43c6.15,0,11.14,4.99,11.14,11.14h0Z"/>
    <rect class="cls-5" x="22.47" y="443.76" width="305.05" height="60.49" rx="11.07" ry="11.07"/>
    <g>
      <path class="cls-3" d="M44.32,468.55c.93,0,1.75,.19,2.46,.57,.71,.38,1.26,.87,1.64,1.48,.38,.61,.59,1.26,.61,1.96h-1.96c-.04-.39-.17-.76-.4-1.1-.23-.34-.55-.62-.95-.83-.4-.21-.87-.31-1.41-.31-.57,0-1.08,.14-1.54,.43-.45,.29-.81,.71-1.07,1.27-.26,.56-.39,1.24-.39,2.03s.13,1.45,.39,2.02,.62,.99,1.08,1.28c.46,.29,.97,.44,1.53,.44,.53,0,1-.1,1.41-.31,.41-.21,.72-.49,.95-.83,.23-.34,.36-.71,.4-1.1h1.96c-.03,.69-.23,1.33-.61,1.94-.38,.61-.92,1.1-1.63,1.48-.71,.38-1.52,.56-2.44,.56-.97,0-1.83-.21-2.57-.64s-1.32-1.06-1.74-1.88c-.42-.82-.62-1.81-.62-2.95s.21-2.13,.61-2.95c.41-.82,.99-1.45,1.73-1.89,.74-.43,1.6-.65,2.56-.65Z"/>
      <path class="cls-3" d="M50.68,471.55h1.71v7.82h-1.71v-7.82Zm4.57-.17v1.82h-.67c-.48,0-.88,.09-1.2,.26-.32,.18-.57,.44-.74,.78s-.25,.76-.25,1.26l-.34-1.82c.15-.71,.5-1.26,1.03-1.68,.53-.42,1.26-.62,2.17-.62Z"/>
      <path class="cls-3" d="M59.64,471.41c.79,0,1.48,.17,2.08,.49,.59,.33,1.06,.79,1.39,1.39,.33,.6,.49,1.3,.49,2.1v.66h-7.27v-1.4h6.62l-1.13,.81v-.39c0-.42-.09-.79-.28-1.1-.19-.31-.44-.56-.77-.72-.33-.17-.7-.25-1.12-.25s-.76,.1-1.09,.29c-.33,.2-.59,.46-.77,.79-.19,.33-.28,.69-.28,1.07v.54c0,.43,.09,.81,.26,1.14,.18,.33,.43,.59,.76,.78,.33,.19,.72,.28,1.17,.28s.84-.07,1.16-.21c.31-.14,.55-.34,.71-.6h1.86c-.16,.48-.42,.9-.76,1.26-.35,.37-.78,.65-1.29,.85s-1.07,.3-1.69,.3c-.79,0-1.49-.17-2.09-.5-.6-.33-1.07-.81-1.4-1.42-.33-.61-.5-1.33-.5-2.14s.17-1.52,.49-2.13c.33-.61,.79-1.08,1.39-1.42,.6-.33,1.29-.5,2.07-.5Z"/>
      <path class="cls-3" d="M70.61,474.34l.31,1.37-2.92,.44c-.57,.09-.97,.22-1.19,.39-.22,.18-.33,.4-.33,.66,0,.2,.1,.36,.31,.49,.2,.12,.5,.19,.88,.19,.47,0,.89-.08,1.26-.24,.38-.16,.67-.38,.89-.67,.21-.29,.32-.6,.32-.96l.66,.23c0,.64-.13,1.2-.4,1.69-.27,.49-.66,.87-1.18,1.15-.52,.28-1.14,.41-1.87,.41-.81,0-1.45-.2-1.92-.59-.47-.39-.71-.92-.71-1.59s.23-1.2,.69-1.64,1.19-.75,2.18-.9l3-.46Zm-2.16-2.93c1.09,0,1.93,.3,2.52,.89s.89,1.42,.89,2.5v4.57h-1.71v-4.9c0-.48-.15-.84-.44-1.09-.3-.25-.71-.37-1.26-.37-.5,0-.89,.09-1.17,.28s-.43,.45-.48,.79h-1.76c.03-.49,.18-.93,.44-1.34,.27-.41,.65-.73,1.16-.97,.5-.24,1.11-.37,1.8-.37Z"/>
      <path class="cls-3" d="M73.09,471.55h4.97v1.46h-4.97v-1.46Zm1.53-2.49h1.71v10.3h-1.71v-10.3Z"/>
      <path class="cls-3" d="M82.52,471.41c.79,0,1.48,.17,2.08,.49,.59,.33,1.06,.79,1.39,1.39,.33,.6,.49,1.3,.49,2.1v.66h-7.27v-1.4h6.62l-1.13,.81v-.39c0-.42-.09-.79-.28-1.1-.19-.31-.44-.56-.77-.72-.33-.17-.7-.25-1.12-.25s-.76,.1-1.09,.29c-.33,.2-.59,.46-.77,.79-.19,.33-.28,.69-.28,1.07v.54c0,.43,.09,.81,.26,1.14,.18,.33,.43,.59,.76,.78,.33,.19,.72,.28,1.17,.28s.84-.07,1.16-.21c.31-.14,.55-.34,.71-.6h1.86c-.16,.48-.42,.9-.76,1.26-.35,.37-.78,.65-1.29,.85s-1.07,.3-1.69,.3c-.79,0-1.49-.17-2.09-.5-.6-.33-1.07-.81-1.4-1.42-.33-.61-.5-1.33-.5-2.14s.17-1.52,.49-2.13c.33-.61,.79-1.08,1.39-1.42,.6-.33,1.29-.5,2.07-.5Z"/>
      <path class="cls-3" d="M96.31,471.38c.74,0,1.37,.17,1.87,.51s.87,.82,1.11,1.44l-.34,2.09c0-.79-.2-1.42-.59-1.87-.4-.46-.92-.69-1.58-.69-.43,0-.81,.11-1.14,.31-.33,.21-.59,.51-.77,.89-.19,.39-.28,.84-.28,1.35s.09,.96,.28,1.35c.19,.39,.44,.68,.77,.89,.33,.21,.71,.31,1.14,.31,.66,0,1.18-.23,1.58-.69,.39-.46,.59-1.08,.59-1.87l.34,2.16c-.24,.62-.61,1.1-1.11,1.45s-1.12,.52-1.87,.52c-.7,0-1.31-.16-1.84-.49-.53-.33-.95-.8-1.24-1.41-.29-.62-.44-1.34-.44-2.18s.15-1.57,.44-2.19,.71-1.09,1.24-1.42c.53-.32,1.15-.49,1.84-.49Zm2.63-3.17h1.71v11.16h-1.71v-11.16Z"/>
      <path class="cls-3" d="M105.83,471.41c.79,0,1.48,.17,2.08,.49,.59,.33,1.06,.79,1.39,1.39,.33,.6,.49,1.3,.49,2.1v.66h-7.27v-1.4h6.62l-1.13,.81v-.39c0-.42-.09-.79-.28-1.1-.19-.31-.44-.56-.77-.72-.33-.17-.7-.25-1.12-.25s-.76,.1-1.09,.29c-.33,.2-.59,.46-.77,.79-.19,.33-.28,.69-.28,1.07v.54c0,.43,.09,.81,.26,1.14,.18,.33,.43,.59,.76,.78,.33,.19,.72,.28,1.17,.28s.84-.07,1.16-.21c.31-.14,.55-.34,.71-.6h1.86c-.16,.48-.42,.9-.76,1.26-.35,.37-.78,.65-1.29,.85s-1.07,.3-1.69,.3c-.79,0-1.49-.17-2.09-.5-.6-.33-1.07-.81-1.4-1.42-.33-.61-.5-1.33-.5-2.14s.17-1.52,.49-2.13c.33-.61,.79-1.08,1.39-1.42,.6-.33,1.29-.5,2.07-.5Z"/>
      <path class="cls-3" d="M113.96,471.38c.64,0,1.2,.11,1.67,.34s.84,.53,1.09,.92c.25,.39,.38,.83,.38,1.31h-1.8c0-.29-.14-.54-.38-.74-.24-.2-.57-.29-.98-.29s-.71,.07-.92,.21c-.21,.14-.31,.32-.31,.55s.07,.42,.21,.54c.14,.12,.44,.23,.89,.31l1.1,.21c.57,.11,1.03,.29,1.38,.51s.6,.5,.75,.81,.23,.67,.23,1.07c0,.74-.28,1.33-.84,1.76-.56,.43-1.34,.64-2.33,.64-1.1,0-1.93-.25-2.52-.74-.58-.49-.87-1.13-.87-1.91h1.77c.02,.34,.17,.61,.44,.81s.7,.29,1.27,.29c.42,0,.74-.08,.96-.23,.22-.15,.33-.35,.33-.59,0-.27-.09-.47-.26-.62-.18-.14-.49-.26-.95-.34l-1.2-.23c-.75-.14-1.3-.42-1.64-.82-.34-.4-.51-.91-.51-1.51,0-.44,.12-.83,.35-1.18s.58-.62,1.04-.82c.46-.2,1.01-.3,1.66-.3Z"/>
      <path class="cls-3" d="M119.58,468.44c.32,0,.59,.11,.79,.31,.2,.21,.3,.47,.3,.77s-.1,.56-.3,.78c-.2,.21-.46,.32-.79,.32s-.59-.11-.79-.31c-.2-.21-.3-.47-.3-.79s.1-.56,.3-.77c.2-.21,.46-.31,.79-.31Zm0,3.22c.35,0,.64-.08,.86-.24v7.96h-1.71v-7.96c.24,.16,.52,.24,.86,.24Z"/>
      <path class="cls-3" d="M125.29,471.38c.75,0,1.38,.17,1.89,.51s.88,.82,1.13,1.44l-.36,1.94c0-.74-.2-1.33-.59-1.76s-.93-.65-1.61-.65c-.43,0-.81,.1-1.15,.3-.34,.2-.6,.48-.79,.85-.19,.37-.28,.79-.28,1.26s.09,.93,.28,1.32c.19,.38,.45,.67,.79,.88,.34,.21,.72,.31,1.15,.31,.68,0,1.21-.23,1.61-.68,.4-.45,.59-1.06,.59-1.82l.36,2.1c-.25,.61-.62,1.09-1.13,1.44s-1.13,.52-1.89,.52c-.71,0-1.32-.16-1.86-.48-.53-.32-.95-.78-1.25-1.39-.3-.61-.45-1.32-.45-2.14s.15-1.51,.45-2.11c.3-.6,.72-1.05,1.25-1.37,.53-.31,1.15-.47,1.86-.47Zm2.66,.17h1.71v8.4c0,.53-.1,.99-.31,1.37s-.5,.67-.89,.88-.85,.31-1.39,.31h-3.77v-1.47h3.52c.75,0,1.13-.37,1.13-1.1v-8.39Z"/>
      <path class="cls-3" d="M131.38,471.55h1.71v7.82h-1.71v-7.82Zm4.07-.17c.59,0,1.11,.14,1.55,.42,.44,.28,.79,.69,1.04,1.23,.25,.54,.37,1.19,.37,1.95v4.39h-1.71v-4.07c0-.71-.16-1.27-.48-1.67-.32-.4-.75-.59-1.28-.59-.35,0-.67,.09-.95,.28-.28,.19-.5,.45-.66,.79-.16,.34-.24,.73-.24,1.18l-.26-2.04c.13-.53,.43-.98,.9-1.33,.47-.35,1.04-.53,1.71-.53Z"/>
      <path class="cls-3" d="M148.39,471.38c.64,0,1.2,.11,1.67,.34s.84,.53,1.09,.92c.25,.39,.38,.83,.38,1.31h-1.8c0-.29-.14-.54-.38-.74-.24-.2-.57-.29-.98-.29s-.71,.07-.92,.21c-.21,.14-.31,.32-.31,.55s.07,.42,.21,.54c.14,.12,.44,.23,.89,.31l1.1,.21c.57,.11,1.03,.29,1.38,.51s.6,.5,.75,.81,.23,.67,.23,1.07c0,.74-.28,1.33-.84,1.76-.56,.43-1.34,.64-2.33,.64-1.1,0-1.93-.25-2.52-.74-.58-.49-.87-1.13-.87-1.91h1.77c.02,.34,.17,.61,.44,.81s.7,.29,1.27,.29c.42,0,.74-.08,.96-.23,.22-.15,.33-.35,.33-.59,0-.27-.09-.47-.26-.62-.18-.14-.49-.26-.95-.34l-1.2-.23c-.75-.14-1.3-.42-1.64-.82-.34-.4-.51-.91-.51-1.51,0-.44,.12-.83,.35-1.18s.58-.62,1.04-.82c.46-.2,1.01-.3,1.66-.3Z"/>
      <path class="cls-3" d="M152.42,471.55h1.73l2.49,6.17-.92,2-3.3-8.17Zm6.17,0h1.67l-4.36,10.4h-1.67l4.36-10.4Z"/>
      <path class="cls-3" d="M163.94,471.38c.64,0,1.2,.11,1.67,.34s.84,.53,1.09,.92c.25,.39,.38,.83,.38,1.31h-1.8c0-.29-.14-.54-.38-.74-.24-.2-.57-.29-.98-.29s-.71,.07-.92,.21c-.21,.14-.31,.32-.31,.55s.07,.42,.21,.54c.14,.12,.44,.23,.89,.31l1.1,.21c.57,.11,1.03,.29,1.38,.51s.6,.5,.75,.81,.23,.67,.23,1.07c0,.74-.28,1.33-.84,1.76-.56,.43-1.34,.64-2.33,.64-1.1,0-1.93-.25-2.52-.74-.58-.49-.87-1.13-.87-1.91h1.77c.02,.34,.17,.61,.44,.81s.7,.29,1.27,.29c.42,0,.74-.08,.96-.23,.22-.15,.33-.35,.33-.59,0-.27-.09-.47-.26-.62-.18-.14-.49-.26-.95-.34l-1.2-.23c-.75-.14-1.3-.42-1.64-.82-.34-.4-.51-.91-.51-1.51,0-.44,.12-.83,.35-1.18s.58-.62,1.04-.82c.46-.2,1.01-.3,1.66-.3Z"/>
      <path class="cls-3" d="M168.18,471.55h4.97v1.46h-4.97v-1.46Zm1.53-2.49h1.71v10.3h-1.71v-10.3Z"/>
      <path class="cls-3" d="M177.62,471.41c.79,0,1.48,.17,2.08,.49,.59,.33,1.06,.79,1.39,1.39,.33,.6,.49,1.3,.49,2.1v.66h-7.27v-1.4h6.62l-1.13,.81v-.39c0-.42-.09-.79-.28-1.1-.19-.31-.44-.56-.77-.72-.33-.17-.7-.25-1.12-.25s-.76,.1-1.09,.29c-.33,.2-.59,.46-.77,.79-.19,.33-.28,.69-.28,1.07v.54c0,.43,.09,.81,.26,1.14,.18,.33,.43,.59,.76,.78,.33,.19,.72,.28,1.17,.28s.84-.07,1.16-.21c.31-.14,.55-.34,.71-.6h1.86c-.16,.48-.42,.9-.76,1.26-.35,.37-.78,.65-1.29,.85s-1.07,.3-1.69,.3c-.79,0-1.49-.17-2.09-.5-.6-.33-1.07-.81-1.4-1.42-.33-.61-.5-1.33-.5-2.14s.17-1.52,.49-2.13c.33-.61,.79-1.08,1.39-1.42,.6-.33,1.29-.5,2.07-.5Z"/>
      <path class="cls-3" d="M182.93,471.55h1.71v7.82h-1.71v-7.82Zm3.84-.17c.56,0,1.06,.14,1.49,.41s.77,.67,1.01,1.2c.24,.53,.36,1.16,.36,1.89v4.49h-1.71v-4.1c0-.74-.15-1.32-.44-1.71-.3-.4-.7-.6-1.2-.6-.31,0-.6,.09-.84,.28-.25,.19-.44,.45-.58,.8s-.21,.75-.21,1.22l-.26-2.01c.12-.54,.39-.99,.81-1.34,.42-.35,.94-.52,1.57-.52Zm4.84,0c.59,0,1.11,.14,1.56,.43,.45,.29,.8,.7,1.05,1.24,.25,.54,.37,1.19,.37,1.93v4.39h-1.71v-4.1c0-.74-.15-1.32-.44-1.71-.29-.4-.69-.6-1.19-.6-.31,0-.6,.09-.84,.28-.25,.19-.44,.45-.58,.8-.14,.35-.21,.75-.21,1.22l-.6-2.14c.2-.51,.53-.93,.98-1.25,.45-.32,.99-.48,1.61-.48Z"/>
    </g>
    <g>
      <path class="cls-3" d="M263.54,469.99h1.49v8.64h-1.49v-8.64Zm3.07,0c.68,0,1.27,.12,1.78,.36,.51,.24,.9,.59,1.19,1.05,.28,.46,.42,1,.42,1.62s-.14,1.16-.42,1.61-.68,.81-1.19,1.06c-.51,.25-1.1,.38-1.78,.38h-2.01v-1.41h1.79c.62,0,1.13-.14,1.5-.42s.57-.69,.57-1.22-.19-.94-.57-1.21-.88-.42-1.5-.42h-1.79v-1.41h2.01Zm.12,5.6h1.76l1.76,3.04h-1.76l-1.76-3.04Z"/>
      <path class="cls-3" d="M271.8,469.99h1.49v8.64h-1.49v-8.64Zm1.06,0h4.93v1.42h-4.93v-1.42Zm0,3.2h3.6v1.42h-3.6v-1.42Zm0,4.01h4.97v1.42h-4.97v-1.42Z"/>
      <path class="cls-3" d="M282.06,469.99h1.68l3.34,8.64h-1.55l-2.89-7.71h.46l-2.89,7.71h-1.5l3.35-8.64Zm-1.95,5.49h5.46v1.42h-5.46v-1.42Z"/>
      <path class="cls-3" d="M288.12,469.99h1.49v8.64h-1.49v-8.64Zm2.56,0c.96,0,1.79,.17,2.49,.51,.69,.34,1.22,.84,1.59,1.49,.37,.65,.55,1.42,.55,2.33s-.18,1.68-.55,2.33-.9,1.14-1.59,1.48c-.69,.34-1.52,.51-2.49,.51h-1.49v-1.38h1.42c.98,0,1.75-.26,2.31-.77,.56-.51,.84-1.24,.84-2.17s-.28-1.67-.84-2.17c-.56-.51-1.33-.76-2.31-.76h-1.42v-1.39h1.49Z"/>
      <path class="cls-3" d="M295.25,469.99h1.61l2.41,4.41h-.42l2.41-4.41h1.56l-3.24,5.96,.2-1.7v4.38h-1.48v-4.38l.19,1.7-3.23-5.96Z"/>
    </g>
  </g>
  <g>
    <path class="cls-2" d="M316.46,519.41H33.54c-6.11,0-11.07,4.96-11.07,11.07v38.35c0,6.11,4.96,11.07,11.07,11.07H316.46c6.11,0,11.07-4.96,11.07-11.07v-38.35c0-6.11-4.96-11.07-11.07-11.07Zm-.44,30.24c0,6.15-4.99,11.14-11.14,11.14h-44.43c-6.15,0-11.14-4.99-11.14-11.14h0c0-6.15,4.99-11.14,11.14-11.14h44.43c6.15,0,11.14,4.99,11.14,11.14h0Z"/>
    <rect class="cls-5" x="22.47" y="519.41" width="305.05" height="60.49" rx="11.07" ry="11.07"/>
    <g>
      <path class="cls-3" d="M38.7,544.34h1.97l2.52,8.78h-.76l2.76-8.78h2.11l2.67,8.78h-.76l2.62-8.78h1.9l-3.19,10.68h-1.93l-2.99-9.73h1.04l-3.07,9.73h-1.8l-3.1-10.68Z"/>
      <path class="cls-3" d="M59.61,549.99l.31,1.37-2.92,.44c-.57,.09-.97,.22-1.19,.39-.22,.18-.33,.4-.33,.66,0,.2,.1,.36,.31,.49,.2,.12,.5,.19,.88,.19,.47,0,.89-.08,1.26-.24,.38-.16,.67-.38,.89-.67,.21-.29,.32-.6,.32-.96l.66,.23c0,.64-.13,1.2-.4,1.69-.27,.49-.66,.87-1.18,1.15-.52,.28-1.14,.41-1.87,.41-.81,0-1.45-.2-1.92-.59-.47-.39-.71-.92-.71-1.59s.23-1.2,.69-1.64,1.19-.75,2.18-.9l3-.46Zm-2.16-2.93c1.09,0,1.93,.3,2.52,.89s.89,1.42,.89,2.5v4.57h-1.71v-4.9c0-.48-.15-.84-.44-1.09-.3-.25-.71-.37-1.26-.37-.5,0-.89,.09-1.17,.28s-.43,.45-.48,.79h-1.76c.03-.49,.18-.93,.44-1.34,.27-.41,.65-.73,1.16-.97,.5-.24,1.11-.37,1.8-.37Z"/>
      <path class="cls-3" d="M62.08,547.2h4.97v1.46h-4.97v-1.46Zm1.53-2.49h1.71v10.3h-1.71v-10.3Z"/>
      <path class="cls-3" d="M71.5,547.03c.69,0,1.3,.14,1.86,.42s.99,.65,1.32,1.12c.33,.47,.51,.99,.54,1.55h-1.82c-.03-.29-.13-.56-.31-.81-.18-.24-.4-.43-.68-.57-.28-.14-.58-.21-.91-.21-.42,0-.79,.1-1.12,.31s-.58,.51-.76,.9c-.18,.39-.27,.85-.27,1.37s.09,.98,.27,1.37c.18,.39,.43,.69,.76,.9,.32,.21,.7,.31,1.12,.31,.33,0,.64-.07,.91-.21,.28-.14,.5-.33,.68-.57,.18-.24,.28-.51,.31-.81h1.82c-.03,.56-.21,1.08-.54,1.55-.33,.47-.77,.85-1.32,1.12s-1.17,.41-1.86,.41c-.8,0-1.5-.17-2.09-.5s-1.05-.81-1.37-1.43c-.32-.62-.49-1.34-.49-2.16s.16-1.55,.48-2.17c.32-.62,.78-1.09,1.37-1.42,.59-.33,1.29-.5,2.09-.5Z"/>
      <path class="cls-3" d="M76.59,543.86h1.72v11.16h-1.72v-11.16Zm4.07,3.17c.59,0,1.11,.14,1.55,.42s.79,.69,1.04,1.23c.25,.54,.37,1.19,.37,1.95v4.39h-1.71v-4.07c0-.71-.16-1.27-.48-1.67s-.75-.59-1.28-.59c-.35,0-.67,.09-.94,.28-.28,.19-.49,.45-.65,.79-.16,.34-.24,.73-.24,1.18l-.27-2.04c.13-.53,.43-.98,.9-1.33s1.04-.53,1.71-.53Z"/>
      <path class="cls-3" d="M91.32,547.56c-.38,0-.68-.14-.9-.42-.22-.28-.33-.66-.33-1.14,0-1.09,.56-1.83,1.67-2.2l.26-.09,.3,.87-.26,.08c-.39,.12-.66,.29-.82,.49-.16,.21-.24,.48-.24,.84v.39h-.59c0-.24,.09-.44,.26-.6,.17-.16,.4-.24,.7-.24s.55,.1,.74,.29,.29,.42,.29,.7c0,.3-.1,.55-.3,.74s-.46,.29-.79,.29Zm2.86,0c-.38,0-.68-.14-.9-.42-.22-.28-.33-.66-.33-1.14,0-1.09,.56-1.83,1.67-2.2l.26-.09,.3,.87-.26,.08c-.39,.12-.66,.29-.82,.49-.16,.21-.24,.48-.24,.84v.39h-.59c0-.24,.09-.44,.26-.6,.17-.16,.4-.24,.7-.24s.55,.1,.74,.29c.19,.19,.29,.42,.29,.7,0,.3-.1,.55-.3,.74s-.46,.29-.79,.29Z"/>
      <path class="cls-3" d="M96.27,544.34h8.58v1.74h-8.58v-1.74Zm3.36,.14h1.84v10.53h-1.84v-10.53Z"/>
      <path class="cls-3" d="M106.01,543.86h1.72v11.16h-1.72v-11.16Zm4.07,3.17c.59,0,1.11,.14,1.55,.42s.79,.69,1.04,1.23c.25,.54,.37,1.19,.37,1.95v4.39h-1.71v-4.07c0-.71-.16-1.27-.48-1.67s-.75-.59-1.28-.59c-.35,0-.67,.09-.94,.28-.28,.19-.49,.45-.65,.79-.16,.34-.24,.73-.24,1.18l-.27-2.04c.13-.53,.43-.98,.9-1.33s1.04-.53,1.71-.53Z"/>
      <path class="cls-3" d="M118.18,547.06c.79,0,1.48,.17,2.08,.49,.59,.33,1.06,.79,1.39,1.39,.33,.6,.49,1.3,.49,2.1v.66h-7.27v-1.4h6.62l-1.13,.81v-.39c0-.42-.09-.79-.28-1.1-.19-.31-.44-.56-.77-.72-.33-.17-.7-.25-1.12-.25s-.76,.1-1.09,.29c-.33,.2-.59,.46-.77,.79-.19,.33-.28,.69-.28,1.07v.54c0,.43,.09,.81,.26,1.14,.18,.33,.43,.59,.76,.78,.33,.19,.72,.28,1.17,.28s.84-.07,1.16-.21c.31-.14,.55-.34,.71-.6h1.86c-.16,.48-.42,.9-.76,1.26-.35,.37-.78,.65-1.29,.85s-1.07,.3-1.69,.3c-.79,0-1.49-.17-2.09-.5-.6-.33-1.07-.81-1.4-1.42-.33-.61-.5-1.33-.5-2.14s.17-1.52,.49-2.13c.33-.61,.79-1.08,1.39-1.42,.6-.33,1.29-.5,2.07-.5Z"/>
      <path class="cls-3" d="M128.01,544.34h1.97l2.52,8.78h-.76l2.76-8.78h2.11l2.67,8.78h-.76l2.62-8.78h1.9l-3.19,10.68h-1.93l-2.99-9.73h1.04l-3.07,9.73h-1.8l-3.1-10.68Z"/>
      <path class="cls-3" d="M145.13,544.09c.32,0,.59,.11,.79,.31,.2,.21,.3,.47,.3,.77s-.1,.56-.3,.78c-.2,.21-.46,.32-.79,.32s-.59-.11-.79-.31c-.2-.21-.3-.47-.3-.79s.1-.56,.3-.77c.2-.21,.46-.31,.79-.31Zm0,3.22c.35,0,.64-.08,.86-.24v7.96h-1.71v-7.96c.24,.16,.52,.24,.86,.24Z"/>
      <path class="cls-3" d="M147.79,547.2h1.71v7.82h-1.71v-7.82Zm4.57-.17v1.82h-.67c-.48,0-.88,.09-1.2,.26-.32,.18-.57,.44-.74,.78s-.25,.76-.25,1.26l-.34-1.82c.15-.71,.5-1.26,1.03-1.68,.53-.42,1.26-.62,2.17-.62Z"/>
      <path class="cls-3" d="M156.75,547.06c.79,0,1.48,.17,2.08,.49,.59,.33,1.06,.79,1.39,1.39,.33,.6,.49,1.3,.49,2.1v.66h-7.27v-1.4h6.62l-1.13,.81v-.39c0-.42-.09-.79-.28-1.1-.19-.31-.44-.56-.77-.72-.33-.17-.7-.25-1.12-.25s-.76,.1-1.09,.29c-.33,.2-.59,.46-.77,.79-.19,.33-.28,.69-.28,1.07v.54c0,.43,.09,.81,.26,1.14,.18,.33,.43,.59,.76,.78,.33,.19,.72,.28,1.17,.28s.84-.07,1.16-.21c.31-.14,.55-.34,.71-.6h1.86c-.16,.48-.42,.9-.76,1.26-.35,.37-.78,.65-1.29,.85s-1.07,.3-1.69,.3c-.79,0-1.49-.17-2.09-.5-.6-.33-1.07-.81-1.4-1.42-.33-.61-.5-1.33-.5-2.14s.17-1.52,.49-2.13c.33-.61,.79-1.08,1.39-1.42,.6-.33,1.29-.5,2.07-.5Z"/>
      <path class="cls-3" d="M162.29,543.72c.38,0,.68,.14,.9,.41,.22,.28,.33,.66,.33,1.14,0,1.1-.56,1.83-1.67,2.2l-.26,.09-.3-.87,.26-.09c.39-.12,.66-.29,.82-.49,.16-.2,.24-.48,.24-.84v-.39h.59c0,.24-.09,.44-.26,.6-.17,.16-.4,.24-.7,.24s-.55-.09-.74-.29-.29-.42-.29-.7c0-.31,.1-.55,.3-.74s.46-.29,.79-.29Zm2.86,0c.38,0,.68,.14,.9,.41,.22,.28,.33,.66,.33,1.14,0,1.1-.56,1.83-1.67,2.2l-.26,.09-.3-.87,.26-.09c.39-.12,.66-.29,.82-.49,.16-.2,.24-.48,.24-.84v-.39h.59c0,.24-.09,.44-.26,.6-.17,.16-.4,.24-.7,.24s-.55-.09-.74-.29-.29-.42-.29-.7c0-.31,.1-.55,.3-.74s.46-.29,.79-.29Z"/>
    </g>
    <g>
      <path class="cls-3" d="M263.54,545.64h1.49v8.64h-1.49v-8.64Zm3.07,0c.68,0,1.27,.12,1.78,.36,.51,.24,.9,.59,1.19,1.05,.28,.46,.42,1,.42,1.62s-.14,1.16-.42,1.61-.68,.81-1.19,1.06c-.51,.25-1.1,.38-1.78,.38h-2.01v-1.41h1.79c.62,0,1.13-.14,1.5-.42s.57-.69,.57-1.22-.19-.94-.57-1.21-.88-.42-1.5-.42h-1.79v-1.41h2.01Zm.12,5.6h1.76l1.76,3.04h-1.76l-1.76-3.04Z"/>
      <path class="cls-3" d="M271.8,545.64h1.49v8.64h-1.49v-8.64Zm1.06,0h4.93v1.42h-4.93v-1.42Zm0,3.2h3.6v1.42h-3.6v-1.42Zm0,4.01h4.97v1.42h-4.97v-1.42Z"/>
      <path class="cls-3" d="M282.06,545.64h1.68l3.34,8.64h-1.55l-2.89-7.71h.46l-2.89,7.71h-1.5l3.35-8.64Zm-1.95,5.49h5.46v1.42h-5.46v-1.42Z"/>
      <path class="cls-3" d="M288.12,545.64h1.49v8.64h-1.49v-8.64Zm2.56,0c.96,0,1.79,.17,2.49,.51,.69,.34,1.22,.84,1.59,1.49,.37,.65,.55,1.42,.55,2.33s-.18,1.68-.55,2.33-.9,1.14-1.59,1.48c-.69,.34-1.52,.51-2.49,.51h-1.49v-1.38h1.42c.98,0,1.75-.26,2.31-.77,.56-.51,.84-1.24,.84-2.17s-.28-1.67-.84-2.17c-.56-.51-1.33-.76-2.31-.76h-1.42v-1.39h1.49Z"/>
      <path class="cls-3" d="M295.25,545.64h1.61l2.41,4.41h-.42l2.41-4.41h1.56l-3.24,5.96,.2-1.7v4.38h-1.48v-4.38l.19,1.7-3.23-5.96Z"/>
    </g>
  </g>
</svg>